<?xml version="1.0" encoding="UTF-8" standalone="no"?>
<svg
   version="1.1"
   viewBox="0 0 1945 1078"
   id="svg14"
   sodipodi:docname="footer-background.svg"
   inkscape:export-filename="footer-background.png"
   inkscape:export-xdpi="96"
   inkscape:export-ydpi="96"
   inkscape:version="1.2.2 (732a01da63, 2022-12-09)"
   xmlns:inkscape="http://www.inkscape.org/namespaces/inkscape"
   xmlns:sodipodi="http://sodipodi.sourceforge.net/DTD/sodipodi-0.dtd"
   xmlns="http://www.w3.org/2000/svg"
   xmlns:svg="http://www.w3.org/2000/svg">
  <defs
     id="defs18" />
  <sodipodi:namedview
     id="namedview16"
     pagecolor="#ffffff"
     bordercolor="#000000"
     borderopacity="0.25"
     inkscape:showpageshadow="2"
     inkscape:pageopacity="0.0"
     inkscape:pagecheckerboard="0"
     inkscape:deskcolor="#d1d1d1"
     showgrid="false"
     inkscape:zoom="0.21892393"
     inkscape:cx="975.22458"
     inkscape:cy="539"
     inkscape:window-width="1280"
     inkscape:window-height="961"
     inkscape:window-x="-8"
     inkscape:window-y="-8"
     inkscape:window-maximized="1"
     inkscape:current-layer="svg14" />
  <g
     stroke-width="2.00"
     fill="none"
     stroke-linecap="butt"
     id="g6">
    <path
       stroke="#2177d0"
       vector-effect="non-scaling-stroke"
       d="   M 1945.00 490.31   L 1944.80 504.43   Q 1944.80 504.95 1944.43 504.59   Q 1944.17 504.33 1944.27 503.99   Q 1944.90 501.75 1944.04 504.01   L 1943.80 504.67   Q 1943.65 505.07 1943.22 505.07   L 2.64 505.07   Q 2.00 505.07 1.68 504.52   L 1.33 503.94   Q 0.97 503.34 1.00 504.03   Q 1.02 504.39 1.00 504.74   Q 0.75 508.84 0.75 504.75   L 0.75 491.01   Q 0.75 490.66 0.44 490.51   C 0.32 490.45 0.09 462.01 0.00 459.19"
       id="path2" />
    <path
       stroke="#1c7cdf"
       vector-effect="non-scaling-stroke"
       d="   M 1945.00 634.31   L 1944.17 669.63   Q 1944.16 670.05 1943.74 670.05   C 1929.03 670.17 1913.58 669.62 1899.68 669.62   Q 962.66 669.60 25.64 669.62   C 19.96 669.62 11.12 670.19 3.81 669.79   Q 2.55 669.72 1.31 670.83   Q 0.94 671.16 0.93 670.66   L 0.03 602.19"
       id="path4" />
  </g>
  <path
     fill="#2375c9"
     d="   M 1945.00 68.81   L 1945.00 490.31   L 1944.80 504.43   Q 1944.80 504.95 1944.43 504.59   Q 1944.17 504.33 1944.27 503.99   Q 1944.90 501.75 1944.04 504.01   L 1943.80 504.67   Q 1943.65 505.07 1943.22 505.07   L 2.64 505.07   Q 2.00 505.07 1.68 504.52   L 1.33 503.94   Q 0.97 503.34 1.00 504.03   Q 1.02 504.39 1.00 504.74   Q 0.75 508.84 0.75 504.75   L 0.75 491.01   Q 0.75 490.66 0.44 490.51   C 0.32 490.45 0.09 462.01 0.00 459.19   L 0.00 39.69   Q 0.16 39.56 0.26 39.34   Q 0.41 38.99 0.76 39.13   Q 39.72 54.51 79.45 67.77   C 278.24 134.10 488.26 166.17 697.81 163.61   C 812.85 162.20 931.06 150.72 1041.19 128.70   Q 1135.14 109.92 1200.01 99.32   C 1445.57 59.20 1696.40 46.47 1944.12 68.17   Q 1944.47 68.20 1944.70 68.46   L 1945.00 68.81   Z"
     id="path8" />
  <path
     fill="#1e79d7"
     d="   M 0.00 459.19   C 0.09 462.01 0.32 490.45 0.44 490.51   Q 0.75 490.66 0.75 491.01   L 0.75 504.75   Q 0.75 508.84 1.00 504.74   Q 1.02 504.39 1.00 504.03   Q 0.97 503.34 1.33 503.94   L 1.68 504.52   Q 2.00 505.07 2.64 505.07   L 1943.22 505.07   Q 1943.65 505.07 1943.80 504.67   L 1944.04 504.01   Q 1944.90 501.75 1944.27 503.99   Q 1944.17 504.33 1944.43 504.59   Q 1944.80 504.95 1944.80 504.43   L 1945.00 490.31   L 1945.00 634.31   L 1944.17 669.63   Q 1944.16 670.05 1943.74 670.05   C 1929.03 670.17 1913.58 669.62 1899.68 669.62   Q 962.66 669.60 25.64 669.62   C 19.96 669.62 11.12 670.19 3.81 669.79   Q 2.55 669.72 1.31 670.83   Q 0.94 671.16 0.93 670.66   L 0.03 602.19   L 0.00 459.19   Z"
     id="path10" />
  <path
     fill="#197fe6"
     d="   M 0.03 602.19   L 0.93 670.66   Q 0.94 671.16 1.31 670.83   Q 2.55 669.72 3.81 669.79   C 11.12 670.19 19.96 669.62 25.64 669.62   Q 962.66 669.60 1899.68 669.62   C 1913.58 669.62 1929.03 670.17 1943.74 670.05   Q 1944.16 670.05 1944.17 669.63   L 1945.00 634.31   L 1945.00 1078.00   L 0.00 1078.00   L 0.03 602.19   Z"
     id="path12" />
</svg>
