<?xml version="1.0" encoding="UTF-8"?> <svg xmlns="http://www.w3.org/2000/svg" width="449" height="451" viewBox="0 0 449 451" fill="none"><style> #Group_45 { animation: Group_45 5s infinite linear; transform-origin: center; transform-box: fill-box; } @keyframes Group_45 { 0 { transform: translateX(0%); } 25% { transform: translateX(23%); } 50% { transform: translateX(0%); } 75% { transform: translateX(-23%); } 100% { transform: translateX(0%); } } #Group_43 { animation: Group_43 10s infinite linear; transform-origin: center; transform-box: fill-box; } @keyframes Group_43 { 0 { transform: translateY(0%); } 25% { transform: translateY(23%); } 50% { transform: translateY(0%); } 75% { transform: translateY(-23%); } 100% { transform: translateY(0%); } } #Group_41 { animation: Group_41 10s infinite linear; transform-origin: center; transform-box: fill-box; } @keyframes Group_41 { 0 { transform: translateY(0%); } 25% { transform: translateY(-43%); } 50% { transform: translateY(0%); } 75% { transform: translateY(43%); } 100% { transform: translateY(0%); } } #Group_42 { animation: Group_42 10s infinite linear; transform-origin: center; transform-box: fill-box; } @keyframes Group_42 { 0 { transform: translateX(0%); } 25% { transform: translateX(-23%); } 50% { transform: translateX(0%); } 75% { transform: translateX(23%); } 100% { transform: translateX(0%); } } #Group { animation: Group 10s infinite linear; transform-origin: center; transform-box: fill-box; } @keyframes Group { 0 { transform: translateY(0%); } 25% { transform: translateY(-20%); } 50% { transform: translateY(0%); } 75% { transform: translateY(20%); } 100% { transform: translateY(0%); } } #css { animation: css 7s infinite linear; transform-origin: center; transform-box: fill-box; } @keyframes css { 0 { transform: translateY(0%); } 50% { transform: translateY(16%); } 100% { transform: translateY(0%); } } #play { animation: play 7s infinite linear; animation-delay: 3s; transform-origin: center; transform-box: fill-box; } @keyframes play { 0 { transform: translateY(0%); } 50% { transform: translateY(16%); } 100% { transform: translateY(0%); } } #gear { animation: gear 7s infinite linear; animation-delay: 6s; transform-origin: center; transform-box: fill-box; } @keyframes gear { 0 { transform: translateY(0%); } 50% { transform: translateY(16%); } 100% { transform: translateY(0%); } } #Vector_281 { animation: Vector_281 3s infinite linear; animation-delay: 3s; transform-origin: center; transform-box: fill-box; } @keyframes Vector_281 { 0 { transform: translateY(0%); } 25% { transform: translateY(-10%); } 50% { transform: translateY(0%); } 75% { transform: translateY(10%); } 100% { transform: translateY(0%); } } #Group_2 { animation: Group_2 4s infinite linear; transform-origin: center; transform-box: fill-box; } @keyframes Group_2 { 0 { transform: translateY(0%); } 25% { transform: translateY(-7%); } 50% { transform: translateY(0%); } 75% { transform: translateY(7%); } 100% { transform: translateY(0%); } } #Group_100 { animation: Group_100 4s infinite linear; transform-origin: center; transform-box: fill-box; } @keyframes Group_100 { 0 { transform: translateY(0%); } 25% { transform: translateY(6%); } 50% { transform: translateY(0%); } 75% { transform: translateY(-6%); } 100% { transform: translateY(0%); } } #Group_13 { animation: Group_13 5s infinite linear;transform-origin: center; transform-box: fill-box; } @keyframes Group_13 { 0 { transform: translateY(0%); } 25% { transform: translateY(-3%); } 50% { transform: translateY(-6%); } 75% { transform: translateY(-3%); } 100% { transform: translateY(0%); } } #head { animation: head 5s infinite linear; transform-origin: center; transform-box: fill-box; } @keyframes head { 0 { transform: rotateZ(0deg); } 25% { transform: rotateZ(5deg); } 50% { transform: rotateZ(10deg); } 75% { transform: rotateZ(5deg); } 100% { transform: rotateZ(0deg); } } </style><g id="Artboard 7 1" clip-path="url(#clip0)"><g id="Group"><g id="PHP"><path id="Vector" d="M160.125 62.4997L123.699 41.4518C123.141 41.1293 122.502 40.972 121.858 40.9983C121.213 41.0247 120.59 41.2334 120.059 41.6004V41.6004L112.061 46.2186L115.776 51.2577L117.162 52.8424V88.9209C117.164 89.9769 117.443 91.0138 117.971 91.9284C118.499 92.843 119.258 93.6032 120.171 94.1334L147.409 109.882L147.744 111.467L153.303 119.255L161.858 114.228C162.247 113.976 162.565 113.629 162.782 113.219C162.999 112.81 163.107 112.351 163.096 111.888V67.8731C163.111 66.7963 162.845 65.7344 162.323 64.792C161.802 63.8497 161.044 63.0595 160.125 62.4997V62.4997Z" fill="#F4767A"></path><path id="Vector_2" d="M151.644 67.5017L114.797 46.2433C114.387 46.0094 113.923 45.8872 113.451 45.8888C112.979 45.8905 112.515 46.016 112.107 46.2529C111.698 46.4897 111.359 46.8296 111.123 47.2385C110.887 47.6474 110.762 48.1112 110.761 48.5834V92.6848C110.76 93.74 111.036 94.7771 111.562 95.692C112.088 96.6069 112.845 97.3674 113.757 97.8972L150.604 119.193C151.023 119.436 151.5 119.565 151.985 119.566C152.471 119.567 152.948 119.44 153.368 119.198C153.789 118.955 154.138 118.606 154.381 118.186C154.624 117.766 154.752 117.289 154.751 116.803V72.8874C154.754 71.7954 154.468 70.7219 153.923 69.7761C153.377 68.8302 152.591 68.0455 151.644 67.5017V67.5017Z" fill="#ED5561"></path><path id="Vector_3" d="M154.751 116.803V72.8874C154.738 72.1622 154.596 71.4452 154.33 70.7702L162.873 65.8178C163.122 66.4665 163.256 67.1536 163.269 67.8483V111.776C163.28 112.24 163.172 112.698 162.955 113.108C162.739 113.517 162.42 113.865 162.031 114.116V114.116L153.55 119.069C153.92 118.818 154.223 118.48 154.433 118.085C154.642 117.69 154.751 117.25 154.751 116.803Z" fill="#D8395A"></path><path id="Vector_4" d="M119.515 67.3531L115.033 64.7778V80.8732L118.016 82.5818V76.8617L119.255 77.5922C121 78.5951 122.338 78.917 123.291 78.5456C124.244 78.1741 124.702 77.1094 124.715 75.376C124.735 73.7689 124.278 72.1919 123.402 70.8445C122.395 69.3946 121.064 68.1992 119.515 67.3531V67.3531ZM121.025 75.2027C120.663 75.2519 120.294 75.2279 119.941 75.1322C119.588 75.0365 119.258 74.871 118.97 74.6455L117.992 74.076V69.2969L119.341 70.0769C120.063 70.4573 120.68 71.0102 121.137 71.6865C121.524 72.3184 121.718 73.0502 121.694 73.7912C121.743 74.5836 121.483 75.0541 121.025 75.2027Z" fill="white"></path><path id="Vector_5" d="M135.09 82.6809L129.543 79.4742L129.556 73.1598L126.584 71.4388L126.535 87.559L129.519 89.28L129.531 82.3218L135.09 85.5285L135.065 92.4867L138.037 94.1953L138.086 78.0751L135.115 76.3665L135.09 82.6809Z" fill="white"></path><path id="Vector_6" d="M149.204 85.7638C148.203 84.3056 146.871 83.105 145.317 82.2599L140.835 79.6723V95.7677L143.806 97.4886V91.781L145.044 92.5114C146.79 93.5267 148.127 93.8362 149.068 93.4648C150.009 93.0934 150.504 92.041 150.504 90.2952C150.529 88.6894 150.076 87.1125 149.204 85.7638V85.7638ZM146.827 90.1095C146.094 90.1971 145.356 89.9925 144.772 89.54L143.794 88.9705V84.2285L145.143 85.0085C145.861 85.3946 146.477 85.9464 146.939 86.618C147.324 87.2509 147.518 87.9821 147.496 88.7228C147.508 89.4781 147.285 89.9486 146.827 90.1095Z" fill="white"></path></g></g><g id="Group_3"><path id="Vector_7" d="M24.9602 235.402L141.85 167.553C144.285 166.145 147.048 165.403 149.861 165.403C152.673 165.403 155.436 166.145 157.871 167.553L341.99 274.031C343.06 274.649 343.948 275.538 344.565 276.609C345.182 277.679 345.507 278.893 345.507 280.128C345.507 281.364 345.182 282.578 344.565 283.648C343.948 284.718 343.06 285.607 341.99 286.226L227.725 352.601C224.832 354.277 221.548 355.16 218.204 355.16C214.861 355.16 211.576 354.277 208.683 352.601L24.985 246.346C24.0251 245.792 23.2275 244.996 22.6722 244.037C22.1169 243.078 21.8233 241.989 21.8208 240.881C21.8182 239.773 22.1069 238.683 22.6579 237.722C23.2089 236.76 24.0028 235.96 24.9602 235.402V235.402Z" fill="#E8EBF5"></path><path id="Vector_8" d="M24.985 246.346L208.683 352.613C211.576 354.289 214.861 355.172 218.204 355.172C221.548 355.172 224.832 354.289 227.725 352.613L342.015 286.263C343.082 285.65 343.968 284.766 344.583 283.701C345.198 282.636 345.521 281.427 345.519 280.196V289.111C345.509 290.321 345.183 291.507 344.572 292.552C343.962 293.596 343.089 294.463 342.04 295.066L227.725 361.391C224.832 363.068 221.548 363.95 218.204 363.95C214.861 363.95 211.576 363.068 208.683 361.391L24.985 255.149C24.0103 254.602 23.202 253.8 22.6461 252.83C22.0903 251.86 21.8075 250.758 21.8278 249.64V249.64V240.973C21.8319 242.068 22.1262 243.142 22.6809 244.086C23.2355 245.03 24.0306 245.81 24.985 246.346V246.346Z" fill="#A7BCCE"></path><path id="Vector_9" d="M24.985 246.346L208.683 352.613C211.33 354.125 214.304 354.974 217.35 355.089V363.88C214.304 363.765 211.33 362.916 208.683 361.404L24.985 255.149C24.0103 254.602 23.202 253.8 22.6461 252.83C22.0903 251.86 21.8075 250.758 21.8278 249.64V249.64V240.973C21.8319 242.068 22.1262 243.142 22.6809 244.086C23.2355 245.03 24.0306 245.81 24.985 246.346V246.346Z" fill="#BBCEE1"></path></g><g id="Group_4"><g id="Group_5"><g id="Group_6"><path id="Vector_10" d="M111.331 259.941L131.14 248.464C131.601 248.202 132.121 248.064 132.651 248.064C133.18 248.064 133.701 248.202 134.161 248.464L195.423 283.898C195.623 284.015 195.79 284.182 195.905 284.383C196.021 284.584 196.082 284.812 196.082 285.043C196.082 285.275 196.021 285.503 195.905 285.704C195.79 285.905 195.623 286.072 195.423 286.189L176.071 297.332C175.528 297.648 174.911 297.815 174.282 297.815C173.654 297.815 173.036 297.648 172.493 297.332L111.306 261.959C111.146 261.843 111.017 261.69 110.929 261.513C110.84 261.336 110.795 261.141 110.798 260.943C110.8 260.746 110.85 260.552 110.942 260.377C111.035 260.203 111.168 260.053 111.331 259.941V259.941Z" fill="#0F4463"></path><path id="Vector_11" d="M111.331 262.008L172.506 297.381C173.049 297.698 173.666 297.864 174.295 297.864C174.923 297.864 175.541 297.698 176.084 297.381L195.435 286.238C195.635 286.123 195.801 285.957 195.916 285.757C196.032 285.557 196.092 285.33 196.092 285.099V287.439C196.089 287.666 196.027 287.888 195.912 288.084C195.797 288.279 195.632 288.441 195.435 288.554L176.084 299.696C175.541 300.013 174.923 300.18 174.295 300.18C173.666 300.18 173.049 300.013 172.506 299.696L111.318 264.324C111.139 264.215 110.991 264.062 110.887 263.88C110.783 263.698 110.727 263.493 110.724 263.284V260.944C110.724 261.159 110.78 261.37 110.886 261.556C110.993 261.743 111.146 261.899 111.331 262.008Z" fill="#0B3B56"></path></g><g id="Group_7"><path id="Vector_12" d="M130.93 251.683L133.419 250.246L136.241 251.868L133.765 253.305L130.93 251.683Z" fill="#1F5E77"></path><path id="Vector_13" d="M134.459 253.713L136.947 252.265L139.758 253.899L137.294 255.335L134.459 253.713Z" fill="#1F5E77"></path><path id="Vector_14" d="M137.975 255.744L140.463 254.295L143.286 255.929L140.81 257.366L137.975 255.744Z" fill="#1F5E77"></path><path id="Vector_15" d="M141.503 257.762L143.98 256.326L146.802 257.947L144.326 259.384L141.503 257.762Z" fill="#1F5E77"></path><path id="Vector_16" d="M145.02 259.792L147.508 258.344L150.331 259.978L147.855 261.414L145.02 259.792Z" fill="#1F5E77"></path><path id="Vector_17" d="M148.536 261.823L151.024 260.374L153.847 262.008L151.371 263.445L148.536 261.823Z" fill="#1F5E77"></path><path id="Vector_18" d="M152.064 263.841L154.541 262.405L157.364 264.027L154.887 265.463L152.064 263.841Z" fill="#1F5E77"></path><path id="Vector_19" d="M155.581 265.871L158.069 264.435L160.892 266.057L158.416 267.493L155.581 265.871Z" fill="#1F5E77"></path><path id="Vector_20" d="M159.109 267.902L161.585 266.453L164.408 268.088L161.932 269.524L159.109 267.902Z" fill="#1F5E77"></path><path id="Vector_21" d="M162.626 269.92L165.114 268.484L167.937 270.106L165.461 271.542L162.626 269.92Z" fill="#1F5E77"></path><path id="Vector_22" d="M166.142 271.95L168.63 270.514L171.453 272.136L168.977 273.572L166.142 271.95Z" fill="#1F5E77"></path><path id="Vector_23" d="M169.67 273.981L172.147 272.532L174.969 274.167L172.493 275.603L169.67 273.981Z" fill="#1F5E77"></path><path id="Vector_24" d="M175.675 274.563L178.498 276.197L176.022 277.633L173.187 276.011L175.675 274.563Z" fill="#1F5E77"></path><path id="Vector_25" d="M130.546 255.162L127.723 253.54L130.212 252.104L133.022 253.738L130.546 255.162Z" fill="#1F5E77"></path><path id="Vector_26" d="M136.551 255.756L134.075 257.192L131.239 255.57L133.728 254.134L136.551 255.756Z" fill="#1F5E77"></path><path id="Vector_27" d="M140.067 257.787L137.591 259.223L134.768 257.601L137.244 256.152L140.067 257.787Z" fill="#1F5E77"></path><path id="Vector_28" d="M143.596 259.817L141.12 261.253L138.284 259.619L140.773 258.183L143.596 259.817Z" fill="#1F5E77"></path><path id="Vector_29" d="M147.112 261.835L144.636 263.271L141.801 261.649L144.289 260.213L147.112 261.835Z" fill="#1F5E77"></path><path id="Vector_30" d="M150.628 263.866L148.152 265.302L145.329 263.68L147.805 262.244L150.628 263.866Z" fill="#1F5E77"></path><path id="Vector_31" d="M154.157 265.896L151.681 267.332L148.845 265.71L151.334 264.262L154.157 265.896Z" fill="#1F5E77"></path><path id="Vector_32" d="M157.673 267.914L155.197 269.363L152.374 267.729L154.85 266.292L157.673 267.914Z" fill="#1F5E77"></path><path id="Vector_33" d="M161.202 269.945L158.725 271.381L155.89 269.759L158.379 268.323L161.202 269.945Z" fill="#1F5E77"></path><path id="Vector_34" d="M164.718 271.975L162.242 273.411L159.406 271.79L161.895 270.341L164.718 271.975Z" fill="#1F5E77"></path><path id="Vector_35" d="M168.234 274.006L165.758 275.442L162.935 273.808L165.411 272.371L168.234 274.006Z" fill="#1F5E77"></path><path id="Vector_36" d="M171.763 276.024L169.287 277.46L166.451 275.838L168.94 274.402L171.763 276.024Z" fill="#1F5E77"></path><path id="Vector_37" d="M172.456 276.42L175.279 278.054L172.803 279.491L169.967 277.869L172.456 276.42Z" fill="#1F5E77"></path><path id="Vector_38" d="M127.339 257.031L124.504 255.409L126.993 253.961L129.816 255.595L127.339 257.031Z" fill="#1F5E77"></path><path id="Vector_39" d="M133.332 257.626L130.856 259.062L128.033 257.44L130.509 255.991L133.332 257.626Z" fill="#1F5E77"></path><path id="Vector_40" d="M131.549 259.458L134.038 258.022L136.861 259.644L134.384 261.08L131.549 259.458Z" fill="#1F5E77"></path><path id="Vector_41" d="M140.377 261.674L137.9 263.11L135.065 261.488L137.554 260.04L140.377 261.674Z" fill="#1F5E77"></path><path id="Vector_42" d="M143.893 263.705L141.417 265.141L138.594 263.519L141.07 262.07L143.893 263.705Z" fill="#1F5E77"></path><path id="Vector_43" d="M147.422 265.723L144.945 267.159L142.11 265.537L144.599 264.101L147.422 265.723Z" fill="#1F5E77"></path><path id="Vector_44" d="M150.938 267.753L148.462 269.19L145.639 267.568L148.115 266.131L150.938 267.753Z" fill="#1F5E77"></path><path id="Vector_45" d="M154.466 269.784L151.99 271.22L149.155 269.598L151.644 268.149L154.466 269.784Z" fill="#1F5E77"></path><path id="Vector_46" d="M157.983 271.802L155.506 273.238L152.671 271.616L155.16 270.18L157.983 271.802Z" fill="#1F5E77"></path><path id="Vector_47" d="M161.499 273.832L159.023 275.269L156.2 273.647L158.676 272.211L161.499 273.832Z" fill="#1F5E77"></path><path id="Vector_48" d="M165.027 275.863L162.551 277.299L159.716 275.677L162.205 274.229L165.027 275.863Z" fill="#1F5E77"></path><path id="Vector_49" d="M163.245 277.695L165.721 276.259L168.544 277.893L166.067 279.33L163.245 277.695Z" fill="#1F5E77"></path><path id="Vector_50" d="M169.249 278.29L172.072 279.912L169.596 281.348L166.761 279.726L169.249 278.29Z" fill="#1F5E77"></path><path id="Vector_51" d="M124.12 258.888L121.297 257.267L123.774 255.83L126.597 257.452L124.12 258.888Z" fill="#1F5E77"></path><path id="Vector_52" d="M124.814 259.297L127.302 257.848L130.125 259.483L127.649 260.919L124.814 259.297Z" fill="#1F5E77"></path><path id="Vector_53" d="M128.342 261.328L130.819 259.879L133.641 261.513L131.165 262.949L128.342 261.328Z" fill="#1F5E77"></path><path id="Vector_54" d="M131.859 263.346L134.335 261.909L137.158 263.531L134.681 264.968L131.859 263.346Z" fill="#1F5E77"></path><path id="Vector_55" d="M135.375 265.376L137.863 263.94L140.686 265.562L138.21 266.998L135.375 265.376Z" fill="#1F5E77"></path><path id="Vector_56" d="M138.903 267.407L141.38 265.958L144.202 267.592L141.726 269.029L138.903 267.407Z" fill="#1F5E77"></path><path id="Vector_57" d="M142.42 269.425L144.908 267.989L147.731 269.61L145.255 271.059L142.42 269.425Z" fill="#1F5E77"></path><path id="Vector_58" d="M145.936 271.455L148.424 270.019L151.247 271.641L148.771 273.077L145.936 271.455Z" fill="#1F5E77"></path><path id="Vector_59" d="M149.464 273.486L151.941 272.037L154.764 273.671L152.287 275.108L149.464 273.486Z" fill="#1F5E77"></path><path id="Vector_60" d="M152.981 275.516L155.469 274.068L158.292 275.702L155.816 277.138L152.981 275.516Z" fill="#1F5E77"></path><path id="Vector_61" d="M156.509 277.534L158.985 276.098L161.808 277.72L159.332 279.156L156.509 277.534Z" fill="#1F5E77"></path><path id="Vector_62" d="M160.025 279.565L162.514 278.116L165.337 279.751L162.861 281.187L160.025 279.565Z" fill="#1F5E77"></path><path id="Vector_63" d="M166.03 280.147L168.853 281.781L166.377 283.217L163.542 281.595L166.03 280.147Z" fill="#1F5E77"></path><path id="Vector_64" d="M120.914 260.758L118.078 259.124L120.567 257.688L123.39 259.322L120.914 260.758Z" fill="#1F5E77"></path><path id="Vector_65" d="M121.607 261.154L124.083 259.718L126.906 261.34L124.43 262.776L121.607 261.154Z" fill="#1F5E77"></path><path id="Vector_66" d="M125.123 263.185L127.599 261.748L130.422 263.37L127.958 264.807L125.123 263.185Z" fill="#1F5E77"></path><path id="Vector_67" d="M128.639 265.215L131.128 263.767L133.951 265.401L131.475 266.837L128.639 265.215Z" fill="#1F5E77"></path><path id="Vector_68" d="M132.168 267.233L134.644 265.797L137.467 267.419L134.991 268.855L132.168 267.233Z" fill="#1F5E77"></path><path id="Vector_69" d="M135.684 269.264L138.173 267.828L140.996 269.449L138.52 270.886L135.684 269.264Z" fill="#1F5E77"></path><path id="Vector_70" d="M139.213 271.294L141.689 269.846L144.512 271.48L142.036 272.916L139.213 271.294Z" fill="#1F5E77"></path><path id="Vector_71" d="M142.729 273.312L145.205 271.876L148.028 273.51L145.552 274.934L142.729 273.312Z" fill="#1F5E77"></path><path id="Vector_72" d="M146.245 275.343L148.734 273.907L151.557 275.529L149.081 276.965L146.245 275.343Z" fill="#1F5E77"></path><path id="Vector_73" d="M149.774 277.373L152.25 275.925L155.073 277.559L152.597 278.995L149.774 277.373Z" fill="#1F5E77"></path><path id="Vector_74" d="M153.29 279.392L155.779 277.955L158.602 279.59L156.125 281.026L153.29 279.392Z" fill="#1F5E77"></path><path id="Vector_75" d="M156.806 281.422L159.295 279.986L162.118 281.608L159.642 283.044L156.806 281.422Z" fill="#1F5E77"></path><path id="Vector_76" d="M162.811 282.016L165.634 283.638L163.158 285.074L160.335 283.453L162.811 282.016Z" fill="#1F5E77"></path><path id="Vector_77" d="M117.348 259.545L120.171 261.179L117.695 262.615L114.872 260.993L117.348 259.545Z" fill="#1F5E77"></path><path id="Vector_78" d="M123.699 263.209L121.223 264.646L118.388 263.024L120.877 261.575L123.699 263.209Z" fill="#1F5E77"></path><path id="Vector_79" d="M127.216 265.228L124.739 266.664L121.904 265.042L124.393 263.606L127.216 265.228Z" fill="#1F5E77"></path><path id="Vector_80" d="M130.732 267.258L128.256 268.694L125.433 267.072L127.909 265.636L130.732 267.258Z" fill="#1F5E77"></path><path id="Vector_81" d="M134.26 269.289L131.784 270.725L128.949 269.103L131.438 267.654L134.26 269.289Z" fill="#1F5E77"></path><path id="Vector_82" d="M137.777 271.307L135.3 272.743L132.478 271.121L134.954 269.685L137.777 271.307Z" fill="#1F5E77"></path><path id="Vector_83" d="M138.47 271.715L141.999 273.733L142.692 274.142L145.515 275.764L146.951 276.593L149.043 277.794L151.26 279.07L155.383 281.447L152.906 282.883L148.598 280.407L146.555 279.231L144.413 277.992L143.039 277.212V277.2L140.253 275.603L139.51 275.182L135.994 273.151L138.47 271.715Z" fill="#1F5E77"></path><path id="Vector_84" d="M158.899 283.477L156.423 284.913L153.6 283.292L156.076 281.843L158.899 283.477Z" fill="#1F5E77"></path><path id="Vector_85" d="M162.427 285.495L159.951 286.932L157.116 285.31L159.605 283.873L162.427 285.495Z" fill="#1F5E77"></path></g><g id="Group_8"><path id="Vector_86" d="M180.231 280.06L182.708 278.612L185.531 280.246L183.054 281.682L180.231 280.06Z" fill="#1F5E77"></path><path id="Vector_87" d="M183.748 282.078L186.236 280.642L189.059 282.264L186.583 283.7L183.748 282.078Z" fill="#1F5E77"></path><path id="Vector_88" d="M187.276 284.109L189.752 282.672L192.575 284.294L190.099 285.731L187.276 284.109Z" fill="#1F5E77"></path><path id="Vector_89" d="M182.324 282.103L179.848 283.539L177.012 281.917L179.501 280.481L182.324 282.103Z" fill="#1F5E77"></path><path id="Vector_90" d="M185.84 284.133L183.364 285.57L180.541 283.948L183.017 282.499L185.84 284.133Z" fill="#1F5E77"></path><path id="Vector_91" d="M189.369 286.164L186.892 287.588L184.057 285.966L186.546 284.53L189.369 286.164Z" fill="#1F5E77"></path><path id="Vector_92" d="M179.105 283.96L176.629 285.396L173.806 283.774L176.282 282.338L179.105 283.96Z" fill="#1F5E77"></path><path id="Vector_93" d="M182.633 285.991L180.157 287.427L177.322 285.805L179.81 284.369L182.633 285.991Z" fill="#1F5E77"></path><path id="Vector_94" d="M186.15 288.021L183.673 289.457L180.838 287.835L183.327 286.387L186.15 288.021Z" fill="#1F5E77"></path><path id="Vector_95" d="M170.587 285.644L173.075 284.195L175.898 285.83L173.422 287.266L170.587 285.644Z" fill="#1F5E77"></path><path id="Vector_96" d="M174.115 287.662L176.591 286.226L179.414 287.86L176.938 289.296L174.115 287.662Z" fill="#1F5E77"></path><path id="Vector_97" d="M177.631 289.693L180.12 288.256L182.931 289.878L180.454 291.314L177.631 289.693Z" fill="#1F5E77"></path><path id="Vector_98" d="M167.38 287.501L169.856 286.065L172.679 287.687L170.203 289.123L167.38 287.501Z" fill="#1F5E77"></path><path id="Vector_99" d="M170.896 289.532L173.385 288.083L176.195 289.717L173.731 291.154L170.896 289.532Z" fill="#1F5E77"></path><path id="Vector_100" d="M174.412 291.562L176.901 290.114L179.724 291.748L177.248 293.184L174.412 291.562Z" fill="#1F5E77"></path><path id="Vector_101" d="M169.472 289.556L166.996 290.993L164.161 289.358L166.649 287.922L169.472 289.556Z" fill="#1F5E77"></path><path id="Vector_102" d="M172.988 291.574L170.512 293.011L167.677 291.389L170.166 289.953L172.988 291.574Z" fill="#1F5E77"></path></g></g><g id="Group_9"><path id="Vector_103" d="M155.333 240.911L174.846 229.582C175.252 229.348 175.713 229.224 176.183 229.224C176.652 229.224 177.113 229.348 177.52 229.582L223.825 256.326C223.989 256.44 224.122 256.592 224.214 256.768C224.307 256.945 224.355 257.141 224.355 257.341C224.355 257.54 224.307 257.737 224.214 257.913C224.122 258.09 223.989 258.242 223.825 258.356L204.696 269.412C204.213 269.692 203.664 269.839 203.105 269.839C202.547 269.839 201.998 269.692 201.515 269.412L155.345 242.706C155.191 242.613 155.063 242.482 154.974 242.326C154.885 242.169 154.837 241.992 154.836 241.812C154.835 241.632 154.88 241.455 154.967 241.297C155.054 241.139 155.18 241.006 155.333 240.911V240.911Z" fill="#1F5E77"></path><path id="Vector_104" d="M155.345 242.706L201.564 269.388C202.048 269.667 202.596 269.814 203.155 269.814C203.714 269.814 204.262 269.667 204.746 269.388L223.825 258.307C224.003 258.204 224.151 258.056 224.253 257.877C224.355 257.699 224.408 257.497 224.407 257.291V259.656C224.404 259.857 224.349 260.055 224.247 260.228C224.145 260.402 224 260.546 223.825 260.647L204.696 271.79C204.213 272.069 203.664 272.216 203.105 272.216C202.547 272.216 201.998 272.069 201.515 271.79L155.296 245.108C155.132 245.018 154.996 244.886 154.903 244.724C154.809 244.563 154.761 244.379 154.764 244.192V244.192V241.827C154.772 242.013 154.831 242.192 154.933 242.347C155.036 242.502 155.178 242.626 155.345 242.706V242.706Z" fill="#07304B"></path><path id="Vector_105" d="M155.345 242.706L201.564 269.388C202.007 269.639 202.503 269.784 203.013 269.809V272.186C202.503 272.161 202.007 272.017 201.564 271.765L155.345 245.084C155.182 244.994 155.046 244.861 154.952 244.699C154.858 244.538 154.81 244.354 154.813 244.167V244.167V241.803C154.812 241.987 154.862 242.168 154.955 242.328C155.049 242.487 155.184 242.617 155.345 242.706V242.706Z" fill="#0B3B56"></path></g><g id="Group_10"><path id="Vector_106" d="M205.959 242.682L169.967 221.857V239.685L205.959 260.498V242.682Z" fill="#0F4463"></path><path id="Vector_107" d="M174.982 218.984L169.967 221.857L205.959 242.682L210.974 239.797L174.982 218.984Z" fill="#07304B"></path><path id="Vector_108" d="M210.974 239.797L205.959 242.682V260.498L210.974 257.576V239.797Z" fill="#07304B"></path></g><g id="Group_11"><g id="Group_12"><path id="Vector_109" d="M133.604 131.128L242.979 194.569V275.058L133.604 211.37V131.128Z" fill="url(#paint0_linear)"></path><path id="Vector_110" d="M242.979 194.569L246.619 192.365V272.854L242.979 275.058V194.569Z" fill="#07304B"></path><path id="Vector_111" d="M133.604 131.128L137.331 128.974L246.619 192.365L242.979 194.569L133.604 131.128Z" fill="#1F5E77"></path></g><path id="Vector_112" d="M133.604 131.14V211.37L242.979 275.058V194.581L133.604 131.14ZM240.391 270.564L136.204 209.897V135.61L240.391 196.042V270.564Z" fill="#0B3B56"></path></g><g id="code"><g id="Group_13"><path id="Vector_113" d="M147.211 147.855V149.984L156.175 155.16V153.018L147.211 147.855Z" fill="#F5D012"></path><path id="Vector_114" d="M147.211 151.755V153.884L156.175 159.06V156.918L147.211 151.755Z" fill="#EDF0F8"></path><path id="Vector_115" d="M147.211 155.655V157.785L156.175 162.96V160.818L147.211 155.655Z" fill="#EDF0F8"></path><path id="Vector_116" d="M214.886 200.71V198.58L159.543 166.662V168.791L214.886 200.71Z" fill="#EDF0F8"></path><path id="Vector_117" d="M147.211 159.543V161.685L156.175 166.847V164.718L147.211 159.543Z" fill="#EDF0F8"></path><path id="Vector_118" d="M147.211 163.443V165.585L156.175 170.748V168.618L147.211 163.443Z" fill="#EDF0F8"></path><path id="Vector_119" d="M214.886 204.61V202.48L159.543 170.562V172.691L214.886 204.61Z" fill="#50E85E"></path><path id="Vector_120" d="M147.211 175.143V177.285L156.175 182.448V180.318L147.211 175.143Z" fill="#EDF0F8"></path><path id="Vector_121" d="M147.211 179.043V181.172L156.175 186.348V184.218L147.211 179.043Z" fill="#F5D012"></path><path id="Vector_122" d="M147.211 194.643V196.773L156.175 201.948V199.806L147.211 194.643Z" fill="#EDF0F8"></path><path id="Vector_123" d="M147.211 198.543V200.673L156.175 205.848V203.706L147.211 198.543Z" fill="#EDF0F8"></path><g id="Group_14"><path id="Vector_124" d="M194.457 225.794L159.543 205.65V207.779L194.457 227.923V225.794Z" fill="#50E85E"></path><path id="Vector_125" d="M196.29 226.846V228.988L214.886 239.698V237.568L196.29 226.846Z" fill="#EDF0F8"></path></g><g id="Group_15"><path id="Vector_126" d="M177.087 211.865L159.543 201.75V203.892L177.087 214.007V211.865Z" fill="#EDF0F8"></path><path id="Vector_127" d="M178.919 212.93V215.059L214.886 235.81V233.668L178.919 212.93Z" fill="#EDF0F8"></path></g><path id="Vector_128" d="M210.156 219.244V221.386L214.886 224.11V221.968L210.156 219.244Z" fill="#EDF0F8"></path><path id="Vector_129" d="M184.404 200.499L159.543 186.15V188.292L184.404 202.629V200.499Z" fill="#ED5561"></path><path id="Vector_130" d="M174.214 163.43L159.543 154.962V157.104L174.214 165.56V163.43Z" fill="#EDF0F8"></path><path id="Vector_131" d="M198.271 177.309L176.059 164.483V166.625L198.271 179.439V177.309Z" fill="#EDF0F8"></path><path id="Vector_132" d="M185.332 173.731L169.683 164.706V166.847L185.332 175.873V173.731Z" fill="#EDF0F8"></path><g id="Group_16"><path id="Vector_133" d="M201.737 183.203L187.165 174.796V176.926L201.737 185.332V183.203Z" fill="#ED5561"></path><path id="Vector_134" d="M203.582 184.268V186.397L214.886 192.91V190.78L203.582 184.268Z" fill="#EDF0F8"></path></g><path id="Vector_135" d="M162.427 164.433V166.563L174.214 173.36V171.23L162.427 164.433Z" fill="#ED5561"></path><path id="Vector_136" d="M210.268 192.018L176.059 172.283V174.425L210.268 194.16V192.018Z" fill="#EDF0F8"></path><path id="Vector_137" d="M190.681 192.414L168.321 179.526V181.655L190.681 194.556V192.414Z" fill="#EDF0F8"></path><path id="Vector_138" d="M210.268 203.718L192.526 193.479V195.621L210.268 205.848V203.718Z" fill="#EDF0F8"></path><path id="Vector_139" d="M208.312 214.279L186.249 201.564V203.694L208.312 216.421V214.279Z" fill="#EDF0F8"></path><path id="Vector_140" d="M196.29 211.258V213.388L208.312 220.321V218.179L196.29 211.258Z" fill="#50E85E"></path><path id="Vector_141" d="M163.864 192.551L159.543 190.05V192.192L163.864 194.68V192.551Z" fill="#EDF0F8"></path><g id="Group_17"><path id="Vector_142" d="M171.973 197.231V199.36L194.457 212.323V210.194L171.973 197.231Z" fill="#EDF0F8"></path><path id="Vector_143" d="M170.128 196.166L165.708 193.615V195.745L170.128 198.295V196.166Z" fill="#EDF0F8"></path></g><path id="Vector_144" d="M190.297 211.692L165.708 197.515V199.645L190.297 213.821V211.692Z" fill="#EDF0F8"></path></g><g id="Group 11"><g id="Group_18"><path id="Vector_145" d="M218.774 189.158V189.74L221.238 191.164V190.582L218.774 189.158Z" fill="#EDF0F8"></path><path id="Vector_146" d="M218.774 190.223V190.817L221.238 192.241V191.647L218.774 190.223Z" fill="#EDF0F8"></path><path id="Vector_147" d="M218.774 191.3V191.894L221.238 193.318V192.724L218.774 191.3Z" fill="#EDF0F8"></path><path id="Vector_148" d="M237.42 203.718V203.124L222.166 194.333V194.928L237.42 203.718Z" fill="#EDF0F8"></path><path id="Vector_149" d="M218.774 192.377V192.959L221.238 194.383V193.801L218.774 192.377Z" fill="#EDF0F8"></path><path id="Vector_150" d="M218.774 193.454V194.036L221.238 195.46V194.878L218.774 193.454Z" fill="#EDF0F8"></path><path id="Vector_151" d="M237.42 204.795V204.201L222.166 195.411V195.993L237.42 204.795Z" fill="#EDF0F8"></path><path id="Vector_152" d="M218.774 196.673V197.255L221.238 198.679V198.097L218.774 196.673Z" fill="#EDF0F8"></path><path id="Vector_153" d="M218.774 197.751V198.333L221.238 199.756V199.174L218.774 197.751Z" fill="#EDF0F8"></path><path id="Vector_154" d="M218.774 202.047V202.629L221.238 204.053V203.471L218.774 202.047Z" fill="#EDF0F8"></path><path id="Vector_155" d="M218.774 203.124V203.706L221.238 205.13V204.548L218.774 203.124Z" fill="#EDF0F8"></path><g id="Group_19"><path id="Vector_156" d="M231.786 210.627L222.166 205.08V205.662L231.786 211.209V210.627Z" fill="#EDF0F8"></path><path id="Vector_157" d="M232.294 210.924V211.506L237.42 214.465V213.871L232.294 210.924Z" fill="#EDF0F8"></path></g><g id="Group_20"><path id="Vector_158" d="M227.007 206.789L222.166 204.003V204.597L227.007 207.383V206.789Z" fill="#EDF0F8"></path><path id="Vector_159" d="M227.502 207.086V207.668L237.42 213.388V212.794L227.502 207.086Z" fill="#EDF0F8"></path></g><path id="Vector_160" d="M236.12 208.819V209.414L237.42 210.169V209.575L236.12 208.819Z" fill="#EDF0F8"></path><path id="Vector_161" d="M229.025 203.656L222.166 199.707V200.301L229.025 204.251V203.656Z" fill="#EDF0F8"></path><path id="Vector_162" d="M226.215 193.442L222.166 191.114V191.696L226.215 194.036V193.442Z" fill="#EDF0F8"></path><path id="Vector_163" d="M232.839 197.268L226.722 193.739V194.321L232.839 197.862V197.268Z" fill="#EDF0F8"></path><path id="Vector_164" d="M229.273 196.277L224.964 193.801V194.383L229.273 196.872V196.277Z" fill="#EDF0F8"></path><g id="Group_21"><path id="Vector_165" d="M233.792 198.89L229.781 196.574V197.169L233.792 199.484V198.89Z" fill="#EDF0F8"></path><path id="Vector_166" d="M234.3 199.187V199.769L237.42 201.564V200.982L234.3 199.187Z" fill="#EDF0F8"></path></g><path id="Vector_167" d="M222.971 193.714V194.309L226.215 196.178V195.596L222.971 193.714Z" fill="#EDF0F8"></path><path id="Vector_168" d="M236.144 201.316L226.722 195.881V196.475L236.144 201.911V201.316Z" fill="#EDF0F8"></path><path id="Vector_169" d="M230.746 201.428L224.593 197.874V198.469L230.746 202.022V201.428Z" fill="#EDF0F8"></path><path id="Vector_170" d="M236.144 204.548L231.254 201.725V202.319L236.144 205.13V204.548Z" fill="#EDF0F8"></path><path id="Vector_171" d="M235.612 207.457L229.533 203.954V204.535L235.612 208.039V207.457Z" fill="#EDF0F8"></path><path id="Vector_172" d="M232.294 206.616V207.21L235.612 209.116V208.535L232.294 206.616Z" fill="#EDF0F8"></path><path id="Vector_173" d="M223.367 201.465L222.166 200.784V201.366L223.367 202.059V201.465Z" fill="#EDF0F8"></path><g id="Group_22"><path id="Vector_174" d="M225.596 202.753V203.347L231.786 206.913V206.331L225.596 202.753Z" fill="#EDF0F8"></path><path id="Vector_175" d="M225.088 202.468L223.862 201.762V202.344L225.088 203.05V202.468Z" fill="#EDF0F8"></path></g><path id="Vector_176" d="M230.647 206.739L223.862 202.839V203.421L230.647 207.334V206.739Z" fill="#EDF0F8"></path></g><g id="Group_23"><path id="Vector_177" d="M218.774 207.334V207.916L221.238 209.339V208.757L218.774 207.334Z" fill="#EDF0F8"></path><path id="Vector_178" d="M218.774 208.398V208.993L221.238 210.416V209.835L218.774 208.398Z" fill="#EDF0F8"></path><path id="Vector_179" d="M218.774 209.476V210.07L221.238 211.494V210.899L218.774 209.476Z" fill="#EDF0F8"></path><path id="Vector_180" d="M237.42 221.894V221.312L222.166 212.509V213.103L237.42 221.894Z" fill="#EDF0F8"></path><path id="Vector_181" d="M218.774 210.553V211.147L221.238 212.571V211.977L218.774 210.553Z" fill="#EDF0F8"></path><path id="Vector_182" d="M218.774 211.63V212.212L221.238 213.648V213.054L218.774 211.63Z" fill="#EDF0F8"></path><path id="Vector_183" d="M237.42 222.971V222.389L222.166 213.586V214.18L237.42 222.971Z" fill="#EDF0F8"></path><path id="Vector_184" d="M218.774 214.849V215.443L221.238 216.867V216.273L218.774 214.849Z" fill="#EDF0F8"></path><path id="Vector_185" d="M218.774 215.926V216.52L221.238 217.944V217.35L218.774 215.926Z" fill="#EDF0F8"></path><path id="Vector_186" d="M218.774 220.222V220.804L221.238 222.24V221.646L218.774 220.222Z" fill="#EDF0F8"></path><path id="Vector_187" d="M218.774 221.299V221.881L221.238 223.305V222.723L218.774 221.299Z" fill="#EDF0F8"></path><g id="Group_24"><path id="Vector_188" d="M231.786 228.802L222.166 223.256V223.85L231.786 229.397V228.802Z" fill="#EDF0F8"></path><path id="Vector_189" d="M232.294 229.1V229.681L237.42 232.641V232.059L232.294 229.1Z" fill="#EDF0F8"></path></g><g id="Group_25"><path id="Vector_190" d="M227.007 224.977L222.166 222.179V222.773L227.007 225.559V224.977Z" fill="#EDF0F8"></path><path id="Vector_191" d="M227.502 225.261V225.856L237.42 231.563V230.981L227.502 225.261Z" fill="#EDF0F8"></path></g><path id="Vector_192" d="M236.12 227.007V227.589L237.42 228.344V227.75L236.12 227.007Z" fill="#EDF0F8"></path><path id="Vector_193" d="M229.025 221.832L222.166 217.882V218.477L229.025 222.426V221.832Z" fill="#EDF0F8"></path><path id="Vector_194" d="M226.215 211.617L222.166 209.29V209.872L226.215 212.212V211.617Z" fill="#EDF0F8"></path><path id="Vector_195" d="M232.839 215.443L226.722 211.915V212.509L232.839 216.038V215.443Z" fill="#EDF0F8"></path><path id="Vector_196" d="M229.273 214.465L224.964 211.977V212.571L229.273 215.047V214.465Z" fill="#EDF0F8"></path><g id="Group_26"><path id="Vector_197" d="M233.792 217.065L229.781 214.75V215.344L233.792 217.659V217.065Z" fill="#EDF0F8"></path><path id="Vector_198" d="M234.3 217.362V217.957L237.42 219.752V219.158L234.3 217.362Z" fill="#EDF0F8"></path></g><path id="Vector_199" d="M222.971 211.902V212.484L226.215 214.354V213.772L222.971 211.902Z" fill="#EDF0F8"></path><path id="Vector_200" d="M236.144 219.504L226.722 214.069V214.651L236.144 220.086V219.504Z" fill="#EDF0F8"></path><path id="Vector_201" d="M230.746 219.616L224.593 216.062V216.644L230.746 220.198V219.616Z" fill="#EDF0F8"></path><path id="Vector_202" d="M236.144 222.723L231.254 219.9V220.495L236.144 223.318V222.723Z" fill="#EDF0F8"></path><path id="Vector_203" d="M235.612 225.633L229.533 222.129V222.711L235.612 226.227V225.633Z" fill="#EDF0F8"></path><path id="Vector_204" d="M232.294 224.803V225.385L235.612 227.304V226.71L232.294 224.803Z" fill="#EDF0F8"></path><path id="Vector_205" d="M223.367 219.653L222.166 218.959V219.541L223.367 220.235V219.653Z" fill="#EDF0F8"></path><g id="Group_27"><path id="Vector_206" d="M225.596 220.94V221.522L231.786 225.1V224.506L225.596 220.94Z" fill="#EDF0F8"></path><path id="Vector_207" d="M225.088 220.643L223.862 219.938V220.532L225.088 221.238V220.643Z" fill="#EDF0F8"></path></g><path id="Vector_208" d="M230.647 224.915L223.862 221.015V221.609L230.647 225.509V224.915Z" fill="#EDF0F8"></path></g><g id="Group_28"><path id="Vector_209" d="M218.774 225.509V226.103L221.238 227.527V226.933L218.774 225.509Z" fill="#EDF0F8"></path><path id="Vector_210" d="M218.774 226.586V227.168L221.238 228.592V228.01L218.774 226.586Z" fill="#EDF0F8"></path><path id="Vector_211" d="M218.774 227.663V228.245L221.238 229.669V229.087L218.774 227.663Z" fill="#EDF0F8"></path><path id="Vector_212" d="M237.42 240.082V239.487L222.166 230.697V231.279L237.42 240.082Z" fill="#EDF0F8"></path><path id="Vector_213" d="M218.774 228.728V229.322L221.238 230.746V230.164L218.774 228.728Z" fill="#EDF0F8"></path><path id="Vector_214" d="M218.774 229.805V230.4L221.238 231.823V231.229L218.774 229.805Z" fill="#EDF0F8"></path><path id="Vector_215" d="M237.42 241.146V240.564L222.166 231.761V232.356L237.42 241.146Z" fill="#EDF0F8"></path><path id="Vector_216" d="M218.774 233.037V233.619L221.238 235.042V234.461L218.774 233.037Z" fill="#EDF0F8"></path><path id="Vector_217" d="M218.774 234.102V234.696L221.238 236.12V235.525L218.774 234.102Z" fill="#EDF0F8"></path><path id="Vector_218" d="M218.774 238.398V238.992L221.238 240.416V239.822L218.774 238.398Z" fill="#EDF0F8"></path><path id="Vector_219" d="M218.774 239.475V240.069L221.238 241.493V240.899L218.774 239.475Z" fill="#EDF0F8"></path><g id="Group_29"><path id="Vector_220" d="M231.786 246.99L222.166 241.431V242.025L231.786 247.572V246.99Z" fill="#EDF0F8"></path><path id="Vector_221" d="M232.294 247.275V247.869L237.42 250.816V250.234L232.294 247.275Z" fill="#EDF0F8"></path></g><g id="Group_30"><path id="Vector_222" d="M227.007 243.152L222.166 240.366V240.948L227.007 243.734V243.152Z" fill="#EDF0F8"></path><path id="Vector_223" d="M227.502 243.437V244.031L237.42 249.751V249.157L227.502 243.437Z" fill="#EDF0F8"></path></g><path id="Vector_224" d="M236.12 245.183V245.764L237.42 246.52V245.938L236.12 245.183Z" fill="#EDF0F8"></path><path id="Vector_225" d="M229.025 240.02L222.166 236.058V236.652L229.025 240.602V240.02Z" fill="#EDF0F8"></path><path id="Vector_226" d="M226.215 229.805L222.166 227.465V228.06L226.215 230.387V229.805Z" fill="#EDF0F8"></path><path id="Vector_227" d="M232.839 233.619L226.722 230.09V230.684L232.839 234.213V233.619Z" fill="#EDF0F8"></path><path id="Vector_228" d="M229.273 232.641L224.964 230.152V230.746L229.273 233.235V232.641Z" fill="#EDF0F8"></path><g id="Group_31"><path id="Vector_229" d="M233.792 235.253L229.781 232.938V233.52L233.792 235.835V235.253Z" fill="#EDF0F8"></path><path id="Vector_230" d="M234.3 235.538V236.132L237.42 237.927V237.333L234.3 235.538Z" fill="#EDF0F8"></path></g><path id="Vector_231" d="M222.971 230.078V230.672L226.215 232.542V231.947L222.971 230.078Z" fill="#EDF0F8"></path><path id="Vector_232" d="M236.144 237.68L226.722 232.244V232.826L236.144 238.262V237.68Z" fill="#EDF0F8"></path><path id="Vector_233" d="M230.746 237.791L224.593 234.238V234.82L230.746 238.373V237.791Z" fill="#EDF0F8"></path><path id="Vector_234" d="M236.144 240.899L231.254 238.088V238.67L236.144 241.493V240.899Z" fill="#EDF0F8"></path><path id="Vector_235" d="M235.612 243.821L229.533 240.304V240.899L235.612 244.403V243.821Z" fill="#EDF0F8"></path><path id="Vector_236" d="M232.294 242.979V243.573L235.612 245.48V244.885L232.294 242.979Z" fill="#EDF0F8"></path><path id="Vector_237" d="M223.367 237.828L222.166 237.135V237.729L223.367 238.41V237.828Z" fill="#EDF0F8"></path><g id="Group_32"><path id="Vector_238" d="M225.596 239.116V239.698L231.786 243.276V242.682L225.596 239.116Z" fill="#EDF0F8"></path><path id="Vector_239" d="M225.088 238.819L223.862 238.113V238.707L225.088 239.413V238.819Z" fill="#EDF0F8"></path></g><path id="Vector_240" d="M230.647 243.103L223.862 239.19V239.784L230.647 243.684V243.103Z" fill="#EDF0F8"></path></g><g id="Group_33"><path id="Vector_241" d="M218.774 243.684V244.279L221.238 245.703V245.108L218.774 243.684Z" fill="#EDF0F8"></path><path id="Vector_242" d="M218.774 244.762V245.356L221.238 246.78V246.185L218.774 244.762Z" fill="#EDF0F8"></path><path id="Vector_243" d="M218.774 245.839V246.421L221.238 247.857V247.263L218.774 245.839Z" fill="#EDF0F8"></path><path id="Vector_244" d="M237.42 258.257V257.663L222.166 248.872V249.454L237.42 258.257Z" fill="#EDF0F8"></path><path id="Vector_245" d="M218.774 246.916V247.498L221.238 248.922V248.34L218.774 246.916Z" fill="#EDF0F8"></path><path id="Vector_246" d="M218.774 247.981V248.575L221.238 249.999V249.405L218.774 247.981Z" fill="#EDF0F8"></path><path id="Vector_247" d="M237.42 259.334V258.74L222.166 249.949V250.531L237.42 259.334Z" fill="#EDF0F8"></path><path id="Vector_248" d="M218.774 251.212V251.794L221.238 253.218V252.636L218.774 251.212Z" fill="#EDF0F8"></path><path id="Vector_249" d="M218.774 252.277V252.871L221.238 254.295V253.713L218.774 252.277Z" fill="#EDF0F8"></path><path id="Vector_250" d="M236.12 263.358V263.952L237.42 264.695V264.113L236.12 263.358Z" fill="#EDF0F8"></path><path id="Vector_251" d="M229.025 258.195L222.166 254.246V254.827L229.025 258.777V258.195Z" fill="#EDF0F8"></path><path id="Vector_252" d="M226.215 247.981L222.166 245.653V246.235L226.215 248.563V247.981Z" fill="#EDF0F8"></path><path id="Vector_253" d="M232.839 251.806L226.722 248.278V248.86L232.839 252.388V251.806Z" fill="#EDF0F8"></path><path id="Vector_254" d="M229.273 250.816L224.964 248.34V248.922L229.273 251.41V250.816Z" fill="#EDF0F8"></path><g id="Group_34"><path id="Vector_255" d="M233.792 253.428L229.781 251.113V251.695L233.792 254.023V253.428Z" fill="#EDF0F8"></path><path id="Vector_256" d="M234.3 253.726V254.307L237.42 256.103V255.521L234.3 253.726Z" fill="#EDF0F8"></path></g><path id="Vector_257" d="M222.971 248.253V248.847L226.215 250.717V250.135L222.971 248.253Z" fill="#EDF0F8"></path><path id="Vector_258" d="M236.144 255.855L226.722 250.42V251.014L236.144 256.449V255.855Z" fill="#EDF0F8"></path><path id="Vector_259" d="M230.746 255.967L224.593 252.413V253.007L230.746 256.561V255.967Z" fill="#EDF0F8"></path><path id="Vector_260" d="M236.144 259.087L231.254 256.264V256.846L236.144 259.668V259.087Z" fill="#EDF0F8"></path><path id="Vector_261" d="M235.612 261.996L229.533 258.492V259.074L235.612 262.578V261.996Z" fill="#EDF0F8"></path><path id="Vector_262" d="M232.294 261.154V261.748L235.612 263.655V263.073L232.294 261.154Z" fill="#EDF0F8"></path><path id="Vector_263" d="M223.367 256.004L222.166 255.323V255.905L223.367 256.598V256.004Z" fill="#EDF0F8"></path><g id="Group_35"><path id="Vector_264" d="M225.596 257.291V257.886L231.786 261.451V260.869L225.596 257.291Z" fill="#EDF0F8"></path><path id="Vector_265" d="M225.088 256.994L223.862 256.301V256.883L225.088 257.588V256.994Z" fill="#EDF0F8"></path></g><path id="Vector_266" d="M230.647 261.278L223.862 257.378V257.96L230.647 261.872V261.278Z" fill="#EDF0F8"></path></g></g><g id="Group_36"><path id="Vector_267" d="M141.479 144.537L138.52 142.841C138.487 142.82 138.45 142.809 138.412 142.809C138.374 142.808 138.336 142.818 138.303 142.837C138.27 142.856 138.242 142.884 138.224 142.917C138.205 142.95 138.196 142.988 138.198 143.026V146.555C138.197 146.639 138.218 146.723 138.259 146.797C138.3 146.871 138.36 146.932 138.433 146.976L141.392 148.684C141.425 148.704 141.463 148.714 141.502 148.714C141.54 148.715 141.578 148.705 141.612 148.686C141.645 148.668 141.674 148.64 141.694 148.608C141.714 148.575 141.725 148.537 141.726 148.499V144.97C141.724 144.883 141.7 144.798 141.656 144.723C141.613 144.647 141.552 144.583 141.479 144.537V144.537Z" fill="#50E85E"></path><path id="Vector_268" d="M141.479 149.848L138.52 148.14C138.487 148.119 138.45 148.108 138.412 148.108C138.374 148.107 138.336 148.117 138.303 148.136C138.27 148.155 138.242 148.183 138.224 148.216C138.205 148.249 138.196 148.287 138.198 148.325V151.866C138.196 151.949 138.217 152.031 138.259 152.103C138.3 152.175 138.36 152.235 138.433 152.275L141.392 153.984C141.425 154.003 141.463 154.013 141.502 154.013C141.54 154.014 141.578 154.004 141.612 153.985C141.645 153.967 141.674 153.94 141.694 153.907C141.714 153.874 141.725 153.836 141.726 153.798V150.269C141.725 150.184 141.701 150.1 141.658 150.026C141.615 149.952 141.553 149.891 141.479 149.848V149.848Z" fill="#50E85E"></path><path id="Vector_269" d="M141.479 155.123L138.52 153.414C138.487 153.398 138.45 153.39 138.413 153.391C138.377 153.392 138.341 153.402 138.309 153.42C138.277 153.439 138.25 153.465 138.231 153.496C138.211 153.527 138.2 153.563 138.198 153.6V157.141C138.197 157.225 138.218 157.309 138.259 157.383C138.3 157.457 138.36 157.518 138.433 157.562L141.392 159.27C141.426 159.29 141.465 159.3 141.505 159.3C141.544 159.3 141.583 159.289 141.617 159.269C141.651 159.249 141.679 159.22 141.698 159.185C141.718 159.151 141.727 159.112 141.726 159.072V155.556C141.727 155.468 141.705 155.382 141.661 155.306C141.618 155.23 141.555 155.166 141.479 155.123Z" fill="#50E85E"></path><path id="Vector_270" d="M141.479 160.409L138.52 158.713C138.487 158.693 138.45 158.682 138.412 158.681C138.374 158.68 138.336 158.69 138.303 158.709C138.27 158.728 138.242 158.756 138.224 158.789C138.205 158.823 138.196 158.861 138.198 158.899V162.427C138.197 162.512 138.218 162.595 138.259 162.669C138.3 162.743 138.36 162.805 138.433 162.848L141.392 164.557C141.426 164.577 141.465 164.587 141.505 164.587C141.544 164.587 141.583 164.576 141.617 164.556C141.651 164.536 141.679 164.507 141.698 164.472C141.718 164.437 141.727 164.398 141.726 164.359V160.843C141.725 160.755 141.701 160.67 141.658 160.594C141.615 160.519 141.553 160.455 141.479 160.409V160.409Z" fill="#50E85E"></path><path id="Vector_271" d="M141.479 165.696L138.52 164C138.487 163.98 138.45 163.969 138.412 163.968C138.374 163.967 138.336 163.977 138.303 163.996C138.27 164.015 138.242 164.043 138.224 164.076C138.205 164.11 138.196 164.147 138.198 164.186V167.727C138.199 167.809 138.221 167.89 138.262 167.961C138.303 168.033 138.362 168.093 138.433 168.135L141.392 169.844C141.425 169.863 141.463 169.873 141.502 169.874C141.54 169.874 141.578 169.864 141.612 169.846C141.645 169.827 141.674 169.8 141.694 169.767C141.714 169.734 141.725 169.696 141.726 169.658V166.129C141.724 166.042 141.7 165.957 141.656 165.882C141.613 165.806 141.552 165.743 141.479 165.696V165.696Z" fill="#50E85E"></path><path id="Vector_272" d="M141.479 170.995L138.52 169.287C138.487 169.266 138.45 169.255 138.412 169.255C138.374 169.254 138.336 169.264 138.303 169.283C138.27 169.302 138.242 169.329 138.224 169.363C138.205 169.396 138.196 169.434 138.198 169.472V173.013C138.197 173.098 138.218 173.181 138.259 173.255C138.3 173.329 138.36 173.391 138.433 173.434L141.392 175.143C141.426 175.163 141.465 175.173 141.505 175.173C141.544 175.172 141.583 175.162 141.617 175.142C141.651 175.121 141.679 175.093 141.698 175.058C141.718 175.023 141.727 174.984 141.726 174.945V171.428C141.727 171.341 141.705 171.254 141.661 171.178C141.618 171.102 141.555 171.039 141.479 170.995V170.995Z" fill="#50E85E"></path><path id="Vector_273" d="M141.479 176.282L138.52 174.61C138.487 174.594 138.45 174.586 138.413 174.587C138.377 174.588 138.341 174.598 138.309 174.617C138.277 174.635 138.25 174.661 138.231 174.692C138.211 174.724 138.2 174.759 138.198 174.796V178.325C138.197 178.409 138.218 178.493 138.259 178.567C138.3 178.641 138.36 178.702 138.433 178.746L141.392 180.454C141.426 180.474 141.465 180.484 141.505 180.484C141.544 180.484 141.583 180.473 141.617 180.453C141.651 180.433 141.679 180.404 141.698 180.369C141.718 180.335 141.727 180.296 141.726 180.256V176.715C141.727 176.628 141.705 176.541 141.661 176.465C141.618 176.389 141.555 176.326 141.479 176.282V176.282Z" fill="#50E85E"></path><path id="Vector_274" d="M141.479 181.569L138.52 179.872C138.487 179.852 138.45 179.841 138.412 179.84C138.374 179.84 138.336 179.849 138.303 179.869C138.27 179.888 138.242 179.915 138.224 179.949C138.205 179.982 138.196 180.02 138.198 180.058V183.587C138.197 183.671 138.218 183.755 138.259 183.829C138.3 183.903 138.36 183.964 138.433 184.008L141.392 185.716C141.425 185.736 141.463 185.746 141.502 185.746C141.54 185.746 141.578 185.737 141.612 185.718C141.645 185.699 141.674 185.672 141.694 185.639C141.714 185.607 141.725 185.569 141.726 185.531V182.039C141.73 181.946 141.709 181.853 141.665 181.771C141.622 181.688 141.558 181.618 141.479 181.569V181.569Z" fill="#50E85E"></path><path id="Vector_275" d="M141.479 186.868L138.52 185.159C138.487 185.139 138.45 185.128 138.412 185.127C138.374 185.126 138.336 185.136 138.303 185.155C138.27 185.174 138.242 185.202 138.224 185.235C138.205 185.269 138.196 185.307 138.198 185.345V188.886C138.196 188.969 138.217 189.051 138.259 189.123C138.3 189.195 138.36 189.254 138.433 189.294L141.392 191.003C141.425 191.022 141.463 191.033 141.502 191.033C141.54 191.033 141.578 191.024 141.612 191.005C141.645 190.986 141.674 190.959 141.694 190.926C141.714 190.893 141.725 190.856 141.726 190.817V187.289C141.725 187.203 141.701 187.119 141.658 187.045C141.615 186.972 141.553 186.91 141.479 186.868V186.868Z" fill="#50E85E"></path><path id="Vector_276" d="M141.479 192.154L138.52 190.446C138.487 190.429 138.45 190.421 138.413 190.422C138.377 190.424 138.341 190.434 138.309 190.452C138.277 190.471 138.25 190.497 138.231 190.528C138.211 190.559 138.2 190.595 138.198 190.632V194.173C138.197 194.257 138.218 194.341 138.259 194.414C138.3 194.488 138.36 194.55 138.433 194.593L141.392 196.302C141.426 196.322 141.465 196.332 141.505 196.332C141.544 196.332 141.583 196.321 141.617 196.301C141.651 196.281 141.679 196.252 141.698 196.217C141.718 196.183 141.727 196.144 141.726 196.104V192.588C141.727 192.5 141.705 192.414 141.661 192.338C141.618 192.261 141.555 192.198 141.479 192.154Z" fill="#50E85E"></path><path id="Vector_277" d="M141.479 197.441L138.52 195.733C138.486 195.716 138.448 195.708 138.41 195.71C138.373 195.711 138.336 195.723 138.304 195.742C138.272 195.762 138.245 195.79 138.226 195.823C138.208 195.856 138.198 195.893 138.198 195.931V199.459C138.197 199.544 138.218 199.627 138.259 199.701C138.3 199.775 138.36 199.837 138.433 199.88L141.392 201.589C141.426 201.609 141.465 201.619 141.505 201.619C141.544 201.618 141.583 201.608 141.617 201.588C141.651 201.567 141.679 201.538 141.698 201.504C141.718 201.469 141.727 201.43 141.726 201.391V197.874C141.725 197.787 141.701 197.702 141.658 197.626C141.615 197.55 141.553 197.487 141.479 197.441V197.441Z" fill="#50E85E"></path><path id="Vector_278" d="M141.479 202.728L138.52 201.032C138.487 201.011 138.45 201 138.412 201C138.374 200.999 138.336 201.009 138.303 201.028C138.27 201.047 138.242 201.075 138.224 201.108C138.205 201.141 138.196 201.179 138.198 201.217V204.758C138.199 204.841 138.221 204.922 138.262 204.993C138.303 205.065 138.362 205.125 138.433 205.167L141.392 206.875C141.425 206.895 141.463 206.905 141.502 206.905C141.54 206.906 141.578 206.896 141.612 206.877C141.645 206.859 141.674 206.832 141.694 206.799C141.714 206.766 141.725 206.728 141.726 206.69V203.161C141.724 203.074 141.7 202.989 141.656 202.914C141.613 202.838 141.552 202.774 141.479 202.728V202.728Z" fill="#50E85E"></path></g></g></g><g id="Group_37"><path id="Vector_279" d="M118.92 392.889C111.492 392.951 113.968 387.355 113.968 387.355C103.023 384.012 97.6496 385.869 97.6496 385.869C94.901 395.526 96.0029 401.37 95.9039 403.685C95.9039 404.837 96.7086 405.542 97.7858 405.939C103.667 408.13 109.028 409.653 119.985 408.526C128.058 407.734 136.6 400.268 134.657 392.592C133.443 387.825 126.398 392.815 118.92 392.889Z" fill="#933E31"></path><path id="Vector_280" d="M115.763 323.567C113.596 320.757 109.895 318.355 103.753 319.977L37.8242 332.704L40.3004 349.629C43.6144 353.57 48.0134 356.451 52.9507 357.912C57.888 359.374 63.146 359.352 68.0712 357.85C78.428 354.964 88.2671 350.468 97.2287 344.528L95.0001 391.279C95.0001 391.279 105.351 394.486 114.55 388.927C116.097 387.998 117.534 342.944 118.004 331.38C118.162 329.994 118.046 328.591 117.661 327.25C117.277 325.91 116.632 324.658 115.763 323.567V323.567Z" fill="#1C75BC"></path><path id="Vector_281" d="M150.566 406.397C142.902 406.471 145.416 400.652 145.416 400.652C134.062 397.198 128.478 399.117 128.466 399.117C125.631 409.145 126.77 415.212 126.671 417.614C126.671 418.852 127.5 419.545 128.627 419.954C134.731 422.232 140.29 423.743 151.668 422.641C160.05 421.823 168.915 414.061 166.897 406.1C165.647 401.184 158.329 406.322 150.566 406.397Z" fill="#9D4D36"></path><path id="Vector_282" d="M75.6361 387.813L19.0545 355.102V363.063L75.6361 395.687V387.813Z" fill="#BBCEE1"></path><path id="Vector_283" d="M70.4731 325.548L19.0545 355.102L75.6361 387.813L127.141 358.21L70.4731 325.548Z" fill="white"></path><path id="Vector_284" d="M127.141 358.21L75.636 387.813V395.687L127.141 365.898V358.21Z" fill="#A7BCCE"></path><path id="Vector_285" d="M147.285 334.425C145.032 331.516 141.194 329.015 134.818 330.711L66.3626 343.922L68.9379 361.503C72.3704 365.607 76.9355 368.609 82.0636 370.135C87.1917 371.661 92.6556 371.643 97.7734 370.083C108.525 367.089 118.739 362.426 128.045 356.266L125.73 404.775C125.73 404.775 136.464 408.105 146.022 402.299C147.632 401.333 149.13 354.557 149.613 342.535C149.941 339.63 149.104 336.714 147.285 334.425V334.425Z" fill="#2A87C6"></path><g id="Group_100"><path id="Vector_286" d="M107.047 257.316C107.047 257.316 111.095 258.282 112.507 258.43C113.918 258.579 119.23 259.668 121.409 259.012C123.588 258.356 119.502 256.907 118.487 256.165C117.472 255.422 117.534 253.527 119.725 252.871C121.917 252.215 126.894 252.525 129.518 252.141C132.143 251.757 126.906 243.808 122.635 243.078C118.657 242.27 114.523 242.824 110.897 244.65C107.245 246.458 105.239 249.491 103.543 250.085L107.047 257.316Z" fill="#F4C5A2"></path><path id="Vector_287" d="M107.505 246.421L79.7837 253.366L78.4094 271.022L111.145 259.805C111.838 253.565 107.505 246.421 107.505 246.421Z" fill="#ED5561"></path><path id="Vector_288" d="M39.1242 253.911C39.1242 253.911 31.4603 263.569 39.1242 276.878C39.1242 276.878 44.4852 284.307 59.2063 277.027L39.1242 253.911Z" fill="#ED5561"></path></g><path id="Vector_289" d="M61.8559 242.62C61.8559 242.62 73.8037 241.803 83.1761 248.365C83.6996 249.667 84.5953 250.787 85.7514 251.584C87.6209 252.822 96.8944 256.536 96.8944 256.536C96.8944 256.536 92.7839 311.112 97.4887 337.682C97.4887 337.682 77.2827 353.468 45.7357 337.682C45.7357 337.682 41.1176 270.675 39.0871 253.886C39.1242 253.911 44.3862 247.399 61.8559 242.62Z" fill="#DE495A"></path><path id="Vector_290" d="M56.5816 332.717L0 299.994L19.0545 355.176L75.636 387.813L56.5816 332.717Z" fill="#BBCEE1"></path><path id="Vector_291" d="M6.25245 296.366L0 299.994L56.5816 332.717L62.9083 329.04L6.25245 296.366Z" fill="white"></path><path id="Vector_292" d="M62.9083 329.04L56.5815 332.717L75.636 387.813L82.0247 384.136L62.9083 329.04Z" fill="#A7BCCE"></path><g id="Group_2"><path id="Vector_293" d="M144.314 281.484C144.314 281.484 147.409 278.376 148.585 277.485C149.762 276.593 153.922 272.681 156.262 272.161C158.602 271.641 154.603 275.677 154.132 276.94C153.662 278.203 156.509 275.937 158.688 275.12C161.114 274.311 163.75 274.399 166.117 275.368C171.478 277.274 171.218 287.984 166.835 286.721C159.642 284.641 156.398 290.361 152.102 291.562C150.1 292.076 148.064 292.448 146.01 292.676L144.314 281.484Z" fill="#F4C5A2"></path><path id="Vector_294" d="M96.9811 256.561L120.381 287.514L144.698 280.333C144.698 280.333 149.91 286.919 148.226 293.89L115.763 306.518L89.3791 277.497C89.3791 277.497 80.5018 259.148 96.9811 256.561Z" fill="#ED5561"></path></g><g id="head"><path id="Vector_295" d="M93.1058 230.511C91.9791 242.001 83.4981 250.581 74.1627 249.665C64.8274 248.748 58.2035 238.67 59.3054 227.181C60.4073 215.691 68.9255 207.111 78.2485 208.027C87.5714 208.943 94.2448 219.009 93.1058 230.511Z" fill="#FED4BD"></path><path id="Vector_296" d="M83.8818 198.209C83.8818 198.209 85.6895 202.53 77.0722 203.694C68.455 204.857 57.8196 209.154 55.0215 218.241C53.2263 224.048 55.3063 230.276 58.2282 235.352C59.2045 237.109 60.349 238.768 61.6454 240.304C66.0001 241.115 70.501 240.342 74.336 238.125C77.2715 235.959 79.6205 233.095 81.1704 229.793C81.1704 229.793 86.2962 231.935 87.9057 227.663C89.0819 224.519 92.7838 223.739 94.8019 222.03C94.8019 222.055 106.428 203.087 83.8818 198.209Z" fill="#9D4D36"></path></g></g><g id="Group_38"><g id="Group 8"><path id="Vector_297" d="M405.06 363.335L367.57 341.569V355.597L405.072 377.301L405.06 363.335Z" fill="#BBCEE1"></path><path id="Vector_298" d="M406.322 319.296L367.57 341.569L405.06 363.335L443.874 341.025L406.322 319.296Z" fill="white"></path><path id="Vector_299" d="M443.874 341.025L405.06 363.335L405.072 377.301L443.874 354.854V341.025Z" fill="#A7BCCE"></path></g><g id="css"><path id="Vector_300" d="M405.06 340.393L367.57 318.627V332.655L405.072 354.359L405.06 340.393Z" fill="#BBCEE1"></path><path id="Vector_301" d="M406.322 296.354L367.57 318.627L405.06 340.393L443.874 318.082L406.322 296.354Z" fill="white"></path><path id="Vector_302" d="M443.874 318.082L405.06 340.393L405.072 354.359L443.874 331.9V318.082Z" fill="#A7BCCE"></path><path id="Vector_303" d="M391.651 316.423C389.62 315.243 390.532 313.539 394.387 311.31C395.968 310.344 397.695 309.642 399.5 309.23C400.736 308.877 402.058 308.991 403.215 309.552C403.616 309.758 403.958 310.066 404.205 310.443C404.391 310.766 404.545 311.106 404.663 311.459L408.204 310.592C408.003 310.015 407.687 309.484 407.276 309.032C406.831 308.577 406.322 308.189 405.765 307.88C403.754 306.762 401.434 306.327 399.154 306.642C396.36 307.005 393.673 307.95 391.267 309.416C388.568 310.988 386.971 312.499 386.5 313.947C386.03 315.396 386.711 316.671 388.593 317.761C389.807 318.478 391.155 318.937 392.555 319.11L395.303 317.501C394.031 317.365 392.793 317.001 391.651 316.423V316.423Z" fill="#91A6B7"></path><path id="Vector_304" d="M408.501 320.707C408.822 319.857 408.8 318.916 408.44 318.082C408.195 317.513 408.098 316.892 408.155 316.275C408.233 316.027 408.361 315.798 408.532 315.602C408.702 315.406 408.911 315.248 409.145 315.136C409.682 314.821 410.283 314.635 410.903 314.591C411.482 314.559 412.057 314.692 412.562 314.975C412.968 315.195 413.322 315.499 413.602 315.866C413.828 316.181 414.023 316.517 414.184 316.869L417.701 316.015C417.142 314.838 416.216 313.873 415.063 313.266C413.707 312.481 412.16 312.087 410.594 312.127C408.985 312.134 407.406 312.561 406.013 313.365C405.383 313.701 404.817 314.145 404.341 314.678C404.013 315.075 403.788 315.547 403.685 316.052C403.618 316.651 403.695 317.258 403.908 317.822C404.146 318.432 404.227 319.092 404.143 319.741C404.082 320.007 403.962 320.256 403.793 320.47C403.624 320.684 403.41 320.858 403.165 320.98C402.622 321.292 402.009 321.463 401.382 321.475C400.734 321.496 400.093 321.328 399.538 320.992C398.496 320.387 397.705 319.43 397.309 318.293L394.238 320.063C394.927 321.207 395.928 322.131 397.123 322.725C398.532 323.557 400.143 323.985 401.779 323.963C403.458 323.92 405.097 323.437 406.533 322.564C407.358 322.153 408.042 321.507 408.501 320.707V320.707Z" fill="#91A6B7"></path><path id="Vector_305" d="M424.758 318.862C423.402 318.077 421.855 317.682 420.288 317.723C418.68 317.731 417.101 318.158 415.707 318.961C415.083 319.301 414.522 319.744 414.048 320.274C413.711 320.672 413.481 321.149 413.38 321.661C413.319 322.256 413.395 322.857 413.602 323.419C413.842 324.028 413.927 324.687 413.85 325.338C413.786 325.604 413.664 325.853 413.493 326.067C413.321 326.281 413.105 326.455 412.86 326.576C412.316 326.89 411.704 327.064 411.077 327.083C410.432 327.093 409.797 326.922 409.244 326.588C408.198 325.99 407.405 325.03 407.016 323.889L403.945 325.66C404.629 326.8 405.626 327.719 406.818 328.309C408.227 329.14 409.837 329.568 411.473 329.547C413.155 329.503 414.796 329.025 416.24 328.161C417.066 327.738 417.747 327.079 418.196 326.266C418.522 325.422 418.5 324.482 418.134 323.654C417.894 323.083 417.8 322.462 417.862 321.846C417.939 321.593 418.071 321.359 418.249 321.162C418.426 320.965 418.645 320.81 418.889 320.707C419.42 320.381 420.025 320.194 420.647 320.162C421.23 320.12 421.813 320.253 422.319 320.546C422.72 320.763 423.07 321.062 423.346 321.425C423.572 321.74 423.767 322.076 423.928 322.428L427.445 321.574C426.874 320.398 425.929 319.444 424.758 318.862V318.862Z" fill="#91A6B7"></path></g></g><g id="Group_39"><g id="Group 6"><path id="Vector_306" d="M341.656 400.045L304.154 378.292V392.319L341.656 414.011V400.045Z" fill="#BBCEE1"></path><path id="Vector_307" d="M342.906 356.018L304.154 378.292L341.656 400.045L380.458 377.747L342.906 356.018Z" fill="white"></path><path id="Vector_308" d="M380.458 377.747L341.656 400.045V414.011L380.458 391.564V377.747Z" fill="#A7BCCE"></path></g><g id="play"><path id="Vector_309" d="M341.656 377.103L304.154 355.337V369.365L341.656 391.069V377.103Z" fill="#BBCEE1"></path><path id="Vector_310" d="M342.906 333.064L304.154 355.337L341.656 377.103L380.458 354.805L342.906 333.064Z" fill="white"></path><path id="Vector_311" d="M380.458 354.805L341.656 377.103V391.069L380.458 368.622V354.805Z" fill="#A7BCCE"></path><path id="Vector_312" d="M345.779 345.172L349.419 352.96L353.071 360.748L339.613 358.668L326.155 356.575L335.973 350.88L345.779 345.172Z" fill="#EF4136"></path></g></g><g id="Group_40"><g id="Group 10"><path id="Vector_313" d="M278.24 436.767L240.75 415.002V429.029L278.24 450.733V436.767Z" fill="#BBCEE1"></path><path id="Vector_314" d="M279.503 392.728L240.75 415.002L278.24 436.767L317.042 414.457L279.503 392.728Z" fill="white"></path><path id="Vector_315" d="M317.055 414.457L278.24 436.767V450.733L317.055 428.286V414.457Z" fill="#A7BCCE"></path></g><g id="gear"><path id="Vector_316" d="M278.24 413.825L240.75 392.059V406.087L278.24 427.791V413.825Z" fill="#BBCEE1"></path><path id="Vector_317" d="M279.503 369.786L240.75 392.059L278.24 413.825L317.042 391.515L279.503 369.786Z" fill="white"></path><path id="Vector_318" d="M317.055 391.515L278.24 413.825V427.791L317.055 405.332V391.515Z" fill="#A7BCCE"></path><path id="Vector_319" d="M289.94 400.082L287.65 398.708C285.878 399.385 284.026 399.831 282.14 400.033V401.952H276.42V400.033C274.53 399.829 272.675 399.383 270.898 398.708L268.558 400.07L264.497 397.718L266.85 396.368C265.804 395.531 265.004 394.428 264.534 393.174H261.216V389.856H264.534C264.984 388.604 265.768 387.5 266.8 386.661L264.448 385.299L268.484 382.959L270.836 384.309C272.61 383.637 274.461 383.192 276.346 382.984V381.065H282.066V382.984C283.955 383.191 285.81 383.636 287.588 384.309L289.928 382.959L293.989 385.299L291.649 386.661C292.69 387.499 293.485 388.603 293.952 389.856H297.282V393.161H293.84C293.384 394.41 292.602 395.513 291.575 396.356L293.927 397.718L289.94 400.082ZM273.845 394.598C275.488 395.434 277.306 395.869 279.15 395.869C280.994 395.869 282.812 395.434 284.455 394.598C287.377 392.901 287.365 390.153 284.455 388.407C282.812 387.571 280.994 387.135 279.15 387.135C277.306 387.135 275.488 387.571 273.845 388.407C270.923 390.116 270.935 392.864 273.845 394.598Z" fill="#1C75BC"></path></g></g><g id="Group_41"><path id="Vector_320" d="M324.137 106.514L287.712 85.4666C287.152 85.147 286.514 84.9913 285.87 85.0176C285.226 85.0439 284.603 85.251 284.072 85.6152V85.6152L276.073 90.2334L279.788 95.2724L281.174 96.8572V132.936C281.175 133.992 281.454 135.029 281.982 135.944C282.51 136.859 283.269 137.619 284.183 138.148L311.421 153.909L311.706 155.42L317.265 163.207L325.821 158.181H325.883C326.283 157.937 326.614 157.593 326.841 157.182C327.069 156.772 327.187 156.31 327.183 155.841V111.913C327.194 110.825 326.919 109.753 326.384 108.805C325.849 107.857 325.074 107.067 324.137 106.514Z" fill="#FFA8E1"></path><path id="Vector_321" d="M315.619 111.541L278.772 90.2705C278.361 90.0375 277.897 89.9159 277.424 89.9179C276.951 89.9198 276.488 90.0453 276.078 90.2817C275.669 90.5182 275.329 90.8575 275.091 91.266C274.854 91.6745 274.727 92.138 274.724 92.6106V136.724C274.726 137.779 275.005 138.814 275.533 139.727C276.061 140.639 276.819 141.397 277.732 141.924L314.579 163.232C315 163.473 315.477 163.598 315.962 163.597C316.447 163.595 316.923 163.466 317.343 163.223C317.762 162.98 318.111 162.631 318.354 162.211C318.597 161.792 318.725 161.315 318.726 160.83V116.915C318.727 115.825 318.44 114.754 317.895 113.81C317.349 112.867 316.564 112.084 315.619 111.541V111.541Z" fill="#FF7AD2"></path><path id="Vector_322" d="M318.726 160.83V116.915C318.713 116.189 318.571 115.472 318.305 114.797L326.848 109.845C327.089 110.5 327.218 111.19 327.232 111.888V155.804C327.236 156.273 327.119 156.735 326.891 157.145C326.663 157.555 326.333 157.899 325.932 158.144V158.144H325.87L317.389 163.096C317.784 162.861 318.114 162.53 318.348 162.134C318.582 161.738 318.712 161.29 318.726 160.83V160.83Z" fill="#DE64C6"></path><path id="Vector_323" d="M308.351 120.196C306.422 116.698 303.63 113.753 300.241 111.64C297.307 109.944 294.373 109.535 292.119 110.823C288.133 113.101 287.675 119.936 290.757 126.918L280.741 132.515L283.663 137.566L293.667 131.859C295.399 134.316 297.615 136.393 300.179 137.962C303.114 139.646 306.048 140.055 308.301 138.78C312.796 136.229 312.821 127.921 308.351 120.196ZM305.379 133.815C304.545 134.189 303.626 134.337 302.716 134.246C301.806 134.155 300.936 133.827 300.192 133.295C298.021 131.947 296.234 130.062 295.004 127.822C292.144 122.87 292.169 117.546 295.004 115.912C295.839 115.537 296.759 115.389 297.669 115.482C298.58 115.576 299.45 115.908 300.192 116.444C302.364 117.785 304.151 119.666 305.379 121.904C308.277 126.807 308.252 132.143 305.379 133.753V133.815Z" fill="white"></path></g><g id="Group_42"><path id="Vector_324" d="M244.378 21.4688L207.965 0.420937C207.406 0.10127 206.767 -0.0543373 206.124 -0.0280604C205.48 -0.00178349 204.857 0.205318 204.325 0.569514V0.569514L196.327 5.18766L200.041 10.2268L201.428 11.8115V47.89C201.429 48.9462 201.707 49.9837 202.235 50.8984C202.763 51.8132 203.522 52.5733 204.436 53.1024L231.675 68.8636L231.96 70.3741L237.519 78.1618L246.074 73.135H246.136C246.537 72.8908 246.867 72.5468 247.095 72.1366C247.323 71.7265 247.44 71.2642 247.436 70.795V26.8546C247.444 25.7674 247.166 24.6972 246.629 23.7517C246.092 22.8063 245.316 22.0189 244.378 21.4688Z" fill="#FCEC32"></path><path id="Vector_325" d="M235.872 26.4831L199.026 5.21242C198.615 4.97937 198.15 4.85779 197.677 4.85976C197.205 4.86173 196.741 4.98718 196.332 5.22365C195.923 5.46013 195.582 5.79942 195.345 6.20791C195.107 6.6164 194.981 7.07989 194.977 7.55245V51.6539C194.978 52.7101 195.257 53.7475 195.785 54.6623C196.313 55.5771 197.072 56.3371 197.986 56.8663L234.832 78.1618C235.252 78.4056 235.728 78.5344 236.214 78.5353C236.699 78.5361 237.176 78.409 237.597 78.1666C238.018 77.9243 238.367 77.5754 238.61 77.155C238.852 76.7346 238.98 76.2577 238.98 75.7722V31.8565C238.981 30.7666 238.694 29.6957 238.148 28.7522C237.602 27.8086 236.817 27.0259 235.872 26.4831V26.4831Z" fill="#F5D012"></path><path id="Vector_326" d="M238.98 75.7722V31.8565C238.967 31.1313 238.824 30.4143 238.559 29.7393L247.102 24.7869C247.342 25.4419 247.472 26.1322 247.485 26.8298V70.7455C247.49 71.2147 247.372 71.6769 247.144 72.0871C246.916 72.4973 246.586 72.8413 246.185 73.0855V73.0855H246.124L237.643 78.0379C238.038 77.8031 238.368 77.4723 238.601 77.0763C238.835 76.6803 238.965 76.2318 238.98 75.7722Z" fill="#EAA10C"></path><path id="Vector_327" d="M206.591 30.2717C207.194 30.6131 207.751 31.0291 208.25 31.5098C208.807 32.0546 209.376 32.6489 209.934 33.2803L210.961 30.9155C209.715 29.4492 208.239 28.1948 206.591 27.2012C205.491 26.4729 204.195 26.0972 202.876 26.1241C202.354 26.17 201.853 26.3489 201.419 26.6437C200.986 26.9384 200.635 27.3392 200.4 27.8079C199.768 29.1137 199.471 30.5559 199.533 32.0051C199.484 34.6158 200.07 37.1993 201.242 39.5328C202.37 41.6823 204.088 43.465 206.195 44.6709C207.444 45.4547 208.845 45.9653 210.305 46.169V43.1109C208.971 42.9244 207.681 42.5053 206.492 41.8728C204.015 40.4242 202.777 37.787 202.777 33.9613C202.641 32.6417 202.998 31.3183 203.78 30.247C204.461 29.566 205.39 29.5784 206.591 30.2717Z" fill="#8444B2"></path><path id="Vector_328" d="M218.774 37.3413L216.545 36.0537L216.533 40.6347L212.571 38.3566V40.9319L216.52 43.21L216.508 47.7291L218.749 49.0167L218.761 44.4976L222.711 46.7881L222.723 44.2128L218.761 41.9347L218.774 37.3413Z" fill="#8444B2"></path><path id="Vector_329" d="M230.709 48.831L230.721 44.2376L228.481 42.95L228.468 47.531L224.519 45.2528V47.8281L228.456 50.1062L228.443 54.6253L230.684 55.9129L230.697 51.3939L234.646 53.672L234.659 51.1091L230.709 48.831Z" fill="#8444B2"></path></g><g id="Group_43"><g id="Group_44"><path id="Vector_330" d="M445.905 105.895L409.492 84.8476C408.931 84.5254 408.291 84.3684 407.644 84.3947C406.998 84.421 406.372 84.6295 405.84 84.9961V84.9961L397.841 89.639L401.556 94.6905L402.942 96.2753V132.354C402.945 133.41 403.224 134.447 403.751 135.361C404.279 136.276 405.038 137.036 405.951 137.566L433.189 153.315L433.462 154.838L439.021 162.626L447.576 157.599C447.977 157.354 448.309 157.011 448.539 156.601C448.769 156.191 448.889 155.729 448.889 155.259V111.269C448.902 110.191 448.634 109.128 448.111 108.186C447.587 107.243 446.827 106.454 445.905 105.895V105.895Z" fill="#9263C1"></path><path id="Vector_331" d="M437.386 110.897L400.54 89.639C400.131 89.4011 399.666 89.2757 399.192 89.2755C398.718 89.2752 398.253 89.4003 397.843 89.6378C397.434 89.8754 397.094 90.2171 396.859 90.6282C396.623 91.0394 396.501 91.5054 396.504 91.979V136.08C396.503 137.136 396.779 138.173 397.305 139.088C397.831 140.003 398.588 140.763 399.5 141.293L436.346 162.588C436.766 162.832 437.243 162.961 437.728 162.962C438.214 162.963 438.691 162.836 439.111 162.593C439.532 162.351 439.881 162.002 440.124 161.582C440.367 161.161 440.494 160.684 440.494 160.199V116.271C440.495 115.181 440.208 114.11 439.662 113.166C439.117 112.223 438.332 111.44 437.386 110.897Z" fill="#8444B2"></path></g><path id="Vector_332" d="M440.494 160.199V116.271C440.479 115.546 440.336 114.829 440.073 114.154L448.616 109.201C448.866 109.849 449.001 110.537 449.012 111.232V155.16C449.013 155.63 448.893 156.092 448.663 156.502C448.433 156.911 448.101 157.255 447.7 157.5V157.5L439.219 162.452C439.6 162.21 439.916 161.878 440.138 161.485C440.361 161.092 440.483 160.65 440.494 160.199V160.199Z" fill="#7231A3"></path><path id="Vector_333" d="M408.563 108.112C408.078 108.812 407.866 109.667 407.969 110.514V115.788V115.924C407.969 116.927 407.647 117.459 407.003 117.534C406.022 117.501 405.071 117.182 404.267 116.617V120.332C405.312 120.901 406.236 121.666 406.991 122.585C407.628 123.401 407.964 124.411 407.944 125.445V130.658C407.917 131.723 408.116 132.782 408.526 133.765C408.978 134.728 409.618 135.591 410.408 136.303C411.505 137.254 412.7 138.084 413.974 138.78V135.313C413.185 134.88 412.504 134.274 411.981 133.542C411.622 132.909 411.446 132.189 411.473 131.462V126.275C411.473 124.281 410.383 122.474 408.167 120.827V120.629C410.359 121.52 411.448 120.901 411.485 118.796V113.844C411.485 113.039 411.671 112.606 412.018 112.371C412.364 112.135 413.033 112.371 413.999 112.903V109.436C412.908 108.712 411.72 108.145 410.47 107.753C410.149 107.635 409.803 107.606 409.467 107.669C409.132 107.733 408.819 107.885 408.563 108.112V108.112Z" fill="white"></path><path id="Vector_334" d="M429.165 130.336C428.551 129.572 428.223 128.617 428.237 127.637V122.226C428.278 120.657 427.804 119.117 426.887 117.843C425.577 116.309 423.979 115.047 422.183 114.129V117.608C422.973 118.033 423.655 118.635 424.176 119.366C424.537 119.994 424.717 120.71 424.696 121.434V126.386C424.759 127.528 425.095 128.639 425.674 129.625C426.253 130.611 427.06 131.445 428.026 132.057V132.255C427.651 132.051 427.239 131.923 426.813 131.881C426.388 131.838 425.959 131.881 425.55 132.007C424.968 132.292 424.684 132.923 424.684 133.926V134.075V139.027C424.684 139.832 424.51 140.327 424.164 140.501C423.817 140.674 423.136 140.501 422.17 139.968V143.447C424.399 144.685 425.959 145.28 426.875 145.106C427.791 144.933 428.249 143.992 428.249 142.283V137.071C428.249 135.981 428.584 135.4 429.203 135.3C430.187 135.318 431.142 135.638 431.939 136.217V132.502C430.881 131.969 429.939 131.233 429.165 130.336V130.336Z" fill="white"></path></g><g id="Group_45"><g id="Group_46"><g id="Group_47"><path id="Vector_335" d="M404.23 193.628L367.817 172.58C367.257 172.259 366.617 172.101 365.972 172.125C365.326 172.149 364.7 172.354 364.165 172.716L356.179 177.334L359.893 182.373L361.28 183.971V220.049C361.279 221.102 361.556 222.137 362.082 223.05C362.608 223.963 363.365 224.721 364.276 225.249L391.515 241.01L391.787 242.521L397.358 250.321L405.901 245.294C406.288 245.037 406.604 244.687 406.821 244.276C407.037 243.865 407.147 243.406 407.14 242.942V199.001C407.161 197.93 406.904 196.872 406.394 195.93C405.884 194.989 405.138 194.195 404.23 193.628Z" fill="#79FF68"></path><path id="Vector_336" d="M395.724 198.63L358.878 177.371C358.468 177.134 358.002 177.01 357.528 177.01C357.054 177.01 356.588 177.135 356.178 177.372C355.767 177.609 355.427 177.95 355.19 178.361C354.953 178.772 354.829 179.237 354.829 179.711V223.813C354.832 224.869 355.111 225.906 355.639 226.82C356.166 227.735 356.925 228.495 357.838 229.025L394.672 250.321C395.092 250.565 395.568 250.693 396.054 250.694C396.539 250.695 397.016 250.568 397.437 250.326C397.857 250.083 398.207 249.734 398.449 249.314C398.692 248.894 398.82 248.417 398.819 247.931V204.003C398.822 202.914 398.537 201.844 397.993 200.901C397.45 199.958 396.667 199.174 395.724 198.63V198.63Z" fill="#50E85E"></path></g><g id="Group_48"><path id="Vector_337" d="M398.819 247.931V204.003C398.804 203.278 398.662 202.562 398.399 201.886L406.954 196.934C407.195 197.584 407.324 198.27 407.338 198.964V242.88C407.345 243.344 407.235 243.803 407.019 244.214C406.802 244.625 406.486 244.975 406.1 245.232V245.232L397.618 250.185C397.988 249.936 398.291 249.601 398.501 249.208C398.71 248.815 398.82 248.377 398.819 247.931V247.931Z" fill="#3CC743"></path></g></g><g id="Group_49"><path id="Vector_338" d="M359.497 205.786L370.913 218.179L370.925 215.022L363.063 206.739L370.95 207.098V203.929L359.51 203.892L359.497 205.786Z" fill="#1F5E77"></path><path id="Vector_339" d="M372.089 221.547L375.271 223.392L381.61 207.668L378.415 205.823L372.089 221.547Z" fill="#1F5E77"></path><path id="Vector_340" d="M382.724 210.714V213.896L390.586 222.637L382.699 221.82L382.687 224.977L394.139 225.781L394.152 223.887L382.724 210.714Z" fill="#1F5E77"></path></g></g><path id="Vector_341" d="M200.586 303.658C200.586 303.658 195.534 301.393 189.592 305.33C183.649 309.267 179.687 314.777 182.051 316.807C184.416 318.838 189.171 321.004 192.216 319.915C195.262 318.825 210.342 309.948 200.586 303.658Z" fill="#0F4463"></path><g id="Group_50"><path id="Vector_342" d="M326.006 280.37L279.032 306.989L249.095 289.668L296.069 263.061L326.006 280.37Z" fill="#ED5561"></path><g id="Group_51"><path id="Vector_343" d="M288.232 306.345V307.398L335.205 280.506V279.738L288.232 306.345Z" fill="#F0CEC9"></path><path id="Vector_344" d="M335.205 279.738L288.232 306.345L258.294 289.024L305.268 262.429L335.205 279.738Z" fill="#FFFBF0"></path><path id="Vector_345" d="M288.232 306.345V307.398L258.294 290.076V289.024L288.232 306.345Z" fill="#F5DDD8"></path></g><path id="Vector_346" d="M304.934 265.265L323.022 275.702L322.23 276.148L304.141 265.71L304.934 265.265Z" fill="#DFBAB8"></path><path id="Vector_347" d="M303.064 266.329L321.141 276.767L320.361 277.212L302.272 266.775L303.064 266.329Z" fill="#DFBAB8"></path><path id="Vector_348" d="M298.681 268.806L323.592 283.18L322.8 283.626L297.889 269.251L298.681 268.806Z" fill="#DFBAB8"></path><path id="Vector_349" d="M296.96 269.784L321.871 284.158L321.079 284.604L296.168 270.23L296.96 269.784Z" fill="#DFBAB8"></path><path id="Vector_350" d="M295.239 270.762L320.138 285.136L319.358 285.582L294.447 271.208L295.239 270.762Z" fill="#DFBAB8"></path><path id="Vector_351" d="M293.518 271.74L318.417 286.114L317.624 286.573L292.726 272.186L293.518 271.74Z" fill="#DFBAB8"></path><path id="Vector_352" d="M291.785 272.718L316.696 287.093L315.903 287.551L290.993 273.164L291.785 272.718Z" fill="#DFBAB8"></path><path id="Vector_353" d="M290.064 273.696L314.975 288.071L314.182 288.516L289.272 274.142L290.064 273.696Z" fill="#DFBAB8"></path><path id="Vector_354" d="M288.343 274.674L313.254 289.049L312.461 289.507L287.551 275.132L288.343 274.674Z" fill="#DFBAB8"></path><path id="Vector_355" d="M286.622 275.652L311.52 290.027L310.728 290.485L285.83 276.098L286.622 275.652Z" fill="#DFBAB8"></path><path id="Vector_356" d="M284.889 276.631L309.799 291.005L309.007 291.463L284.096 277.076L284.889 276.631Z" fill="#DFBAB8"></path><path id="Vector_357" d="M283.168 277.609L308.079 291.983L307.286 292.441L282.375 278.067L283.168 277.609Z" fill="#DFBAB8"></path><path id="Vector_358" d="M281.447 278.587L306.358 292.974L305.565 293.419L280.654 279.045L281.447 278.587Z" fill="#DFBAB8"></path><path id="Vector_359" d="M279.726 279.565L304.624 293.939L303.832 294.397L278.933 280.023L279.726 279.565Z" fill="#DFBAB8"></path><path id="Vector_360" d="M277.992 280.543L302.903 294.93L302.111 295.375L277.2 281.001L277.992 280.543Z" fill="#DFBAB8"></path><path id="Vector_361" d="M276.271 281.521L301.182 295.908L300.39 296.354L275.479 281.979L276.271 281.521Z" fill="#DFBAB8"></path><path id="Vector_362" d="M274.551 282.512L299.461 296.886L298.669 297.332L273.758 282.957L274.551 282.512Z" fill="#DFBAB8"></path></g><g id="Group_52"><path id="Vector_363" d="M254.221 295.871H249.826V300.613H254.221C255.006 300.613 255.758 300.924 256.313 301.479C256.868 302.034 257.18 302.787 257.18 303.572V311.273C257.18 312.059 256.869 312.813 256.314 313.37C255.759 313.926 255.007 314.241 254.221 314.244H247.783V318.974H254.221C256.262 318.971 258.219 318.158 259.663 316.715C261.106 315.271 261.919 313.314 261.922 311.273V303.572C261.919 301.53 261.106 299.573 259.663 298.13C258.219 296.686 256.262 295.874 254.221 295.871Z" fill="#A7BCCE"></path><path id="Vector_364" d="M252.611 293.258V319.94C252.611 324.075 246.421 327.43 238.831 327.43C231.242 327.43 225.063 324.075 225.063 319.94V293.258H252.611Z" fill="#BBCEE1"></path><path id="Vector_365" d="M225.063 293.258C225.063 297.394 231.254 300.749 238.831 300.749C246.408 300.749 252.611 297.394 252.611 293.258C252.611 289.123 246.421 285.768 238.831 285.768C231.242 285.768 225.063 289.123 225.063 293.258Z" fill="white"></path><path id="Vector_366" d="M227.8 293.159C227.8 296.391 232.752 299.016 238.831 299.016C244.91 299.016 249.863 296.391 249.863 293.159C249.863 289.928 244.91 287.303 238.831 287.303C232.752 287.303 227.8 289.928 227.8 293.159Z" fill="#A7BCCE"></path><path id="Vector_367" d="M238.831 291.141C234.015 291.141 229.917 292.788 228.419 295.078C229.917 297.369 234.015 299.016 238.831 299.016C243.647 299.016 247.758 297.369 249.244 295.078C247.758 292.788 243.66 291.141 238.831 291.141Z" fill="#9D4D36"></path><path id="Vector_368" d="M244.044 300.192V326.898C246.418 326.442 248.645 325.413 250.531 323.901V297.183C248.646 298.699 246.419 299.732 244.044 300.192V300.192Z" fill="#A7BCCE"></path></g></g><defs><linearGradient id="paint0_linear" x1="174.078" y1="249.863" x2="208.497" y2="136.613" gradientUnits="userSpaceOnUse"><stop stop-color="#1C75BC"></stop><stop offset="0.28" stop-color="#2077BC"></stop><stop offset="0.54" stop-color="#2B7EBC"></stop><stop offset="0.8" stop-color="#3E88BC"></stop><stop offset="1" stop-color="#5394BC"></stop></linearGradient><clipPath id="clip0"><rect width="449" height="450.733" fill="white"></rect></clipPath></defs></svg> 