<?xml version="1.0" encoding="utf-8"?>
<!-- Generator: Adobe Illustrator 16.0.0, SVG Export Plug-In . SVG Version: 6.00 Build 0)  -->
<!DOCTYPE svg PUBLIC "-//W3C//DTD SVG 1.1//EN" "http://www.w3.org/Graphics/SVG/1.1/DTD/svg11.dtd">
<svg version="1.1" id="Layer_1" xmlns="http://www.w3.org/2000/svg" xmlns:xlink="http://www.w3.org/1999/xlink" x="0px" y="0px"
	 width="600px" height="600px" viewBox="0 0 600 600" enable-background="new 0 0 600 600" xml:space="preserve">
<g>
	<path fill="#1C51C6" d="M554.126,240.32h-58.389c-3.043,0-5.518-2.475-5.518-5.518v-58.388c0-3.043,2.475-5.519,5.518-5.519h58.389
		c3.044,0,5.518,2.475,5.518,5.519v58.388C559.644,237.845,557.17,240.32,554.126,240.32z M495.737,174.513
		c-1.047,0-1.9,0.854-1.9,1.901v58.388c0,1.047,0.854,1.9,1.9,1.9h58.389c1.047,0,1.901-0.853,1.901-1.9v-58.388
		c0-1.047-0.854-1.901-1.901-1.901H495.737z"/>
</g>
<g>
	<g>
		
			<rect x="544.341" y="330.565" transform="matrix(0.8711 -0.4912 0.4912 0.8711 -94.9981 313.08)" fill="#E9EBEE" width="8.903" height="13.816"/>
	</g>
	<g>
		<path fill="#1C51C6" d="M547.619,348.143l-8.561-15.188l10.906-6.149l8.565,15.188L547.619,348.143z M543.987,334.328l5.007,8.886
			l4.607-2.595l-5.01-8.886L543.987,334.328z"/>
	</g>
	<g>
		<path fill="#3B88F0" d="M578.896,381.322l-8.18,4.608c-1.264,0.714-2.865,0.265-3.579-0.998l-20.039-35.556
			c-0.714-1.264-0.265-2.867,0.999-3.579l8.176-4.61c1.266-0.712,2.869-0.265,3.583,1l20.039,35.553
			C580.606,379.006,580.16,380.607,578.896,381.322z"/>
	</g>
	<g>
		<path fill="#1C51C6" d="M569.429,388.079c-1.598,0-3.079-0.863-3.866-2.257l-20.039-35.557c-0.584-1.031-0.729-2.229-0.409-3.37
			c0.318-1.143,1.063-2.092,2.098-2.673l8.174-4.61c2.07-1.162,4.888-0.368,6.046,1.687l20.041,35.554
			c1.197,2.135,0.438,4.844-1.688,6.045l-8.18,4.609C570.941,387.881,570.188,388.079,569.429,388.079z M557.562,342.657
			c-0.142,0-0.275,0.037-0.4,0.106l-8.174,4.61c-0.26,0.146-0.355,0.372-0.389,0.494c-0.033,0.121-0.069,0.364,0.075,0.62
			l20.039,35.557c0.278,0.492,0.781,0.497,1.115,0.31l8.18-4.608c0.394-0.223,0.533-0.725,0.311-1.12l-20.037-35.55
			C558.108,342.77,557.794,342.657,557.562,342.657z"/>
	</g>
	<g>
		<circle fill="#3B88F0" cx="530.368" cy="304.783" r="34.848"/>
	</g>
	<g>
		<circle fill="#FFFFFF" cx="530.368" cy="304.784" r="25.905"/>
	</g>
	<g>
		<path fill="#1C51C6" d="M530.391,332.504c-10.001,0-19.262-5.408-24.167-14.111c-7.502-13.313-2.776-30.249,10.534-37.751
			c4.152-2.341,8.849-3.577,13.586-3.577c10.002,0,19.264,5.407,24.168,14.11c3.635,6.451,4.541,13.928,2.552,21.06
			c-1.989,7.13-6.637,13.058-13.087,16.694C539.825,331.268,535.129,332.504,530.391,332.504z M530.344,280.682
			c-4.115,0-8.199,1.076-11.809,3.111c-11.574,6.523-15.683,21.248-9.159,32.822c4.265,7.569,12.317,12.271,21.015,12.271
			c4.118,0,8.2-1.074,11.809-3.109c5.61-3.16,9.649-8.315,11.38-14.516c1.729-6.198,0.941-12.702-2.22-18.308
			C547.095,285.383,539.043,280.682,530.344,280.682z"/>
	</g>
</g>
<g>
	<path fill="#FFFFFF" d="M214.455,186.04c0,12.456-10.094,22.553-22.552,22.553c-12.454,0-22.551-10.097-22.551-22.553
		c0-12.457,10.097-22.554,22.551-22.554C204.361,163.486,214.455,173.583,214.455,186.04z"/>
</g>
<g>
	<path fill="#1C51C6" d="M197.949,215.179h-12.091l-1.189-5.896c-1.415-0.44-2.782-1.005-4.087-1.693l-5.006,3.331l-8.55-8.55
		l3.33-5.006c-0.689-1.307-1.254-2.676-1.692-4.089l-5.896-1.186v-12.096l5.896-1.186c0.438-1.413,1.003-2.782,1.692-4.089
		l-3.33-5.006l8.55-8.552l5.008,3.332c1.303-0.688,2.67-1.253,4.085-1.693l1.189-5.896h12.091l1.188,5.896
		c1.416,0.44,2.783,1.005,4.086,1.693l5.008-3.332l8.55,8.552l-3.326,5.009c0.687,1.308,1.252,2.676,1.689,4.087l5.9,1.186v12.096
		l-5.9,1.186c-0.437,1.411-1.002,2.779-1.689,4.088l3.326,5.01l-8.55,8.548l-5.006-3.331c-1.305,0.688-2.672,1.253-4.088,1.693
		L197.949,215.179z M188.819,211.561h6.168l1.044-5.183l1.095-0.284c1.855-0.483,3.626-1.215,5.263-2.179l0.977-0.576l4.402,2.928
		l4.36-4.361l-2.922-4.399l0.573-0.976c0.966-1.646,1.697-3.418,2.176-5.265l0.283-1.1l5.188-1.042v-6.167l-5.188-1.043
		l-0.283-1.097c-0.479-1.848-1.21-3.621-2.176-5.266l-0.573-0.976l2.922-4.4l-4.36-4.361l-4.402,2.929l-0.977-0.576
		c-1.636-0.963-3.408-1.696-5.263-2.178l-1.095-0.285l-1.044-5.183h-6.168l-1.044,5.183l-1.095,0.285
		c-1.855,0.482-3.626,1.215-5.263,2.178l-0.977,0.576l-4.402-2.929l-4.36,4.361l2.927,4.403l-0.575,0.977
		c-0.967,1.641-1.7,3.413-2.178,5.263l-0.283,1.097l-5.185,1.043v6.167l5.185,1.044l0.283,1.097
		c0.479,1.849,1.211,3.621,2.178,5.262l0.575,0.978l-2.927,4.402l4.36,4.36l4.402-2.928l0.977,0.576
		c1.636,0.963,3.408,1.696,5.263,2.179l1.095,0.284L188.819,211.561z"/>
</g>
<g>
	<g>
		<path fill="#3B88F0" d="M191.903,203.177c-9.447,0-17.135-7.688-17.135-17.137c0-9.448,7.688-17.136,17.135-17.136
			c9.448,0,17.136,7.688,17.136,17.136C209.039,195.488,201.352,203.177,191.903,203.177z"/>
	</g>
</g>
<g>
	<circle fill="#FFFFFF" cx="191.904" cy="186.04" r="11.108"/>
</g>
<g>
	<path fill="#1C51C6" d="M191.903,198.957c-7.123,0-12.917-5.795-12.917-12.917c0-7.121,5.794-12.916,12.917-12.916
		c7.123,0,12.917,5.794,12.917,12.916C204.82,193.162,199.026,198.957,191.903,198.957z M191.903,176.743
		c-5.128,0-9.299,4.17-9.299,9.297c0,5.128,4.171,9.299,9.299,9.299c5.129,0,9.3-4.171,9.3-9.299
		C201.203,180.913,197.032,176.743,191.903,176.743z"/>
</g>
<g>
	<g>
		<g>
			<polygon fill="#3B88F0" points="132.714,169.547 149.902,152.36 161.739,170.159 150.514,181.383 			"/>
		</g>
	</g>
	<g>
		<g>
			<polygon fill="#3B88F0" points="112.338,114.797 95.15,131.983 83.314,114.186 94.539,102.961 			"/>
		</g>
	</g>
	<g>
		<g>
			<polygon fill="#3B88F0" points="149.902,131.983 132.714,114.797 150.514,102.961 161.739,114.186 			"/>
		</g>
	</g>
	<g>
		<g>
			<polygon fill="#3B88F0" points="95.15,152.36 112.338,169.547 94.539,181.383 83.314,170.159 			"/>
		</g>
	</g>
	<g>
		<g>
			<polygon fill="#3B88F0" points="149.09,154.325 149.09,130.02 170.041,134.236 170.041,150.108 			"/>
		</g>
	</g>
	<g>
		<g>
			<polygon fill="#3B88F0" points="95.967,130.02 95.967,154.325 75.012,150.108 75.012,134.236 			"/>
		</g>
	</g>
	<g>
		<g>
			<polygon fill="#3B88F0" points="134.682,115.609 110.375,115.609 114.589,94.657 130.463,94.657 			"/>
		</g>
	</g>
	<g>
		<g>
			<polygon fill="#3B88F0" points="110.375,168.735 134.682,168.735 130.463,189.688 114.589,189.688 			"/>
		</g>
	</g>
</g>
<g>
	<g>
		<circle fill="#3B88F0" cx="122.527" cy="142.173" r="39.212"/>
	</g>
</g>
<g>
	<g>
		<path fill="#FFFFFF" d="M122.528,171.964c-16.429,0-29.795-13.364-29.795-29.791c0-16.429,13.366-29.793,29.795-29.793
			c16.425,0,29.791,13.364,29.791,29.793C152.319,158.6,138.954,171.964,122.528,171.964z M122.528,115.993
			c-14.437,0-26.18,11.744-26.18,26.181c0,14.436,11.744,26.18,26.18,26.18s26.18-11.744,26.18-26.18
			C148.708,127.737,136.965,115.993,122.528,115.993z"/>
	</g>
</g>
<g>
	<g>
		<circle fill="#FFFFFF" cx="122.527" cy="142.173" r="19.31"/>
	</g>
</g>
<g>
	<rect x="347.839" y="503.054" fill="#3B88F0" width="11.582" height="42.948"/>
</g>
<g>
	<rect x="366.618" y="487.543" fill="#3B88F0" width="11.577" height="58.459"/>
</g>
<g>
	<rect x="385.393" y="503.054" fill="#3B88F0" width="11.582" height="42.948"/>
</g>
<g>
	<rect x="404.172" y="491.12" fill="#3B88F0" width="11.577" height="54.882"/>
</g>
<g>
	<rect x="422.945" y="472.034" fill="#3B88F0" width="11.579" height="73.968"/>
</g>
<g>
	<polygon fill="#FFFFFF" points="326.68,504.382 376.072,472.796 397.137,488.971 428.377,466.317 422.388,458.063 455.688,455.951 
		443.914,487.734 438.428,480.173 396.844,510.339 375.171,493.69 335.901,518.805 	"/>
</g>
<g>
	<path fill="#1C51C6" d="M336.85,515.388l-6.563-10.263l45.853-29.314l21.151,16.245l34.731-25.194l-4.8-6.614l25.021-1.593
		l-8.848,23.894l-4.224-5.826l-42.092,30.533l-21.584-16.577L336.85,515.388z M335.283,506.227l2.666,4.166l37.738-24.131
		l21.455,16.479l42.836-31.071l2.376,3.276l4.565-12.327l-12.91,0.822l3.065,4.227l-39.845,28.904l-21.282-16.345L335.283,506.227z"
		/>
</g>
<g id="XMLID_48_">
	<g id="XMLID_57_">
		<path fill="#1C51C6" d="M300.69,152.707c-13.019,0-23.611-10.592-23.611-23.614c0-13.019,10.592-23.611,23.611-23.611
			c13.02,0,23.611,10.592,23.611,23.611C324.302,142.115,313.71,152.707,300.69,152.707z M300.69,109.1
			c-11.025,0-19.993,8.969-19.993,19.994c0,11.025,8.968,19.996,19.993,19.996c11.025,0,19.994-8.97,19.994-19.996
			C320.685,118.068,311.716,109.1,300.69,109.1z"/>
	</g>
	<g id="XMLID_49_">
		<path fill="#3B88F0" d="M300.313,115.028c-5.08,0.263-9.197,4.504-9.316,9.592c-0.05,2.046,0.529,3.95,1.554,5.542
			c2.021,3.135,8.268,13.086,8.268,13.086s6.346-10.104,8.256-13.011c1.015-1.545,1.607-3.392,1.607-5.379
			C310.682,119.249,305.986,114.735,300.313,115.028z M300.751,129.242c-2.42,0-4.385-1.962-4.385-4.382
			c0-2.42,1.964-4.383,4.385-4.383c2.42,0,4.381,1.963,4.381,4.383C305.132,127.279,303.171,129.242,300.751,129.242z"/>
	</g>
</g>
<g id="XMLID_63_">
	<g id="XMLID_99_">
		<g id="XMLID_100_">
			<circle fill="#FFFFFF" cx="372.407" cy="68.114" r="39.172"/>
		</g>
	</g>
	<g id="XMLID_78_">
		<g id="XMLID_82_">
			<path fill="#1C51C6" d="M372.398,109.096c-22.321,0-40.699-18.162-40.97-40.485c-0.274-22.594,17.886-41.199,40.482-41.475
				l0.505-0.003c22.316,0,40.696,18.162,40.969,40.484c0.274,22.596-17.886,41.201-40.481,41.477L372.398,109.096z M372.416,30.75
				l-0.464,0.003c-20.599,0.251-37.154,17.213-36.905,37.814c0.245,20.353,17.002,36.911,37.352,36.911l0.463-0.003
				c20.599-0.251,37.155-17.213,36.905-37.814C409.519,47.308,392.763,30.75,372.416,30.75z"/>
		</g>
	</g>
	<g id="XMLID_65_">
		<path fill="#3B88F0" d="M390.155,56.654L390.155,56.654c-0.113-0.109-0.227-0.217-0.342-0.321
			c-4.803-4.336-12.278-4.137-16.835,0.532l-0.7,0.719l-0.721-0.701c-4.781-4.666-12.511-4.57-17.175,0.211l0,0
			c-4.667,4.781-4.571,12.511,0.209,17.176l13.182,12.857c2.721,2.654,7.077,2.601,9.734-0.12l12.86-13.177
			C395.03,69.048,394.936,61.32,390.155,56.654z"/>
	</g>
</g>
<g id="XMLID_58_">
	<g id="XMLID_62_">
		<path fill="#3B88F0" d="M253.655,107.462L253.655,107.462c-15.697,0-28.424-12.725-28.424-28.42v-0.001
			c0-15.696,12.727-28.42,28.424-28.42l0,0c15.694,0,28.42,12.725,28.42,28.42v0.001
			C282.075,94.738,269.349,107.462,253.655,107.462z"/>
	</g>
	<g id="XMLID_59_">
		<g id="XMLID_61_">
			<path fill="#FFFFFF" d="M249.034,73.774v12.548c0,0.593-0.48,1.074-1.078,1.074h-6.21c-0.594,0-1.075-0.48-1.075-1.074V73.774
				c0-0.591,0.48-1.074,1.075-1.074h6.21C248.554,72.7,249.034,73.183,249.034,73.774z"/>
		</g>
		<g id="XMLID_60_">
			<path fill="#FFFFFF" d="M268.434,86.2c0,0.652-0.53,1.182-1.183,1.182h-1.276v0.014h-13.832c-0.869,0-1.569-0.701-1.569-1.568
				V75.186c0,0-0.025-0.171,0-0.454v-0.462c0-0.82,0.63-1.484,1.428-1.555c0.304-0.31,0.661-0.627,1.102-0.939
				c1.125-0.798,1.481-4.189,1.608-5.348c0.109-0.956,0.898-1.688,1.855-1.688h0.067c1.024,0,1.861,0.836,1.861,1.864
				c0,0,0.083,0.985,0.096,2.333c0.003,0.004,0,0.007,0,0.011c-0.007,0.931-0.056,1.962-0.177,2.938h0.081
				c-0.02,0.275-0.049,0.546-0.081,0.814h8.837c0.653,0,1.183,0.53,1.183,1.186v0.689C268.434,75.23,268.434,86.2,268.434,86.2z"/>
		</g>
	</g>
</g>
<g>
	<path fill="#3B88F0" d="M279.389,494.172l-13.966,6.204l-6.667-15.002l13.966-6.204c4.14-1.843,8.992,0.021,10.832,4.17l0,0
		C285.396,487.48,283.531,492.328,279.389,494.172z"/>
</g>
<g>
	<g>
		<path fill="#3B88F0" d="M232.676,551.357c0.398-0.578,0.812-1.144,1.211-1.716c-8.147-4.897-11.501-11.059-13.136-22.521
			c-6.523,2.297-9.784,3.448-16.31,5.745c1.142,12.034,9.55,24.611,20.209,31.303C227.136,559.753,229.8,555.527,232.676,551.357z"
			/>
	</g>
</g>
<g>
	<polygon fill="#FFFFFF" points="261.915,460.127 286.912,516.38 273.645,518.875 266.586,520.203 219.027,529.143 206.947,501.966 
		245.451,472.655 251.167,468.303 	"/>
</g>
<g>
	<path fill="#1C51C6" d="M217.955,531.185l-13.242-29.791l57.927-44.09l26.853,60.434L217.955,531.185z M209.182,502.538
		L220.1,527.1l64.231-12.075l-23.14-52.074L209.182,502.538z"/>
</g>
<g>
	<path fill="#3B88F0" d="M206.76,534.598l-4.667,2.07c-7.632,3.392-16.567-0.043-19.955-7.674l0,0
		c-3.392-7.632,0.046-16.563,7.674-19.955l4.667-2.077L206.76,534.598z"/>
</g>
<g>
	<polygon fill="#FFFFFF" points="219.024,529.143 204.026,535.813 191.745,508.177 206.743,501.514 	"/>
</g>
<g>
	<path fill="#1C51C6" d="M203.107,538.201l-13.751-30.942l18.305-8.134l13.751,30.937L203.107,538.201z M194.133,509.096
		l10.812,24.328l11.691-5.2l-10.811-24.322L194.133,509.096z"/>
</g>
<g>
	<path fill="#1C51C6" d="M265.514,522.245l-22.297-50.162l8.675-6.606l24.334,54.752L265.514,522.245z M247.686,473.228
		l19.973,44.935l3.406-0.641l-20.62-46.393L247.686,473.228z"/>
</g>
<g>
	<path fill="#3B88F0" d="M418.695,297.036c0,49.639-40.241,89.876-89.881,89.876c-49.633,0-89.875-40.237-89.875-89.876
		c0-49.636,40.242-89.876,89.875-89.876C378.454,207.16,418.695,247.4,418.695,297.036z"/>
</g>
<g>
	<path fill="#FFFFFF" d="M297.672,303.74c0-1.717-0.608-3.098-1.824-4.141c-1.219-1.044-3.35-2.025-6.398-2.946
		c-5.321-1.534-9.339-3.354-12.059-5.462c-2.72-2.106-4.081-4.991-4.081-8.653c0-3.663,1.559-6.652,4.678-8.975
		c3.12-2.322,7.105-3.482,11.952-3.482c4.907,0,8.907,1.303,11.999,3.912c3.089,2.609,4.583,5.826,4.48,9.65l-0.063,0.184h-8.684
		c0-2.065-0.689-3.737-2.072-5.015c-1.381-1.279-3.316-1.918-5.814-1.918c-2.393,0-4.243,0.532-5.554,1.595
		c-1.307,1.063-1.962,2.423-1.962,4.08c0,1.515,0.7,2.758,2.103,3.729c1.399,0.972,3.82,2,7.257,3.083
		c4.929,1.372,8.664,3.182,11.2,5.432c2.533,2.251,3.802,5.207,3.802,8.87c0,3.824-1.509,6.841-4.525,9.051
		c-3.018,2.207-7,3.314-11.95,3.314c-4.868,0-9.116-1.252-12.736-3.759c-3.618-2.506-5.377-6.019-5.274-10.542l0.06-0.184h8.716
		c0,2.66,0.812,4.608,2.438,5.846c1.625,1.238,3.89,1.856,6.797,1.856c2.434,0,4.297-0.502,5.583-1.504
		C297.028,306.759,297.672,305.418,297.672,303.74z"/>
	<path fill="#FFFFFF" d="M340.878,295.763h-18.503v12.735h21.633v6.903h-30.593v-44.675h30.533v6.904h-21.573v11.229h18.503V295.763
		z"/>
	<path fill="#FFFFFF" d="M385.43,297.083c0,5.484-1.734,10.014-5.201,13.594c-3.465,3.58-7.973,5.37-13.518,5.37
		c-5.5,0-9.97-1.79-13.407-5.37s-5.154-8.11-5.154-13.594v-8.04c0-5.459,1.714-9.987,5.14-13.577
		c3.424-3.589,7.89-5.384,13.395-5.384c5.543,0,10.051,1.795,13.532,5.384c3.477,3.59,5.214,8.118,5.214,13.577V297.083z
		 M376.47,289.005c0-3.484-0.869-6.343-2.606-8.578c-1.739-2.232-4.135-3.351-7.18-3.351c-3.049,0-5.413,1.112-7.091,3.336
		c-1.676,2.223-2.517,5.087-2.517,8.592v8.116c0,3.545,0.852,6.436,2.548,8.671c1.699,2.232,4.06,3.351,7.087,3.351
		c3.071,0,5.463-1.118,7.183-3.351c1.718-2.235,2.576-5.126,2.576-8.671V289.005z"/>
</g>
<g>
	<path fill="#1C51C6" d="M476.388,131.586V86.695l25.99,22.445L476.388,131.586z M480.006,94.598v29.084l16.836-14.542
		L480.006,94.598z"/>
</g>
<g>
	<path fill="#3B88F0" d="M488.902,109.317l-25.729-22.22v14.885c-36.991,0-36.991,29.555-36.991,29.555
		c10.313-21.362,36.991-14.787,36.991-14.787v14.787L488.902,109.317z"/>
</g>
<g>
	<g>
		<g>
			<path fill="#3B88F0" d="M539.82,230.935h-56.35c-2.511,0-4.551-2.037-4.551-4.548V168.59h65.447v57.796
				C544.367,228.897,542.332,230.935,539.82,230.935z"/>
		</g>
		<g>
			<path fill="#FFFFFF" d="M544.367,175.939H478.92v-13.05c0-2.512,2.04-4.549,4.551-4.549h56.35c2.512,0,4.547,2.037,4.547,4.549
				V175.939z"/>
		</g>
		<g>
			<path fill="#1C51C6" d="M546.177,177.747h-69.065v-14.858c0-3.506,2.854-6.358,6.359-6.358h56.35
				c3.505,0,6.356,2.852,6.356,6.358V177.747z M480.729,174.13h61.829v-11.241c0-1.511-1.228-2.74-2.738-2.74h-56.35
				c-1.512,0-2.741,1.229-2.741,2.74V174.13z"/>
		</g>
		<g>
			<g>
				<path fill="#1C51C6" d="M491.583,163.802c-1.854,0-3.359-1.508-3.359-3.362v-5.174c0-1.853,1.506-3.36,3.359-3.36
					c1.855,0,3.364,1.507,3.364,3.36v5.174C494.947,162.294,493.438,163.802,491.583,163.802z"/>
			</g>
			<g>
				<path fill="#1C51C6" d="M504.712,163.802c-1.854,0-3.363-1.508-3.363-3.362v-5.174c0-1.853,1.509-3.36,3.363-3.36
					c1.853,0,3.36,1.507,3.36,3.36v5.174C508.072,162.294,506.564,163.802,504.712,163.802z"/>
			</g>
			<g>
				<path fill="#1C51C6" d="M517.838,163.802c-1.855,0-3.364-1.508-3.364-3.362v-5.174c0-1.853,1.509-3.36,3.364-3.36
					c1.853,0,3.359,1.507,3.359,3.36v5.174C521.197,162.294,519.69,163.802,517.838,163.802z"/>
			</g>
			<g>
				<path fill="#1C51C6" d="M530.963,163.802c-1.853,0-3.36-1.508-3.36-3.362v-5.174c0-1.853,1.508-3.36,3.36-3.36
					c1.854,0,3.359,1.507,3.359,3.36v5.174C534.322,162.294,532.816,163.802,530.963,163.802z"/>
			</g>
			<g>
				<path fill="#1C51C6" d="M491.583,163.802c-1.854,0-3.359-1.508-3.359-3.362v-5.174c0-1.853,1.506-3.36,3.359-3.36
					c1.855,0,3.364,1.507,3.364,3.36v5.174C494.947,162.294,493.438,163.802,491.583,163.802z"/>
			</g>
			<g>
				<path fill="#1C51C6" d="M504.712,163.802c-1.854,0-3.363-1.508-3.363-3.362v-5.174c0-1.853,1.509-3.36,3.363-3.36
					c1.853,0,3.36,1.507,3.36,3.36v5.174C508.072,162.294,506.564,163.802,504.712,163.802z"/>
			</g>
			<g>
				<path fill="#1C51C6" d="M517.838,163.802c-1.855,0-3.364-1.508-3.364-3.362v-5.174c0-1.853,1.509-3.36,3.364-3.36
					c1.853,0,3.359,1.507,3.359,3.36v5.174C521.197,162.294,519.69,163.802,517.838,163.802z"/>
			</g>
			<g>
				<path fill="#1C51C6" d="M530.963,163.802c-1.853,0-3.36-1.508-3.36-3.362v-5.174c0-1.853,1.508-3.36,3.36-3.36
					c1.854,0,3.359,1.507,3.359,3.36v5.174C534.322,162.294,532.816,163.802,530.963,163.802z"/>
			</g>
		</g>
	</g>
	<g>
		<path fill="#FFFFFF" d="M491.677,212.476c0.509,0.055,1.099,0,1.905-0.08c1.366-0.188,2.655-0.75,3.648-1.691
			c1.152-1.045,1.986-2.574,2.307-4.64h-0.081c-0.964,1.181-2.36,1.878-4.104,1.878c-3.138,0-5.152-2.362-5.152-5.34
			c0-3.3,2.389-6.198,5.957-6.198c3.569,0,5.77,2.898,5.77,7.351c0,3.836-1.289,6.521-3.007,8.185
			c-1.339,1.314-3.189,2.118-5.069,2.333c-0.858,0.134-1.611,0.16-2.173,0.134V212.476z M492.536,202.442
			c0,2.173,1.313,3.703,3.352,3.703c1.583,0,2.819-0.777,3.435-1.826c0.134-0.213,0.215-0.482,0.215-0.857
			c0-2.977-1.099-5.258-3.568-5.258C493.956,198.204,492.536,199.974,492.536,202.442z"/>
		<path fill="#FFFFFF" d="M515.674,205.233c0,5.929-2.198,9.202-6.063,9.202c-3.405,0-5.713-3.191-5.77-8.961
			c0-5.847,2.522-9.068,6.066-9.068C513.582,196.405,515.674,199.679,515.674,205.233z M506.205,205.502
			c0,4.533,1.392,7.107,3.54,7.107c2.413,0,3.568-2.815,3.568-7.271c0-4.292-1.1-7.109-3.541-7.109
			C507.706,198.23,506.205,200.751,506.205,205.502z"/>
		<path fill="#FFFFFF" d="M525.722,201.61c0,3.676-1.933,5.501-4.187,5.501c-2.173,0-4.053-1.743-4.077-5.259
			c0-3.487,1.904-5.447,4.21-5.447C524.111,196.405,525.722,198.284,525.722,201.61z M519.334,201.772
			c-0.053,2.227,0.78,3.917,2.254,3.917c1.559,0,2.254-1.664,2.254-3.971c0-2.119-0.618-3.889-2.254-3.889
			C520.114,197.828,519.334,199.572,519.334,201.772z M521.375,214.435l10.246-18.029h1.506l-10.249,18.029H521.375z
			 M537.07,208.828c0,3.676-1.934,5.499-4.158,5.499c-2.173,0-4.054-1.744-4.078-5.23c0-3.516,1.905-5.475,4.211-5.475
			C535.486,203.622,537.07,205.502,537.07,208.828z M530.686,208.989c-0.029,2.228,0.83,3.917,2.278,3.917
			c1.556,0,2.254-1.663,2.254-3.97c0-2.119-0.617-3.891-2.254-3.891C531.488,205.044,530.686,206.789,530.686,208.989z"/>
	</g>
</g>
<g id="XMLID_103_">
	<path fill="#83DDFF" d="M162.929,472.493L162.929,472.493c-14.14,0-25.601-11.462-25.601-25.606l0,0
		c0-14.14,11.461-25.601,25.601-25.601l0,0c14.143,0,25.604,11.461,25.604,25.601l0,0
		C188.533,461.031,177.072,472.493,162.929,472.493z"/>
</g>
<g id="XMLID_106_">
	<path fill="#FFFFFF" d="M162.929,472.493L162.929,472.493c-14.14,0-25.601-11.462-25.601-25.606l0,0
		c0-14.14,11.461-25.601,25.601-25.601l0,0c14.143,0,25.604,11.461,25.604,25.601l0,0
		C188.533,461.031,177.072,472.493,162.929,472.493z"/>
</g>
<g id="XMLID_104_">
	<path fill="#1C51C6" d="M162.929,470.401c-12.964,0-23.512-10.55-23.512-23.515c0-12.964,10.548-23.512,23.512-23.512
		c12.967,0,23.517,10.548,23.517,23.512C186.445,459.852,175.896,470.401,162.929,470.401z M162.929,426.991
		c-10.97,0-19.895,8.926-19.895,19.896c0,10.972,8.924,19.896,19.895,19.896c10.972,0,19.898-8.925,19.898-19.896
		C182.827,435.917,173.901,426.991,162.929,426.991z"/>
</g>
<g>
	<g>
		<path fill="#3B88F0" d="M162.12,433.605h1.763v2.792c1.491,0.19,2.713,0.788,3.635,1.763c0.923,0.979,1.382,2.197,1.382,3.688
			h-2.873c0-1.707-1.304-2.819-3.253-2.819c-1.767,0-3.229,1.057-3.229,2.576c0,1.193,0.841,2.007,2.494,2.44l2.389,0.625
			c3.688,0.976,5.342,3.063,5.042,5.806c-0.24,2.738-2.438,4.746-5.586,4.987v3.01h-1.763v-3.038
			c-1.653-0.191-3.01-0.813-4.066-1.871c-1.032-1.081-1.548-2.332-1.548-3.767h2.875c0.025,0.785,0.407,1.516,1.085,2.142
			c0.678,0.625,1.572,0.922,2.632,0.922c2.088,0,3.307-1.112,3.522-2.551c0.082-1.544-0.894-2.547-2.954-3.035l-2.36-0.598
			c-3.092-0.84-4.639-2.493-4.639-5.017c0-1.438,0.516-2.632,1.575-3.582c1.057-0.976,2.332-1.545,3.876-1.707V433.605z"/>
	</g>
</g>
<g id="XMLID_105_">
	<path fill="#FFFFFF" d="M109.035,466.501L109.035,466.501c-22.332,0-40.432-18.102-40.432-40.431l0,0
		c0-22.331,18.1-40.433,40.432-40.433l0,0c22.329,0,40.429,18.102,40.429,40.433l0,0
		C149.464,448.399,131.364,466.501,109.035,466.501z"/>
</g>
<g id="XMLID_101_">
	<path fill="#3B88F0" d="M109.035,460.346L109.035,460.346c-18.93,0-34.277-15.349-34.277-34.275l0,0
		c0-18.931,15.348-34.276,34.277-34.276l0,0c18.927,0,34.274,15.346,34.274,34.276l0,0
		C143.31,444.997,127.962,460.346,109.035,460.346z"/>
</g>
<g>
	<g>
		<path fill="#FFFFFF" d="M107.753,405.092h2.788v4.411c2.353,0.301,4.282,1.243,5.738,2.782c1.455,1.543,2.183,3.472,2.183,5.824
			h-4.54c0-2.695-2.056-4.451-5.137-4.451c-2.788,0-5.098,1.669-5.098,4.066c0,1.887,1.325,3.173,3.939,3.855l3.77,0.984
			c5.826,1.545,8.438,4.841,7.964,9.169c-0.381,4.324-3.851,7.494-8.818,7.879v4.752h-2.788v-4.799
			c-2.611-0.299-4.752-1.281-6.423-2.952c-1.625-1.71-2.438-3.682-2.438-5.953h4.536c0.042,1.242,0.643,2.398,1.714,3.384
			c1.07,0.985,2.483,1.455,4.155,1.455c3.3,0,5.225-1.755,5.568-4.027c0.127-2.438-1.417-4.023-4.667-4.794l-3.727-0.943
			c-4.883-1.324-7.324-3.939-7.324-7.922c0-2.271,0.812-4.154,2.483-5.653c1.671-1.542,3.682-2.44,6.123-2.696V405.092z"/>
	</g>
</g>
<g>
	<polygon fill="#1C51C6" points="526.476,436.903 465.159,426.48 492.981,398.231 495.562,400.771 472.607,424.076 527.084,433.334 
			"/>
</g>
<g>
	<circle fill="#3B88F0" cx="494.271" cy="399.501" r="9.122"/>
</g>
<g>
	<path fill="#3B88F0" d="M537.556,424.346c5.949,5.949,5.949,15.599,0,21.548c-5.95,5.951-15.599,5.951-21.552,0
		c-5.949-5.949-5.949-15.599,0-21.548C521.957,418.393,531.605,418.393,537.556,424.346z"/>
</g>
<g>
	<circle fill="#3B88F0" cx="468.883" cy="422.929" r="11.407"/>
</g>
<g>
	<rect x="20.663" y="255.378" fill="#FFFFFF" width="167.553" height="100.176"/>
</g>
<g>
	<polygon fill="#3B88F0" points="92.247,332.522 92.247,305.734 119.034,319.129 	"/>
</g>
<g>
	<path fill="#1C51C6" d="M190.024,357.362H18.854V253.569h171.17V357.362z M22.472,353.744h163.935v-96.557H22.472V353.744z"/>
</g>
<g>
	<path fill="#1C51C6" d="M190.024,285.452H18.854v-31.883h171.17V285.452z M22.472,281.833h163.935v-24.646H22.472V281.833z"/>
</g>
<g>
	<g>
		<path fill="#3B88F0" d="M179.174,276.236h-10.95c-0.688,0-1.25-0.561-1.25-1.251v-10.949c0-0.69,0.562-1.251,1.25-1.251h10.95
			c0.692,0,1.25,0.561,1.25,1.251v10.949C180.425,275.675,179.867,276.236,179.174,276.236z"/>
	</g>
</g>
<g>
	<path fill="#3B88F0" d="M154.421,277.272H34.399c-0.685,0-1.24-0.554-1.24-1.241v-12.003c0-0.688,0.555-1.243,1.24-1.243h120.022
		c0.686,0,1.24,0.554,1.24,1.243v12.003C155.661,276.718,155.107,277.272,154.421,277.272z"/>
</g>
<g>
	<path fill="#FFFFFF" d="M46.092,268.11l0.795,3.056c0.175,0.669,0.336,1.291,0.449,1.911h0.037
		c0.136-0.607,0.334-1.253,0.534-1.898l0.98-3.068h0.92l0.932,3.004c0.224,0.722,0.397,1.356,0.533,1.963h0.039
		c0.099-0.607,0.26-1.241,0.459-1.95l0.857-3.017h1.081l-1.938,6.012h-0.995l-0.919-2.87c-0.211-0.671-0.385-1.266-0.535-1.975
		h-0.025c-0.148,0.72-0.334,1.34-0.546,1.987l-0.968,2.857h-0.995l-1.813-6.012H46.092z"/>
	<path fill="#FFFFFF" d="M55.378,268.11l0.795,3.056c0.175,0.669,0.335,1.291,0.446,1.911h0.039
		c0.136-0.607,0.334-1.253,0.534-1.898l0.98-3.068h0.921l0.931,3.004c0.224,0.722,0.398,1.356,0.534,1.963h0.037
		c0.101-0.607,0.262-1.241,0.461-1.95l0.856-3.017h1.081l-1.938,6.012h-0.995l-0.918-2.87c-0.212-0.671-0.385-1.266-0.534-1.975
		h-0.026c-0.148,0.72-0.333,1.34-0.546,1.987l-0.968,2.857h-0.995l-1.813-6.012H55.378z"/>
	<path fill="#FFFFFF" d="M64.667,268.11l0.795,3.056c0.175,0.669,0.335,1.291,0.447,1.911h0.039
		c0.136-0.607,0.334-1.253,0.534-1.898l0.98-3.068h0.92l0.931,3.004c0.225,0.722,0.397,1.356,0.533,1.963h0.038
		c0.1-0.607,0.261-1.241,0.461-1.95l0.857-3.017h1.081l-1.938,6.012H69.35l-0.919-2.87c-0.211-0.671-0.385-1.266-0.533-1.975h-0.027
		c-0.148,0.72-0.334,1.34-0.546,1.987l-0.968,2.857h-0.995l-1.812-6.012H64.667z"/>
	<path fill="#FFFFFF" d="M72.627,273.475c0-0.46,0.309-0.784,0.743-0.784c0.437,0,0.733,0.323,0.733,0.784
		c0,0.448-0.284,0.782-0.745,0.782C72.924,274.257,72.627,273.923,72.627,273.475z"/>
	<path fill="#FFFFFF" d="M75.195,273.475c0-0.46,0.31-0.784,0.744-0.784c0.436,0,0.733,0.323,0.733,0.784
		c0,0.448-0.284,0.782-0.745,0.782C75.492,274.257,75.195,273.923,75.195,273.475z"/>
	<path fill="#FFFFFF" d="M77.766,273.475c0-0.46,0.309-0.784,0.745-0.784c0.435,0,0.732,0.323,0.732,0.784
		c0,0.448-0.285,0.782-0.746,0.782C78.063,274.257,77.766,273.923,77.766,273.475z"/>
	<path fill="#FFFFFF" d="M80.336,273.475c0-0.46,0.309-0.784,0.744-0.784c0.436,0,0.733,0.323,0.733,0.784
		c0,0.448-0.285,0.782-0.746,0.782C80.633,274.257,80.336,273.923,80.336,273.475z"/>
</g>
<g id="XMLID_45_">
	<path fill="#FFFFFF" d="M146.26,265.645c-1.805-1.807-4.734-1.807-6.543,0c-1.809,1.808-1.809,4.738,0,6.544
		c1.572,1.574,3.996,1.775,5.791,0.609l2.3,2.304c0.378,0.376,0.989,0.376,1.364,0c0.378-0.378,0.378-0.987,0-1.364l-2.3-2.302
		C148.037,269.641,147.836,267.219,146.26,265.645z M145.32,271.249c-1.286,1.288-3.375,1.288-4.664,0
		c-1.286-1.288-1.286-3.376,0-4.664c1.289-1.287,3.377-1.287,4.664,0C146.61,267.873,146.61,269.96,145.32,271.249z"/>
</g>
</svg>
