<svg xmlns="http://www.w3.org/2000/svg" xmlns:xlink="http://www.w3.org/1999/xlink" width="562" height="462" viewBox="0 0 562 462">
    <defs>
        <linearGradient id="u5ek7szbya" x1="60.661%" x2="43.625%" y1="4.176%" y2="81.08%">
            <stop offset="0%" stop-color="#355184"/>
            <stop offset="100%" stop-color="#18284D"/>
        </linearGradient>
        <path id="ec2p7y3dib" d="M9.171 97.345c-.158.005-.306.014-.432.014-.43 0-.759.279-.738.623.19 3.126.506 6.253.757 9.379.471 5.849.943 11.703 1.419 17.556.046.598.095 1.201.144 1.804.011.153.067.272.158.36.153.158.406.224.682.25.384.034.813-.012 1.115-.019.91-.02.72-.856.68-1.351-.473-5.84-.942-11.68-1.416-17.52-.25-3.121-.504-6.24-.757-9.358l-.086-1.092c-.03-.374-.318-.536-.683-.605-.185-.034-.394-.043-.599-.043-.083 0-.165 0-.244.002"/>
    </defs>
    <g fill="none" fill-rule="evenodd">
        <g>
            <g>
                <g transform="translate(-732 -172) translate(733 173) translate(58 17)">
                    <ellipse cx="221.5" cy="216" fill="#DDEDF7" rx="207.5" ry="207"/>
                    <path stroke="#1995F9" stroke-linecap="square" d="M195.5 42.5L125.5 157.5M350.5 70.5L137.5 210.5M350.5 369.5L164.5 321.5" opacity=".3"/>
                    <g>
                        <g>
                            <path d="M0.489 1.317L73.922 1.317 73.922 74.751 0.489 74.751z" transform="translate(311 49) translate(.04)"/>
                            <path fill="#25A5F1" d="M7.577 74.434h58.28c4.184 0 7.576-3.393 7.576-7.578V8.577C73.433 4.393 70.04 1 65.856 1H7.576C3.394 1 0 4.393 0 8.577v58.28c0 4.184 3.393 7.577 7.577 7.577" transform="translate(311 49) translate(.04)"/>
                            <g fill="#FFF" opacity=".153">
                                <path d="M7.577 73.434h58.28c4.184 0 7.576-3.393 7.576-7.578V7.577C73.433 3.393 70.04 0 65.856 0H7.576C3.394 0 0 3.393 0 7.577v58.28c0 4.184 3.393 7.577 7.577 7.577" transform="translate(311 49) translate(.04) translate(4.41 .858)"/>
                            </g>
                            <path fill="#FFF" d="M36.616 45.19c-.294.388-.751.63-1.236.63h-.016c-.492 0-.951-.257-1.24-.654l-7.887-10.867c-.503-.693-.349-1.667.345-2.171.694-.505 1.664-.351 2.167.342l6.657 9.167 10.89-14.366c.517-.683 1.491-.816 2.174-.298.682.517.816 1.584.298 2.266L36.616 45.19zm.574-29.91l-22.496 8.826s2.845 30.89 22.496 36.682c19.65-5.792 22.495-36.682 22.495-36.682L37.19 15.28z" transform="translate(311 49) translate(.04)"/>
                        </g>
                    </g>
                    <g>
                        <path fill="#FFB200" d="M54.636 60.922H6.286C2.814 60.922 0 58.107 0 54.636V6.286C0 2.814 2.814 0 6.286 0h48.35c3.471 0 6.286 2.814 6.286 6.286v48.35c0 3.471-2.815 6.286-6.286 6.286" transform="translate(168)"/>
                        <path fill="#FFF" d="M57.636 60.922H9.286C5.814 60.922 3 58.107 3 54.636V6.286C3 2.814 5.814 0 9.286 0h48.35c3.471 0 6.286 2.814 6.286 6.286v48.35c0 3.471-2.815 6.286-6.286 6.286" opacity=".153" transform="translate(168)"/>
                        <path fill="#FFF" d="M23.626 26.12c-2.755 0-4.988-2.234-4.988-4.988 0-2.755 2.233-4.989 4.988-4.989 2.754 0 4.987 2.234 4.987 4.99 0 2.753-2.233 4.987-4.987 4.987zm11.595-3.146v-3.685l-1.897-.178c-.256-1.235-.745-2.384-1.416-3.403l1.22-1.473-2.605-2.606-1.473 1.22c-1.02-.67-2.168-1.16-3.404-1.415l-.178-1.898h-3.685l-.178 1.898c-1.236.255-2.384.745-3.404 1.415l-1.472-1.22-2.605 2.606 1.218 1.473c-.67 1.019-1.158 2.168-1.415 3.403l-1.897.178v3.685l1.897.179c.257 1.235.746 2.384 1.415 3.403l-1.218 1.472 2.605 2.605 1.472-1.218c1.02.67 2.168 1.16 3.404 1.415l.178 1.897h3.685l.178-1.897c1.236-.257 2.384-.746 3.404-1.415l1.473 1.218 2.605-2.605-1.22-1.472c.67-1.02 1.16-2.168 1.416-3.403l1.897-.18zM42.069 34.84c-2.16 0-3.909-1.75-3.909-3.91 0-2.158 1.75-3.908 3.909-3.908 2.158 0 3.908 1.75 3.908 3.908 0 2.16-1.75 3.91-3.908 3.91zm9.086-2.466v-2.887l-1.487-.14c-.2-.968-.584-1.868-1.108-2.667l.955-1.154-2.042-2.04-1.154.954c-.8-.524-1.699-.908-2.666-1.109l-.14-1.487h-2.889l-.14 1.487c-.967.201-1.866.585-2.666 1.11l-1.153-.956-2.043 2.041.956 1.154c-.525.8-.908 1.7-1.11 2.667l-1.485.14v2.887l1.486.14c.2.968.584 1.868 1.11 2.667l-.957 1.154 2.043 2.042 1.153-.955c.8.525 1.699.908 2.667 1.109l.14 1.486h2.888l.14-1.486c.967-.202 1.867-.584 2.666-1.11l1.154.956 2.042-2.042-.955-1.154c.524-.799.908-1.699 1.108-2.667l1.487-.14zM27.59 44.642c-1.814 0-3.284-1.47-3.284-3.283s1.47-3.283 3.283-3.283 3.283 1.47 3.283 3.283-1.47 3.283-3.283 3.283zm7.631-2.07v-2.425l-1.249-.118c-.168-.813-.49-1.57-.93-2.24l.801-.969-1.715-1.715-.969.802c-.671-.44-1.426-.763-2.24-.93l-.117-1.25h-2.425l-.118 1.25c-.813.167-1.568.49-2.24.93l-.969-.802-1.715 1.715.802.969c-.44.67-.763 1.427-.93 2.24l-1.25.118v2.425l1.25.117c.167.814.49 1.57.93 2.24l-.802.97 1.715 1.714.969-.802c.672.44 1.427.763 2.24.931l.118 1.249h2.425l.117-1.249c.814-.168 1.569-.49 2.24-.93l.97.8 1.714-1.714-.802-.968c.44-.671.763-1.427.931-2.24l1.25-.118z" transform="translate(168)"/>
                    </g>
                    <g>
                        <path fill="#6746FF" d="M44.315 49.413H5.099C2.283 49.413 0 47.13 0 44.315V5.099C0 2.282 2.283 0 5.099 0h39.216c2.816 0 5.098 2.282 5.098 5.099v39.216c0 2.815-2.282 5.098-5.098 5.098" transform="translate(324 346)"/>
                        <path fill="#FFF" d="M47.284 49.413H8.068c-2.815 0-5.098-2.283-5.098-5.098V5.099C2.97 2.282 5.253 0 8.068 0h39.216c2.817 0 5.099 2.282 5.099 5.099v39.216c0 2.815-2.282 5.098-5.099 5.098" opacity=".153" transform="translate(324 346)"/>
                        <g fill="#FFF">
                            <path d="M2.66 10.814c1.946 1.607 4.62 1.775 6.725.639l.462.416 1.976-1.629c-.15-.404-.21-.838-.171-1.28.06-.624.315-1.198.724-1.663.34-1.99-.359-4.088-2.04-5.476C8.566.36 6.272-.5 4.282.314c-.248.102.772 2.245.772 2.245l2.58.861.843 2.923-1.606 1.886-3.08-.31-1.306-2.344S.158 4.955.1 5.212c-.473 2.07.79 4.143 2.56 5.602M27.111 19.468l-7.45-5.598c-.154.218-.325.42-.54.598-.53.441-1.222.69-1.932.69-.534 0-1.05-.14-1.504-.392l-1.377 1.137 8.946 8.087 2.174.51 1.29-1.508L28 21.486l-.889-2.018M16.412 12.83c.36.424 1 .483 1.431.124.425-.35.481-.97.135-1.394l7.696-6.307c.84-.693.949-1.924.245-2.748-.707-.828-1.96-.933-2.796-.243l-7.7 6.31c-.36-.414-.992-.465-1.42-.113-.428.351-.484.988-.122 1.408l.623.728-10.71 8.836-1.424.434L.728 21.96l1.286 1.503 2.356-1.158.72-1.357 10.702-8.842.62.724" transform="translate(324 346) translate(11 12)"/>
                        </g>
                    </g>
                    <path stroke="#1995F9" stroke-linecap="square" d="M402.5 243.5L164.5 280.5" opacity=".3"/>
                    <g>
                        <path fill="#00CB92" d="M71.746 80H8.254C3.697 80 0 76.303 0 71.746V8.254C0 3.695 3.697 0 8.254 0h63.492C76.305 0 80 3.695 80 8.254v63.492C80 76.303 76.305 80 71.746 80" transform="translate(371 204)"/>
                        <path fill="#FFF" d="M76.746 80H13.254C8.697 80 5 76.303 5 71.746V8.254C5 3.695 8.697 0 13.254 0h63.492C81.305 0 85 3.695 85 8.254v63.492C85 76.303 81.305 80 76.746 80" opacity=".153" transform="translate(371 204)"/>
                        <g fill="#FFF">
                            <path d="M37.983 8.497c-1.26 0-2.281-1.018-2.281-2.273 0-1.254 1.02-2.27 2.28-2.27 1.26 0 2.283 1.016 2.283 2.27 0 1.255-1.022 2.273-2.282 2.273zM29.618 7.36H31.9V5.089h-2.28v2.27zM45 2.649C45 1.186 43.809 0 42.338 0H2.661C1.19 0 0 1.186 0 2.649v8.7C0 12.814 1.191 14 2.66 14h39.678C43.808 14 45 12.813 45 11.35V2.649zM37.983 24.373c-1.26 0-2.281-1.018-2.281-2.27 0-1.255 1.02-2.273 2.28-2.273 1.26 0 2.283 1.018 2.283 2.272 0 1.253-1.022 2.271-2.282 2.271zm-8.365-1.135H31.9v-2.271h-2.28v2.27zM45 17.65c0-1.464-1.191-2.65-2.662-2.65H2.661C1.19 15 0 16.186 0 17.65v8.701C0 27.814 1.191 29 2.66 29h39.678C43.808 29 45 27.814 45 26.351v-8.7zM37.983 40.248c-1.26 0-2.281-1.016-2.281-2.27 0-1.255 1.02-2.272 2.28-2.272 1.26 0 2.283 1.017 2.283 2.271 0 1.255-1.022 2.271-2.282 2.271zm-8.365-1.135H31.9v-2.271h-2.28v2.27zM45 32.649C45 31.186 43.809 30 42.338 30H2.661C1.19 30 0 31.186 0 32.649v8.7C0 42.815 1.191 44 2.66 44h39.678C43.808 44 45 42.814 45 41.35v-8.701z" transform="translate(371 204) translate(19 18)"/>
                        </g>
                    </g>
                    <g>
                        <g>
                            <g transform="translate(0 90.657) rotate(-9 164.384 7.172)">
                                <g fill="url(#u5ek7szbya)" transform="translate(6 1.343)">
                                    <path d="M140.045 283.918c.778 9.612-7.216 18.958-17.938 20.804l-75.302 12.957c-12.363 2.127-23.347-4.758-24.184-15.342L.074 18.133C-.76 7.63 9.012-.227 21.564.657l76.478 5.382c10.892.767 20.289 9.19 21.059 18.736l20.944 259.143z"/>
                                </g>
                                <g fill="#525252">
                                    <path d="M23.942.789c-.886.007-1.944.046-3.148.13-2.075.145-4.58.482-7.105 1.103-1.253.324-2.51.713-3.697 1.19-.966.4-1.887.85-2.731 1.358-.994.596-1.903 1.311-2.715 2.105C1.772 9.378.273 13.099.03 16.869c-.055.823-.023 1.641.018 2.467v.007s1.82 22.942 4.395 55.33c2.196 27.696 4.945 62.307 7.57 95.36l10.57 133.087v.007s.012.122.042.353c.032.23.053.573.151.998.161.855.517 2.063 1.226 3.444.702 1.38 1.822 2.91 3.327 4.386.77.727 1.627 1.444 2.57 2.123.955.665 1.993 1.298 3.08 1.87 1.104.565 2.26 1.07 3.433 1.507 1.182.431 2.385.787 3.562 1.085 2.375.562 4.654.855 6.572.928 1.919.074 3.468-.02 4.514-.144.524-.044.925-.122 1.198-.158l.416-.062h.007l75.356-13 .007-.003c1.09-.21 2.173-.445 3.233-.798 4.43-1.472 8.328-4.104 11.153-7.594 2.453-3.029 3.984-6.585 4.385-10.169.122-1.091.14-2.182.053-3.255-3.885-47.967-7.839-96.787-10.586-130.737C129.55 70.746 125.92 25.964 125.92 25.964v-.007l-.035-.318c-.03-.211-.044-.518-.115-.908-.112-.784-.355-1.903-.821-3.224-.461-1.323-1.198-2.834-2.206-4.368-.514-.759-1.092-1.525-1.734-2.27-.652-.743-1.361-1.465-2.119-2.148-.766-.677-1.576-1.314-2.412-1.901-.842-.578-1.707-1.1-2.57-1.568-1.74-.915-3.463-1.59-4.98-2.02-1.514-.43-2.804-.66-3.706-.766-.45-.071-.803-.085-1.046-.115l-.37-.032h-.007L27.258.887l-.007-.002-.422-.02c-.278-.012-.693-.051-1.235-.056-.266-.011-.564-.02-.895-.02h-.757zm23.382 317.118c-1.549-.053-3.325-.305-5.13-.796-.898-.261-1.802-.573-2.681-.951-.875-.39-1.728-.837-2.534-1.335-.798-.511-1.549-1.073-2.24-1.667-.679-.6-1.292-1.242-1.84-1.893-1.067-1.319-1.847-2.688-2.336-3.928-.489-1.238-.748-2.327-.858-3.098-.076-.385-.09-.692-.117-.9l-.04-.322v-.004s-5.482-68.972-10.576-133.034L11.396 74.66C8.821 42.28 7 19.347 7 19.347l-.002-.004c-.035-.762-.057-1.516 0-2.268.298-3.976 2.403-7.706 5.632-10.212 3.348-2.591 7.618-3.976 12.061-4.148.902-.035 1.804 0 2.713.043h.007l76.53 5.322h.008l.337.032c.216.025.537.037.945.101.815.092 1.98.303 3.35.69 1.37.383 2.931.993 4.508 1.816.78.427 1.567.897 2.332 1.422.755.532 1.491 1.107 2.187 1.722.688.619 1.33 1.272 1.925 1.946.58.674 1.106 1.37 1.574 2.057.914 1.39 1.581 2.758 1.999 3.955.42 1.195.643 2.208.744 2.917.066.355.08.63.105.823l.032.291v.005s3.63 44.848 10.375 128.138l10.6 130.943c.126-.02.188-.032.188-.032l.193-.028.188-.032.19-.027.288-.046.286-.044.287-.046s.007-.002.021-.002c.01-.002.023-.004.039-.004.023-.007.053-.012.087-.016.04-.005.085-.012.14-.023-.055.011-.1.018-.14.023-.034.004-.064.009-.087.016-.016 0-.03.002-.039.004-.014 0-.02.002-.02.002l-.288.046-.286.044-.287.046-.19.027-.189.032-.193.028-.188.032c.335 4.191-1.117 8.57-4.032 12.161-2.563 3.16-6.09 5.526-10.097 6.858-.96.321-1.944.53-2.935.722l-.003.003-75.363 12.886-.009.002s-.13.018-.371.055c-.246.03-.604.103-1.06.142-.705.09-1.648.158-2.76.158-.323 0-.658-.004-1.007-.018z" transform="translate(0 .343)"/>
                                </g>
                                <path fill="#A3A0A0" d="M4.989 61.105c.19 3.122.503 6.253.756 9.38.47 5.848.945 11.703 1.414 17.554.051.603.098 1.204.146 1.803.014.155.07.276.158.368.153.16.406.233.685.267.26.03.546.023.796.018.114-.002.223-.007.32-.007.908.005.72-.834.68-1.327-.47-5.842-.942-11.683-1.413-17.525l-.754-9.359c-.03-.365-.058-.726-.089-1.09-.032-.374-.318-.544-.682-.621-.265-.057-.569-.064-.847-.064-.156 0-.304 0-.427-.003h-.03c-.419 0-.734.268-.713.606"/>
                                <use fill="#A9A9A9" xlink:href="#ec2p7y3dib"/>
                            </g>
                            <g>
                                <path fill="#FFCF37" d="M14.28 42.044L1.377 23.62c-.754-1.065-.779-2.576-.057-3.67L13.3 1.765l4.412-.05L5.742 19.884c-.72 1.094-.697 2.603.056 3.669l13.08 18.491H14.28z" transform="translate(0 90.657) rotate(-9 164.384 7.172) matrix(-1 0 0 1 164 67.343)"/>
                                <path fill="#000" d="M51.823 42.044L38.921 23.62c-.754-1.065-.78-2.576-.057-3.67L50.842 1.765l7.229-.05L46.1 19.884c-.72 1.094-.696 2.603.057 3.669l13.079 18.491h-7.414z" opacity=".304" transform="translate(0 90.657) rotate(-9 164.384 7.172) matrix(-1 0 0 1 164 67.343)"/>
                                <path fill="#FFCF37" d="M49.027 43.76l16.069-20.573c.854-1.073.881-2.59.064-3.694L50.27.237c-2.644.332-4.133.526-4.466.582-.5.085-.428.442-.263.652 3.181 4.035 7.946 10.089 14.294 18.16.815 1.1.79 2.619-.063 3.692-7.219 8.652-12.543 15.263-15.974 19.833-.248.33-.207.532.123.605h5.107z" transform="translate(0 90.657) rotate(-9 164.384 7.172) matrix(-1 0 0 1 164 67.343)"/>
                                <path fill="#000" d="M92.272 43.76l16.069-20.573c.854-1.073.881-2.59.064-3.694L93.514.237c-5.153.332-7.896.526-8.23.582-.5.085-.428.442-.262.652 3.18 4.035 7.945 10.089 14.294 18.16.815 1.1.789 2.619-.064 3.692-7.218 8.652-12.542 15.263-15.973 19.833-.249.33-.208.532.123.605h8.87z" opacity=".304" transform="translate(0 90.657) rotate(-9 164.384 7.172) matrix(-1 0 0 1 164 67.343)"/>
                                <path fill="#FFCF37" d="M26.699 42.524L21.693 42.559 33.968 0.904 38.612 0.904z" transform="translate(0 90.657) rotate(-9 164.384 7.172) matrix(-1 0 0 1 164 67.343)"/>
                                <path fill="#000" d="M68.323 42.524L61.118 42.559 73.393 0.904 80.237 0.904z" opacity=".304" transform="translate(0 90.657) rotate(-9 164.384 7.172) matrix(-1 0 0 1 164 67.343)"/>
                                <path fill="#E78E0B" d="M33.852 42.029L26.699 42.525 38.612.904 45.477 1.373zM61.177 1.413l14.804 17.966s1.76 2.68.196 4.388C75.14 24.897 60.013 42.06 60.013 42.06l-10.986 1.7 15.636-20.1s2.072-1.76.388-4.123C62.93 16.562 50.227.237 50.227.237l10.95 1.176zM25.742 2.694L14.63 20.01s-1.566 1.731 0 4.14c1.023 1.574 8.725 12.799 8.725 12.799l-1.277 4.304-3.202.791-13.23-18.49s-1.085-2.05-.055-3.67c2.029-3.187 11.84-18.168 11.84-18.168l8.31.978z" transform="translate(0 90.657) rotate(-9 164.384 7.172) matrix(-1 0 0 1 164 67.343)"/>
                            </g>
                        </g>
                        <g transform="translate(0 90.657) translate(22.233 38.671)">
                            <path fill="#2366C4" d="M35.051 142.389L122.97 122.885 124.296 130.411 37.069 150.966zM39.051 159.389L125.839 139.564 128.34 146.915 41.069 167.966z"/>
                            <path fill="#25A5F1" d="M63.366 250.441L151.217 223.393 156.432 241.584 68.074 271.144z"/>
                            <path fill="#2366C4" d="M43.051 177.389L109.031 161.572 110.999 169.706 45.069 185.966zM0 7.893L77.083 0 79.051 8.134 2.018 16.47zM4 23.893L41.595 19.357 43.563 27.491 6.018 32.47z"/>
                            <ellipse cx="37.616" cy="118.225" fill="#2366C4" rx="8.5" ry="11" transform="rotate(-14 37.616 118.225)"/>
                            <ellipse cx="63.283" cy="113.011" fill="#2366C4" rx="7.5" ry="9.5" transform="rotate(-14 63.283 113.011)"/>
                        </g>
                    </g>
                </g>
                <path stroke="#FFF" d="M0 0H560V460H0z" opacity=".02" transform="translate(-732 -172) translate(733 173)"/>
            </g>
        </g>
    </g>
</svg>
