<?xml version="1.0" encoding="UTF-8" standalone="no"?>
<!DOCTYPE svg PUBLIC "-//W3C//DTD SVG 1.1//EN" "http://www.w3.org/Graphics/SVG/1.1/DTD/svg11.dtd">
<svg xmlns="http://www.w3.org/2000/svg" version="1.1" viewBox="0.00 0.00 585.00 426.00">
<g stroke-width="2.00" fill="none" stroke-linecap="butt">
<path stroke="#8aa071" vector-effect="non-scaling-stroke" d="
  M 395.33 87.65
  L 392.76 94.06"
/>
<path stroke="#2f7db1" vector-effect="non-scaling-stroke" d="
  M 157.73 149.67
  Q 155.05 150.11 151.66 149.42"
/>
<path stroke="#2f7db1" vector-effect="non-scaling-stroke" d="
  M 158.25 178.71
  L 151.90 178.44"
/>
<path stroke="#f3cb7a" vector-effect="non-scaling-stroke" d="
  M 430.13 119.90
  Q 425.12 118.64 419.50 118.96
  Q 418.91 119.00 417.24 118.40
  Q 415.44 117.76 414.83 119.74"
/>
<path stroke="#8aa071" vector-effect="non-scaling-stroke" d="
  M 411.47 119.68
  Q 408.24 118.94 404.84 119.32"
/>
<path stroke="#8aa071" vector-effect="non-scaling-stroke" d="
  M 391.19 118.95
  Q 388.87 118.13 386.00 118.73"
/>
<path stroke="#c2cee4" vector-effect="non-scaling-stroke" d="
  M 238.52 218.92
  Q 231.66 218.47 223.00 221.26
  Q 221.18 221.85 220.29 222.78
  Q 219.94 223.14 220.02 223.64
  Q 220.23 224.92 219.68 225.84"
/>
<path stroke="#75afca" vector-effect="non-scaling-stroke" d="
  M 219.68 225.84
  Q 219.57 229.70 219.58 233.75
  Q 219.58 238.83 217.89 254.99"
/>
<path stroke="#7792a9" vector-effect="non-scaling-stroke" d="
  M 216.98 262.90
  Q 216.18 263.37 215.50 263.37
  Q 210.24 263.32 204.93 262.98"
/>
<path stroke="#f0d696" vector-effect="non-scaling-stroke" d="
  M 307.70 226.76
  Q 304.52 228.44 304.50 230.50
  Q 304.39 242.53 304.53 255.55
  Q 304.57 259.28 308.30 259.25
  Q 313.01 259.21 317.83 259.36
  C 319.54 259.42 321.83 262.36 322.96 263.58
  A 1.65 1.64 -45.6 0 0 325.40 263.55
  C 327.19 261.50 328.51 259.36 331.60 259.24
  Q 333.58 259.16 335.42 259.61"
/>
<path stroke="#7f9bac" vector-effect="non-scaling-stroke" d="
  M 329.02 279.48
  Q 325.82 279.60 322.73 281.05
  Q 322.18 281.31 321.59 281.17
  C 319.39 280.66 316.61 279.41 315.87 282.81
  Q 315.34 285.22 315.39 287.33
  Q 315.47 290.33 316.66 287.58
  Q 317.23 286.27 317.90 284.09
  A 1.33 1.33 0.0 0 1 319.72 283.26
  C 322.75 284.63 324.56 286.49 328.21 285.96
  A 0.96 0.96 0.0 0 1 329.27 287.17
  L 328.69 289.25"
/>
<path stroke="#d1dfea" vector-effect="non-scaling-stroke" d="
  M 328.14 293.97
  Q 327.44 295.68 326.34 296.30"
/>
<path stroke="#7f9bac" vector-effect="non-scaling-stroke" d="
  M 326.34 296.30
  Q 322.85 292.92 318.22 295.01
  A 1.52 1.52 0.0 0 1 316.16 294.12
  L 315.41 291.91"
/>
<path stroke="#d1dfea" vector-effect="non-scaling-stroke" d="
  M 315.41 291.91
  Q 315.41 290.76 314.67 291.66
  Q 314.35 292.04 313.87 292.09
  Q 309.32 292.57 305.15 294.54
  Q 304.80 294.70 304.59 295.02
  Q 304.23 295.56 303.32 295.43"
/>
<path stroke="#949da3" vector-effect="non-scaling-stroke" d="
  M 303.32 295.43
  L 305.56 275.73
  A 0.74 0.74 0.0 0 0 305.00 274.93
  L 303.62 274.60
  Q 302.91 274.44 302.87 275.17
  L 302.79 276.51
  Q 302.69 278.21 301.89 276.71
  Q 301.25 275.50 300.14 274.90
  A 2.31 2.31 0.0 0 0 296.96 275.94
  L 295.48 279.04
  A 0.56 0.55 -42.7 0 1 294.46 279.00
  Q 293.73 277.09 292.38 275.47
  A 1.64 1.63 41.8 0 0 289.76 275.61
  L 287.39 279.21
  A 0.81 0.81 0.0 0 1 285.98 279.12
  Q 285.32 277.77 284.55 276.40
  C 283.62 274.73 281.33 274.47 280.19 276.06
  Q 279.20 277.45 278.49 279.19
  A 0.57 0.57 0.0 0 1 277.45 279.24
  Q 276.80 278.00 276.17 276.77
  C 275.20 274.91 272.73 274.45 271.49 276.35
  Q 270.63 277.68 270.05 279.11
  Q 269.57 280.26 269.40 279.02
  L 268.94 275.80
  A 0.87 0.87 0.0 0 0 267.84 275.09
  L 267.15 275.29
  Q 266.15 275.59 266.30 276.61
  L 272.89 323.95
  Q 272.96 324.48 272.42 324.48
  L 261.04 324.49"
/>
<path stroke="#7eb7cd" vector-effect="non-scaling-stroke" d="
  M 247.47 290.23
  L 243.21 281.97"
/>
<path stroke="#dce5ef" vector-effect="non-scaling-stroke" d="
  M 247.26 216.80
  Q 247.57 216.58 247.60 216.30
  Q 247.64 215.93 247.31 215.76
  Q 244.94 214.54 245.27 211.54
  A 0.83 0.83 0.0 0 1 245.98 210.81
  Q 246.25 210.77 246.43 210.98
  Q 246.96 211.62 247.06 210.79
  Q 247.15 210.04 247.27 209.12"
/>
<path stroke="#8aa071" vector-effect="non-scaling-stroke" d="
  M 342.31 227.49
  Q 340.96 227.38 339.75 226.79"
/>
<path stroke="#7eb7cd" vector-effect="non-scaling-stroke" d="
  M 266.64 203.96
  Q 263.04 205.15 260.35 206.85
  Q 257.41 208.72 255.73 209.61
  A 1.32 1.28 34.1 0 1 254.89 209.76
  L 248.41 208.74"
/>
<path stroke="#8aa071" vector-effect="non-scaling-stroke" d="
  M 344.15 254.66
  Q 344.48 255.54 343.33 257.53"
/>
<path stroke="#196587" vector-effect="non-scaling-stroke" d="
  M 388.89 209.20
  Q 388.78 209.40 388.62 209.54
  Q 388.48 209.67 388.22 209.67
  Q 374.38 209.88 360.10 209.62"
/>
<path stroke="#75afca" vector-effect="non-scaling-stroke" d="
  M 216.51 214.36
  L 208.54 215.98"
/>
<path stroke="#196587" vector-effect="non-scaling-stroke" d="
  M 209.50 194.98
  Q 208.98 195.46 209.07 196.04"
/>
<path stroke="#828f90" vector-effect="non-scaling-stroke" d="
  M 209.07 196.04
  Q 208.08 194.59 207.27 194.51
  C 205.75 194.34 201.04 194.22 199.89 195.91
  Q 198.31 198.23 196.21 200.11"
/>
<path stroke="#196587" vector-effect="non-scaling-stroke" d="
  M 391.43 241.88
  L 383.20 241.93"
/>
<path stroke="#196587" vector-effect="non-scaling-stroke" d="
  M 365.84 242.31
  Q 362.36 241.80 359.00 241.88
  C 355.69 241.96 352.72 241.54 352.88 237.61
  Q 353.02 233.95 352.27 232.11"
/>
<path stroke="#196587" vector-effect="non-scaling-stroke" d="
  M 207.24 189.47
  L 203.22 188.86
  A 2.29 2.27 17.6 0 0 200.85 190.08
  Q 198.83 194.06 195.84 197.85
  Q 194.94 198.97 196.21 200.11"
/>
<path stroke="#80acb1" vector-effect="non-scaling-stroke" d="
  M 196.21 200.11
  Q 195.27 201.41 196.07 203.25
  Q 198.28 208.30 197.76 213.93
  Q 197.72 214.42 197.45 214.83
  L 196.22 216.77"
/>
<path stroke="#75afca" vector-effect="non-scaling-stroke" d="
  M 196.22 216.77
  Q 190.63 218.69 186.82 221.63"
/>
<path stroke="#2f7db1" vector-effect="non-scaling-stroke" d="
  M 171.15 178.65
  Q 173.80 179.09 175.45 180.56
  Q 177.28 182.18 178.91 183.74
  Q 181.07 185.80 181.04 182.81
  L 181.02 180.78
  A 1.91 1.91 0.0 0 1 182.84 178.85
  C 184.86 178.75 188.14 179.29 188.12 176.21
  Q 188.06 162.83 188.05 151.21
  A 1.68 1.67 89.7 0 0 186.37 149.54
  L 170.48 149.60"
/>
<path stroke="#75afca" vector-effect="non-scaling-stroke" d="
  M 179.81 233.84
  L 178.44 236.52
  Q 178.22 236.95 177.75 237.07
  Q 176.17 237.46 176.29 239.81"
/>
<path stroke="#ded9d3" vector-effect="non-scaling-stroke" d="
  M 419.79 137.61
  Q 418.17 143.53 415.10 147.35
  Q 413.80 148.97 411.36 149.32"
/>
<path stroke="#80acb1" vector-effect="non-scaling-stroke" d="
  M 408.69 133.14
  L 413.30 124.67"
/>
<path stroke="#80acb1" vector-effect="non-scaling-stroke" d="
  M 209.07 196.04
  Q 209.72 202.49 208.98 209.17
  C 208.70 211.72 205.28 213.20 208.54 215.98"
/>
<path stroke="#ded9d3" vector-effect="non-scaling-stroke" d="
  M 208.54 215.98
  Q 207.67 216.86 207.28 218.19
  Q 207.14 218.68 206.73 218.98
  Q 205.26 220.07 205.68 221.80
  Q 206.38 224.68 206.69 227.80
  Q 207.58 236.85 207.44 244.50
  Q 207.26 253.83 204.93 262.98"
/>
<path stroke="#828f90" vector-effect="non-scaling-stroke" d="
  M 204.93 262.98
  L 203.00 262.88"
/>
<path stroke="#ded9d3" vector-effect="non-scaling-stroke" d="
  M 203.00 262.88
  Q 203.56 257.08 204.18 251.23
  Q 205.77 236.24 203.33 222.27
  Q 203.06 220.73 202.60 219.27
  A 0.55 0.55 0.0 0 0 201.61 219.14
  L 200.60 220.75
  Q 200.29 221.25 199.90 220.82
  L 196.22 216.77"
/>
<path stroke="#64a0c3" vector-effect="non-scaling-stroke" d="
  M 220.64 224.82
  Q 220.63 225.35 219.68 225.84"
/>
<path stroke="#196587" vector-effect="non-scaling-stroke" d="
  M 218.36 270.40
  L 219.86 278.39"
/>
<path stroke="#223c4e" vector-effect="non-scaling-stroke" d="
  M 230.67 354.35
  Q 227.96 353.70 224.44 356.87"
/>
<path stroke="#223c4e" vector-effect="non-scaling-stroke" d="
  M 202.09 354.79
  Q 199.32 355.65 195.65 355.04"
/>
<path stroke="#818e9b" vector-effect="non-scaling-stroke" d="
  M 303.32 295.43
  L 302.35 296.17"
/>
<path stroke="#7a8699" vector-effect="non-scaling-stroke" d="
  M 302.35 296.17
  Q 300.52 297.14 300.42 296.58"
/>
<path stroke="#949da3" vector-effect="non-scaling-stroke" d="
  M 300.42 296.58
  L 302.02 282.52
  Q 302.08 281.97 301.82 281.49
  L 299.63 277.39
  A 0.45 0.45 0.0 0 0 298.82 277.44
  Q 298.15 279.09 297.21 280.60
  C 295.90 282.70 293.40 282.08 292.37 280.15
  Q 291.92 279.32 291.58 278.49
  Q 291.21 277.58 290.76 278.46
  C 289.26 281.32 285.26 284.30 283.48 279.50
  Q 283.09 278.46 282.45 277.55
  A 0.40 0.40 0.0 0 0 281.77 277.58
  C 281.05 278.90 280.57 280.95 279.26 281.76
  C 276.81 283.30 275.18 280.17 274.33 278.37
  Q 273.52 276.64 272.89 278.44
  Q 272.12 280.65 270.35 282.01
  Q 269.86 282.39 269.95 283.00
  L 275.64 323.94
  A 0.68 0.68 0.0 0 0 276.34 324.53
  L 288.68 324.29"
/>
<path stroke="#536e8f" vector-effect="non-scaling-stroke" d="
  M 288.68 324.29
  L 286.29 328.36"
/>
<path stroke="#373e45" vector-effect="non-scaling-stroke" d="
  M 286.29 328.36
  L 261.68 328.84
  Q 261.19 328.85 260.93 329.26
  Q 260.51 329.92 259.77 330.02"
/>
<path stroke="#7eb7cd" vector-effect="non-scaling-stroke" d="
  M 297.71 201.84
  L 291.51 201.52"
/>
<path stroke="#6aa9c5" vector-effect="non-scaling-stroke" d="
  M 291.51 201.52
  L 293.27 201.30
  Q 293.63 201.25 293.42 200.94
  Q 293.30 200.76 293.00 200.72
  Q 286.35 199.81 280.19 200.92"
/>
<path stroke="#6c8ca4" vector-effect="non-scaling-stroke" d="
  M 315.41 291.91
  Q 314.52 294.32 314.09 296.77
  C 313.36 300.85 319.51 302.99 322.57 303.48
  Q 325.73 303.98 326.93 301.23
  Q 328.48 297.67 326.34 296.30"
/>
<path stroke="#b7c8e0" vector-effect="non-scaling-stroke" d="
  M 336.35 301.96
  Q 334.75 313.53 331.02 322.43"
/>
<path stroke="#d1dfea" vector-effect="non-scaling-stroke" d="
  M 331.02 322.43
  Q 328.05 326.06 327.39 333.00
  Q 327.27 334.20 325.88 335.98
  Q 325.56 336.39 325.04 336.40
  Q 323.25 336.43 321.58 336.25
  Q 320.03 336.08 318.31 334.84
  Q 315.38 332.75 312.68 330.58"
/>
<path stroke="#b7c8e0" vector-effect="non-scaling-stroke" d="
  M 312.68 330.58
  Q 313.49 330.03 313.76 329.30
  Q 314.04 328.55 313.61 327.80
  Q 312.64 326.11 311.32 325.11
  Q 310.87 324.77 310.37 325.03
  Q 308.63 325.92 306.70 325.37
  A 0.45 0.45 0.0 0 1 306.64 324.53
  Q 307.95 323.96 309.42 323.96
  A 1.17 1.17 0.0 0 0 310.58 322.60
  Q 308.85 312.05 306.80 301.25
  Q 306.17 297.93 302.35 296.17"
/>
<path stroke="#d1dfea" vector-effect="non-scaling-stroke" d="
  M 291.51 201.52
  L 285.91 200.90"
/>
<path stroke="#196587" vector-effect="non-scaling-stroke" d="
  M 330.71 287.44
  L 329.76 280.63"
/>
<path stroke="#196587" vector-effect="non-scaling-stroke" d="
  M 392.38 240.49
  L 392.24 229.14"
/>
<path stroke="#7792a9" vector-effect="non-scaling-stroke" d="
  M 203.00 262.88
  L 193.03 262.42
  Q 190.40 262.30 192.32 264.09
  Q 193.44 265.14 194.88 265.94
  A 0.52 0.49 12.3 0 1 195.14 266.32
  Q 195.20 266.80 194.83 266.84
  Q 193.79 266.95 194.12 267.95
  Q 194.31 268.53 193.73 268.62
  Q 193.29 268.69 192.93 268.43
  Q 191.75 267.60 190.21 267.45"
/>
<path stroke="#ded9d3" vector-effect="non-scaling-stroke" d="
  M 487.35 176.46
  Q 486.52 178.30 484.91 177.39
  Q 484.51 177.16 484.31 177.58
  Q 483.83 178.59 483.00 178.71
  Q 480.11 179.11 478.19 179.46"
/>
<path stroke="#e8ce92" vector-effect="non-scaling-stroke" d="
  M 478.19 179.46
  Q 476.19 177.22 474.33 174.18
  Q 473.22 172.37 473.94 170.85"
/>
<path stroke="#e8ce92" vector-effect="non-scaling-stroke" d="
  M 458.72 164.99
  Q 455.74 164.62 455.56 166.48
  Q 455.09 171.55 453.76 176.14
  A 1.15 1.15 0.0 0 1 451.82 176.61
  L 447.69 172.28"
/>
<path stroke="#7792a9" vector-effect="non-scaling-stroke" d="
  M 447.69 172.28
  Q 447.80 161.12 449.63 150.20
  Q 449.66 150.00 449.47 149.92
  Q 449.32 149.86 449.19 149.92
  Q 449.03 150.02 448.94 150.19
  Q 444.30 159.58 443.15 170.52"
/>
<path stroke="#e8ce92" vector-effect="non-scaling-stroke" d="
  M 443.15 170.52
  L 438.20 171.36"
/>
<path stroke="#c2cee4" vector-effect="non-scaling-stroke" d="
  M 436.79 158.51
  L 436.53 156.04
  Q 436.48 155.51 435.95 155.56
  L 423.84 156.64"
/>
<path stroke="#75afca" vector-effect="non-scaling-stroke" d="
  M 418.91 154.84
  Q 418.97 154.17 418.50 154.20
  Q 414.41 154.48 411.78 151.52"
/>
<path stroke="#cad6e8" vector-effect="non-scaling-stroke" d="
  M 300.42 296.58
  C 300.16 297.40 299.84 298.22 299.13 298.81
  C 296.08 301.40 295.41 308.13 295.39 311.84
  Q 295.39 313.19 296.04 317.11
  Q 296.52 319.98 296.34 322.47"
/>
<path stroke="#a3bede" vector-effect="non-scaling-stroke" d="
  M 296.34 322.47
  Q 293.67 322.29 292.50 322.72
  Q 290.13 323.59 288.68 324.29"
/>
<path stroke="#3e6c98" vector-effect="non-scaling-stroke" d="
  M 320.56 343.11
  L 327.53 349.55"
/>
<path stroke="#5484c2" vector-effect="non-scaling-stroke" d="
  M 327.53 349.55
  Q 329.22 351.13 327.81 352.87"
/>
<path stroke="#5484c2" vector-effect="non-scaling-stroke" d="
  M 323.58 356.76
  L 318.60 360.47
  A 2.18 2.17 -42.6 0 1 315.86 360.36
  L 310.58 355.67"
/>
<path stroke="#3e6c98" vector-effect="non-scaling-stroke" d="
  M 310.58 355.67
  L 288.35 334.06"
/>
<path stroke="#466080" vector-effect="non-scaling-stroke" d="
  M 288.35 334.06
  Q 285.82 331.46 286.29 328.36"
/>
<path stroke="#cad6e8" vector-effect="non-scaling-stroke" d="
  M 312.68 330.58
  Q 309.81 332.04 309.33 333.45"
/>
<path stroke="#89a7d4" vector-effect="non-scaling-stroke" d="
  M 309.33 333.45
  L 296.34 322.47"
/>
<path stroke="#223c4e" vector-effect="non-scaling-stroke" d="
  M 288.35 334.06
  L 288.22 334.45
  Q 288.02 335.05 287.69 334.50
  Q 287.57 334.29 287.34 334.20
  Q 287.00 334.06 286.67 334.07
  Q 274.40 334.40 262.12 334.10
  Q 261.63 334.09 261.19 333.86
  L 260.48 333.51"
/>
<path stroke="#cad6e8" vector-effect="non-scaling-stroke" d="
  M 339.37 322.56
  Q 335.51 323.20 331.02 322.43"
/>
<path stroke="#95b3d6" vector-effect="non-scaling-stroke" d="
  M 349.81 340.22
  Q 347.84 342.16 344.76 342.16
  Q 342.37 342.17 340.98 342.71"
/>
<path stroke="#7f9bac" vector-effect="non-scaling-stroke" d="
  M 340.98 342.71
  L 320.56 343.11"
/>
<path stroke="#a3bede" vector-effect="non-scaling-stroke" d="
  M 320.56 343.11
  Q 319.36 343.04 318.98 341.66
  Q 318.85 341.19 318.47 340.88
  L 309.33 333.45"
/>
<path stroke="#8b8450" vector-effect="non-scaling-stroke" d="
  M 447.69 172.28
  L 443.15 170.52"
/>
<path stroke="#f4d67d" vector-effect="non-scaling-stroke" d="
  M 487.72 176.72
  Q 487.44 177.42 486.95 177.94
  Q 486.62 178.30 486.51 178.78
  Q 484.20 188.73 478.74 196.62"
/>
<path stroke="#ded9d3" vector-effect="non-scaling-stroke" d="
  M 456.65 144.68
  L 451.39 148.25
  A 1.77 1.77 0.0 0 1 448.73 147.38
  L 447.88 144.96"
/>
<path stroke="#f3cb7a" vector-effect="non-scaling-stroke" d="
  M 478.19 179.46
  L 474.07 193.04"
/>
<path stroke="#f3cb7a" vector-effect="non-scaling-stroke" d="
  M 469.96 201.82
  Q 468.28 202.59 467.92 203.62"
/>
<path stroke="#8b8450" vector-effect="non-scaling-stroke" d="
  M 461.49 200.69
  L 451.13 196.63
  A 1.03 1.02 -73.9 0 1 450.50 195.48
  L 451.98 187.93"
/>
<path stroke="#e8ce92" vector-effect="non-scaling-stroke" d="
  M 451.98 187.93
  Q 452.67 185.75 452.09 184.11
  A 2.72 2.72 0.0 0 0 448.61 182.47
  C 445.95 183.42 444.70 182.93 442.32 181.66
  Q 440.29 180.57 438.20 179.80"
/>
<path stroke="#306090" vector-effect="non-scaling-stroke" d="
  M 336.73 359.40
  Q 336.64 359.96 334.95 359.03
  Q 333.96 355.49 330.33 355.31"
/>
<path stroke="#306090" vector-effect="non-scaling-stroke" d="
  M 327.53 349.55
  Q 335.30 346.46 342.99 343.36
  Q 343.14 343.30 343.17 343.16
  Q 343.21 342.90 342.95 342.88
  L 340.98 342.71"
/>
<path stroke="#306090" vector-effect="non-scaling-stroke" d="
  M 310.58 355.67
  Q 310.01 357.46 310.19 358.41"
/>
<path stroke="#306090" vector-effect="non-scaling-stroke" d="
  M 312.91 362.57
  L 313.49 363.59"
/>
<path stroke="#306090" vector-effect="non-scaling-stroke" d="
  M 300.91 360.26
  Q 299.55 362.35 300.84 363.90
  Q 301.20 364.33 301.76 364.24
  L 304.27 363.82
  A 0.76 0.75 -11.8 0 0 304.88 362.90
  L 304.24 360.16"
/>
<path stroke="#828f90" vector-effect="non-scaling-stroke" d="
  M 458.12 140.10
  L 460.49 136.57"
/>
<path stroke="#828f90" vector-effect="non-scaling-stroke" d="
  M 460.55 135.46
  Q 460.14 134.86 460.23 134.50
  Q 460.79 132.07 460.85 129.52"
/>
<path stroke="#828f90" vector-effect="non-scaling-stroke" d="
  M 459.91 126.46
  Q 458.09 124.92 455.35 125.53"
/>
<path stroke="#7792a9" vector-effect="non-scaling-stroke" d="
  M 451.98 187.93
  L 439.51 188.72"
/>
<path stroke="#196587" vector-effect="non-scaling-stroke" d="
  M 480.70 278.23
  Q 479.62 277.71 478.99 277.84
  Q 477.67 278.10 476.24 278.09"
/>
<path stroke="#8d8f53" vector-effect="non-scaling-stroke" d="
  M 445.37 277.02
  L 444.46 279.34"
/>
<path stroke="#306090" vector-effect="non-scaling-stroke" d="
  M 444.46 279.34
  Q 441.89 278.58 439.48 279.60"
/>
<path stroke="#8d8f53" vector-effect="non-scaling-stroke" d="
  M 439.48 279.60
  L 439.07 278.55"
/>
<path stroke="#306090" vector-effect="non-scaling-stroke" d="
  M 333.28 358.72
  L 332.84 358.66
  Q 332.50 358.61 332.27 358.87
  Q 332.16 359.00 332.12 359.13
  Q 331.98 359.60 332.43 359.78
  Q 333.91 360.39 334.28 359.54"
/>
<path stroke="#306090" vector-effect="non-scaling-stroke" d="
  M 324.75 362.45
  Q 324.12 359.99 324.96 358.18"
/>
<path stroke="#223c4e" vector-effect="non-scaling-stroke" d="
  M 259.05 333.60
  L 258.87 334.29
  A 1.91 1.91 0.0 0 0 260.74 336.67
  L 286.69 336.39
  A 2.35 2.34 76.3 0 1 288.82 337.69
  Q 291.61 343.34 294.82 348.23
  Q 297.01 351.56 302.13 356.64"
/>
<path stroke="#373e45" vector-effect="non-scaling-stroke" d="
  M 258.97 342.49
  Q 258.06 343.24 258.41 344.00
  C 259.32 346.04 261.00 345.83 263.33 345.83
  Q 275.80 345.84 290.35 345.42
  Q 291.54 345.38 291.18 344.25
  Q 291.08 343.95 290.88 343.72
  Q 289.88 342.61 288.45 342.66
  Q 274.62 343.06 261.64 342.86
  Q 261.34 342.85 261.10 342.71
  Q 260.79 342.53 260.59 342.35"
/>
<path stroke="#a3a77d" vector-effect="non-scaling-stroke" d="
  M 439.48 279.60
  Q 439.49 279.60 439.51 279.60"
/>
<path stroke="#95833b" vector-effect="non-scaling-stroke" d="
  M 439.51 279.60
  Q 438.64 280.85 437.59 281.65
  Q 436.72 282.32 435.02 282.50
  Q 432.32 282.77 429.74 283.69"
/>
<path stroke="#385478" vector-effect="non-scaling-stroke" d="
  M 444.41 280.49
  Q 440.67 282.54 439.51 279.60"
/>
<path stroke="#8bac74" vector-effect="non-scaling-stroke" d="
  M 476.56 279.24
  L 476.41 281.99"
/>
<path stroke="#95833b" vector-effect="non-scaling-stroke" d="
  M 476.41 281.99
  Q 477.50 284.75 471.25 285.03
  Q 470.64 285.05 470.72 285.52
  A 0.44 0.43 82.3 0 0 471.17 285.87
  L 478.94 285.49"
/>
<path stroke="#fecb3d" vector-effect="non-scaling-stroke" d="
  M 478.94 285.49
  Q 479.65 285.22 479.50 287.04
  Q 479.46 287.57 479.12 287.97
  Q 477.25 290.19 474.95 290.96
  Q 459.88 296.05 443.45 292.20
  C 440.98 291.62 436.44 290.22 434.84 288.17
  Q 434.15 287.29 433.35 286.50
  Q 432.98 286.13 432.46 286.13
  L 431.80 286.13
  Q 431.35 286.13 430.96 285.89
  Q 429.76 285.16 427.97 286.98"
/>
<path stroke="#95833b" vector-effect="non-scaling-stroke" d="
  M 429.30 284.16
  Q 429.57 284.07 429.80 284.30
  Q 430.07 284.58 430.45 284.59
  Q 435.13 284.69 439.39 284.25
  C 440.96 284.09 442.24 284.71 443.82 284.48
  Q 444.35 284.40 444.45 283.88
  Q 444.76 282.35 444.41 280.49"
/>
<path stroke="#a3a77d" vector-effect="non-scaling-stroke" d="
  M 444.41 280.49
  Q 444.53 280.05 444.46 279.34"
/>
<path stroke="#21596f" vector-effect="non-scaling-stroke" d="
  M 480.48 278.58
  Q 480.29 281.08 476.41 281.99"
/>
<path stroke="#fecb3d" vector-effect="non-scaling-stroke" d="
  M 485.84 292.90
  Q 486.00 292.15 484.88 292.08
  Q 484.38 292.05 483.97 292.35
  Q 476.53 297.82 467.73 298.97
  C 458.86 300.14 449.35 300.13 440.74 297.90
  Q 432.85 295.86 427.82 289.83"
/>
<path stroke="#937838" vector-effect="non-scaling-stroke" d="
  M 482.68 281.96
  Q 480.13 283.28 478.94 285.49"
/>
<path stroke="#fecb3d" vector-effect="non-scaling-stroke" d="
  M 486.83 294.95
  Q 485.04 298.13 482.57 299.85
  Q 478.61 302.60 473.60 303.91
  Q 454.83 308.84 436.52 302.73
  Q 434.38 302.01 432.42 300.52
  Q 431.70 299.97 431.20 300.73
  Q 431.07 300.92 431.08 301.14
  Q 431.10 302.14 431.88 302.73
  Q 436.90 306.58 441.36 307.82
  Q 457.24 312.23 473.52 308.86
  Q 481.73 307.16 487.86 301.45"
/>
<path stroke="#fecb3d" vector-effect="non-scaling-stroke" d="
  M 486.55 322.54
  Q 482.18 327.33 476.33 329.39
  Q 472.45 330.76 464.57 331.76
  Q 451.37 333.46 438.87 329.48
  Q 435.22 328.33 430.19 325.08
  Q 429.81 324.83 429.66 325.26
  L 429.55 325.56
  Q 429.31 326.22 429.82 326.70
  Q 432.86 329.64 436.31 331.00
  Q 450.86 336.72 468.67 334.00
  Q 475.21 333.01 479.01 331.10
  Q 481.83 329.69 486.45 325.63"
/>
<path stroke="#fecb3d" vector-effect="non-scaling-stroke" d="
  M 428.64 335.56
  Q 435.35 341.46 444.50 343.17
  Q 457.05 345.53 469.66 343.39
  C 474.35 342.60 481.24 340.59 484.73 337.02
  Q 485.19 336.54 485.19 335.85
  Q 485.20 335.24 484.92 334.73
  Q 484.65 334.21 484.16 334.53
  Q 479.80 337.37 474.36 338.81
  Q 458.99 342.86 444.65 340.05
  Q 437.19 338.58 430.89 334.10
  Q 430.33 333.70 428.34 333.48"
/>
<path stroke="#fecb3d" vector-effect="non-scaling-stroke" d="
  M 428.61 309.57
  Q 430.55 310.83 432.49 312.25
  C 436.75 315.35 442.18 316.87 447.33 317.54
  Q 455.60 318.62 465.45 317.87
  C 469.02 317.60 479.18 316.15 481.37 313.23
  Q 482.25 312.05 480.89 312.61
  C 470.90 316.71 459.39 317.43 448.77 315.86
  Q 441.85 314.83 435.18 311.47
  C 432.77 310.26 430.74 308.04 428.39 306.39"
/>
<path stroke="#828f90" vector-effect="non-scaling-stroke" d="
  M 144.20 226.98
  Q 143.19 229.54 141.52 230.11
  Q 140.43 230.48 141.08 231.43
  Q 143.58 235.04 140.74 237.31
  Q 140.33 237.63 139.81 237.66
  L 135.72 237.88"
/>
<path stroke="#98ccc1" vector-effect="non-scaling-stroke" d="
  M 141.39 242.76
  Q 139.53 243.25 137.82 242.67
  Q 137.33 242.51 137.26 242.00
  L 137.01 240.29"
/>
<path stroke="#479dc1" vector-effect="non-scaling-stroke" d="
  M 149.16 290.66
  L 122.57 291.81"
/>
<path stroke="#98ccc1" vector-effect="non-scaling-stroke" d="
  M 122.57 291.81
  Q 121.32 289.71 115.62 289.95"
/>
<path stroke="#385478" vector-effect="non-scaling-stroke" d="
  M 144.46 372.47
  L 137.69 374.12"
/>
<path stroke="#385478" vector-effect="non-scaling-stroke" d="
  M 118.67 370.24
  Q 117.50 376.22 110.81 372.71"
/>
<path stroke="#98a7ba" vector-effect="non-scaling-stroke" d="
  M 122.57 291.81
  L 120.89 301.55"
/>
<path stroke="#98a7ba" vector-effect="non-scaling-stroke" d="
  M 149.71 293.54
  Q 149.46 292.90 149.74 292.31"
/>
<path stroke="#828f90" vector-effect="non-scaling-stroke" d="
  M 399.93 258.85
  L 397.41 256.64"
/>
<path stroke="#828f90" vector-effect="non-scaling-stroke" d="
  M 394.67 255.21
  Q 392.58 254.60 391.28 252.73"
/>
<path stroke="#828f90" vector-effect="non-scaling-stroke" d="
  M 389.48 253.71
  Q 388.70 254.32 387.73 254.62
  Q 387.26 254.77 387.22 255.25
  Q 387.04 257.34 385.64 259.03"
/>
<path stroke="#d3d3ce" vector-effect="non-scaling-stroke" d="
  M 398.69 265.12
  Q 396.58 268.89 393.17 271.16
  A 0.91 0.91 0.0 0 1 392.29 271.23
  Q 389.99 270.21 389.02 269.11
  Q 387.67 267.57 386.37 264.23"
/>
<path stroke="#b7c8e0" vector-effect="non-scaling-stroke" d="
  M 411.25 268.78
  Q 410.05 279.55 408.79 290.25
  Q 408.60 291.90 409.43 293.13
  A 0.86 0.85 42.3 0 1 409.48 294.01
  L 409.31 294.32
  Q 409.09 294.74 409.25 295.18
  Q 409.91 296.99 410.77 298.74
  Q 411.08 299.38 410.81 300.73"
/>
<path stroke="#7b898c" vector-effect="non-scaling-stroke" d="
  M 410.83 301.43
  L 406.92 301.85
  A 1.28 1.27 19.5 0 0 406.18 302.20
  Q 405.68 302.69 405.74 303.15
  A 1.38 1.38 0.0 0 1 404.37 304.72
  Q 390.12 304.74 377.50 304.70
  Q 376.25 304.70 374.87 303.01"
/>
<path stroke="#d1dfea" vector-effect="non-scaling-stroke" d="
  M 375.65 301.36
  L 375.99 301.91
  Q 376.23 302.29 376.68 302.29
  L 404.57 302.24
  A 1.32 1.32 0.0 0 0 405.89 300.93
  L 406.04 283.26
  Q 406.05 281.98 404.76 281.98
  L 377.04 281.98
  A 1.13 1.13 0.0 0 0 375.91 283.19
  Q 376.26 288.02 374.07 293.55"
/>
<path stroke="#7b898c" vector-effect="non-scaling-stroke" d="
  M 372.86 303.52
  Q 372.77 304.05 372.61 304.43
  Q 372.44 304.81 371.98 305.08
  Q 368.47 307.12 364.65 306.50"
/>
<path stroke="#9c8c3b" vector-effect="non-scaling-stroke" d="
  M 422.88 306.09
  L 423.27 321.87"
/>
<path stroke="#9c8c3b" vector-effect="non-scaling-stroke" d="
  M 423.67 329.28
  L 424.21 340.79"
/>
<path stroke="#323936" vector-effect="non-scaling-stroke" d="
  M 423.94 348.64
  Q 420.56 348.80 417.05 350.56"
/>
<path stroke="#9c8c3b" vector-effect="non-scaling-stroke" d="
  M 414.80 347.86
  L 413.95 341.53"
/>
<path stroke="#9b8137" vector-effect="non-scaling-stroke" d="
  M 413.95 341.53
  L 413.36 337.15"
/>
<path stroke="#9c8c3b" vector-effect="non-scaling-stroke" d="
  M 413.36 337.15
  L 412.45 329.96"
/>
<path stroke="#9b8137" vector-effect="non-scaling-stroke" d="
  M 412.45 329.96
  L 412.25 327.51"
/>
<path stroke="#9c8c3b" vector-effect="non-scaling-stroke" d="
  M 412.25 327.51
  L 411.66 321.02"
/>
<path stroke="#9b8137" vector-effect="non-scaling-stroke" d="
  M 411.66 321.02
  L 411.32 316.77"
/>
<path stroke="#9c8c3b" vector-effect="non-scaling-stroke" d="
  M 411.32 316.77
  L 411.31 312.83
  Q 411.31 312.47 410.95 312.45
  Q 395.71 311.55 380.73 313.86"
/>
<path stroke="#9b8137" vector-effect="non-scaling-stroke" d="
  M 380.73 313.86
  L 376.53 314.44
  Q 376.01 314.51 375.99 315.04
  L 375.80 319.39"
/>
<path stroke="#9c8c3b" vector-effect="non-scaling-stroke" d="
  M 375.80 319.39
  L 375.72 326.18"
/>
<path stroke="#9b8137" vector-effect="non-scaling-stroke" d="
  M 375.72 326.18
  L 375.66 329.88"
/>
<path stroke="#9c8c3b" vector-effect="non-scaling-stroke" d="
  M 375.66 329.88
  L 375.55 337.83"
/>
<path stroke="#9b8137" vector-effect="non-scaling-stroke" d="
  M 375.55 337.83
  L 375.51 340.94"
/>
<path stroke="#9c8c3b" vector-effect="non-scaling-stroke" d="
  M 375.51 340.94
  L 374.90 347.34"
/>
<path stroke="#323936" vector-effect="non-scaling-stroke" d="
  M 374.71 349.62
  L 367.61 349.45"
/>
<path stroke="#9c8c3b" vector-effect="non-scaling-stroke" d="
  M 366.43 333.22
  L 364.73 317.68"
/>
<path stroke="#fecb3d" vector-effect="non-scaling-stroke" d="
  M 413.95 341.53
  Q 394.62 347.75 375.51 340.94"
/>
<path stroke="#fecb3d" vector-effect="non-scaling-stroke" d="
  M 412.25 327.51
  Q 393.90 330.85 375.72 326.18"
/>
<path stroke="#fecb3d" vector-effect="non-scaling-stroke" d="
  M 411.66 321.02
  Q 393.53 325.22 375.80 319.39"
/>
<path stroke="#fecb3d" vector-effect="non-scaling-stroke" d="
  M 412.45 329.96
  Q 412.30 329.77 412.12 329.70
  A 0.63 0.61 -67.7 0 0 411.35 330.03
  Q 410.98 330.83 410.14 331.07
  Q 395.26 335.18 379.67 332.22
  Q 378.58 332.01 377.59 331.25
  Q 376.67 330.54 375.66 329.88"
/>
<path stroke="#fecb3d" vector-effect="non-scaling-stroke" d="
  M 413.36 337.15
  Q 411.91 337.37 410.46 337.43
  Q 408.86 337.49 407.56 337.80
  Q 391.89 341.52 375.55 337.83"
/>
<path stroke="#fecb3d" vector-effect="non-scaling-stroke" d="
  M 411.32 316.77
  Q 410.47 316.50 409.60 316.22
  Q 408.74 315.93 407.85 316.00
  Q 401.94 316.46 396.07 316.70
  Q 391.94 316.86 381.59 315.33
  A 0.91 0.90 82.4 0 1 380.88 314.78
  Q 380.66 314.25 380.73 313.86"
/>
<path stroke="#95b3d6" vector-effect="non-scaling-stroke" d="
  M 483.98 98.85
  Q 484.96 98.65 485.92 98.80
  A 0.66 0.65 -71.7 0 0 486.60 98.45
  Q 486.96 97.77 486.86 96.96
  Q 486.68 95.39 488.25 95.24
  L 490.33 95.04
  Q 491.76 94.90 491.75 96.33
  L 491.71 101.75
  Q 491.71 102.47 492.43 102.46
  L 492.68 102.46
  Q 493.58 102.44 493.58 101.54
  L 493.59 94.20
  A 0.88 0.87 -89.0 0 0 492.75 93.32
  Q 489.99 93.20 487.09 93.16
  C 484.07 93.12 481.11 95.65 481.06 98.78
  Q 480.98 103.90 481.31 108.05
  A 0.58 0.57 -6.6 0 0 481.97 108.57
  Q 482.21 108.53 482.41 108.41
  Q 483.09 108.01 483.10 107.23
  L 483.19 99.81
  A 0.99 0.99 0.0 0 1 483.98 98.85"
/>
<path stroke="#95b3d6" vector-effect="non-scaling-stroke" d="
  M 488.61 106.64
  L 485.28 106.51
  A 1.01 1.01 0.0 0 0 484.23 107.44
  Q 484.12 108.91 482.95 110.40
  Q 482.02 111.59 483.52 111.58
  L 498.49 111.52
  Q 499.50 111.52 499.51 110.51
  L 499.60 102.22
  Q 499.61 101.33 498.72 101.31
  L 495.82 101.27
  Q 495.13 101.26 494.92 101.92
  L 494.42 103.56
  Q 494.26 104.08 493.73 103.96
  Q 491.99 103.57 490.26 103.73
  Q 489.59 103.80 489.44 104.46
  Q 489.28 105.18 489.35 105.87
  Q 489.42 106.68 488.61 106.64"
/>
<path stroke="#95b3d6" vector-effect="non-scaling-stroke" d="
  M 497.7344 103.9410
  A 0.56 0.56 0.0 0 0 497.1754 103.3801
  L 497.1154 103.3800
  A 0.56 0.56 0.0 0 0 496.5544 103.9390
  L 496.5456 108.9590
  A 0.56 0.56 0.0 0 0 497.1046 109.5199
  L 497.1646 109.5200
  A 0.56 0.56 0.0 0 0 497.7256 108.9610
  L 497.7344 103.9410"
/>
<path stroke="#a3bede" vector-effect="non-scaling-stroke" d="
  M 491.9456 109.5595
  A 2.01 0.70 88.7 0 0 492.5998 107.5341
  A 2.01 0.70 88.7 0 0 491.8544 105.5405
  A 2.01 0.70 88.7 0 0 491.2002 107.5659
  A 2.01 0.70 88.7 0 0 491.9456 109.5595"
/>
<path stroke="#95b3d6" vector-effect="non-scaling-stroke" d="
  M 162.59 167.44
  Q 161.94 166.58 159.60 166.91
  A 0.92 0.92 0.0 0 0 158.81 167.73
  L 158.77 168.08
  A 0.37 0.36 -1.9 0 0 159.19 168.47
  Q 161.48 168.14 163.20 169.50"
/>
<path stroke="#95b3d6" vector-effect="non-scaling-stroke" d="
  M 159.8978 160.2441
  A 1.25 0.89 3.4 0 0 158.7028 159.2816
  A 1.25 0.89 3.4 0 0 157.4022 160.0959
  A 1.25 0.89 3.4 0 0 158.5972 161.0584
  A 1.25 0.89 3.4 0 0 159.8978 160.2441"
/>
<path stroke="#95b3d6" vector-effect="non-scaling-stroke" d="
  M 161.10 163.63
  Q 159.62 162.76 158.51 162.99
  Q 155.89 163.55 158.31 164.69
  Q 159.61 165.29 161.90 164.86"
/>
<path stroke="#f4d67d" vector-effect="non-scaling-stroke" d="
  M 118.57 207.06
  A 0.93 0.93 0.0 0 0 117.64 206.13
  L 91.24 206.13
  A 0.93 0.93 0.0 0 0 90.31 207.06
  L 90.31 207.12
  A 0.93 0.93 0.0 0 0 91.24 208.05
  L 117.64 208.05
  A 0.93 0.93 0.0 0 0 118.57 207.12
  L 118.57 207.06"
/>
<path stroke="#f4d67d" vector-effect="non-scaling-stroke" d="
  M 118.2105 211.5243
  A 0.77 0.77 0.0 0 0 117.4418 210.7529
  L 91.1618 210.7071
  A 0.77 0.77 0.0 0 0 90.3905 211.4757
  L 90.3895 212.0157
  A 0.77 0.77 0.0 0 0 91.1582 212.7871
  L 117.4382 212.8329
  A 0.77 0.77 0.0 0 0 118.2095 212.0643
  L 118.2105 211.5243"
/>
<path stroke="#f4d67d" vector-effect="non-scaling-stroke" d="
  M 118.41 216.28
  A 0.78 0.78 0.0 0 0 117.63 215.50
  L 91.05 215.50
  A 0.78 0.78 0.0 0 0 90.27 216.28
  L 90.27 216.74
  A 0.78 0.78 0.0 0 0 91.05 217.52
  L 117.63 217.52
  A 0.78 0.78 0.0 0 0 118.41 216.74
  L 118.41 216.28"
/>
<path stroke="#6584a2" vector-effect="non-scaling-stroke" d="
  M 365.61 231.51
  Q 364.94 232.24 365.27 233.21
  Q 365.47 233.81 366.02 233.97
  Q 366.61 234.13 367.21 233.82"
/>
<path stroke="#306090" vector-effect="non-scaling-stroke" d="
  M 379.18 233.73
  Q 379.49 234.63 380.41 233.42
  Q 380.81 232.91 380.21 232.25"
/>
<path stroke="#75afca" vector-effect="non-scaling-stroke" d="
  M 185.90 241.78
  Q 185.12 242.12 184.76 242.95"
/>
<path stroke="#75afca" vector-effect="non-scaling-stroke" d="
  M 189.96 256.23
  L 189.98 246.03"
/>
<path stroke="#6aa9c5" vector-effect="non-scaling-stroke" d="
  M 183.12 248.76
  Q 183.60 248.92 183.65 248.70
  Q 184.03 247.22 184.48 245.37"
/>
<path stroke="#f3cb7a" vector-effect="non-scaling-stroke" d="
  M 329.91 247.42
  C 335.31 241.85 331.79 232.63 323.77 233.16
  C 316.22 233.65 313.64 242.49 318.82 247.53
  C 319.83 248.52 320.43 250.06 320.24 251.47
  Q 320.07 252.81 321.41 252.83
  L 327.04 252.91
  Q 328.33 252.93 328.29 251.64
  C 328.24 250.08 328.82 248.54 329.91 247.42"
/>
<path stroke="#f3cb7a" vector-effect="non-scaling-stroke" d="
  M 325.75 242.24
  C 325.60 243.73 325.04 246.04 325.42 247.41
  A 0.54 0.54 0.0 0 0 326.28 247.67
  Q 327.46 246.70 328.62 245.59
  C 331.15 243.20 331.09 239.14 328.47 236.95
  C 323.15 232.51 315.56 238.24 318.92 244.22
  C 319.72 245.63 321.37 246.82 322.72 247.85
  A 0.42 0.42 0.0 0 0 323.39 247.48
  L 322.90 242.37
  Q 322.79 241.20 323.94 241.06
  L 324.46 240.99
  Q 325.89 240.81 325.75 242.24"
/>
<path stroke="#f3cb7a" vector-effect="non-scaling-stroke" d="
  M 319.4969 241.0872
  A 3.26 1.10 134.7 0 0 322.5719 239.5437
  A 3.26 1.10 134.7 0 0 324.0831 236.4528
  A 3.26 1.10 134.7 0 0 321.0081 237.9963
  A 3.26 1.10 134.7 0 0 319.4969 241.0872"
/>
<path stroke="#d1dfea" vector-effect="non-scaling-stroke" d="
  M 392.57 292.32
  A 1.64 1.64 0.0 0 0 390.93 290.68
  A 1.64 1.64 0.0 0 0 389.29 292.32
  A 1.64 1.64 0.0 0 0 390.93 293.96
  A 1.64 1.64 0.0 0 0 392.57 292.32"
/>
<path stroke="#828f90" vector-effect="non-scaling-stroke" d="
  M 324.7049 297.6586
  A 2.04 0.58 15.6 0 0 322.8960 296.5514
  A 2.04 0.58 15.6 0 0 320.7751 296.5614
  A 2.04 0.58 15.6 0 0 322.5840 297.6686
  A 2.04 0.58 15.6 0 0 324.7049 297.6586"
/>
<path stroke="#d1dfea" vector-effect="non-scaling-stroke" d="
  M 341.7731 330.7275
  A 1.54 1.07 -36.8 0 0 339.8990 330.7932
  A 1.54 1.07 -36.8 0 0 339.3069 332.5725
  A 1.54 1.07 -36.8 0 0 341.1810 332.5068
  A 1.54 1.07 -36.8 0 0 341.7731 330.7275"
/>
</g>
<path fill="#1781a8" d="
  M 395.33 87.65
  L 392.76 94.06
  Q 389.91 90.10 387.16 86.34
  C 369.05 61.60 340.65 43.16 311.21 37.03
  C 269.00 28.23 226.66 40.74 195.82 70.46
  Q 176.93 88.67 166.68 112.90
  Q 159.41 130.08 157.73 149.67
  Q 155.05 150.11 151.66 149.42
  Q 153.81 124.72 164.65 103.36
  Q 187.42 58.50 233.27 38.67
  Q 252.29 30.44 273.94 28.97
  Q 325.84 25.45 366.16 56.60
  Q 382.53 69.26 395.33 87.65
  Z"
/>
<path fill="#1781a8" d="
  M 342.31 227.49
  Q 340.96 227.38 339.75 226.79
  L 300.66 108.34
  Q 300.50 107.84 301.02 107.81
  Q 307.18 107.41 313.37 106.80
  Q 318.23 106.31 317.62 101.71
  C 317.21 98.67 315.79 97.16 312.66 97.40
  Q 282.67 99.74 251.84 97.38
  C 248.83 97.15 247.51 98.57 247.03 101.49
  Q 246.29 105.93 250.88 106.77
  Q 256.65 107.83 262.78 107.82
  A 1.06 1.04 -9.9 0 1 263.77 108.50
  L 281.59 156.97
  A 1.49 1.46 44.4 0 1 281.61 157.97
  Q 274.63 178.74 267.57 199.75
  Q 266.97 201.54 266.64 203.96
  Q 263.04 205.15 260.35 206.85
  Q 257.41 208.72 255.73 209.61
  A 1.32 1.28 34.1 0 1 254.89 209.76
  L 248.41 208.74
  L 215.21 109.01
  Q 215.01 108.39 215.66 108.33
  Q 221.79 107.80 227.48 107.44
  Q 232.43 107.12 232.15 102.45
  C 231.96 99.32 230.46 97.73 227.23 97.94
  Q 208.85 99.12 189.86 99.11
  A 0.22 0.22 0.0 0 1 189.68 98.77
  Q 205.31 74.83 230.52 61.23
  Q 268.51 40.74 310.91 50.26
  Q 337.55 56.25 362.04 76.81
  Q 362.79 77.44 361.82 77.39
  Q 355.93 77.12 351.97 79.55
  Q 340.55 86.56 341.44 99.71
  C 341.78 104.75 344.20 109.60 346.69 114.06
  Q 351.36 122.44 355.92 131.06
  Q 363.10 144.61 362.08 160.01
  Q 361.79 164.30 359.29 172.69
  Q 351.11 200.17 342.31 227.49
  Z"
/>
<path fill="#fcbf39" d="
  M 430.13 119.90
  Q 425.12 118.64 419.50 118.96
  Q 418.91 119.00 417.24 118.40
  Q 415.44 117.76 414.83 119.74
  L 411.47 119.68
  Q 408.24 118.94 404.84 119.32
  L 391.19 118.95
  Q 388.87 118.13 386.00 118.73
  Q 384.82 118.69 383.90 118.26
  Q 383.39 118.03 383.60 117.50
  L 388.81 104.43
  A 1.12 1.12 0.0 0 0 387.86 102.90
  C 385.88 102.75 384.83 104.24 383.09 104.86
  C 378.99 106.32 372.81 106.27 371.60 101.17
  Q 371.02 98.72 373.06 96.72
  Q 378.09 91.79 384.99 93.45
  Q 386.77 93.88 387.82 95.39
  Q 388.18 95.91 388.79 96.06
  Q 391.85 96.84 392.76 94.06
  L 395.33 87.65
  L 397.90 81.66
  Q 398.11 81.18 398.63 81.20
  L 417.71 81.83
  A 1.82 1.82 0.0 0 0 419.26 78.97
  C 417.84 76.92 416.84 75.14 418.61 72.79
  Q 421.36 69.14 426.52 68.36
  C 429.94 67.84 434.67 68.94 434.95 73.06
  C 435.22 77.18 431.61 78.90 428.57 80.74
  A 0.78 0.78 0.0 0 0 428.69 82.13
  Q 429.29 82.36 430.12 82.38
  Q 439.00 82.65 447.77 82.93
  A 0.83 0.82 -78.5 0 1 448.51 84.06
  L 434.37 119.53
  Q 434.18 120.00 433.68 120.07
  Q 431.78 120.30 430.13 119.90
  Z"
/>
<path fill="#4678ba" d="
  M 477.53 117.50
  L 471.05 117.51
  A 0.32 0.32 0.0 0 1 470.73 117.19
  L 470.73 89.03
  A 0.32 0.32 0.0 0 1 471.05 88.71
  L 511.12 88.69
  A 0.32 0.32 0.0 0 1 511.44 89.01
  L 511.46 117.18
  A 0.32 0.32 0.0 0 1 511.14 117.50
  L 485.61 117.52
  A 0.32 0.32 0.0 0 0 485.39 117.61
  L 478.32 124.67
  A 0.32 0.32 0.0 0 1 477.77 124.44
  L 477.85 117.82
  A 0.32 0.32 0.0 0 0 477.53 117.50
  Z
  M 483.98 98.85
  Q 484.96 98.65 485.92 98.80
  A 0.66 0.65 -71.7 0 0 486.60 98.45
  Q 486.96 97.77 486.86 96.96
  Q 486.68 95.39 488.25 95.24
  L 490.33 95.04
  Q 491.76 94.90 491.75 96.33
  L 491.71 101.75
  Q 491.71 102.47 492.43 102.46
  L 492.68 102.46
  Q 493.58 102.44 493.58 101.54
  L 493.59 94.20
  A 0.88 0.87 -89.0 0 0 492.75 93.32
  Q 489.99 93.20 487.09 93.16
  C 484.07 93.12 481.11 95.65 481.06 98.78
  Q 480.98 103.90 481.31 108.05
  A 0.58 0.57 -6.6 0 0 481.97 108.57
  Q 482.21 108.53 482.41 108.41
  Q 483.09 108.01 483.10 107.23
  L 483.19 99.81
  A 0.99 0.99 0.0 0 1 483.98 98.85
  Z
  M 488.61 106.64
  L 485.28 106.51
  A 1.01 1.01 0.0 0 0 484.23 107.44
  Q 484.12 108.91 482.95 110.40
  Q 482.02 111.59 483.52 111.58
  L 498.49 111.52
  Q 499.50 111.52 499.51 110.51
  L 499.60 102.22
  Q 499.61 101.33 498.72 101.31
  L 495.82 101.27
  Q 495.13 101.26 494.92 101.92
  L 494.42 103.56
  Q 494.26 104.08 493.73 103.96
  Q 491.99 103.57 490.26 103.73
  Q 489.59 103.80 489.44 104.46
  Q 489.28 105.18 489.35 105.87
  Q 489.42 106.68 488.61 106.64
  Z"
/>
<path fill="#e4edf2" d="
  M 483.19 99.81
  L 483.10 107.23
  Q 483.09 108.01 482.41 108.41
  Q 482.21 108.53 481.97 108.57
  A 0.58 0.57 -6.6 0 1 481.31 108.05
  Q 480.98 103.90 481.06 98.78
  C 481.11 95.65 484.07 93.12 487.09 93.16
  Q 489.99 93.20 492.75 93.32
  A 0.88 0.87 -89.0 0 1 493.59 94.20
  L 493.58 101.54
  Q 493.58 102.44 492.68 102.46
  L 492.43 102.46
  Q 491.71 102.47 491.71 101.75
  L 491.75 96.33
  Q 491.76 94.90 490.33 95.04
  L 488.25 95.24
  Q 486.68 95.39 486.86 96.96
  Q 486.96 97.77 486.60 98.45
  A 0.66 0.65 -71.7 0 1 485.92 98.80
  Q 484.96 98.65 483.98 98.85
  A 0.99 0.99 0.0 0 0 483.19 99.81
  Z"
/>
<path fill="#e4edf2" d="
  M 489.35 105.87
  Q 489.28 105.18 489.44 104.46
  Q 489.59 103.80 490.26 103.73
  Q 491.99 103.57 493.73 103.96
  Q 494.26 104.08 494.42 103.56
  L 494.92 101.92
  Q 495.13 101.26 495.82 101.27
  L 498.72 101.31
  Q 499.61 101.33 499.60 102.22
  L 499.51 110.51
  Q 499.50 111.52 498.49 111.52
  L 483.52 111.58
  Q 482.02 111.59 482.95 110.40
  Q 484.12 108.91 484.23 107.44
  A 1.01 1.01 0.0 0 1 485.28 106.51
  L 488.61 106.64
  Q 489.42 106.68 489.35 105.87
  Z
  M 497.7344 103.9410
  A 0.56 0.56 0.0 0 0 497.1754 103.3801
  L 497.1154 103.3800
  A 0.56 0.56 0.0 0 0 496.5544 103.9390
  L 496.5456 108.9590
  A 0.56 0.56 0.0 0 0 497.1046 109.5199
  L 497.1646 109.5200
  A 0.56 0.56 0.0 0 0 497.7256 108.9610
  L 497.7344 103.9410
  Z
  M 491.9456 109.5595
  A 2.01 0.70 88.7 0 0 492.5998 107.5341
  A 2.01 0.70 88.7 0 0 491.8544 105.5405
  A 2.01 0.70 88.7 0 0 491.2002 107.5659
  A 2.01 0.70 88.7 0 0 491.9456 109.5595
  Z"
/>
<rect fill="#4678ba" x="-0.59" y="-3.07" transform="translate(497.14,106.45) rotate(0.1)" width="1.18" height="6.14" rx="0.56"/>
<ellipse fill="#618fca" cx="0.00" cy="0.00" transform="translate(491.90,107.55) rotate(88.7)" rx="2.01" ry="0.70"/>
<path fill="#1781a8" d="
  M 207.24 189.47
  L 203.22 188.86
  A 2.29 2.27 17.6 0 0 200.85 190.08
  Q 198.83 194.06 195.84 197.85
  Q 194.94 198.97 196.21 200.11
  Q 195.27 201.41 196.07 203.25
  Q 198.28 208.30 197.76 213.93
  Q 197.72 214.42 197.45 214.83
  L 196.22 216.77
  Q 190.63 218.69 186.82 221.63
  Q 179.04 208.72 174.45 193.99
  Q 172.15 186.62 171.15 178.65
  Q 173.80 179.09 175.45 180.56
  Q 177.28 182.18 178.91 183.74
  Q 181.07 185.80 181.04 182.81
  L 181.02 180.78
  A 1.91 1.91 0.0 0 1 182.84 178.85
  C 184.86 178.75 188.14 179.29 188.12 176.21
  Q 188.06 162.83 188.05 151.21
  A 1.68 1.67 89.7 0 0 186.37 149.54
  L 170.48 149.60
  Q 172.86 131.38 180.12 115.42
  Q 180.26 115.11 180.38 115.43
  L 207.24 189.47
  Z"
/>
<path fill="#e9d6ba" d="
  M 430.13 119.90
  Q 428.18 120.42 426.83 121.33
  Q 426.37 121.65 425.80 121.65
  L 421.83 121.72
  A 2.62 2.61 -71.6 0 0 419.80 122.74
  Q 417.65 125.57 417.28 129.11
  Q 416.75 134.29 419.79 137.61
  Q 418.17 143.53 415.10 147.35
  Q 413.80 148.97 411.36 149.32
  Q 411.30 148.50 411.03 147.84
  Q 408.03 140.70 408.69 133.14
  L 413.30 124.67
  L 418.94 120.49
  Q 419.30 120.22 418.87 120.09
  Q 416.94 119.53 414.83 119.74
  Q 415.44 117.76 417.24 118.40
  Q 418.91 119.00 419.50 118.96
  Q 425.12 118.64 430.13 119.90
  Z"
/>
<path fill="#1781a8" d="
  M 391.19 118.95
  Q 404.86 154.99 395.21 192.25
  Q 393.44 199.07 388.89 209.20
  Q 388.78 209.40 388.62 209.54
  Q 388.48 209.67 388.22 209.67
  Q 374.38 209.88 360.10 209.62
  Q 365.10 195.09 380.15 152.17
  Q 385.74 136.23 386.00 118.73
  Q 388.87 118.13 391.19 118.95
  Z"
/>
<path fill="#1781a8" d="
  M 404.84 119.32
  Q 408.24 118.94 411.47 119.68
  L 413.30 124.67
  L 408.69 133.14
  L 404.84 119.32
  Z"
/>
<path fill="#1a4866" d="
  M 458.12 140.10
  L 460.49 136.57
  Q 461.34 136.79 462.11 136.11
  Q 462.53 135.74 462.21 135.29
  Q 461.94 134.92 461.26 135.07
  Q 460.79 135.17 460.55 135.46
  Q 460.14 134.86 460.23 134.50
  Q 460.79 132.07 460.85 129.52
  Q 461.52 129.19 461.73 128.45
  Q 461.88 127.92 461.43 127.60
  L 459.91 126.46
  Q 458.09 124.92 455.35 125.53
  Q 454.99 124.28 455.44 123.45
  Q 455.67 123.02 456.17 123.07
  C 460.51 123.52 466.39 126.36 465.33 131.65
  Q 464.28 136.88 459.41 139.86
  Q 459.04 140.08 458.12 140.10
  Z"
/>
<path fill="#e9d6ba" d="
  M 459.91 126.46
  L 460.85 129.52
  Q 460.79 132.07 460.23 134.50
  Q 460.14 134.86 460.55 135.46
  Q 460.19 136.06 460.49 136.57
  L 458.12 140.10
  Q 456.69 141.27 456.65 144.68
  L 451.39 148.25
  A 1.77 1.77 0.0 0 1 448.73 147.38
  L 447.88 144.96
  Q 449.63 143.40 449.67 140.65
  C 449.69 138.93 448.77 138.24 448.06 136.88
  A 1.76 1.71 36.0 0 1 447.88 135.83
  Q 448.12 134.15 449.04 132.69
  A 2.07 2.02 -28.1 0 0 449.34 131.74
  L 449.38 131.03
  Q 449.41 130.47 449.89 130.18
  Q 452.97 128.36 455.35 125.53
  Q 458.09 124.92 459.91 126.46
  Z"
/>
<path fill="#d3dceb" d="
  M 419.79 137.61
  Q 423.06 138.98 424.64 141.62
  Q 424.93 142.10 426.06 142.73
  C 428.15 143.89 433.34 144.29 435.77 144.36
  Q 441.74 144.55 447.88 144.96
  L 448.73 147.38
  A 1.77 1.77 0.0 0 0 451.39 148.25
  L 456.65 144.68
  Q 459.36 144.82 462.24 144.89
  C 466.94 145.00 471.21 146.62 473.86 150.72
  Q 480.35 160.79 487.22 170.57
  C 488.53 172.44 487.44 174.48 487.35 176.46
  Q 486.52 178.30 484.91 177.39
  Q 484.51 177.16 484.31 177.58
  Q 483.83 178.59 483.00 178.71
  Q 480.11 179.11 478.19 179.46
  Q 476.19 177.22 474.33 174.18
  Q 473.22 172.37 473.94 170.85
  L 467.44 164.03
  Q 467.04 163.61 466.61 164.00
  L 465.12 165.30
  A 1.05 1.05 0.0 0 1 464.08 165.51
  Q 462.53 165.01 461.02 164.40
  Q 459.27 163.71 458.72 164.99
  Q 455.74 164.62 455.56 166.48
  Q 455.09 171.55 453.76 176.14
  A 1.15 1.15 0.0 0 1 451.82 176.61
  L 447.69 172.28
  Q 447.80 161.12 449.63 150.20
  Q 449.66 150.00 449.47 149.92
  Q 449.32 149.86 449.19 149.92
  Q 449.03 150.02 448.94 150.19
  Q 444.30 159.58 443.15 170.52
  L 438.20 171.36
  Q 436.29 169.70 436.51 165.76
  Q 436.70 162.37 436.79 158.51
  L 436.53 156.04
  Q 436.48 155.51 435.95 155.56
  L 423.84 156.64
  Q 421.38 156.21 418.91 154.84
  Q 418.97 154.17 418.50 154.20
  Q 414.41 154.48 411.78 151.52
  L 411.36 149.32
  Q 413.80 148.97 415.10 147.35
  Q 418.17 143.53 419.79 137.61
  Z"
/>
<path fill="#4678ba" d="
  M 171.15 178.65
  L 158.25 178.71
  L 151.90 178.44
  L 148.10 178.43
  Q 147.49 178.43 147.49 177.82
  L 147.50 150.27
  Q 147.50 149.77 148.00 149.73
  L 151.66 149.42
  Q 155.05 150.11 157.73 149.67
  L 170.48 149.60
  L 186.37 149.54
  A 1.68 1.67 89.7 0 1 188.05 151.21
  Q 188.06 162.83 188.12 176.21
  C 188.14 179.29 184.86 178.75 182.84 178.85
  A 1.91 1.91 0.0 0 0 181.02 180.78
  L 181.04 182.81
  Q 181.07 185.80 178.91 183.74
  Q 177.28 182.18 175.45 180.56
  Q 173.80 179.09 171.15 178.65
  Z
  M 162.59 167.44
  Q 161.94 166.58 159.60 166.91
  A 0.92 0.92 0.0 0 0 158.81 167.73
  L 158.77 168.08
  A 0.37 0.36 -1.9 0 0 159.19 168.47
  Q 161.48 168.14 163.20 169.50
  Q 167.58 173.04 171.83 170.55
  C 176.34 167.90 177.03 162.74 173.74 158.85
  Q 173.36 158.41 173.73 157.95
  Q 173.95 157.68 174.17 157.41
  Q 174.44 157.09 174.43 156.67
  Q 174.43 156.38 174.26 156.17
  Q 173.78 155.57 173.22 156.11
  L 172.48 156.84
  Q 172.10 157.20 171.61 157.05
  L 169.25 156.31
  A 0.59 0.59 0.0 0 1 168.97 155.36
  Q 169.39 154.85 170.00 154.57
  Q 170.46 154.36 170.43 153.86
  Q 170.41 153.64 170.24 153.51
  Q 169.98 153.30 169.64 153.26
  Q 167.96 153.04 166.27 153.29
  Q 165.65 153.39 165.65 153.98
  Q 165.65 154.39 166.00 154.61
  L 167.23 155.41
  A 0.52 0.51 55.9 0 1 167.05 156.35
  Q 163.21 157.08 161.54 160.21
  Q 161.27 160.72 161.56 161.22
  A 0.54 0.53 48.1 0 0 162.45 161.27
  C 164.40 158.62 167.32 157.03 170.61 158.55
  C 177.97 161.95 172.56 173.53 164.70 169.33
  Q 164.18 169.05 164.18 168.48
  A 0.47 0.47 0.0 0 1 164.90 168.07
  Q 165.24 168.28 165.53 168.02
  Q 166.01 167.59 165.41 167.36
  Q 163.97 166.79 162.59 167.44
  Z
  M 159.8978 160.2441
  A 1.25 0.89 3.4 0 0 158.7028 159.2816
  A 1.25 0.89 3.4 0 0 157.4022 160.0959
  A 1.25 0.89 3.4 0 0 158.5972 161.0584
  A 1.25 0.89 3.4 0 0 159.8978 160.2441
  Z
  M 169.0757 160.1350
  A 0.71 0.71 0.0 0 0 168.3769 159.4140
  L 167.9170 159.4068
  A 0.71 0.71 0.0 0 0 167.1959 160.1055
  L 167.1243 164.6650
  A 0.71 0.71 0.0 0 0 167.8231 165.3860
  L 168.2830 165.3932
  A 0.71 0.71 0.0 0 0 169.0041 164.6945
  L 169.0757 160.1350
  Z
  M 161.90 164.86
  L 163.67 164.10
  Q 164.20 163.87 163.65 163.69
  Q 162.44 163.30 161.10 163.63
  Q 159.62 162.76 158.51 162.99
  Q 155.89 163.55 158.31 164.69
  Q 159.61 165.29 161.90 164.86
  Z"
/>
<path fill="#1a4866" d="
  M 447.69 172.28
  L 443.15 170.52
  Q 444.30 159.58 448.94 150.19
  Q 449.03 150.02 449.19 149.92
  Q 449.32 149.86 449.47 149.92
  Q 449.66 150.00 449.63 150.20
  Q 447.80 161.12 447.69 172.28
  Z"
/>
<path fill="#1781a8" d="
  M 411.78 151.52
  Q 414.41 154.48 418.50 154.20
  Q 418.97 154.17 418.91 154.84
  Q 418.72 154.58 418.50 154.63
  Q 418.06 154.73 418.08 155.18
  C 419.51 185.91 410.64 215.74 392.38 240.49
  L 392.24 229.14
  Q 409.65 202.74 411.75 171.50
  Q 412.37 162.30 411.78 151.52
  Z"
/>
<path fill="#b0bfdd" d="
  M 436.79 158.51
  L 423.84 156.64
  L 435.95 155.56
  Q 436.48 155.51 436.53 156.04
  L 436.79 158.51
  Z"
/>
<ellipse fill="#e4edf2" cx="0.00" cy="0.00" transform="translate(158.65,160.17) rotate(3.4)" rx="1.25" ry="0.89"/>
<path fill="#e4edf2" d="
  M 161.10 163.63
  Q 160.72 164.06 161.01 164.23
  Q 161.21 164.36 161.90 164.86
  Q 159.61 165.29 158.31 164.69
  Q 155.89 163.55 158.51 162.99
  Q 159.62 162.76 161.10 163.63
  Z"
/>
<path fill="#fcbf39" d="
  M 458.72 164.99
  Q 465.91 168.73 473.94 170.85
  Q 473.22 172.37 474.33 174.18
  Q 476.19 177.22 478.19 179.46
  L 474.07 193.04
  Q 470.94 192.01 467.93 192.56
  Q 467.44 192.64 467.14 193.05
  Q 465.75 194.91 467.00 197.02
  Q 468.33 199.26 469.96 201.82
  Q 468.28 202.59 467.92 203.62
  L 461.49 200.69
  L 451.13 196.63
  A 1.03 1.02 -73.9 0 1 450.50 195.48
  L 451.98 187.93
  Q 452.67 185.75 452.09 184.11
  A 2.72 2.72 0.0 0 0 448.61 182.47
  C 445.95 183.42 444.70 182.93 442.32 181.66
  Q 440.29 180.57 438.20 179.80
  Q 436.99 177.15 436.87 175.63
  Q 436.73 173.81 438.20 171.36
  L 443.15 170.52
  L 447.69 172.28
  L 451.82 176.61
  A 1.15 1.15 0.0 0 0 453.76 176.14
  Q 455.09 171.55 455.56 166.48
  Q 455.74 164.62 458.72 164.99
  Z"
/>
<path fill="#e4edf2" d="
  M 162.59 167.44
  Q 163.48 168.33 163.20 169.50
  Q 161.48 168.14 159.19 168.47
  A 0.37 0.36 -1.9 0 1 158.77 168.08
  L 158.81 167.73
  A 0.92 0.92 0.0 0 1 159.60 166.91
  Q 161.94 166.58 162.59 167.44
  Z"
/>
<path fill="#1781a8" d="
  M 297.71 201.84
  L 291.51 201.52
  L 293.27 201.30
  Q 293.63 201.25 293.42 200.94
  Q 293.30 200.76 293.00 200.72
  Q 286.35 199.81 280.19 200.92
  Q 279.20 201.68 277.65 201.61
  A 0.88 0.88 0.0 0 1 276.87 200.42
  Q 281.99 186.40 286.67 172.36
  Q 286.83 171.88 287.00 172.36
  L 297.71 201.84
  Z"
/>
<path fill="#e9d6ba" d="
  M 487.35 176.46
  Q 487.66 176.60 487.72 176.72
  Q 487.44 177.42 486.95 177.94
  Q 486.62 178.30 486.51 178.78
  Q 484.20 188.73 478.74 196.62
  L 471.14 204.77
  A 1.65 1.65 0.0 0 1 468.56 204.57
  L 467.92 203.62
  Q 468.28 202.59 469.96 201.82
  C 470.63 201.15 471.36 200.68 471.71 199.79
  Q 473.06 196.33 474.07 193.04
  L 478.19 179.46
  Q 480.11 179.11 483.00 178.71
  Q 483.83 178.59 484.31 177.58
  Q 484.51 177.16 484.91 177.39
  Q 486.52 178.30 487.35 176.46
  Z"
/>
<path fill="#ffd640" d="
  M 487.72 176.72
  L 499.07 181.26
  A 0.62 0.61 16.3 0 1 499.45 181.94
  L 493.90 212.13
  A 0.79 0.78 15.9 0 1 492.84 212.72
  Q 484.71 209.53 477.46 206.72
  Q 475.26 205.87 476.04 203.71
  A 1.20 1.18 -0.2 0 1 476.76 203.00
  Q 477.82 202.61 478.84 202.12
  Q 480.78 201.19 479.92 199.07
  Q 479.47 197.98 478.74 196.62
  Q 484.20 188.73 486.51 178.78
  Q 486.62 178.30 486.95 177.94
  Q 487.44 177.42 487.72 176.72
  Z"
/>
<path fill="#1781a8" d="
  M 151.90 178.44
  L 158.25 178.71
  Q 162.52 209.25 179.81 233.84
  L 178.44 236.52
  Q 178.22 236.95 177.75 237.07
  Q 176.17 237.46 176.29 239.81
  Q 170.11 230.99 165.35 221.90
  C 158.16 208.16 154.11 193.76 151.90 178.44
  Z"
/>
<path fill="#d3dceb" d="
  M 451.98 187.93
  L 439.51 188.72
  Q 437.91 184.73 438.20 179.80
  Q 440.29 180.57 442.32 181.66
  C 444.70 182.93 445.95 183.42 448.61 182.47
  A 2.72 2.72 0.0 0 1 452.09 184.11
  Q 452.67 185.75 451.98 187.93
  Z"
/>
<path fill="#1a4866" d="
  M 451.98 187.93
  L 450.50 195.48
  A 1.03 1.02 -73.9 0 0 451.13 196.63
  L 461.49 200.69
  Q 465.12 215.05 468.80 229.08
  Q 469.80 232.89 471.46 235.78
  Q 474.02 240.24 476.81 244.82
  C 479.94 249.97 480.83 255.34 481.27 261.50
  Q 481.94 270.93 480.70 278.23
  Q 479.62 277.71 478.99 277.84
  Q 477.67 278.10 476.24 278.09
  Q 469.51 259.45 463.09 240.73
  C 462.23 238.23 459.32 235.64 458.09 232.60
  Q 455.91 227.23 453.38 221.31
  Q 452.99 220.40 452.81 221.37
  Q 451.70 227.14 449.08 233.47
  Q 448.87 233.96 448.96 234.49
  Q 450.79 245.83 450.24 251.75
  Q 449.63 258.22 445.37 277.02
  L 444.46 279.34
  Q 441.89 278.58 439.48 279.60
  L 439.07 278.55
  L 439.51 188.72
  L 451.98 187.93
  Z"
/>
<path fill="#1a4866" d="
  M 207.24 189.47
  L 209.50 194.98
  Q 208.98 195.46 209.07 196.04
  Q 208.08 194.59 207.27 194.51
  C 205.75 194.34 201.04 194.22 199.89 195.91
  Q 198.31 198.23 196.21 200.11
  Q 194.94 198.97 195.84 197.85
  Q 198.83 194.06 200.85 190.08
  A 2.29 2.27 17.6 0 1 203.22 188.86
  L 207.24 189.47
  Z"
/>
<path fill="#e9d6ba" d="
  M 209.07 196.04
  Q 209.72 202.49 208.98 209.17
  C 208.70 211.72 205.28 213.20 208.54 215.98
  Q 207.67 216.86 207.28 218.19
  Q 207.14 218.68 206.73 218.98
  Q 205.26 220.07 205.68 221.80
  Q 206.38 224.68 206.69 227.80
  Q 207.58 236.85 207.44 244.50
  Q 207.26 253.83 204.93 262.98
  L 203.00 262.88
  Q 203.56 257.08 204.18 251.23
  Q 205.77 236.24 203.33 222.27
  Q 203.06 220.73 202.60 219.27
  A 0.55 0.55 0.0 0 0 201.61 219.14
  L 200.60 220.75
  Q 200.29 221.25 199.90 220.82
  L 196.22 216.77
  L 197.45 214.83
  Q 197.72 214.42 197.76 213.93
  Q 198.28 208.30 196.07 203.25
  Q 195.27 201.41 196.21 200.11
  Q 198.31 198.23 199.89 195.91
  C 201.04 194.22 205.75 194.34 207.27 194.51
  Q 208.08 194.59 209.07 196.04
  Z"
/>
<path fill="#1781a8" d="
  M 209.50 194.98
  L 216.51 214.36
  L 208.54 215.98
  C 205.28 213.20 208.70 211.72 208.98 209.17
  Q 209.72 202.49 209.07 196.04
  Q 208.98 195.46 209.50 194.98
  Z"
/>
<path fill="#ffd640" d="
  M 117.48 226.63
  L 117.69 233.26
  A 0.31 0.31 0.0 0 1 117.16 233.49
  L 110.22 226.38
  A 0.31 0.31 0.0 0 0 110.00 226.29
  L 84.23 226.27
  A 0.31 0.31 0.0 0 1 83.92 225.96
  L 83.92 197.73
  A 0.31 0.31 0.0 0 1 84.23 197.42
  L 124.35 197.39
  A 0.31 0.31 0.0 0 1 124.66 197.70
  L 124.78 225.95
  A 0.31 0.31 0.0 0 1 124.47 226.26
  L 117.79 226.31
  A 0.31 0.31 0.0 0 0 117.48 226.63
  Z
  M 118.57 207.06
  A 0.93 0.93 0.0 0 0 117.64 206.13
  L 91.24 206.13
  A 0.93 0.93 0.0 0 0 90.31 207.06
  L 90.31 207.12
  A 0.93 0.93 0.0 0 0 91.24 208.05
  L 117.64 208.05
  A 0.93 0.93 0.0 0 0 118.57 207.12
  L 118.57 207.06
  Z
  M 118.2105 211.5243
  A 0.77 0.77 0.0 0 0 117.4418 210.7529
  L 91.1618 210.7071
  A 0.77 0.77 0.0 0 0 90.3905 211.4757
  L 90.3895 212.0157
  A 0.77 0.77 0.0 0 0 91.1582 212.7871
  L 117.4382 212.8329
  A 0.77 0.77 0.0 0 0 118.2095 212.0643
  L 118.2105 211.5243
  Z
  M 118.41 216.28
  A 0.78 0.78 0.0 0 0 117.63 215.50
  L 91.05 215.50
  A 0.78 0.78 0.0 0 0 90.27 216.28
  L 90.27 216.74
  A 0.78 0.78 0.0 0 0 91.05 217.52
  L 117.63 217.52
  A 0.78 0.78 0.0 0 0 118.41 216.74
  L 118.41 216.28
  Z"
/>
<path fill="#bdd0e2" d="
  M 291.51 201.52
  L 285.91 200.90
  L 280.19 200.92
  Q 286.35 199.81 293.00 200.72
  Q 293.30 200.76 293.42 200.94
  Q 293.63 201.25 293.27 201.30
  L 291.51 201.52
  Z"
/>
<path fill="#e4edf2" d="
  M 285.91 200.90
  L 291.51 201.52
  L 297.71 201.84
  Q 313.79 205.55 324.25 217.87
  C 326.33 220.32 327.46 221.56 328.36 224.15
  A 0.39 0.39 0.0 0 1 328.00 224.66
  C 324.57 224.71 321.04 223.56 318.53 221.08
  Q 308.77 211.41 296.50 208.55
  Q 291.80 207.45 284.24 207.87
  Q 281.73 208.01 281.39 210.50
  L 281.31 211.04
  A 3.43 3.42 -85.3 0 0 284.61 214.93
  Q 296.55 215.25 305.07 220.90
  Q 306.65 221.94 307.45 223.46
  Q 307.73 223.98 307.40 224.47
  Q 306.51 225.79 307.70 226.76
  Q 304.52 228.44 304.50 230.50
  Q 304.39 242.53 304.53 255.55
  Q 304.57 259.28 308.30 259.25
  Q 313.01 259.21 317.83 259.36
  C 319.54 259.42 321.83 262.36 322.96 263.58
  A 1.65 1.64 -45.6 0 0 325.40 263.55
  C 327.19 261.50 328.51 259.36 331.60 259.24
  Q 333.58 259.16 335.42 259.61
  Q 335.77 263.18 334.77 266.25
  Q 332.85 272.13 330.25 277.75
  Q 330.04 278.20 329.65 278.50
  Q 329.07 278.95 329.02 279.48
  Q 325.82 279.60 322.73 281.05
  Q 322.18 281.31 321.59 281.17
  C 319.39 280.66 316.61 279.41 315.87 282.81
  Q 315.34 285.22 315.39 287.33
  Q 315.47 290.33 316.66 287.58
  Q 317.23 286.27 317.90 284.09
  A 1.33 1.33 0.0 0 1 319.72 283.26
  C 322.75 284.63 324.56 286.49 328.21 285.96
  A 0.96 0.96 0.0 0 1 329.27 287.17
  L 328.69 289.25
  Q 327.88 291.22 328.14 293.97
  Q 327.44 295.68 326.34 296.30
  Q 322.85 292.92 318.22 295.01
  A 1.52 1.52 0.0 0 1 316.16 294.12
  L 315.41 291.91
  Q 315.41 290.76 314.67 291.66
  Q 314.35 292.04 313.87 292.09
  Q 309.32 292.57 305.15 294.54
  Q 304.80 294.70 304.59 295.02
  Q 304.23 295.56 303.32 295.43
  L 305.56 275.73
  A 0.74 0.74 0.0 0 0 305.00 274.93
  L 303.62 274.60
  Q 302.91 274.44 302.87 275.17
  L 302.79 276.51
  Q 302.69 278.21 301.89 276.71
  Q 301.25 275.50 300.14 274.90
  A 2.31 2.31 0.0 0 0 296.96 275.94
  L 295.48 279.04
  A 0.56 0.55 -42.7 0 1 294.46 279.00
  Q 293.73 277.09 292.38 275.47
  A 1.64 1.63 41.8 0 0 289.76 275.61
  L 287.39 279.21
  A 0.81 0.81 0.0 0 1 285.98 279.12
  Q 285.32 277.77 284.55 276.40
  C 283.62 274.73 281.33 274.47 280.19 276.06
  Q 279.20 277.45 278.49 279.19
  A 0.57 0.57 0.0 0 1 277.45 279.24
  Q 276.80 278.00 276.17 276.77
  C 275.20 274.91 272.73 274.45 271.49 276.35
  Q 270.63 277.68 270.05 279.11
  Q 269.57 280.26 269.40 279.02
  L 268.94 275.80
  A 0.87 0.87 0.0 0 0 267.84 275.09
  L 267.15 275.29
  Q 266.15 275.59 266.30 276.61
  L 272.89 323.95
  Q 272.96 324.48 272.42 324.48
  L 261.04 324.49
  Q 260.52 321.17 260.27 316.24
  C 259.99 310.65 258.11 306.18 254.69 301.18
  Q 250.98 295.74 247.47 290.23
  L 243.21 281.97
  Q 242.63 280.36 241.73 278.85
  C 239.87 275.75 238.95 272.17 237.61 268.78
  Q 236.25 265.33 235.88 261.94
  C 235.39 257.40 234.16 252.79 234.45 248.32
  Q 235.34 234.91 242.48 223.70
  Q 242.61 223.50 245.03 220.38
  Q 246.23 218.82 247.26 216.80
  Q 247.57 216.58 247.60 216.30
  Q 247.64 215.93 247.31 215.76
  Q 244.94 214.54 245.27 211.54
  A 0.83 0.83 0.0 0 1 245.98 210.81
  Q 246.25 210.77 246.43 210.98
  Q 246.96 211.62 247.06 210.79
  Q 247.15 210.04 247.27 209.12
  Q 247.59 209.55 248.41 208.74
  L 254.89 209.76
  A 1.32 1.28 34.1 0 0 255.73 209.61
  Q 257.41 208.72 260.35 206.85
  Q 263.04 205.15 266.64 203.96
  Q 269.41 203.15 272.04 202.56
  Q 273.92 202.14 277.54 202.18
  Q 281.78 202.22 285.91 200.90
  Z"
/>
<rect fill="#e9d6ba" x="90.31" y="206.13" width="28.26" height="1.92" rx="0.93"/>
<path fill="#d3dceb" d="
  M 247.27 209.12
  Q 247.15 210.04 247.06 210.79
  Q 246.96 211.62 246.43 210.98
  Q 246.25 210.77 245.98 210.81
  A 0.83 0.83 0.0 0 0 245.27 211.54
  Q 244.94 214.54 247.31 215.76
  Q 247.64 215.93 247.60 216.30
  Q 247.57 216.58 247.26 216.80
  L 238.52 218.92
  Q 231.66 218.47 223.00 221.26
  Q 221.18 221.85 220.29 222.78
  Q 219.94 223.14 220.02 223.64
  Q 220.23 224.92 219.68 225.84
  Q 219.57 229.70 219.58 233.75
  Q 219.58 238.83 217.89 254.99
  L 216.98 262.90
  Q 216.18 263.37 215.50 263.37
  Q 210.24 263.32 204.93 262.98
  Q 207.26 253.83 207.44 244.50
  Q 207.58 236.85 206.69 227.80
  Q 206.38 224.68 205.68 221.80
  Q 205.26 220.07 206.73 218.98
  Q 207.14 218.68 207.28 218.19
  Q 207.67 216.86 208.54 215.98
  L 216.51 214.36
  Q 231.67 210.16 240.99 208.49
  Q 243.87 207.97 247.27 209.12
  Z"
/>
<path fill="#1a4866" d="
  M 388.89 209.20
  Q 388.79 209.73 389.24 209.84
  Q 392.47 210.62 392.42 214.00
  Q 392.31 221.44 392.24 229.14
  L 392.38 240.49
  L 391.43 241.88
  L 383.20 241.93
  L 378.42 241.99
  Q 377.89 241.99 377.52 242.36
  L 373.06 246.85
  Q 372.59 247.33 372.11 246.85
  L 367.38 242.09
  Q 367.08 241.79 366.67 241.90
  Q 366.12 242.05 365.84 242.31
  Q 362.36 241.80 359.00 241.88
  C 355.69 241.96 352.72 241.54 352.88 237.61
  Q 353.02 233.95 352.27 232.11
  Q 352.92 230.38 352.92 229.75
  Q 352.93 222.02 352.93 214.27
  C 352.93 211.61 353.69 209.98 356.50 209.87
  Q 358.58 209.78 360.10 209.62
  Q 374.38 209.88 388.22 209.67
  Q 388.48 209.67 388.62 209.54
  Q 388.78 209.40 388.89 209.20
  Z
  M 365.61 231.51
  Q 364.94 232.24 365.27 233.21
  Q 365.47 233.81 366.02 233.97
  Q 366.61 234.13 367.21 233.82
  L 379.18 233.73
  Q 379.49 234.63 380.41 233.42
  Q 380.81 232.91 380.21 232.25
  Q 380.67 230.81 379.88 229.87
  Q 379.54 229.47 379.49 228.95
  Q 379.37 227.66 378.17 227.28
  Q 377.50 227.06 377.48 226.35
  L 377.44 224.05
  Q 377.43 223.46 377.98 223.27
  L 378.32 223.14
  Q 378.83 222.96 378.83 222.42
  L 378.86 216.95
  Q 378.86 216.29 378.20 216.29
  L 366.74 216.31
  Q 366.04 216.31 366.05 217.01
  L 366.11 222.13
  Q 366.12 222.74 366.59 223.12
  Q 366.77 223.26 366.98 223.31
  Q 367.54 223.43 367.54 224.00
  L 367.50 226.62
  Q 367.49 227.15 367.13 227.53
  Q 365.53 229.21 365.61 231.51
  Z"
/>
<rect fill="#e9d6ba" x="-13.91" y="-1.04" transform="translate(104.30,211.77) rotate(0.1)" width="27.82" height="2.08" rx="0.77"/>
<rect fill="#e9d6ba" x="90.27" y="215.50" width="28.14" height="2.02" rx="0.78"/>
<path fill="#d3dceb" d="
  M 196.22 216.77
  L 199.90 220.82
  Q 200.29 221.25 200.60 220.75
  L 201.61 219.14
  A 0.55 0.55 0.0 0 1 202.60 219.27
  Q 203.06 220.73 203.33 222.27
  Q 205.77 236.24 204.18 251.23
  Q 203.56 257.08 203.00 262.88
  L 193.03 262.42
  Q 190.40 262.30 192.32 264.09
  Q 193.44 265.14 194.88 265.94
  A 0.52 0.49 12.3 0 1 195.14 266.32
  Q 195.20 266.80 194.83 266.84
  Q 193.79 266.95 194.12 267.95
  Q 194.31 268.53 193.73 268.62
  Q 193.29 268.69 192.93 268.43
  Q 191.75 267.60 190.21 267.45
  Q 188.26 265.99 187.85 263.72
  Q 187.75 263.13 187.18 262.90
  Q 181.60 260.66 176.70 258.36
  Q 171.32 255.85 172.22 249.74
  Q 173.06 244.01 176.29 239.81
  Q 176.17 237.46 177.75 237.07
  Q 178.22 236.95 178.44 236.52
  L 179.81 233.84
  Q 181.21 227.08 186.82 221.63
  Q 190.63 218.69 196.22 216.77
  Z
  M 185.90 241.78
  Q 185.12 242.12 184.76 242.95
  Q 183.51 245.11 182.33 247.35
  Q 181.87 248.23 182.25 249.10
  Q 182.42 249.50 182.24 249.89
  Q 181.95 250.50 181.94 251.16
  Q 181.94 251.65 182.18 252.07
  Q 184.79 256.65 188.42 259.96
  A 0.99 0.99 0.0 0 0 190.08 259.19
  L 189.96 256.23
  L 189.98 246.03
  L 188.92 241.14
  Q 188.57 239.50 187.29 240.59
  L 185.90 241.78
  Z"
/>
<path fill="#1a4866" d="
  M 144.20 226.98
  Q 143.19 229.54 141.52 230.11
  Q 140.43 230.48 141.08 231.43
  Q 143.58 235.04 140.74 237.31
  Q 140.33 237.63 139.81 237.66
  L 135.72 237.88
  Q 131.74 238.06 131.07 234.50
  Q 130.57 231.81 129.34 222.50
  A 0.76 0.75 71.5 0 1 129.71 221.74
  Q 134.86 218.76 139.78 217.17
  A 1.99 1.98 -13.4 0 1 142.35 218.75
  Q 142.55 219.97 143.78 219.77
  C 145.71 219.47 146.70 220.79 146.77 222.71
  Q 146.79 223.25 146.36 223.57
  Q 143.53 225.66 144.20 226.98
  Z"
/>
<path fill="#b0bfdd" d="
  M 238.52 218.92
  L 220.64 224.82
  Q 220.63 225.35 219.68 225.84
  Q 220.23 224.92 220.02 223.64
  Q 219.94 223.14 220.29 222.78
  Q 221.18 221.85 223.00 221.26
  Q 231.66 218.47 238.52 218.92
  Z"
/>
<path fill="#1a4866" d="
  M 368.43 220.04
  Q 372.19 220.53 376.25 220.15
  Q 377.35 220.04 376.68 220.93
  Q 376.46 221.21 376.15 221.33
  Q 375.50 221.57 375.50 222.26
  L 375.51 226.44
  Q 375.51 227.14 374.81 227.13
  L 370.28 227.09
  Q 369.47 227.08 369.46 226.28
  L 369.43 223.92
  Q 369.42 223.26 370.08 223.24
  L 372.51 223.17
  A 0.55 0.54 85.8 0 0 373.04 222.55
  L 373.00 222.23
  Q 372.90 221.41 372.08 221.36
  L 368.28 221.15
  Q 368.03 221.13 368.04 220.89
  L 368.05 220.35
  Q 368.07 219.99 368.43 220.04
  Z"
/>
<path fill="#1781a8" d="
  M 220.64 224.82
  Q 221.13 227.52 221.39 228.27
  Q 226.28 241.89 230.96 254.97
  Q 232.76 259.99 234.93 264.37
  Q 235.45 265.41 234.45 264.82
  L 217.89 254.99
  Q 219.58 238.83 219.58 233.75
  Q 219.57 229.70 219.68 225.84
  Q 220.63 225.35 220.64 224.82
  Z"
/>
<path fill="#fcbf39" d="
  M 307.70 226.76
  L 339.75 226.79
  Q 340.96 227.38 342.31 227.49
  Q 343.75 228.79 343.75 231.00
  Q 343.74 242.39 344.15 254.66
  Q 344.48 255.54 343.33 257.53
  Q 342.44 259.20 341.25 259.18
  Q 338.23 259.12 335.42 259.61
  Q 333.58 259.16 331.60 259.24
  C 328.51 259.36 327.19 261.50 325.40 263.55
  A 1.65 1.64 -45.6 0 1 322.96 263.58
  C 321.83 262.36 319.54 259.42 317.83 259.36
  Q 313.01 259.21 308.30 259.25
  Q 304.57 259.28 304.53 255.55
  Q 304.39 242.53 304.50 230.50
  Q 304.52 228.44 307.70 226.76
  Z
  M 329.91 247.42
  C 335.31 241.85 331.79 232.63 323.77 233.16
  C 316.22 233.65 313.64 242.49 318.82 247.53
  C 319.83 248.52 320.43 250.06 320.24 251.47
  Q 320.07 252.81 321.41 252.83
  L 327.04 252.91
  Q 328.33 252.93 328.29 251.64
  C 328.24 250.08 328.82 248.54 329.91 247.42
  Z"
/>
<path fill="#e9d6ba" d="
  M 144.20 226.98
  Q 146.01 230.06 145.69 236.25
  Q 145.50 239.85 142.66 240.14
  Q 142.16 240.20 141.78 240.52
  Q 140.55 241.56 141.39 242.76
  Q 139.53 243.25 137.82 242.67
  Q 137.33 242.51 137.26 242.00
  L 137.01 240.29
  Q 136.78 238.60 135.72 237.88
  L 139.81 237.66
  Q 140.33 237.63 140.74 237.31
  Q 143.58 235.04 141.08 231.43
  Q 140.43 230.48 141.52 230.11
  Q 143.19 229.54 144.20 226.98
  Z"
/>
<rect fill="#2a3036" x="368.03" y="228.94" width="9.56" height="1.10" rx="0.47"/>
<path fill="#b0bfdd" d="
  M 365.61 231.51
  Q 366.05 232.93 367.21 233.82
  Q 366.61 234.13 366.02 233.97
  Q 365.47 233.81 365.27 233.21
  Q 364.94 232.24 365.61 231.51
  Z"
/>
<path fill="#2a3036" d="
  M 367.92 231.87
  Q 372.23 231.79 376.86 231.96
  Q 376.93 231.96 376.93 232.03
  L 376.93 232.04
  Q 376.93 232.20 376.77 232.20
  Q 372.16 232.23 367.94 232.23
  Q 367.76 232.23 367.76 232.05
  L 367.76 232.04
  Q 367.76 231.87 367.92 231.87
  Z"
/>
<path fill="#4678ba" d="
  M 380.21 232.25
  Q 380.81 232.91 380.41 233.42
  Q 379.49 234.63 379.18 233.73
  L 380.21 232.25
  Z"
/>
<path fill="#1781a8" d="
  M 352.27 232.11
  Q 353.02 233.95 352.88 237.61
  C 352.72 241.54 355.69 241.96 359.00 241.88
  Q 362.36 241.80 365.84 242.31
  Q 355.41 253.15 343.07 260.12
  Q 342.68 260.35 342.78 259.90
  L 343.33 257.53
  Q 344.48 255.54 344.15 254.66
  L 352.27 232.11
  Z"
/>
<path fill="#e9d6ba" d="
  M 323.77 233.16
  C 331.79 232.63 335.31 241.85 329.91 247.42
  C 328.82 248.54 328.24 250.08 328.29 251.64
  Q 328.33 252.93 327.04 252.91
  L 321.41 252.83
  Q 320.07 252.81 320.24 251.47
  C 320.43 250.06 319.83 248.52 318.82 247.53
  C 313.64 242.49 316.22 233.65 323.77 233.16
  Z
  M 325.75 242.24
  C 325.60 243.73 325.04 246.04 325.42 247.41
  A 0.54 0.54 0.0 0 0 326.28 247.67
  Q 327.46 246.70 328.62 245.59
  C 331.15 243.20 331.09 239.14 328.47 236.95
  C 323.15 232.51 315.56 238.24 318.92 244.22
  C 319.72 245.63 321.37 246.82 322.72 247.85
  A 0.42 0.42 0.0 0 0 323.39 247.48
  L 322.90 242.37
  Q 322.79 241.20 323.94 241.06
  L 324.46 240.99
  Q 325.89 240.81 325.75 242.24
  Z"
/>
<path fill="#fcbf39" d="
  M 325.75 242.24
  Q 325.89 240.81 324.46 240.99
  L 323.94 241.06
  Q 322.79 241.20 322.90 242.37
  L 323.39 247.48
  A 0.42 0.42 0.0 0 1 322.72 247.85
  C 321.37 246.82 319.72 245.63 318.92 244.22
  C 315.56 238.24 323.15 232.51 328.47 236.95
  C 331.09 239.14 331.15 243.20 328.62 245.59
  Q 327.46 246.70 326.28 247.67
  A 0.54 0.54 0.0 0 1 325.42 247.41
  C 325.04 246.04 325.60 243.73 325.75 242.24
  Z
  M 319.4969 241.0872
  A 3.26 1.10 134.7 0 0 322.5719 239.5437
  A 3.26 1.10 134.7 0 0 324.0831 236.4528
  A 3.26 1.10 134.7 0 0 321.0081 237.9963
  A 3.26 1.10 134.7 0 0 319.4969 241.0872
  Z"
/>
<ellipse fill="#e9d6ba" cx="0.00" cy="0.00" transform="translate(321.79,238.77) rotate(134.7)" rx="3.26" ry="1.10"/>
<path fill="#47c2c7" d="
  M 137.01 240.29
  L 137.26 242.00
  Q 137.33 242.51 137.82 242.67
  Q 139.53 243.25 141.39 242.76
  Q 142.63 243.30 143.81 245.26
  Q 144.10 245.75 144.62 245.98
  C 147.57 247.28 151.42 248.29 153.47 250.86
  Q 161.44 260.86 165.29 274.18
  C 166.38 277.96 163.69 280.84 161.38 283.44
  A 1.68 1.68 0.0 0 1 159.36 283.82
  Q 156.93 282.59 155.25 280.56
  A 0.91 0.89 -47.1 0 1 155.22 279.46
  L 156.11 278.24
  A 1.37 1.36 -39.9 0 0 156.24 276.85
  L 151.73 267.52
  Q 150.50 264.98 150.36 267.79
  L 149.16 290.66
  L 122.57 291.81
  Q 121.32 289.71 115.62 289.95
  C 115.15 287.09 114.39 284.33 114.62 281.54
  C 115.40 271.95 116.61 261.66 119.77 253.01
  C 120.50 251.01 121.53 249.31 123.63 248.48
  Q 126.49 247.35 129.28 246.06
  C 131.88 244.86 132.91 242.38 136.20 242.62
  Q 136.90 242.67 136.93 241.98
  L 137.01 240.29
  Z"
/>
<path fill="#1781a8" d="
  M 185.90 241.78
  Q 187.55 244.26 189.98 246.03
  L 189.96 256.23
  L 183.12 248.76
  Q 183.60 248.92 183.65 248.70
  Q 184.03 247.22 184.48 245.37
  Q 184.49 244.57 185.09 243.14
  Q 185.15 243.01 185.02 242.95
  Q 184.92 242.91 184.76 242.95
  Q 185.12 242.12 185.90 241.78
  Z"
/>
<path fill="#1781a8" d="
  M 391.43 241.88
  Q 369.71 270.13 336.97 284.69
  Q 333.85 286.08 330.71 287.44
  L 329.76 280.63
  Q 361.20 268.31 383.20 241.93
  L 391.43 241.88
  Z"
/>
<path fill="#bdd0e2" d="
  M 183.12 248.76
  Q 182.34 247.49 184.48 245.37
  Q 184.03 247.22 183.65 248.70
  Q 183.60 248.92 183.12 248.76
  Z"
/>
<path fill="#1a4866" d="
  M 399.93 258.85
  L 397.41 256.64
  Q 399.13 254.88 394.67 255.21
  Q 392.58 254.60 391.28 252.73
  Q 390.06 251.66 389.48 253.71
  Q 388.70 254.32 387.73 254.62
  Q 387.26 254.77 387.22 255.25
  Q 387.04 257.34 385.64 259.03
  L 385.80 251.86
  A 3.06 3.06 0.0 0 1 388.95 248.87
  C 391.49 248.94 395.62 248.24 397.84 249.61
  Q 399.61 250.70 400.06 252.49
  Q 400.58 254.56 399.93 258.85
  Z"
/>
<path fill="#e9d6ba" d="
  M 391.28 252.73
  Q 392.58 254.60 394.67 255.21
  Q 394.51 255.87 395.25 256.01
  Q 396.69 256.27 397.41 256.64
  L 399.93 258.85
  L 399.87 260.90
  Q 399.86 261.41 399.59 261.83
  Q 398.50 263.59 398.69 265.12
  Q 396.58 268.89 393.17 271.16
  A 0.91 0.91 0.0 0 1 392.29 271.23
  Q 389.99 270.21 389.02 269.11
  Q 387.67 267.57 386.37 264.23
  L 385.64 259.03
  Q 387.04 257.34 387.22 255.25
  Q 387.26 254.77 387.73 254.62
  Q 388.70 254.32 389.48 253.71
  L 390.89 253.85
  Q 391.44 253.91 391.36 253.37
  L 391.28 252.73
  Z"
/>
<path fill="#1a4866" d="
  M 203.00 262.88
  L 204.93 262.98
  Q 210.24 263.32 215.50 263.37
  Q 216.18 263.37 216.98 262.90
  L 218.36 270.40
  L 219.86 278.39
  Q 219.86 278.30 219.65 278.44
  Q 219.52 278.51 219.55 278.66
  Q 221.25 289.01 223.07 299.45
  Q 225.00 310.53 226.17 319.15
  Q 228.53 336.61 230.67 354.35
  Q 227.96 353.70 224.44 356.87
  L 223.26 356.74
  Q 222.77 356.68 222.66 356.19
  Q 219.04 339.95 216.30 324.93
  Q 215.39 319.97 215.14 314.99
  Q 215.03 312.79 214.02 310.80
  Q 209.13 301.20 206.31 292.18
  Q 205.64 290.03 205.36 292.27
  Q 204.34 300.18 203.51 307.00
  Q 203.23 309.26 203.27 312.25
  Q 203.54 333.44 202.09 354.79
  Q 199.32 355.65 195.65 355.04
  Q 193.45 328.08 190.89 301.26
  Q 189.71 288.98 190.21 267.45
  Q 191.75 267.60 192.93 268.43
  Q 193.29 268.69 193.73 268.62
  Q 194.31 268.53 194.12 267.95
  Q 193.79 266.95 194.83 266.84
  Q 195.20 266.80 195.14 266.32
  A 0.52 0.49 12.3 0 0 194.88 265.94
  Q 193.44 265.14 192.32 264.09
  Q 190.40 262.30 193.03 262.42
  L 203.00 262.88
  Z"
/>
<path fill="#bdd0e2" d="
  M 386.37 264.23
  Q 387.67 267.57 389.02 269.11
  Q 389.99 270.21 392.29 271.23
  A 0.91 0.91 0.0 0 0 393.17 271.16
  Q 396.58 268.89 398.69 265.12
  L 411.25 268.78
  Q 410.05 279.55 408.79 290.25
  Q 408.60 291.90 409.43 293.13
  A 0.86 0.85 42.3 0 1 409.48 294.01
  L 409.31 294.32
  Q 409.09 294.74 409.25 295.18
  Q 409.91 296.99 410.77 298.74
  Q 411.08 299.38 410.81 300.73
  Q 410.57 300.99 410.83 301.43
  L 406.92 301.85
  A 1.28 1.27 19.5 0 0 406.18 302.20
  Q 405.68 302.69 405.74 303.15
  A 1.38 1.38 0.0 0 1 404.37 304.72
  Q 390.12 304.74 377.50 304.70
  Q 376.25 304.70 374.87 303.01
  Q 376.19 303.12 375.65 301.36
  L 375.99 301.91
  Q 376.23 302.29 376.68 302.29
  L 404.57 302.24
  A 1.32 1.32 0.0 0 0 405.89 300.93
  L 406.04 283.26
  Q 406.05 281.98 404.76 281.98
  L 377.04 281.98
  A 1.13 1.13 0.0 0 0 375.91 283.19
  Q 376.26 288.02 374.07 293.55
  Q 373.04 294.97 372.41 296.98
  Q 372.25 297.49 372.70 297.78
  L 372.99 297.96
  Q 373.44 298.25 373.55 298.77
  Q 374.12 301.32 372.86 303.52
  Q 372.77 304.05 372.61 304.43
  Q 372.44 304.81 371.98 305.08
  Q 368.47 307.12 364.65 306.50
  Q 362.08 303.00 361.80 298.75
  Q 361.59 295.47 362.95 291.60
  C 365.80 283.46 369.27 274.94 374.75 268.56
  A 5.42 5.37 -77.7 0 1 377.28 266.92
  L 386.37 264.23
  Z"
/>
<path fill="#b0bfdd" d="
  M 411.25 268.78
  Q 414.35 270.04 415.67 273.85
  Q 419.81 285.78 418.69 297.26
  C 418.32 301.12 413.40 300.36 410.81 300.73
  Q 411.08 299.38 410.77 298.74
  Q 409.91 296.99 409.25 295.18
  Q 409.09 294.74 409.31 294.32
  L 409.48 294.01
  A 0.86 0.85 42.3 0 0 409.43 293.13
  Q 408.60 291.90 408.79 290.25
  Q 410.05 279.55 411.25 268.78
  Z"
/>
<path fill="#1781a8" d="
  M 218.36 270.40
  C 226.41 275.08 234.32 279.38 243.21 281.97
  L 247.47 290.23
  Q 233.21 285.75 219.86 278.39
  L 218.36 270.40
  Z"
/>
<path fill="#444c54" d="
  M 303.32 295.43
  L 302.35 296.17
  Q 300.52 297.14 300.42 296.58
  L 302.02 282.52
  Q 302.08 281.97 301.82 281.49
  L 299.63 277.39
  A 0.45 0.45 0.0 0 0 298.82 277.44
  Q 298.15 279.09 297.21 280.60
  C 295.90 282.70 293.40 282.08 292.37 280.15
  Q 291.92 279.32 291.58 278.49
  Q 291.21 277.58 290.76 278.46
  C 289.26 281.32 285.26 284.30 283.48 279.50
  Q 283.09 278.46 282.45 277.55
  A 0.40 0.40 0.0 0 0 281.77 277.58
  C 281.05 278.90 280.57 280.95 279.26 281.76
  C 276.81 283.30 275.18 280.17 274.33 278.37
  Q 273.52 276.64 272.89 278.44
  Q 272.12 280.65 270.35 282.01
  Q 269.86 282.39 269.95 283.00
  L 275.64 323.94
  A 0.68 0.68 0.0 0 0 276.34 324.53
  L 288.68 324.29
  L 286.29 328.36
  L 261.68 328.84
  Q 261.19 328.85 260.93 329.26
  Q 260.51 329.92 259.77 330.02
  C 256.80 329.81 255.57 326.71 258.25 324.92
  Q 258.91 324.47 261.04 324.49
  L 272.42 324.48
  Q 272.96 324.48 272.89 323.95
  L 266.30 276.61
  Q 266.15 275.59 267.15 275.29
  L 267.84 275.09
  A 0.87 0.87 0.0 0 1 268.94 275.80
  L 269.40 279.02
  Q 269.57 280.26 270.05 279.11
  Q 270.63 277.68 271.49 276.35
  C 272.73 274.45 275.20 274.91 276.17 276.77
  Q 276.80 278.00 277.45 279.24
  A 0.57 0.57 0.0 0 0 278.49 279.19
  Q 279.20 277.45 280.19 276.06
  C 281.33 274.47 283.62 274.73 284.55 276.40
  Q 285.32 277.77 285.98 279.12
  A 0.81 0.81 0.0 0 0 287.39 279.21
  L 289.76 275.61
  A 1.64 1.63 41.8 0 1 292.38 275.47
  Q 293.73 277.09 294.46 279.00
  A 0.56 0.55 -42.7 0 0 295.48 279.04
  L 296.96 275.94
  A 2.31 2.31 0.0 0 1 300.14 274.90
  Q 301.25 275.50 301.89 276.71
  Q 302.69 278.21 302.79 276.51
  L 302.87 275.17
  Q 302.91 274.44 303.62 274.60
  L 305.00 274.93
  A 0.74 0.74 0.0 0 1 305.56 275.73
  L 303.32 295.43
  Z"
/>
<path fill="#ffd640" d="
  M 476.56 279.24
  L 476.41 281.99
  Q 477.50 284.75 471.25 285.03
  Q 470.64 285.05 470.72 285.52
  A 0.44 0.43 82.3 0 0 471.17 285.87
  L 478.94 285.49
  Q 479.65 285.22 479.50 287.04
  Q 479.46 287.57 479.12 287.97
  Q 477.25 290.19 474.95 290.96
  Q 459.88 296.05 443.45 292.20
  C 440.98 291.62 436.44 290.22 434.84 288.17
  Q 434.15 287.29 433.35 286.50
  Q 432.98 286.13 432.46 286.13
  L 431.80 286.13
  Q 431.35 286.13 430.96 285.89
  Q 429.76 285.16 427.97 286.98
  Q 428.19 285.25 429.30 284.16
  Q 429.57 284.07 429.80 284.30
  Q 430.07 284.58 430.45 284.59
  Q 435.13 284.69 439.39 284.25
  C 440.96 284.09 442.24 284.71 443.82 284.48
  Q 444.35 284.40 444.45 283.88
  Q 444.76 282.35 444.41 280.49
  Q 444.53 280.05 444.46 279.34
  L 445.37 277.02
  Q 460.16 274.49 474.25 278.24
  Q 475.08 278.47 476.56 279.24
  Z"
/>
<path fill="#e4edf2" d="
  M 300.42 296.58
  C 300.16 297.40 299.84 298.22 299.13 298.81
  C 296.08 301.40 295.41 308.13 295.39 311.84
  Q 295.39 313.19 296.04 317.11
  Q 296.52 319.98 296.34 322.47
  Q 293.67 322.29 292.50 322.72
  Q 290.13 323.59 288.68 324.29
  L 276.34 324.53
  A 0.68 0.68 0.0 0 1 275.64 323.94
  L 269.95 283.00
  Q 269.86 282.39 270.35 282.01
  Q 272.12 280.65 272.89 278.44
  Q 273.52 276.64 274.33 278.37
  C 275.18 280.17 276.81 283.30 279.26 281.76
  C 280.57 280.95 281.05 278.90 281.77 277.58
  A 0.40 0.40 0.0 0 1 282.45 277.55
  Q 283.09 278.46 283.48 279.50
  C 285.26 284.30 289.26 281.32 290.76 278.46
  Q 291.21 277.58 291.58 278.49
  Q 291.92 279.32 292.37 280.15
  C 293.40 282.08 295.90 282.70 297.21 280.60
  Q 298.15 279.09 298.82 277.44
  A 0.45 0.45 0.0 0 1 299.63 277.39
  L 301.82 281.49
  Q 302.08 281.97 302.02 282.52
  L 300.42 296.58
  Z"
/>
<path fill="#1781a8" d="
  M 480.70 278.23
  Q 480.59 278.41 480.48 278.58
  Q 480.29 281.08 476.41 281.99
  L 476.56 279.24
  Q 476.58 278.21 476.24 278.09
  Q 477.67 278.10 478.99 277.84
  Q 479.62 277.71 480.70 278.23
  Z"
/>
<path fill="#ffd640" d="
  M 439.07 278.55
  L 439.48 279.60
  Q 439.49 279.60 439.51 279.60
  Q 438.64 280.85 437.59 281.65
  Q 436.72 282.32 435.02 282.50
  Q 432.32 282.77 429.74 283.69
  Q 433.56 280.12 439.07 278.55
  Z"
/>
<path fill="#2a3036" d="
  M 480.48 278.58
  Q 483.32 280.05 482.68 281.96
  Q 480.13 283.28 478.94 285.49
  L 471.17 285.87
  A 0.44 0.43 82.3 0 1 470.72 285.52
  Q 470.64 285.05 471.25 285.03
  Q 477.50 284.75 476.41 281.99
  Q 480.29 281.08 480.48 278.58
  Z"
/>
<path fill="#4678ba" d="
  M 444.46 279.34
  Q 444.53 280.05 444.41 280.49
  Q 440.67 282.54 439.51 279.60
  Q 439.49 279.60 439.48 279.60
  Q 441.89 278.58 444.46 279.34
  Z"
/>
<path fill="#1a4866" d="
  M 329.02 279.48
  L 329.76 280.63
  L 330.71 287.44
  Q 330.22 288.97 328.69 289.25
  L 329.27 287.17
  A 0.96 0.96 0.0 0 0 328.21 285.96
  C 324.56 286.49 322.75 284.63 319.72 283.26
  A 1.33 1.33 0.0 0 0 317.90 284.09
  Q 317.23 286.27 316.66 287.58
  Q 315.47 290.33 315.39 287.33
  Q 315.34 285.22 315.87 282.81
  C 316.61 279.41 319.39 280.66 321.59 281.17
  Q 322.18 281.31 322.73 281.05
  Q 325.82 279.60 329.02 279.48
  Z"
/>
<path fill="#2a3036" d="
  M 439.51 279.60
  Q 440.67 282.54 444.41 280.49
  Q 444.76 282.35 444.45 283.88
  Q 444.35 284.40 443.82 284.48
  C 442.24 284.71 440.96 284.09 439.39 284.25
  Q 435.13 284.69 430.45 284.59
  Q 430.07 284.58 429.80 284.30
  Q 429.57 284.07 429.30 284.16
  L 429.74 283.69
  Q 432.32 282.77 435.02 282.50
  Q 436.72 282.32 437.59 281.65
  Q 438.64 280.85 439.51 279.60
  Z"
/>
<path fill="#fcbf39" d="
  M 482.68 281.96
  Q 487.32 286.03 485.84 292.90
  Q 486.00 292.15 484.88 292.08
  Q 484.38 292.05 483.97 292.35
  Q 476.53 297.82 467.73 298.97
  C 458.86 300.14 449.35 300.13 440.74 297.90
  Q 432.85 295.86 427.82 289.83
  Q 427.57 287.94 427.97 286.98
  Q 429.76 285.16 430.96 285.89
  Q 431.35 286.13 431.80 286.13
  L 432.46 286.13
  Q 432.98 286.13 433.35 286.50
  Q 434.15 287.29 434.84 288.17
  C 436.44 290.22 440.98 291.62 443.45 292.20
  Q 459.88 296.05 474.95 290.96
  Q 477.25 290.19 479.12 287.97
  Q 479.46 287.57 479.50 287.04
  Q 479.65 285.22 478.94 285.49
  Q 480.13 283.28 482.68 281.96
  Z"
/>
<path fill="#e4edf2" d="
  M 375.65 301.36
  Q 374.68 301.23 374.83 300.67
  Q 374.93 300.33 375.00 300.68
  Q 375.04 300.90 375.26 300.82
  Q 375.55 300.71 375.60 300.41
  Q 376.17 296.88 375.94 294.78
  Q 375.69 292.65 374.07 293.55
  Q 376.26 288.02 375.91 283.19
  A 1.13 1.13 0.0 0 1 377.04 281.98
  L 404.76 281.98
  Q 406.05 281.98 406.04 283.26
  L 405.89 300.93
  A 1.32 1.32 0.0 0 1 404.57 302.24
  L 376.68 302.29
  Q 376.23 302.29 375.99 301.91
  L 375.65 301.36
  Z
  M 392.57 292.32
  A 1.64 1.64 0.0 0 0 390.93 290.68
  A 1.64 1.64 0.0 0 0 389.29 292.32
  A 1.64 1.64 0.0 0 0 390.93 293.96
  A 1.64 1.64 0.0 0 0 392.57 292.32
  Z"
/>
<path fill="#e9d6ba" d="
  M 149.71 293.54
  Q 149.46 292.90 149.74 292.31
  Q 150.91 288.17 154.17 283.49
  A 1.25 1.24 37.5 0 1 156.00 283.25
  Q 156.86 283.99 157.96 284.41
  Q 159.20 284.88 158.39 285.92
  Q 154.91 290.43 149.71 293.54
  Z"
/>
<path fill="#e9d6ba" d="
  M 115.62 289.95
  Q 121.32 289.71 122.57 291.81
  L 120.89 301.55
  Q 116.50 296.25 115.62 289.95
  Z"
/>
<path fill="#ffd640" d="
  M 427.82 289.83
  Q 432.85 295.86 440.74 297.90
  C 449.35 300.13 458.86 300.14 467.73 298.97
  Q 476.53 297.82 483.97 292.35
  Q 484.38 292.05 484.88 292.08
  Q 486.00 292.15 485.84 292.90
  L 486.83 294.95
  Q 485.04 298.13 482.57 299.85
  Q 478.61 302.60 473.60 303.91
  Q 454.83 308.84 436.52 302.73
  Q 434.38 302.01 432.42 300.52
  Q 431.70 299.97 431.20 300.73
  Q 431.07 300.92 431.08 301.14
  Q 431.10 302.14 431.88 302.73
  Q 436.90 306.58 441.36 307.82
  Q 457.24 312.23 473.52 308.86
  Q 481.73 307.16 487.86 301.45
  Q 488.68 305.19 486.99 308.31
  Q 486.75 308.75 486.76 309.26
  Q 486.83 312.30 486.66 313.25
  Q 485.71 318.48 486.55 322.54
  Q 482.18 327.33 476.33 329.39
  Q 472.45 330.76 464.57 331.76
  Q 451.37 333.46 438.87 329.48
  Q 435.22 328.33 430.19 325.08
  Q 429.81 324.83 429.66 325.26
  L 429.55 325.56
  Q 429.31 326.22 429.82 326.70
  Q 432.86 329.64 436.31 331.00
  Q 450.86 336.72 468.67 334.00
  Q 475.21 333.01 479.01 331.10
  Q 481.83 329.69 486.45 325.63
  Q 486.66 331.81 486.74 338.26
  C 486.87 347.86 467.26 350.42 460.67 350.62
  C 451.03 350.93 441.47 349.90 433.10 345.41
  Q 427.07 342.17 428.64 335.56
  Q 435.35 341.46 444.50 343.17
  Q 457.05 345.53 469.66 343.39
  C 474.35 342.60 481.24 340.59 484.73 337.02
  Q 485.19 336.54 485.19 335.85
  Q 485.20 335.24 484.92 334.73
  Q 484.65 334.21 484.16 334.53
  Q 479.80 337.37 474.36 338.81
  Q 458.99 342.86 444.65 340.05
  Q 437.19 338.58 430.89 334.10
  Q 430.33 333.70 428.34 333.48
  C 428.23 329.44 428.30 325.99 427.90 321.52
  Q 427.36 315.46 428.61 309.57
  Q 430.55 310.83 432.49 312.25
  C 436.75 315.35 442.18 316.87 447.33 317.54
  Q 455.60 318.62 465.45 317.87
  C 469.02 317.60 479.18 316.15 481.37 313.23
  Q 482.25 312.05 480.89 312.61
  C 470.90 316.71 459.39 317.43 448.77 315.86
  Q 441.85 314.83 435.18 311.47
  C 432.77 310.26 430.74 308.04 428.39 306.39
  Q 428.41 305.11 429.07 303.77
  C 429.92 302.04 429.93 301.10 429.69 299.33
  C 429.48 297.79 428.13 296.89 427.87 295.51
  Q 427.56 293.81 427.82 289.83
  Z"
/>
<path fill="#4678ba" d="
  M 149.16 290.66
  Q 148.97 292.15 149.74 292.31
  Q 149.46 292.90 149.71 293.54
  Q 149.22 294.14 149.21 294.50
  Q 149.01 304.97 148.67 315.57
  Q 148.53 320.13 148.04 324.29
  C 147.57 328.30 147.70 332.23 147.37 336.19
  Q 145.85 354.25 144.46 372.47
  L 137.69 374.12
  Q 137.59 374.35 137.28 374.01
  Q 137.04 373.74 137.01 373.37
  Q 135.83 357.94 136.42 342.96
  Q 136.54 339.87 136.98 336.82
  C 137.37 334.10 138.04 331.47 137.64 328.72
  Q 136.38 319.91 135.08 310.65
  Q 134.81 308.67 134.30 310.61
  Q 131.37 321.86 128.06 332.40
  Q 125.39 340.90 123.06 351.07
  Q 120.87 360.62 118.67 370.24
  Q 117.50 376.22 110.81 372.71
  Q 113.04 359.35 115.39 346.34
  Q 117.25 335.98 118.39 326.57
  Q 120.55 308.65 121.15 303.00
  Q 121.25 302.08 120.89 301.55
  L 122.57 291.81
  L 149.16 290.66
  Z"
/>
<circle fill="#bdd0e2" cx="390.93" cy="292.32" r="1.64"/>
<path fill="#bdd0e2" d="
  M 315.41 291.91
  Q 314.52 294.32 314.09 296.77
  C 313.36 300.85 319.51 302.99 322.57 303.48
  Q 325.73 303.98 326.93 301.23
  Q 328.48 297.67 326.34 296.30
  Q 327.44 295.68 328.14 293.97
  L 336.35 301.96
  Q 334.75 313.53 331.02 322.43
  Q 328.05 326.06 327.39 333.00
  Q 327.27 334.20 325.88 335.98
  Q 325.56 336.39 325.04 336.40
  Q 323.25 336.43 321.58 336.25
  Q 320.03 336.08 318.31 334.84
  Q 315.38 332.75 312.68 330.58
  Q 313.49 330.03 313.76 329.30
  Q 314.04 328.55 313.61 327.80
  Q 312.64 326.11 311.32 325.11
  Q 310.87 324.77 310.37 325.03
  Q 308.63 325.92 306.70 325.37
  A 0.45 0.45 0.0 0 1 306.64 324.53
  Q 307.95 323.96 309.42 323.96
  A 1.17 1.17 0.0 0 0 310.58 322.60
  Q 308.85 312.05 306.80 301.25
  Q 306.17 297.93 302.35 296.17
  L 303.32 295.43
  Q 304.23 295.56 304.59 295.02
  Q 304.80 294.70 305.15 294.54
  Q 309.32 292.57 313.87 292.09
  Q 314.35 292.04 314.67 291.66
  Q 315.41 290.76 315.41 291.91
  Z"
/>
<path fill="#1a4866" d="
  M 315.41 291.91
  L 316.16 294.12
  A 1.52 1.52 0.0 0 0 318.22 295.01
  Q 322.85 292.92 326.34 296.30
  Q 328.48 297.67 326.93 301.23
  Q 325.73 303.98 322.57 303.48
  C 319.51 302.99 313.36 300.85 314.09 296.77
  Q 314.52 294.32 315.41 291.91
  Z
  M 324.7049 297.6586
  A 2.04 0.58 15.6 0 0 322.8960 296.5514
  A 2.04 0.58 15.6 0 0 320.7751 296.5614
  A 2.04 0.58 15.6 0 0 322.5840 297.6686
  A 2.04 0.58 15.6 0 0 324.7049 297.6586
  Z"
/>
<path fill="#fcbf39" d="
  M 486.83 294.95
  Q 488.85 297.66 487.86 301.45
  Q 481.73 307.16 473.52 308.86
  Q 457.24 312.23 441.36 307.82
  Q 436.90 306.58 431.88 302.73
  Q 431.10 302.14 431.08 301.14
  Q 431.07 300.92 431.20 300.73
  Q 431.70 299.97 432.42 300.52
  Q 434.38 302.01 436.52 302.73
  Q 454.83 308.84 473.60 303.91
  Q 478.61 302.60 482.57 299.85
  Q 485.04 298.13 486.83 294.95
  Z"
/>
<path fill="#b0bfdd" d="
  M 302.35 296.17
  Q 306.17 297.93 306.80 301.25
  Q 308.85 312.05 310.58 322.60
  A 1.17 1.17 0.0 0 1 309.42 323.96
  Q 307.95 323.96 306.64 324.53
  A 0.45 0.45 0.0 0 0 306.70 325.37
  Q 308.63 325.92 310.37 325.03
  Q 310.87 324.77 311.32 325.11
  Q 312.64 326.11 313.61 327.80
  Q 314.04 328.55 313.76 329.30
  Q 313.49 330.03 312.68 330.58
  Q 309.81 332.04 309.33 333.45
  L 296.34 322.47
  Q 296.52 319.98 296.04 317.11
  Q 295.39 313.19 295.39 311.84
  C 295.41 308.13 296.08 301.40 299.13 298.81
  C 299.84 298.22 300.16 297.40 300.42 296.58
  Q 300.52 297.14 302.35 296.17
  Z"
/>
<ellipse fill="#e9d6ba" cx="0.00" cy="0.00" transform="translate(322.74,297.11) rotate(15.6)" rx="2.04" ry="0.58"/>
<path fill="#394235" d="
  M 422.88 306.09
  L 423.27 321.87
  L 423.67 329.28
  L 424.21 340.79
  L 423.94 348.64
  Q 420.56 348.80 417.05 350.56
  L 415.67 350.62
  Q 415.12 350.64 415.06 350.10
  L 414.80 347.86
  L 413.95 341.53
  L 413.36 337.15
  L 412.45 329.96
  L 412.25 327.51
  L 411.66 321.02
  L 411.32 316.77
  L 411.31 312.83
  Q 411.31 312.47 410.95 312.45
  Q 395.71 311.55 380.73 313.86
  L 376.53 314.44
  Q 376.01 314.51 375.99 315.04
  L 375.80 319.39
  L 375.72 326.18
  L 375.66 329.88
  L 375.55 337.83
  L 375.51 340.94
  L 374.90 347.34
  L 374.71 349.62
  L 367.61 349.45
  L 366.43 333.22
  L 364.73 317.68
  Q 365.18 317.33 365.14 317.00
  Q 364.61 312.26 364.32 307.50
  Q 364.30 307.18 364.65 306.50
  Q 368.47 307.12 371.98 305.08
  Q 372.44 304.81 372.61 304.43
  Q 372.77 304.05 372.86 303.52
  Q 373.34 303.99 374.87 303.01
  Q 376.25 304.70 377.50 304.70
  Q 390.12 304.74 404.37 304.72
  A 1.38 1.38 0.0 0 0 405.74 303.15
  Q 405.68 302.69 406.18 302.20
  A 1.28 1.27 19.5 0 1 406.92 301.85
  L 410.83 301.43
  Q 412.65 301.87 414.79 301.05
  Q 415.28 300.86 415.79 301.02
  C 417.47 301.52 420.99 302.42 422.01 304.02
  Q 422.65 305.01 422.88 306.09
  Z"
/>
<path fill="#b0bfdd" d="
  M 336.35 301.96
  Q 339.52 312.06 339.37 322.56
  Q 335.51 323.20 331.02 322.43
  Q 334.75 313.53 336.35 301.96
  Z"
/>
<path fill="#ffd640" d="
  M 422.88 306.09
  Q 425.55 308.18 425.53 310.00
  Q 425.48 313.88 425.64 317.75
  Q 425.73 319.80 423.27 321.87
  L 422.88 306.09
  Z"
/>
<path fill="#fcbf39" d="
  M 428.39 306.39
  C 430.74 308.04 432.77 310.26 435.18 311.47
  Q 441.85 314.83 448.77 315.86
  C 459.39 317.43 470.90 316.71 480.89 312.61
  Q 482.25 312.05 481.37 313.23
  C 479.18 316.15 469.02 317.60 465.45 317.87
  Q 455.60 318.62 447.33 317.54
  C 442.18 316.87 436.75 315.35 432.49 312.25
  Q 430.55 310.83 428.61 309.57
  L 428.39 306.39
  Z"
/>
<path fill="#ffd640" d="
  M 411.32 316.77
  Q 410.47 316.50 409.60 316.22
  Q 408.74 315.93 407.85 316.00
  Q 401.94 316.46 396.07 316.70
  Q 391.94 316.86 381.59 315.33
  A 0.91 0.90 82.4 0 1 380.88 314.78
  Q 380.66 314.25 380.73 313.86
  Q 395.71 311.55 410.95 312.45
  Q 411.31 312.47 411.31 312.83
  L 411.32 316.77
  Z"
/>
<path fill="#fcbf39" d="
  M 380.73 313.86
  Q 380.66 314.25 380.88 314.78
  A 0.91 0.90 82.4 0 0 381.59 315.33
  Q 391.94 316.86 396.07 316.70
  Q 401.94 316.46 407.85 316.00
  Q 408.74 315.93 409.60 316.22
  Q 410.47 316.50 411.32 316.77
  L 411.66 321.02
  Q 393.53 325.22 375.80 319.39
  L 375.99 315.04
  Q 376.01 314.51 376.53 314.44
  L 380.73 313.86
  Z"
/>
<path fill="#ffd640" d="
  M 364.73 317.68
  L 366.43 333.22
  Q 363.09 330.78 363.23 328.52
  Q 363.45 324.84 363.09 321.27
  Q 362.91 319.47 364.73 317.68
  Z"
/>
<path fill="#ffd640" d="
  M 375.80 319.39
  Q 393.53 325.22 411.66 321.02
  L 412.25 327.51
  Q 393.90 330.85 375.72 326.18
  L 375.80 319.39
  Z"
/>
<path fill="#e4edf2" d="
  M 339.37 322.56
  L 354.10 322.23
  Q 355.98 322.18 355.71 324.05
  Q 354.45 332.76 349.81 340.22
  Q 347.84 342.16 344.76 342.16
  Q 342.37 342.17 340.98 342.71
  L 320.56 343.11
  Q 319.36 343.04 318.98 341.66
  Q 318.85 341.19 318.47 340.88
  L 309.33 333.45
  Q 309.81 332.04 312.68 330.58
  Q 315.38 332.75 318.31 334.84
  Q 320.03 336.08 321.58 336.25
  Q 323.25 336.43 325.04 336.40
  Q 325.56 336.39 325.88 335.98
  Q 327.27 334.20 327.39 333.00
  Q 328.05 326.06 331.02 322.43
  Q 335.51 323.20 339.37 322.56
  Z
  M 341.7731 330.7275
  A 1.54 1.07 -36.8 0 0 339.8990 330.7932
  A 1.54 1.07 -36.8 0 0 339.3069 332.5725
  A 1.54 1.07 -36.8 0 0 341.1810 332.5068
  A 1.54 1.07 -36.8 0 0 341.7731 330.7275
  Z"
/>
<path fill="#618fca" d="
  M 296.34 322.47
  L 309.33 333.45
  L 318.47 340.88
  Q 318.85 341.19 318.98 341.66
  Q 319.36 343.04 320.56 343.11
  L 327.53 349.55
  Q 329.22 351.13 327.81 352.87
  L 323.58 356.76
  L 318.60 360.47
  A 2.18 2.17 -42.6 0 1 315.86 360.36
  L 310.58 355.67
  L 288.35 334.06
  Q 285.82 331.46 286.29 328.36
  L 288.68 324.29
  Q 290.13 323.59 292.50 322.72
  Q 293.67 322.29 296.34 322.47
  Z"
/>
<path fill="#fcbf39" d="
  M 486.55 322.54
  L 486.45 325.63
  Q 481.83 329.69 479.01 331.10
  Q 475.21 333.01 468.67 334.00
  Q 450.86 336.72 436.31 331.00
  Q 432.86 329.64 429.82 326.70
  Q 429.31 326.22 429.55 325.56
  L 429.66 325.26
  Q 429.81 324.83 430.19 325.08
  Q 435.22 328.33 438.87 329.48
  Q 451.37 333.46 464.57 331.76
  Q 472.45 330.76 476.33 329.39
  Q 482.18 327.33 486.55 322.54
  Z"
/>
<path fill="#fcbf39" d="
  M 412.25 327.51
  L 412.45 329.96
  Q 412.30 329.77 412.12 329.70
  A 0.63 0.61 -67.7 0 0 411.35 330.03
  Q 410.98 330.83 410.14 331.07
  Q 395.26 335.18 379.67 332.22
  Q 378.58 332.01 377.59 331.25
  Q 376.67 330.54 375.66 329.88
  L 375.72 326.18
  Q 393.90 330.85 412.25 327.51
  Z"
/>
<path fill="#2a3036" d="
  M 286.29 328.36
  Q 285.82 331.46 288.35 334.06
  L 288.22 334.45
  Q 288.02 335.05 287.69 334.50
  Q 287.57 334.29 287.34 334.20
  Q 287.00 334.06 286.67 334.07
  Q 274.40 334.40 262.12 334.10
  Q 261.63 334.09 261.19 333.86
  L 260.48 333.51
  Q 261.33 330.20 259.77 330.02
  Q 260.51 329.92 260.93 329.26
  Q 261.19 328.85 261.68 328.84
  L 286.29 328.36
  Z"
/>
<path fill="#ffd640" d="
  M 423.67 329.28
  Q 424.93 331.42 425.04 332.75
  Q 425.31 336.06 424.21 340.79
  L 423.67 329.28
  Z"
/>
<path fill="#ffd640" d="
  M 412.45 329.96
  L 413.36 337.15
  Q 411.91 337.37 410.46 337.43
  Q 408.86 337.49 407.56 337.80
  Q 391.89 341.52 375.55 337.83
  L 375.66 329.88
  Q 376.67 330.54 377.59 331.25
  Q 378.58 332.01 379.67 332.22
  Q 395.26 335.18 410.14 331.07
  Q 410.98 330.83 411.35 330.03
  A 0.63 0.61 -67.7 0 1 412.12 329.70
  Q 412.30 329.77 412.45 329.96
  Z"
/>
<ellipse fill="#bdd0e2" cx="0.00" cy="0.00" transform="translate(340.54,331.65) rotate(-36.8)" rx="1.54" ry="1.07"/>
<path fill="#2a3036" d="
  M 259.05 333.60
  L 258.87 334.29
  A 1.91 1.91 0.0 0 0 260.74 336.67
  L 286.69 336.39
  A 2.35 2.34 76.3 0 1 288.82 337.69
  Q 291.61 343.34 294.82 348.23
  Q 297.01 351.56 302.13 356.64
  L 266.01 357.10
  Q 265.47 357.11 265.03 356.79
  Q 264.28 356.26 263.84 355.44
  Q 263.56 354.92 262.99 354.76
  Q 260.31 354.03 260.92 348.64
  Q 261.06 347.38 259.80 347.46
  C 256.49 347.65 255.91 342.79 258.97 342.49
  Q 258.06 343.24 258.41 344.00
  C 259.32 346.04 261.00 345.83 263.33 345.83
  Q 275.80 345.84 290.35 345.42
  Q 291.54 345.38 291.18 344.25
  Q 291.08 343.95 290.88 343.72
  Q 289.88 342.61 288.45 342.66
  Q 274.62 343.06 261.64 342.86
  Q 261.34 342.85 261.10 342.71
  Q 260.79 342.53 260.59 342.35
  Q 260.90 340.92 260.72 339.29
  Q 260.67 338.80 260.17 338.81
  C 256.40 338.96 255.72 334.14 259.05 333.60
  Z"
/>
<path fill="#1a4866" d="
  M 259.05 333.60
  Q 259.65 333.36 260.48 333.51
  L 261.19 333.86
  Q 261.63 334.09 262.12 334.10
  Q 274.40 334.40 286.67 334.07
  Q 287.00 334.06 287.34 334.20
  Q 287.57 334.29 287.69 334.50
  Q 288.02 335.05 288.22 334.45
  L 288.35 334.06
  L 310.58 355.67
  Q 310.01 357.46 310.19 358.41
  Q 309.43 358.58 308.98 359.09
  Q 308.62 359.48 308.78 359.99
  Q 309.24 361.46 308.83 362.81
  A 0.61 0.61 0.0 0 0 309.25 363.58
  Q 311.31 364.14 312.91 362.57
  L 313.49 363.59
  L 312.52 365.10
  Q 312.17 365.64 311.53 365.68
  Q 306.50 365.98 301.32 367.02
  C 297.40 367.80 293.49 367.02 292.62 362.45
  A 1.79 1.78 -5.8 0 1 294.35 360.33
  L 300.91 360.26
  Q 299.55 362.35 300.84 363.90
  Q 301.20 364.33 301.76 364.24
  L 304.27 363.82
  A 0.76 0.75 -11.8 0 0 304.88 362.90
  L 304.24 360.16
  Q 305.16 359.92 305.85 359.34
  Q 306.27 358.98 305.79 358.70
  L 302.13 356.64
  Q 297.01 351.56 294.82 348.23
  Q 291.61 343.34 288.82 337.69
  A 2.35 2.34 76.3 0 0 286.69 336.39
  L 260.74 336.67
  A 1.91 1.91 0.0 0 1 258.87 334.29
  L 259.05 333.60
  Z"
/>
<path fill="#fcbf39" d="
  M 428.34 333.48
  Q 430.33 333.70 430.89 334.10
  Q 437.19 338.58 444.65 340.05
  Q 458.99 342.86 474.36 338.81
  Q 479.80 337.37 484.16 334.53
  Q 484.65 334.21 484.92 334.73
  Q 485.20 335.24 485.19 335.85
  Q 485.19 336.54 484.73 337.02
  C 481.24 340.59 474.35 342.60 469.66 343.39
  Q 457.05 345.53 444.50 343.17
  Q 435.35 341.46 428.64 335.56
  Q 428.25 334.47 428.34 333.48
  Z"
/>
<path fill="#fcbf39" d="
  M 413.36 337.15
  L 413.95 341.53
  Q 394.62 347.75 375.51 340.94
  L 375.55 337.83
  Q 391.89 341.52 407.56 337.80
  Q 408.86 337.49 410.46 337.43
  Q 411.91 337.37 413.36 337.15
  Z"
/>
<path fill="#4678ba" d="
  M 336.73 359.40
  Q 336.64 359.96 334.95 359.03
  Q 333.96 355.49 330.33 355.31
  Q 329.33 353.45 327.81 352.87
  Q 329.22 351.13 327.53 349.55
  Q 335.30 346.46 342.99 343.36
  Q 343.14 343.30 343.17 343.16
  Q 343.21 342.90 342.95 342.88
  L 340.98 342.71
  Q 342.37 342.17 344.76 342.16
  Q 347.84 342.16 349.81 340.22
  Q 351.02 340.37 351.77 338.41
  Q 351.98 337.86 352.56 337.95
  C 356.53 338.53 362.70 339.81 361.18 345.42
  Q 359.62 351.15 355.10 353.11
  Q 349.36 355.60 339.54 358.65
  C 338.33 359.03 337.79 358.75 336.62 358.62
  A 0.31 0.30 74.2 0 0 336.35 359.11
  Q 336.47 359.27 336.73 359.40
  Z"
/>
<path fill="#ffd640" d="
  M 375.51 340.94
  Q 394.62 347.75 413.95 341.53
  L 414.80 347.86
  Q 394.66 353.84 374.90 347.34
  L 375.51 340.94
  Z"
/>
<path fill="#444c54" d="
  M 260.59 342.35
  Q 260.79 342.53 261.10 342.71
  Q 261.34 342.85 261.64 342.86
  Q 274.62 343.06 288.45 342.66
  Q 289.88 342.61 290.88 343.72
  Q 291.08 343.95 291.18 344.25
  Q 291.54 345.38 290.35 345.42
  Q 275.80 345.84 263.33 345.83
  C 261.00 345.83 259.32 346.04 258.41 344.00
  Q 258.06 343.24 258.97 342.49
  Q 259.55 342.08 260.59 342.35
  Z"
/>
<path fill="#1a4866" d="
  M 340.98 342.71
  L 342.95 342.88
  Q 343.21 342.90 343.17 343.16
  Q 343.14 343.30 342.99 343.36
  Q 335.30 346.46 327.53 349.55
  L 320.56 343.11
  L 340.98 342.71
  Z"
/>
<path fill="#2a3036" d="
  M 423.94 348.64
  Q 427.67 352.83 433.82 354.52
  A 1.36 1.34 84.5 0 1 434.70 355.26
  L 434.93 355.74
  Q 435.25 356.42 434.50 356.34
  Q 429.26 355.73 424.01 355.23
  Q 423.46 355.18 422.96 354.98
  Q 422.52 354.80 422.04 354.86
  Q 420.03 355.12 417.94 354.66
  Q 417.44 354.54 417.39 354.04
  L 417.05 350.56
  Q 420.56 348.80 423.94 348.64
  Z"
/>
<path fill="#2a3036" d="
  M 367.61 349.45
  L 374.71 349.62
  Q 374.95 351.08 374.65 352.27
  Q 374.52 352.78 374.07 353.06
  C 372.33 354.14 370.57 355.46 368.40 355.08
  Q 366.73 354.79 364.97 354.71
  Q 360.73 354.51 364.30 352.23
  Q 365.62 351.38 367.61 349.45
  Z"
/>
<path fill="#2a3036" d="
  M 230.67 354.35
  Q 234.25 357.48 239.84 358.78
  Q 240.33 358.89 240.64 359.27
  Q 240.78 359.45 240.80 359.68
  Q 240.84 360.21 240.31 360.22
  Q 235.42 360.36 230.88 360.12
  Q 230.54 360.10 230.20 360.01
  Q 229.73 359.88 229.26 360.00
  Q 227.53 360.40 225.56 360.25
  Q 225.01 360.21 224.92 359.66
  L 224.44 356.87
  Q 227.96 353.70 230.67 354.35
  Z"
/>
<path fill="#2a3036" d="
  M 202.09 354.79
  Q 202.37 356.01 202.21 357.44
  Q 202.15 357.95 201.73 358.24
  Q 197.59 361.09 192.54 359.79
  Q 192.33 359.73 191.98 359.75
  Q 190.99 359.82 191.61 358.49
  A 0.72 0.69 -8.3 0 1 191.82 358.22
  L 195.65 355.04
  Q 199.32 355.65 202.09 354.79
  Z"
/>
<path fill="#1a4866" d="
  M 330.33 355.31
  Q 333.96 355.49 334.95 359.03
  Q 333.66 358.41 333.28 358.72
  L 332.84 358.66
  Q 332.50 358.61 332.27 358.87
  Q 332.16 359.00 332.12 359.13
  Q 331.98 359.60 332.43 359.78
  Q 333.91 360.39 334.28 359.54
  L 334.79 359.63
  Q 335.18 359.69 335.08 359.31
  Q 335.05 359.18 334.95 359.03
  Q 336.64 359.96 336.73 359.40
  Q 341.45 358.94 346.01 360.50
  Q 349.34 361.65 346.00 362.77
  Q 342.84 363.84 339.77 365.12
  C 335.82 366.75 332.52 366.16 328.51 364.79
  Q 325.89 363.88 324.75 362.45
  Q 324.12 359.99 324.96 358.18
  Q 325.83 358.60 326.69 358.78
  Q 327.30 358.91 327.78 358.65
  Q 328.27 358.38 328.14 357.82
  Q 328.03 357.32 328.35 356.92
  Q 329.17 355.89 330.33 355.31
  Z"
/>
<path fill="#4678ba" d="
  M 310.58 355.67
  L 315.86 360.36
  A 2.18 2.17 -42.6 0 0 318.60 360.47
  L 323.58 356.76
  Q 324.05 357.59 324.96 358.18
  Q 324.12 359.99 324.75 362.45
  L 315.10 364.71
  Q 314.58 364.83 314.23 364.43
  L 313.49 363.59
  L 312.91 362.57
  L 310.19 358.41
  Q 310.01 357.46 310.58 355.67
  Z"
/>
<path fill="#4678ba" d="
  M 333.28 358.72
  Q 333.90 359.03 334.28 359.54
  Q 333.91 360.39 332.43 359.78
  Q 331.98 359.60 332.12 359.13
  Q 332.16 359.00 332.27 358.87
  Q 332.50 358.61 332.84 358.66
  L 333.28 358.72
  Z"
/>
<path fill="#4678ba" d="
  M 300.91 360.26
  L 304.24 360.16
  L 304.88 362.90
  A 0.76 0.75 -11.8 0 1 304.27 363.82
  L 301.76 364.24
  Q 301.20 364.33 300.84 363.90
  Q 299.55 362.35 300.91 360.26
  Z"
/>
<path fill="#2a3036" d="
  M 110.81 372.71
  Q 117.50 376.22 118.67 370.24
  Q 120.17 369.81 121.13 370.31
  A 0.73 0.73 0.0 0 1 121.27 371.51
  L 116.38 375.69
  A 1.48 1.46 28.3 0 1 115.22 376.03
  L 112.06 375.59
  Q 111.49 375.51 111.22 375.00
  Q 110.62 373.86 110.81 372.71
  Z"
/>
<path fill="#2a3036" d="
  M 144.46 372.47
  Q 148.66 374.65 152.70 375.67
  Q 153.24 375.81 153.56 376.22
  Q 153.73 376.44 153.71 376.71
  Q 153.68 377.30 153.09 377.30
  L 138.95 377.23
  Q 138.45 377.23 138.26 376.77
  Q 137.77 375.61 137.69 374.12
  L 144.46 372.47
  Z"
/>
</svg>
