<?xml version="1.0" encoding="UTF-8" standalone="no"?>
<svg
   width="500"
   height="500"
   viewBox="0 0 500 500"
   fill="none"
   version="1.1"
   id="svg6"
   sodipodi:docname="custom.svg"
   inkscape:export-filename="green.png"
   inkscape:export-xdpi="96"
   inkscape:export-ydpi="96"
   inkscape:version="1.2.2 (732a01da63, 2022-12-09)"
   xmlns:inkscape="http://www.inkscape.org/namespaces/inkscape"
   xmlns:sodipodi="http://sodipodi.sourceforge.net/DTD/sodipodi-0.dtd"
   xmlns="http://www.w3.org/2000/svg"
   xmlns:svg="http://www.w3.org/2000/svg">
  <defs
     id="defs10">
    <inkscape:path-effect
       effect="powerstroke"
       id="path-effect1026"
       is_visible="true"
       lpeversion="1"
       offset_points="6,0"
       not_jump="false"
       sort_points="true"
       interpolator_type="CubicBezierJohan"
       interpolator_beta="0.2"
       start_linecap_type="zerowidth"
       linejoin_type="extrp_arc"
       miter_limit="4"
       scale_width="1"
       end_linecap_type="zerowidth" />
    <inkscape:path-effect
       effect="powerstroke"
       id="path-effect353"
       is_visible="true"
       lpeversion="1"
       offset_points="5,0"
       not_jump="false"
       sort_points="true"
       interpolator_type="CubicBezierJohan"
       interpolator_beta="0.2"
       start_linecap_type="zerowidth"
       linejoin_type="extrp_arc"
       miter_limit="4"
       scale_width="1"
       end_linecap_type="zerowidth" />
    <inkscape:path-effect
       effect="powerstroke"
       id="path-effect354"
       is_visible="true"
       lpeversion="1"
       offset_points="3,0"
       not_jump="false"
       sort_points="true"
       interpolator_type="CubicBezierJohan"
       interpolator_beta="0.2"
       start_linecap_type="zerowidth"
       linejoin_type="extrp_arc"
       miter_limit="4"
       scale_width="1"
       end_linecap_type="zerowidth" />
    <inkscape:path-effect
       effect="powerstroke"
       id="path-effect1852"
       is_visible="true"
       lpeversion="1"
       offset_points="4,0"
       not_jump="false"
       sort_points="true"
       interpolator_type="CubicBezierJohan"
       interpolator_beta="0.2"
       start_linecap_type="zerowidth"
       linejoin_type="extrp_arc"
       miter_limit="4"
       scale_width="1"
       end_linecap_type="zerowidth" />
    <inkscape:path-effect
       effect="powerstroke"
       id="path-effect456"
       is_visible="true"
       lpeversion="1"
       offset_points="4,0"
       not_jump="false"
       sort_points="true"
       interpolator_type="CubicBezierJohan"
       interpolator_beta="0.2"
       start_linecap_type="zerowidth"
       linejoin_type="extrp_arc"
       miter_limit="4"
       scale_width="1"
       end_linecap_type="zerowidth" />
    <inkscape:path-effect
       effect="powerstroke"
       id="path-effect448"
       is_visible="true"
       lpeversion="1"
       offset_points="4,0"
       not_jump="false"
       sort_points="true"
       interpolator_type="CubicBezierJohan"
       interpolator_beta="0.2"
       start_linecap_type="zerowidth"
       linejoin_type="extrp_arc"
       miter_limit="4"
       scale_width="1"
       end_linecap_type="zerowidth" />
    <inkscape:path-effect
       effect="fill_between_many"
       method="bsplinespiro"
       linkedpaths="#path446,0,1"
       id="path-effect450"
       is_visible="true"
       lpeversion="0"
       join="true"
       close="true"
       autoreverse="true" />
    <inkscape:path-effect
       effect="fill_between_many"
       method="bsplinespiro"
       linkedpaths="#path454,0,1"
       id="path-effect458"
       is_visible="true"
       lpeversion="0"
       join="true"
       close="true"
       autoreverse="true" />
    <inkscape:path-effect
       effect="fill_between_many"
       method="bsplinespiro"
       linkedpaths="#path1850,0,1"
       id="path-effect1854"
       is_visible="true"
       lpeversion="0"
       join="true"
       close="true"
       autoreverse="true" />
    <inkscape:path-effect
       effect="fill_between_many"
       method="bsplinespiro"
       linkedpaths="#path352,0,1"
       id="path-effect356" />
    <inkscape:path-effect
       effect="fill_between_many"
       method="bsplinespiro"
       linkedpaths="#path351,0,1"
       id="path-effect355" />
    <inkscape:path-effect
       effect="fill_between_many"
       method="bsplinespiro"
       linkedpaths="#path1024,0,1"
       id="path-effect1028" />
  </defs>
  <sodipodi:namedview
     id="namedview8"
     pagecolor="#ffffff"
     bordercolor="#000000"
     borderopacity="0.25"
     inkscape:showpageshadow="2"
     inkscape:pageopacity="0.0"
     inkscape:pagecheckerboard="0"
     inkscape:deskcolor="#d1d1d1"
     showgrid="false"
     inkscape:zoom="0.71599999"
     inkscape:cx="211.59218"
     inkscape:cy="645.2514"
     inkscape:window-width="1280"
     inkscape:window-height="961"
     inkscape:window-x="-8"
     inkscape:window-y="-8"
     inkscape:window-maximized="1"
     inkscape:current-layer="svg6" />
  <path
     style="fill:#d76cff;fill-opacity:0.383803;fill-rule:nonzero;stroke:none;stroke-width:12.0945;paint-order:stroke markers fill;stop-color:#000000"
     d="M -219.11864,-88.949153 C 16.369332,-96.369993 386.10677,-108.02138 813.55932,-121.49153 691.66411,34.94066 557.35748,207.30084 423.05085,379.66102 194.72958,372.94569 -33.5917,366.23036 -240.81356,360.1356 c 8.9801,-185.88798 16.74769,-346.677166 21.69492,-449.084753 z m 0,0 c -4.94723,102.407587 -12.71482,263.196773 -21.69492,449.084753 207.22186,6.09476 435.54314,12.81009 663.86441,19.52542 C 557.35748,207.30084 691.66411,34.94066 813.55932,-121.49153 386.10677,-108.02138 16.369332,-96.369993 -219.11864,-88.949153 Z"
     id="path1850"
     inkscape:path-effect="#path-effect1852"
     inkscape:original-d="M -219.11864,-88.949153 813.55932,-121.49153 423.05085,379.66102 -240.81356,360.1356 Z"
     inkscape:linked-fill="path1856" />
  <path
     style="fill:#0084c8;fill-opacity:0.566102;fill-rule:nonzero;stroke:none;stroke-width:12.0945;paint-order:stroke markers fill;stop-color:#000000"
     d="M -49.378965,531.31767 C 73.662258,412.53393 285.10917,208.40352 521.44187,-19.751586 525.92721,161.58445 530.78264,357.88227 535.26798,539.2183 293.21096,535.94726 76.642495,533.02066 -49.378965,531.31767 Z m 0,0 c 126.02146,1.70299 342.589925,4.62959 584.646945,7.90063 C 530.78264,357.88227 525.92721,161.58445 521.44187,-19.751586 285.10917,208.40352 73.662258,412.53393 -49.378965,531.31767 Z"
     id="path352"
     inkscape:path-effect="#path-effect354"
     inkscape:original-d="M -49.378965,531.31767 521.44187,-19.751586 535.26798,539.2183 Z"
     inkscape:linked-fill="path358"
     transform="rotate(-1.7844292,210.74336,290.94694)" />
  <path
     inkscape:original-d="M 0,0"
     inkscape:path-effect="#path-effect355"
     d="M 251.39665,500.00001 497.20671,272.34637 V 0 L 1.3966481,2.7932961 V 287.7095 Z"
     id="path357"
     style="fill:#0084c8;fill-opacity:1"
     class="UnoptimicedTransforms"
     transform="matrix(0.96619718,0,0,1,9.8237471,0)" />
  <path
     style="fill:#0084c8;fill-rule:nonzero;stroke:none;stroke-width:12.0945;paint-order:stroke markers fill;stop-color:#000000"
     d="m 251.39665,500.00001 c 58.5057,-54.18425 144.86148,-134.16149 245.81006,-227.65364 0,-83.76956 0,-176.608718 0,-272.346291393231 C 333.48867,0.92235513 165.11468,1.870941 1.396505,2.7932969 1.3966481,102.94961 1.3966481,200.07366 1.3966481,287.7095 104.06594,374.89236 191.8937,449.47236 251.39665,500.00001 Z m 0,0 C 191.8937,449.47236 104.06594,374.89236 1.3966481,287.7095 c 0,-87.63584 0,-184.75989 0,-284.9161217 C 165.11468,1.870941 333.48867,0.92235513 497.20685,-8.0622327e-7 497.20671,95.737652 497.20671,188.57681 497.20671,272.34637 396.25813,365.83852 309.90235,445.81576 251.39665,500.00001 Z"
     id="path351"
     inkscape:path-effect="#path-effect353"
     inkscape:original-d="M 251.39665,500.00001 497.20671,272.34637 V 0 L 1.3966481,2.7932961 V 287.7095 Z"
     inkscape:linked-fill="path357"
     class="UnoptimicedTransforms"
     transform="matrix(0.96619718,0,0,1,9.8237471,0)" />
  <rect
     style="fill:#005100;fill-opacity:1;fill-rule:evenodd;stroke:none;stroke-width:12.9634;paint-order:stroke markers fill;stop-color:#000000"
     id="rect411"
     width="450.50885"
     height="56.896248"
     x="-336.70102"
     y="492.4093"
     rx="0.31891564"
     transform="matrix(-0.73161166,-0.68172163,-0.67808132,0.73498689,0,0)" />
  <path
     inkscape:original-d="M 0,0"
     inkscape:path-effect="#path-effect1028"
     d="M 252.8203,501.69029 489.83934,273.10077 490.59757,255.32435 253.80788,484.90144 11.850952,272.57189 9.8757931,286.398 Z"
     id="path1030"
     style="fill:#005100"
     class="UnoptimicedTransforms" />
  <path
     style="fill:#0084c8;fill-opacity:1;fill-rule:nonzero;stroke:none;stroke-width:12.0945;paint-order:stroke markers fill;stop-color:#000000"
     d="m 252.8203,501.69029 c 58.34363,-56.26866 140.62331,-135.62208 237.01904,-228.58952 0.23169,-5.43195 0.48888,-11.46154 0.75823,-17.77641 C 413.78037,329.80171 333.79412,407.35157 253.80788,484.90144 172.07617,413.1777 90.344464,341.45395 11.850952,272.57189 11.149299,277.48346 10.479343,282.17315 9.8757931,286.398 108.68141,373.95745 193.01808,448.69483 252.8203,501.69029 Z m 0,0 C 193.01808,448.69483 108.68141,373.95745 9.8757931,286.398 10.479343,282.17315 11.149299,277.48346 11.850951,272.57189 90.344464,341.45395 172.07617,413.1777 253.80788,484.90144 333.79412,407.35157 413.78037,329.80171 490.59757,255.32435 c -0.26935,6.31488 -0.52654,12.34447 -0.75823,17.77642 -96.39573,92.96744 -178.67541,172.32086 -237.01904,228.58952 z"
     id="path1024"
     inkscape:path-effect="#path-effect1026"
     inkscape:original-d="M 252.8203,501.69029 489.83934,273.10077 490.59757,255.32435 253.80788,484.90144 11.850952,272.57189 9.8757931,286.398 Z"
     inkscape:linked-fill="path1030"
     class="UnoptimicedTransforms"
     sodipodi:nodetypes="ccccccc" />
</svg>
