<?xml version="1.0" encoding="UTF-8" standalone="no"?>
<svg
   version="1.1"
   viewBox="0 0 1555 1502"
   id="svg318"
   sodipodi:docname="favicon.svg"
   inkscape:export-filename="2.png"
   inkscape:export-xdpi="96"
   inkscape:export-ydpi="96"
   inkscape:version="1.2.2 (732a01da63, 2022-12-09)"
   width="1555"
   height="1502"
   xmlns:inkscape="http://www.inkscape.org/namespaces/inkscape"
   xmlns:sodipodi="http://sodipodi.sourceforge.net/DTD/sodipodi-0.dtd"
   xmlns="http://www.w3.org/2000/svg"
   xmlns:svg="http://www.w3.org/2000/svg">
  <defs
     id="defs322" />
  <sodipodi:namedview
     id="namedview320"
     pagecolor="#ffffff"
     bordercolor="#000000"
     borderopacity="0.25"
     inkscape:showpageshadow="2"
     inkscape:pageopacity="0.0"
     inkscape:pagecheckerboard="0"
     inkscape:deskcolor="#d1d1d1"
     showgrid="false"
     inkscape:zoom="0.23505976"
     inkscape:cx="1214.5848"
     inkscape:cy="765.76272"
     inkscape:window-width="1280"
     inkscape:window-height="961"
     inkscape:window-x="-8"
     inkscape:window-y="-8"
     inkscape:window-maximized="1"
     inkscape:current-layer="svg318" />
  <g
     stroke-width="2"
     fill="none"
     stroke-linecap="butt"
     id="g158"
     style="stroke:none"
     transform="matrix(6.3217819,0,0,6.3217819,-902.95041,-803.42033)">
    <path
       stroke="#3a6382"
       vector-effect="non-scaling-stroke"
       d="M 437.47,242.1 A 173.47,173.47 0 0 0 264,68.63 173.47,173.47 0 0 0 90.53,242.1 173.47,173.47 0 0 0 264,415.57 173.47,173.47 0 0 0 437.47,242.1"
       id="path2"
       style="stroke:none" />
    <path
       stroke="#3a6382"
       vector-effect="non-scaling-stroke"
       d="M 434.04,242.1 A 170.04,170.04 0 0 0 264,72.06 170.04,170.04 0 0 0 93.96,242.1 170.04,170.04 0 0 0 264,412.14 170.04,170.04 0 0 0 434.04,242.1"
       id="path4"
       style="stroke:none" />
    <path
       stroke="#3a6382"
       vector-effect="non-scaling-stroke"
       d="m 285.42,104.67 q 6.93,-0.55 7.88,-7.95 c 0.85,-6.65 -4.15,-9.58 -9.74,-10.75 q -4.8,-1 -15.16,-1.86 -0.48,-0.04 -0.53,0.43 l -4.41,38.77 q -0.08,0.71 0.64,0.78 6.1,0.58 12.94,1.4 5.74,0.69 9.06,-0.74 5.3,-2.29 6.36,-8.38 c 1.03,-5.87 -1.84,-9.17 -7.12,-11.21 q -1.04,-0.4 0.08,-0.49"
       id="path6"
       style="stroke:none" />
    <path
       stroke="#3a6382"
       vector-effect="non-scaling-stroke"
       d="m 222.74,89.92 a 0.32,0.32 0 0 0 -0.2,0.25 l -3.33,21.24 a 0.32,0.32 0 0 1 -0.53,0.19 L 202.95,96.87 a 0.32,0.32 0 0 0 -0.32,-0.07 l -4.51,1.52 a 0.32,0.32 0 0 0 -0.11,0.54 l 20.28,18.61 a 0.32,0.32 0 0 1 0.09,0.14 l 4.88,14.32 a 0.32,0.32 0 0 0 0.41,0.2 l 4.19,-1.5 a 0.32,0.32 0 0 0 0.2,-0.41 l -4.94,-14.39 a 0.32,0.32 0 0 1 -0.02,-0.16 l 4.54,-27.13 a 0.32,0.32 0 0 0 -0.43,-0.36 l -4.47,1.74"
       id="path8"
       style="stroke:none" />
    <path
       stroke="#3a6382"
       vector-effect="non-scaling-stroke"
       d="m 323.41,119.96 c 5.92,0.47 9.89,-2.64 11.59,-8.45 1.66,-5.68 -1.53,-10.41 -6.31,-12.93 q -4.74,-2.5 -12.72,-5.83 -0.48,-0.2 -0.69,0.27 l -16.12,35.94 a 0.32,0.32 0 0 0 0.16,0.42 l 4.07,1.75 q 0.26,0.12 0.38,-0.14 l 6.55,-14.67 a 0.34,0.33 -65.3 0 1 0.44,-0.17 l 6.29,2.78 a 1.35,1.35 0 0 1 0.79,1.09 l 1.95,18.24 q 0.04,0.28 0.3,0.4 l 4.88,2.18 a 0.14,0.14 0 0 0 0.2,-0.15 l -2.52,-19.93 q -0.11,-0.87 0.76,-0.8"
       id="path10"
       style="stroke:none" />
    <path
       stroke="#3a6382"
       vector-effect="non-scaling-stroke"
       d="m 190.8,127.79 c 2.24,-3.37 3.1,-7.61 1,-11.24 q -5.46,-9.44 -14.7,-5.21 -5.42,2.48 -13.31,8.41 -0.47,0.35 -0.14,0.83 l 22.14,32.45 q 0.15,0.21 0.37,0.07 l 3.73,-2.42 a 0.3,0.3 0 0 0 0.08,-0.42 l -8.91,-13.06 a 0.55,0.54 -34.3 0 1 0.15,-0.76 l 5.53,-3.78 q 0.62,-0.42 1.3,-0.1 l 16.43,7.82 a 0.5,0.47 38.9 0 0 0.5,-0.04 l 4.48,-3.18 a 0.14,0.14 0 0 0 -0.03,-0.25 l -18.31,-8.09 q -0.76,-0.34 -0.31,-1.03"
       id="path12"
       style="stroke:none" />
    <path
       stroke="#3a6382"
       vector-effect="non-scaling-stroke"
       d="m 371.4979,150.2347 a 17.05,17.05 0 0 0 -0.8836,-24.0962 l -1.9046,-1.7699 a 17.05,17.05 0 0 0 -24.0961,0.8836 l -4.7515,5.1131 a 17.05,17.05 0 0 0 0.8836,24.0962 l 1.9046,1.7699 a 17.05,17.05 0 0 0 24.0961,-0.8836 l 4.7515,-5.1131"
       id="path14"
       style="stroke:none" />
    <path
       stroke="#3a6382"
       vector-effect="non-scaling-stroke"
       d="m 263.85,169.79 a 0.31,0.31 0 0 0 0.3,0 l 28.37,-16.32 a 0.31,0.31 0 0 0 0,-0.54 l -28.37,-16.56 a 0.31,0.31 0 0 0 -0.32,0 l -28.35,16.56 a 0.31,0.31 0 0 0 0,0.54 l 28.37,16.32"
       id="path16"
       style="stroke:none" />
    <path
       stroke="#3a6382"
       vector-effect="non-scaling-stroke"
       d="m 156.66,169.69 a 0.38,0.38 0 0 1 0.03,-0.43 l 9.42,-12.06 a 0.38,0.38 0 0 1 0.41,-0.13 l 12.32,3.6 a 0.38,0.38 0 0 0 0.41,-0.14 l 2.7,-3.59 a 0.38,0.38 0 0 0 -0.2,-0.59 l -40.74,-12.02 a 0.38,0.38 0 0 0 -0.41,0.14 l -2.5,3.31 a 0.38,0.38 0 0 0 -0.03,0.43 l 22.01,36.34 a 0.38,0.38 0 0 0 0.63,0.03 l 2.6,-3.38 a 0.38,0.38 0 0 0 0.03,-0.43 l -6.68,-11.08"
       id="path18"
       style="stroke:none" />
    <path
       stroke="#3a6382"
       vector-effect="non-scaling-stroke"
       d="m 229.67,149.09 c -9.65,3.5 -18.95,8.91 -26.92,15.01 q -1.36,1.04 0.19,0.31 c 3.2,-1.51 8.03,-0.17 11.4,0.53 a 1.48,1.44 -55.6 0 0 1.1,-0.22 q 6.58,-4.41 13.83,-7.26 0.66,-0.26 0.36,-0.9 -1.88,-4.02 0.36,-7.04 0.56,-0.75 -0.32,-0.43"
       id="path20"
       style="stroke:none" />
    <path
       stroke="#3a6382"
       vector-effect="non-scaling-stroke"
       d="m 316.06,166.25 q 4.34,-3.88 9.2,-1.82 a 0.0917878,0.0917878 0 0 0 0.09,-0.16 q -12.27,-9.57 -27.02,-15.19 -0.75,-0.29 -0.35,0.41 l 5.66,9.72 q 0.36,0.61 1,0.91 5.37,2.48 10.36,6.18 a 0.84,0.84 0 0 0 1.06,-0.05"
       id="path22"
       style="stroke:none" />
    <path
       stroke="#3a6382"
       vector-effect="non-scaling-stroke"
       d="m 381.66,177.44 c 0.89,7.16 -6.85,11.16 -11.56,5.1 q -4.27,-5.47 -5.27,-12.72 -0.07,-0.53 -0.54,-0.28 l -3.29,1.72 q -0.44,0.23 -0.37,0.72 0.71,4.92 4.18,10.59 c 4.32,7.06 12.13,11.32 18.92,4.44 q 3.47,-3.52 2.71,-9.13 -0.58,-4.32 -1.05,-8.7 -0.67,-6.11 4.9,-7.97 c 1.47,-0.49 3.14,-0.04 4.3,0.93 3.65,3.02 5.14,7.91 5.77,12.61 a 0.22,0.22 0 0 0 0.26,0.19 l 4.1,-0.63 a 0.26,0.25 81.1 0 0 0.21,-0.3 c -1.08,-7.28 -5.41,-16.83 -13.28,-17.89 q -2.61,-0.35 -5.32,1.2 c -8.3,4.76 -5.61,12.48 -4.67,20.12"
       id="path24"
       style="stroke:none" />
    <path
       stroke="#3a6382"
       vector-effect="non-scaling-stroke"
       d="m 264.22,170.13 q -0.23,-0.13 -0.46,0 l -27.65,15.75 a 2.25,2.23 44.8 0 1 -2.23,0 L 206.5,170.29 q -0.49,-0.28 -0.98,0 l -28.43,16.15 q -0.37,0.21 0.04,0.33 0.64,0.18 1.21,0.51 14.23,8.3 27.34,16.03 a 0.59,0.59 0 0 0 0.62,0 l 27.43,-16.09 q 1.27,-0.74 2.54,0 l 26.64,15.63 a 2.15,2.15 0 0 0 2.18,0 l 26.67,-15.64 a 2.29,2.29 0 0 1 2.32,0 l 27.39,15.99 q 0.47,0.27 0.93,0 l 28.31,-16.41 q 0.41,-0.24 0,-0.47 l -28.27,-16.14 a 1.07,1.05 -44.5 0 0 -1.05,0 l -27.11,15.62 a 2.55,2.54 44.7 0 1 -2.53,0.01 l -27.53,-15.68"
       id="path26"
       style="stroke:none" />
    <path
       stroke="#3a6382"
       vector-effect="non-scaling-stroke"
       d="m 119.05,204.84 q -2.03,-0.39 -0.02,-0.89 l 36.76,-9.05 a 1.05,1.04 -87.9 0 0 0.74,-0.69 l 1.56,-4.68 q 0.18,-0.53 -0.35,-0.71 l -37.27,-12.74 q -0.24,-0.08 -0.32,0.15 l -1.39,4.05 q -0.09,0.28 0.19,0.37 l 30.29,10.36 q 0.66,0.22 -0.01,0.39 l -36.92,9.25 q -0.5,0.12 -0.67,0.61 l -1.5,4.41 q -0.19,0.58 0.39,0.78 l 37.21,12.72 q 0.23,0.08 0.3,-0.15 l 1.4,-4.02 q 0.09,-0.24 -0.15,-0.32 -11.89,-4.05 -23.57,-8 -3.76,-1.27 -6.67,-1.84"
       id="path28"
       style="stroke:none" />
    <path
       stroke="#3a6382"
       vector-effect="non-scaling-stroke"
       d="m 230.51,261.78 a 0.31,0.31 0 0 1 0.46,-0.27 l 27.83,16.01 q 0.55,0.31 0.55,-0.32 l 0.01,-32.23 q 0,-0.49 -0.42,-0.73 l -28.09,-16.17 q -0.44,-0.26 -0.44,0.26 l 0.01,32.2 q 0,0.67 -0.58,0.33 l -27.28,-15.77 a 2.19,2.19 0 0 1 -1.1,-1.9 l 0.01,-31.68 q 0,-0.59 -0.52,-0.89 l -28.2,-16.13 q -0.5,-0.28 -0.5,0.29 v 32.28 a 1.29,1.29 0 0 0 0.65,1.12 L 200.59,244 a 1.81,1.79 15 0 1 0.91,1.56 V 277 a 1.31,1.31 0 0 0 0.65,1.13 l 27.63,16.14 a 1.48,1.46 15.6 0 1 0.72,1.26 v 32.21 q 0,0.53 0.46,0.79 l 27.82,15.96 q 0.47,0.26 0.47,-0.27 v -32.19 q 0,-0.56 -0.48,-0.83 l -27.32,-15.85 a 1.92,1.91 15.4 0 1 -0.95,-1.67 l 0.01,-31.9"
       id="path30"
       style="stroke:none" />
    <path
       stroke="#3a6382"
       vector-effect="non-scaling-stroke"
       d="m 326.49,244.28 a 0.34,0.34 0 0 1 -0.17,0.3 l -28.64,16.56 a 0.34,0.34 0 0 0 -0.17,0.3 l -0.03,33.09 a 0.34,0.34 0 0 1 -0.17,0.3 l -28.38,16.55 a 0.34,0.34 0 0 0 -0.17,0.3 l -0.04,32.52 a 0.34,0.34 0 0 0 0.51,0.3 l 28.1,-16.14 a 0.34,0.34 0 0 0 0.17,-0.3 l 0.01,-33.11 a 0.34,0.34 0 0 1 0.17,-0.29 l 28.64,-16.79 a 0.34,0.34 0 0 0 0.17,-0.29 l 0.02,-32.87 a 0.34,0.34 0 0 1 0.17,-0.3 l 28.89,-16.54 a 0.34,0.34 0 0 0 0.17,-0.3 l 0.03,-32.78 a 0.34,0.34 0 0 0 -0.51,-0.3 l -28.58,16.41 a 0.34,0.34 0 0 0 -0.17,0.3 l -0.02,33.08"
       id="path32"
       style="stroke:none" />
    <path
       stroke="#3a6382"
       vector-effect="non-scaling-stroke"
       d="m 292.51,220.53 a 0.32,0.32 0 0 0 0.01,-0.56 l -28.37,-16.35 a 0.32,0.32 0 0 0 -0.32,0 l -28.36,16.35 a 0.32,0.32 0 0 0 0.01,0.56 l 28.36,16.11 a 0.32,0.32 0 0 0 0.32,0 l 28.35,-16.11"
       id="path34"
       style="stroke:none" />
    <path
       stroke="#3a6382"
       vector-effect="non-scaling-stroke"
       d="m 401.43,221.69 18.59,-1.42 a 0.27,0.26 85.7 0 0 0.24,-0.29 l -0.34,-4.4 q -0.02,-0.33 -0.36,-0.31 l -39.53,2.97 q -0.21,0.01 -0.2,0.23 l 0.37,4.79 q 0.01,0.23 0.25,0.22 6.95,-0.54 14.41,-1.17 1.02,-0.08 1.74,0.67 1.29,1.37 2.6,2.56 a 0.58,0.57 45.6 0 1 0,0.86 l -17.37,15.17 a 0.48,0.46 -23.1 0 0 -0.17,0.4 q 0.25,3.58 0.53,5.52 a 0.09,0.09 0 0 0 0.15,0.06 l 20.69,-17.7 q 0.41,-0.35 0.83,-0.02 l 17.7,13.75 a 0.32,0.32 0 0 0 0.51,-0.28 l -0.35,-4.6 q -0.05,-0.7 -0.61,-1.12 L 401.22,222.4 q -0.82,-0.64 0.21,-0.71"
       id="path36"
       style="stroke:none" />
    <path
       stroke="#3a6382"
       vector-effect="non-scaling-stroke"
       d="m 142.3,237.71 0.57,3.44 q 0.13,0.8 0.92,0.65 0.7,-0.14 1.41,-0.03 0.66,0.12 0.71,-0.56 l 0.85,-13.17 q 0.03,-0.49 -0.46,-0.55 l -1.95,-0.24 q -0.48,-0.06 -0.61,0.4 l -1.04,3.58 q -0.15,0.52 -0.69,0.49 l -31.08,-1.94 q -0.57,-0.03 -0.66,-0.6 l -0.57,-3.7 q -0.06,-0.42 -0.48,-0.48 l -1.96,-0.26 a 0.54,0.54 0 0 0 -0.61,0.5 l -0.87,13.63 q -0.02,0.35 0.34,0.39 l 2.2,0.21 q 0.33,0.03 0.43,-0.29 l 1.15,-3.78 q 0.2,-0.65 0.88,-0.6 l 30.69,2.15 q 0.72,0.05 0.83,0.76"
       id="path38"
       style="stroke:none" />
    <path
       stroke="#3a6382"
       vector-effect="non-scaling-stroke"
       d="m 269.41,244.1 q -0.65,0.38 -0.65,1.13 l -0.01,31.98 q 0,0.55 0.47,0.28 l 27.45,-15.75 a 1.66,1.65 -15.2 0 0 0.83,-1.43 v -32.03 q 0,-0.55 -0.47,-0.27 l -27.62,16.09"
       id="path40"
       style="stroke:none" />
    <path
       stroke="#3a6382"
       vector-effect="non-scaling-stroke"
       d="m 362.08,228.74 c -0.54,1.34 -0.94,2.8 -2.16,3.7 q -2.07,1.5 -4.29,2.61 a 0.8,0.79 74.5 0 0 -0.44,0.79 q 0.32,3.88 0.13,8.12 -0.08,1.93 0.73,3.64 2.61,5.54 4.96,10.3 0.52,1.05 0.71,-0.11 2.3,-13.94 0.37,-29.15 0,-0.01 0.02,-0.02 0.11,-0.01 0,0 -0.14,0.01 0.01,0.02 0,0 -0.04,0.1"
       id="path42"
       style="stroke:none" />
    <path
       stroke="#3a6382"
       vector-effect="non-scaling-stroke"
       d="m 172.25,234.93 c -2.74,-1.32 -5.24,-2.51 -6.07,-5.69 q -0.25,-0.93 -0.37,0.03 -1.77,13.92 0.37,28.1 0.32,2.19 1.07,0.11 2.21,-6.22 4.47,-12.59 c 1.09,-3.07 0.92,-6.01 1.06,-9.08 q 0.03,-0.62 -0.53,-0.88"
       id="path44"
       style="stroke:none" />
    <path
       stroke="#3a6382"
       vector-effect="non-scaling-stroke"
       d="m 126.28,260.22 q -3.7,-8.07 -12.29,-4.68 c -5.41,2.13 -5.97,7.83 -5.23,13.01 q 0.94,6.69 2.21,13.55 0.12,0.65 0.77,0.54 l 38.36,-6.54 q 0.56,-0.1 0.48,-0.66 -1.54,-9.99 -3.03,-16.31 c -1.75,-7.47 -8.21,-10.95 -15.43,-8.1 -3.83,1.51 -5.4,5.19 -5.39,9.09 q 0,1.08 -0.45,0.1"
       id="path46"
       style="stroke:none" />
    <path
       stroke="#3a6382"
       vector-effect="non-scaling-stroke"
       d="m 398.78,261.93 a 0.36,0.36 0 0 1 0.28,0.42 l -2.97,15.29 a 0.36,0.36 0 0 0 0.27,0.42 l 3.62,0.85 a 0.36,0.36 0 0 0 0.44,-0.28 l 2.96,-15.53 a 0.36,0.36 0 0 1 0.43,-0.29 l 11.6,2.35 a 0.36,0.36 0 0 1 0.28,0.42 l -3.17,16.33 a 0.36,0.36 0 0 0 0.27,0.42 l 3.68,0.86 a 0.36,0.36 0 0 0 0.43,-0.29 l 4.13,-21.55 a 0.36,0.36 0 0 0 -0.28,-0.42 l -38.77,-7.36 a 0.36,0.36 0 0 0 -0.42,0.28 l -4.12,21.29 a 0.36,0.36 0 0 0 0.29,0.42 l 3.65,0.63 a 0.36,0.36 0 0 0 0.42,-0.29 l 3.19,-16.31 a 0.36,0.36 0 0 1 0.42,-0.28 l 13.37,2.62"
       id="path48"
       style="stroke:none" />
    <path
       stroke="#3a6382"
       vector-effect="non-scaling-stroke"
       d="M 200.58,277.25 172.54,261.4 q -0.3,-0.17 -0.3,0.17 l 0.01,32.88 q 0,0.31 0.27,0.46 l 28.64,16.4 q 0.35,0.2 0.34,-0.2 v -32.29 a 1.81,1.8 14.8 0 0 -0.92,-1.57"
       id="path50"
       style="stroke:none" />
    <path
       stroke="#3a6382"
       vector-effect="non-scaling-stroke"
       d="m 355.28,261.5 -28.04,15.82 a 1.44,1.44 0 0 0 -0.74,1.26 l -0.01,32.5 q 0,0.44 0.39,0.23 l 28.4,-16.28 a 0.94,0.91 -15.3 0 0 0.47,-0.8 v -32.45 q 0,-0.55 -0.47,-0.28"
       id="path52"
       style="stroke:none" />
    <path
       stroke="#3a6382"
       vector-effect="non-scaling-stroke"
       d="m 206.12,315.68 c -1.38,1.37 -3.39,2.27 -5.33,2 q -0.84,-0.11 -0.2,0.44 12.67,10.81 28.21,16.48 0.81,0.3 0.08,-0.17 c -2.42,-1.55 -4.28,-2.34 -4.69,-5.62 q -0.07,-0.58 -0.54,-0.92 l -16.74,-12.27 q -0.42,-0.31 -0.79,0.06"
       id="path54"
       style="stroke:none" />
    <path
       stroke="#3a6382"
       vector-effect="non-scaling-stroke"
       d="m 304.18,324.28 a 0.56,0.56 0 0 0 -0.33,0.51 c -0.07,4.82 0.23,7.24 -4.73,9.61 q -0.3,0.15 0.03,0.22 0.22,0.05 0.34,-0.15 15.2,-5.56 27.91,-16.31 0.64,-0.54 -0.2,-0.55 l -10.96,-0.16 a 1.32,1.28 -61.1 0 0 -0.72,0.22 q -5.39,3.76 -11.34,6.61"
       id="path56"
       style="stroke:none" />
    <path
       stroke="#3a6382"
       vector-effect="non-scaling-stroke"
       d="m 166.15,340.73 q 1.02,2.27 3.36,1.15 a 1.25,1.23 -9.1 0 0 0.7,-0.95 q 0.29,-2 -1.68,-3.44 -0.64,-0.47 -1.18,0.11 l -4.09,4.27 q -0.12,0.13 -0.06,0.3 l 0.13,0.37 q 0.1,0.31 0.33,0.07 1.12,-1.21 2.49,-1.88"
       id="path58"
       style="stroke:none" />
    <path
       stroke="#3a6382"
       vector-effect="non-scaling-stroke"
       d="m 166.15,340.73 q 1.71,0.91 2.73,0.42 0.54,-0.26 0.49,-0.86 -0.07,-0.82 -0.56,-1.42 -0.41,-0.48 -0.96,-0.18 -1.2,0.66 -1.7,2.04"
       id="path60"
       style="stroke:none" />
    <path
       stroke="#3a6382"
       vector-effect="non-scaling-stroke"
       d="m 359.32,340.99 a 0.85,0.85 0 0 1 -0.72,-1.44 l 1.44,-1.5 q 0.79,-0.81 -0.29,-0.46 -1.22,0.39 -1.94,1.77 a 1.74,1.74 0 0 0 1.72,2.55 q 0.78,-0.08 1.51,-0.46 2.76,-1.44 1.81,1.44 -0.25,0.76 -1.24,1.25 -0.35,0.17 -0.33,0.56 0.01,0.06 0.05,0.1 0.19,0.19 0.44,0.1 1.99,-0.7 2.3,-2.69 0.16,-1.11 -0.8,-1.69 c -1.24,-0.74 -2.65,0.3 -3.95,0.47"
       id="path62"
       style="stroke:none" />
    <path
       stroke="#3a6382"
       vector-effect="non-scaling-stroke"
       d="m 171.88,346.76 -0.62,2.88 q -0.06,0.26 0.18,0.37 l 0.24,0.1 q 0.39,0.18 0.47,-0.24 l 0.35,-1.95 q 0.15,-0.87 1.01,-1.05 c 3.41,-0.72 1.76,-3.65 -0.12,-4.69 q -0.63,-0.35 -1.09,0.2 -1.67,1.99 -3.38,3.99 -1.3,1.51 0.56,0.81 0.42,-0.16 0.81,-1.16 a 0.44,0.44 0 0 1 0.46,-0.28 l 0.46,0.06 a 0.8,0.79 10.3 0 1 0.67,0.96"
       id="path64"
       style="stroke:none" />
    <path
       stroke="#3a6382"
       vector-effect="non-scaling-stroke"
       d="m 356.03,346.5 q 0.47,-0.25 0.98,-0.05 1.32,0.53 2.74,0.77 0.37,0.06 0.31,-0.31 l -0.08,-0.48 q -0.05,-0.24 -0.29,-0.23 -2.96,0.14 -2.72,-2.33 0.03,-0.31 -0.15,-0.57 -1.6,-2.18 -4.26,0.49 -0.68,0.69 -0.03,1.41 l 3.93,4.34 q 0.66,0.73 0.5,-0.24 -0.17,-0.97 -1.04,-1.68 a 0.68,0.67 -39.5 0 1 0.11,-1.12"
       id="path66"
       style="stroke:none" />
    <path
       stroke="#3a6382"
       vector-effect="non-scaling-stroke"
       d="m 349.15,350.03 q -0.51,-0.49 -0.66,-1.15 -0.15,-0.64 0.44,-0.91 0.92,-0.41 1.4,-1.26 0.37,-0.68 -0.34,-0.38 -1.54,0.63 -2.55,1.83 -0.39,0.46 -0.02,0.93 l 3.49,4.52 q 0.42,0.54 1,0.18 1.35,-0.83 2.36,-2.11 0.51,-0.65 -0.28,-0.39 -0.98,0.33 -1.67,1.1 -0.58,0.67 -1.25,0.09 -0.43,-0.37 -0.67,-0.87 -0.47,-0.96 0.54,-1.33 0.82,-0.31 0.99,-1.06 0.15,-0.65 -0.46,-0.36 -0.71,0.33 -1.16,1.03 -0.5,0.77 -1.16,0.14"
       id="path68"
       style="stroke:none" />
    <path
       stroke="#3a6382"
       vector-effect="non-scaling-stroke"
       d="m 176.0691,353.7639 a 3.68,3.29 128.9 0 0 4.8713,-0.7979 3.68,3.29 128.9 0 0 -0.2495,-4.9299 3.68,3.29 128.9 0 0 -4.8713,0.7979 3.68,3.29 128.9 0 0 0.2495,4.9299"
       id="path70"
       style="stroke:none" />
    <path
       stroke="#3a6382"
       vector-effect="non-scaling-stroke"
       d="m 345.18,355.23 q 2.25,-1.2 1.15,-3.44 a 1.62,1.59 84.2 0 0 -1,-0.83 q -1.83,-0.5 -3.37,1.44 -0.42,0.53 -0.02,1.07 l 3.5,4.76 q 0.25,0.33 0.53,0.04 l 0.23,-0.24 q 0.02,-0.02 0,-0.05 l -1.23,-1.94 a 0.57,0.57 0 0 1 0.21,-0.81"
       id="path72"
       style="stroke:none" />
    <path
       stroke="#3a6382"
       vector-effect="non-scaling-stroke"
       d="m 184.25,355.97 q 0.58,0.49 1.27,0.86 0.21,0.11 0.41,-0.04 0.04,-0.03 0.05,-0.08 0.08,-0.24 -0.1,-0.42 -0.73,-0.7 -1.55,-1.2 a 0.52,0.51 25.7 0 1 -0.22,-0.61 q 0.36,-1 1.28,-1.4 0.53,-0.23 0.85,0.25 0.54,0.79 1.42,0.85 0.98,0.08 0.21,-0.53 l -2.28,-1.79 q -0.53,-0.42 -0.9,0.15 l -3.58,5.4 a 0.33,0.33 0 0 0 0.48,0.44 q 0.82,-0.67 1.33,-1.63 0.51,-0.95 1.33,-0.25"
       id="path74"
       style="stroke:none" />
    <path
       stroke="#3a6382"
       vector-effect="non-scaling-stroke"
       d="m 189.5,357.25 q 0.23,-0.85 1.06,-0.82 0.44,0.02 0.77,0.32 0.62,0.56 1.38,0.82 0.88,0.3 0.26,-0.4 -1.01,-1.12 -2.4,-1.8 -0.58,-0.29 -0.93,0.26 l -3.06,4.75 a 0.69,0.67 -53.4 0 0 0.12,0.88 q 1.26,1.11 2.95,1.79 a 0.31088583,0.31088583 0 0 0 0.29,-0.55 l -1.96,-1.32 q -0.64,-0.43 -0.27,-1.11 0.23,-0.42 0.59,-0.75 0.66,-0.61 1.35,-0.04 0.61,0.49 1.36,0.69 0.7,0.19 0.36,-0.45 -0.31,-0.57 -0.91,-0.7 a 1.27,1.27 0 0 1 -0.96,-1.57"
       id="path76"
       style="stroke:none" />
    <path
       stroke="#3a6382"
       vector-effect="non-scaling-stroke"
       d="m 340.5765,361.865 a 3.65,3.29 57.4 0 0 0.8052,-4.8476 3.65,3.29 57.4 0 0 -4.7382,-1.3024 3.65,3.29 57.4 0 0 -0.8052,4.8476 3.65,3.29 57.4 0 0 4.7382,1.3024"
       id="path78"
       style="stroke:none" />
    <path
       stroke="#3a6382"
       vector-effect="non-scaling-stroke"
       d="m 195.67,359.79 q 1.24,0.13 2.33,1.11 0.03,0.02 0.12,-0.02 l 0.29,-0.13 q 0.29,-0.13 0.1,-0.39 -1.24,-1.64 -2.84,-1.57 a 1.8,1.8 0 0 0 -1.37,2.86 l 1.2,1.64 q 0.34,0.46 0.12,0.99 c -0.35,0.88 -1.51,1.04 -2.17,0.39 q -0.44,-0.44 -0.95,-0.76 -0.12,-0.08 -0.27,-0.07 -0.14,0.01 -0.25,0.11 -0.35,0.3 -0.03,0.63 1.44,1.46 3.03,1.27 a 1.82,1.81 -19 0 0 1.34,-2.74 l -1.35,-2.23 a 0.72,0.72 0 0 1 0.7,-1.09"
       id="path80"
       style="stroke:none" />
    <path
       stroke="#3a6382"
       vector-effect="non-scaling-stroke"
       d="m 332.58,364.8 -2.71,-4.67 q -0.1,-0.18 -0.27,-0.07 l -0.22,0.13 a 0.44,0.44 0 0 0 -0.15,0.59 l 3.05,5.17 q 0.26,0.43 0.72,0.24 1.31,-0.54 2.66,-1.55 0.7,-0.54 -0.17,-0.38 -0.93,0.17 -1.73,0.77 a 0.8,0.79 -33.6 0 1 -1.18,-0.23"
       id="path82"
       style="stroke:none" />
    <path
       stroke="#3a6382"
       vector-effect="non-scaling-stroke"
       d="m 326.62,365.86 q 0.92,-0.28 1.6,-0.89 0.52,-0.47 -0.18,-0.46 -0.87,0.02 -1.61,0.55 -0.43,0.3 -0.92,0.14 -0.56,-0.2 -0.65,-0.88 -0.1,-0.75 0.58,-1.09 l 1.4,-0.7 q 0.21,-0.1 0.15,-0.33 l -0.06,-0.28 a 0.34,0.34 0 0 0 -0.49,-0.22 l -2.37,1.24 q -0.64,0.33 -0.33,0.98 l 2.58,5.28 a 0.51,0.51 0 0 0 0.57,0.27 q 1.82,-0.45 2.83,-1.78 0.46,-0.6 -0.25,-0.34 -0.76,0.28 -1.47,0.8 -0.72,0.54 -1.21,-0.21 l -0.59,-0.91 q -0.57,-0.87 0.42,-1.17"
       id="path84"
       style="stroke:none" />
    <path
       stroke="#3a6382"
       vector-effect="non-scaling-stroke"
       d="m 201.21,362.88 q 1.16,-0.08 2.05,0.82 0.32,0.32 0.64,0.01 l 0.19,-0.19 q 0.11,-0.11 0.01,-0.22 -1.62,-1.69 -3.37,-1.17 a 1.63,1.63 0 0 0 -0.83,2.56 l 1.39,1.79 a 1.07,1.07 0 0 1 -1.11,1.69 q -1.04,-0.26 -1.96,-1.29 -0.11,-0.12 -0.24,-0.02 l -0.23,0.18 q -0.32,0.24 -0.03,0.51 1.48,1.43 3.09,1.34 a 1.73,1.73 0 0 0 1.33,-2.72 l -1.49,-2.12 a 0.75,0.74 -19.5 0 1 0.56,-1.17"
       id="path86"
       style="stroke:none" />
    <path
       stroke="#3a6382"
       vector-effect="non-scaling-stroke"
       d="m 207.81,365.7 q 0.15,-0.03 0.29,-0.09 0.79,-0.32 -0.03,-0.56 -0.64,-0.18 -1.05,-0.75 -0.33,-0.45 -0.7,-0.02 -0.18,0.22 0,0.49 a 0.53,0.5 -56.4 0 1 0.08,0.45 q -0.94,3.35 -2.66,5.09 -0.56,0.57 0.24,0.62 0.52,0.03 0.96,0.34 0.77,0.56 0.36,-0.3 -0.07,-0.15 -0.07,-0.32 -0.02,-0.43 0.16,-0.82 0.86,-1.83 1.72,-3.6 0.22,-0.44 0.7,-0.53"
       id="path88"
       style="stroke:none" />
    <path
       stroke="#3a6382"
       vector-effect="non-scaling-stroke"
       d="m 321.41,369.49 q 0.49,1.89 -0.83,0.45 l -3.36,-3.63 a 0.33,0.33 0 0 0 -0.48,-0.01 l -0.2,0.21 q -0.13,0.14 0,0.27 l 4.96,5.17 a 0.44,0.44 0 0 0 0.76,-0.32 q -0.14,-3.34 -0.44,-6.86 -0.02,-0.29 -0.22,-0.5 -0.11,-0.12 -0.28,-0.07 -0.27,0.08 -0.3,0.36 -0.21,2.66 0.39,4.93"
       id="path90"
       style="stroke:none" />
    <path
       stroke="#3a6382"
       vector-effect="non-scaling-stroke"
       d="m 215.1691,370.869 a 2.94,2.94 0 0 0 -1.7242,-3.7835 l -0.4683,-0.1751 a 2.94,2.94 0 0 0 -3.7834,1.7242 l -0.4623,1.2364 a 2.94,2.94 0 0 0 1.7242,3.7835 l 0.4683,0.1751 a 2.94,2.94 0 0 0 3.7834,-1.7242 l 0.4623,-1.2364"
       id="path92"
       style="stroke:none" />
    <path
       stroke="#3a6382"
       vector-effect="non-scaling-stroke"
       d="m 312.85,368.85 2.12,-1.14 q 0.14,-0.07 0.1,-0.23 l -0.09,-0.36 q -0.04,-0.16 -0.19,-0.09 l -3.05,1.31 q -0.46,0.2 -0.28,0.67 l 2.06,5.51 q 0.22,0.61 0.85,0.46 1.49,-0.36 2.88,-1.31 0.71,-0.49 -0.15,-0.45 -1.14,0.04 -2.15,0.61 -0.69,0.39 -0.91,-0.37 l -0.33,-1.11 a 0.72,0.71 71.9 0 1 0.43,-0.87 l 1.52,-0.59 a 0.39,0.38 -22.8 0 0 0.22,-0.52 l -0.11,-0.26 q -0.1,-0.22 -0.31,-0.11 l -1.67,0.87 q -0.51,0.27 -0.77,-0.25 l -0.44,-0.88 q -0.29,-0.58 0.27,-0.89"
       id="path94"
       style="stroke:none" />
    <path
       stroke="#3a6382"
       vector-effect="non-scaling-stroke"
       d="m 218.16,372.66 q 0.58,-2.37 1.22,-0.02 0.52,1.9 1.02,3.93 0.6,2.4 1.54,0.11 1.11,-2.69 1.77,-5.43 0.24,-1.04 -0.42,-0.21 -1.07,1.34 -1.3,3.19 -0.36,2.85 -1.15,0.16 l -1.14,-3.91 q -0.72,-2.48 -1.55,-0.04 l -1.77,5.15 a 0.31,0.3 -78.6 0 0 0.26,0.4 l 0.35,0.02 q 0.12,0.01 0.17,-0.11 0.61,-1.63 1,-3.24"
       id="path96"
       style="stroke:none" />
    <path
       stroke="#3a6382"
       vector-effect="non-scaling-stroke"
       d="m 303.77,371.85 1.71,5.34 a 0.77,0.77 0 0 0 0.96,0.5 l 1.39,-0.44 a 3.5,3.27 -17.7 0 0 2.34,-4.18 l -0.19,-0.58 a 3.5,3.27 -17.7 0 0 -4.33,-2.05 l -1.38,0.44 a 0.77,0.77 0 0 0 -0.5,0.97"
       id="path98"
       style="stroke:none" />
    <path
       stroke="#3a6382"
       vector-effect="non-scaling-stroke"
       d="m 228.63,377.94 q 0.31,0.75 0.34,1.57 0.01,0.19 0.19,0.26 l 0.38,0.16 q 0.39,0.15 0.34,-0.26 l -0.82,-6.89 q -0.17,-1.37 -1,-0.27 l -4.26,5.66 a 0.15,0.15 0 0 0 0.04,0.22 l 0.23,0.16 q 0.34,0.22 0.53,-0.14 0.93,-1.75 2.91,-1.35 0.83,0.18 1.12,0.88"
       id="path100"
       style="stroke:none" />
    <path
       stroke="#3a6382"
       vector-effect="non-scaling-stroke"
       d="m 296.83,376.97 q 0.83,0.01 1.45,-0.5 0.86,-0.72 -0.25,-0.55 l -2.03,0.31 a 0.54,0.54 0 0 1 -0.61,-0.44 l -0.19,-1.02 q -0.13,-0.66 0.54,-0.77 l 1.93,-0.3 a 0.27,0.27 0 0 0 0.23,-0.32 l -0.07,-0.35 q -0.05,-0.23 -0.28,-0.18 l -2.63,0.61 a 0.94,0.93 76.9 0 0 -0.69,1.12 l 1.23,5.21 a 0.88,0.87 75.8 0 0 1.07,0.65 l 2.81,-0.74 q 0.25,-0.06 0.12,-0.29 l -0.17,-0.3 q -0.07,-0.11 -0.2,-0.08 l -2.18,0.54 q -0.67,0.17 -0.77,-0.52 l -0.16,-1.11 q -0.15,-0.98 0.85,-0.97"
       id="path102"
       style="stroke:none" />
    <path
       stroke="#3a6382"
       vector-effect="non-scaling-stroke"
       d="m 233.24,380 a 0.22,0.22 0 0 1 -0.18,-0.27 l 1.27,-5.79 a 0.22,0.22 0 0 0 -0.17,-0.27 l -0.43,-0.09 a 0.22,0.22 0 0 0 -0.26,0.17 l -1.5,6.52 a 0.22,0.22 0 0 0 0.16,0.26 l 3.47,0.93 a 0.22,0.22 0 0 0 0.27,-0.21 l -0.01,-0.67 a 0.22,0.22 0 0 0 -0.18,-0.22 L 233.24,380"
       id="path104"
       style="stroke:none" />
    <path
       stroke="#3a6382"
       vector-effect="non-scaling-stroke"
       d="m 289.49,378.8 c 1.29,0.15 2.04,1.53 2.97,2.32 q 0.11,0.09 0.26,0.1 0.27,0.02 0.37,-0.19 0.13,-0.27 -0.07,-0.47 l -1.56,-1.62 q -0.35,-0.36 -0.18,-0.83 0.06,-0.17 0.19,-0.3 a 1.84,1.72 -62.6 0 0 -0.85,-3.04 q -1.37,-0.21 -2.87,0.17 -0.59,0.15 -0.49,0.75 l 1.05,5.9 a 0.28,0.27 -5 0 0 0.27,0.22 h 0.39 q 0.29,0 0.24,-0.28 l -0.35,-2.06 q -0.14,-0.76 0.63,-0.67"
       id="path106"
       style="stroke:none" />
    <path
       stroke="#3a6382"
       vector-effect="non-scaling-stroke"
       d="m 243.36,376.74 q 0.33,-0.38 0.9,-0.46 a 1.06,1.04 61.9 0 1 0.86,0.27 q 0.51,0.47 1.1,0.29 0.74,-0.21 0.14,-0.69 c -0.96,-0.78 -2.6,-1.02 -3.54,-0.06 -1.66,1.69 0.5,3.14 1.78,3.85 q 0.48,0.26 0.57,0.8 0.12,0.69 -0.42,1.15 -0.49,0.42 -1.09,0.21 -0.92,-0.33 -1.88,-0.49 -0.96,-0.16 -0.2,0.44 1.62,1.26 3.17,0.69 1.87,-0.68 1.23,-2.64 a 1.73,1.72 -87.3 0 0 -0.95,-1.05 q -0.92,-0.41 -1.65,-1.18 -0.53,-0.56 -0.02,-1.13"
       id="path108"
       style="stroke:none" />
    <path
       stroke="#3a6382"
       vector-effect="non-scaling-stroke"
       d="m 284.4,381.01 q 0.61,0.53 0.92,1.36 a 0.31,0.31 0 0 0 0.43,0.17 l 0.29,-0.15 q 0.1,-0.06 0.04,-0.16 l -3.27,-5.98 q -0.81,-1.47 -1.2,0.16 l -1.57,6.53 q -0.05,0.23 0.17,0.25 l 0.27,0.03 q 0.55,0.06 0.52,-0.49 -0.1,-1.68 1.81,-2.02 1.02,-0.19 1.59,0.3"
       id="path110"
       style="stroke:none" />
    <path
       stroke="#3a6382"
       vector-effect="non-scaling-stroke"
       d="m 251.2515,383.7233 a 3.68,3.29 98.1 0 0 3.7757,-3.1797 3.68,3.29 98.1 0 0 -2.7387,-4.1069 3.68,3.29 98.1 0 0 -3.7757,3.1797 3.68,3.29 98.1 0 0 2.7387,4.1069"
       id="path112"
       style="stroke:none" />
    <path
       stroke="#3a6382"
       vector-effect="non-scaling-stroke"
       d="m 274.15,379.09 q 0.61,0.48 0.77,1.24 0.32,1.65 1.14,3.09 a 0.46,0.46 0 0 0 0.85,-0.14 l 1.29,-6.53 q 0.06,-0.27 -0.22,-0.31 l -0.27,-0.04 a 0.43,0.42 7.9 0 0 -0.49,0.36 l -0.53,4.21 q -0.13,1.04 -0.59,0.1 -0.95,-1.95 -1.7,-3.81 -0.11,-0.29 -0.39,-0.45 -0.26,-0.14 -0.52,-0.02 -0.33,0.15 -0.36,0.5 -0.16,2 -0.97,3.75 -0.43,0.95 -0.73,-0.05 l -1.1,-3.74 q -0.04,-0.14 -0.19,-0.11 l -0.4,0.11 q -0.37,0.09 -0.24,0.45 l 1.64,4.58 q 1.13,3.18 1.73,-0.14 0.26,-1.48 0.7,-2.87 0.16,-0.51 0.58,-0.18"
       id="path114"
       style="stroke:none" />
    <path
       stroke="#3a6382"
       vector-effect="non-scaling-stroke"
       d="m 259.18,380.97 1.91,0.3 q 0.44,0.07 0.37,-0.36 l -0.05,-0.36 q 0,-0.06 -0.05,-0.08 -1.09,-0.46 -2.23,-0.34 -0.5,0.05 -0.61,-0.45 -0.14,-0.66 0.07,-1.28 a 0.8,0.79 17.1 0 1 0.98,-0.51 q 1.03,0.3 1.82,-0.22 0.76,-0.5 -0.15,-0.53 l -2.99,-0.09 a 0.48,0.47 2.4 0 0 -0.5,0.45 l -0.26,6.06 a 0.34,0.34 0 0 0 0.33,0.35 h 0.31 a 0.38,0.37 -90 0 0 0.37,-0.38 l -0.02,-1.96 q 0,-0.71 0.7,-0.6"
       id="path116"
       style="stroke:none" />
    <path
       stroke="#3a6382"
       vector-effect="non-scaling-stroke"
       d="m 265.1,378.47 0.07,5.52 q 0,0.15 0.15,0.18 l 0.43,0.11 q 0.35,0.08 0.35,-0.28 l -0.08,-5.53 q -0.01,-0.77 0.75,-0.61 0.6,0.12 1.12,-0.23 0.73,-0.49 -0.15,-0.52 l -4.24,-0.13 q -0.37,-0.01 -0.48,0.34 -0.04,0.15 -0.01,0.3 0.1,0.43 0.54,0.38 l 0.89,-0.11 q 0.65,-0.08 0.66,0.58"
       id="path118"
       style="stroke:none" />
    <path
       stroke="#3a6382"
       vector-effect="non-scaling-stroke"
       d="m 272.41,89.02 -1.36,12.17 a 0.25,0.25 0 0 0 0.22,0.27 l 8.94,1.01 a 7.15,5.64 6.4 0 0 7.74,-4.81 l 0.16,-1.45 a 7.15,5.64 6.4 0 0 -6.48,-6.4 l -8.94,-1.01 a 0.25,0.25 0 0 0 -0.28,0.22"
       id="path120"
       style="stroke:none" />
    <path
       stroke="#3a6382"
       vector-effect="non-scaling-stroke"
       d="m 270.31,106.39 -1.35,13.09 a 0.74,0.74 0 0 0 0.66,0.81 l 8.41,0.87 a 8.51,6.51 5.9 0 0 9.13,-5.6 l 0.17,-1.62 a 8.51,6.51 5.9 0 0 -7.8,-7.35 l -8.4,-0.86 a 0.74,0.74 0 0 0 -0.82,0.66"
       id="path122"
       style="stroke:none" />
    <path
       stroke="#3a6382"
       vector-effect="non-scaling-stroke"
       d="m 318.12,98.99 -5.73,12.88 a 0.4,0.4 0 0 0 0.2,0.52 l 6.54,2.92 a 7.8,6.6 24 0 0 9.81,-2.86 l 0.69,-1.55 a 7.8,6.6 24 0 0 -4.44,-9.2 l -6.54,-2.92 a 0.4,0.4 0 0 0 -0.53,0.21"
       id="path124"
       style="stroke:none" />
    <path
       stroke="#3a6382"
       vector-effect="non-scaling-stroke"
       d="m 170.26,121.35 7.65,11.37 a 0.66,0.66 0 0 0 0.91,0.18 l 5.31,-3.57 a 8.31,6.55 -33.9 0 0 3.24,-10.07 l -1.07,-1.59 a 8.31,6.55 -33.9 0 0 -10.55,-0.8 l -5.31,3.56 a 0.66,0.66 0 0 0 -0.18,0.92"
       id="path126"
       style="stroke:none" />
    <path
       stroke="#3a6382"
       vector-effect="non-scaling-stroke"
       d="m 368.0021,146.2733 a 12.17,12.17 0 0 0 -0.7508,-17.1946 l -1.2681,-1.162 a 12.17,12.17 0 0 0 -17.1946,0.7507 l -5.3507,5.8393 a 12.17,12.17 0 0 0 0.7508,17.1946 l 1.2681,1.162 a 12.17,12.17 0 0 0 17.1946,-0.7507 l 5.3507,-5.8393"
       id="path128"
       style="stroke:none" />
    <path
       stroke="#3a6382"
       vector-effect="non-scaling-stroke"
       d="m 161.24,155.34 -17.07,-5.55 q -0.51,-0.17 -0.19,0.27 5.1,7.06 9.68,15 a 0.41,0.41 0 0 0 0.68,0.05 l 7.09,-9.17 a 0.39,0.38 27.7 0 0 -0.19,-0.6"
       id="path130"
       style="stroke:none" />
    <path
       stroke="#3a6382"
       vector-effect="non-scaling-stroke"
       d="m 131.61,274.03 13.54,-2.29 a 0.39,0.39 0 0 0 0.32,-0.45 l -1.51,-8.93 a 8.19,6.79 80.4 0 0 -8.06,-6.94 l -0.92,0.15 a 8.19,6.79 80.4 0 0 -5.33,9.21 l 1.51,8.93 a 0.39,0.39 0 0 0 0.45,0.32"
       id="path132"
       style="stroke:none" />
    <path
       stroke="#3a6382"
       vector-effect="non-scaling-stroke"
       d="m 114.94,276.88 11.59,-1.9 a 0.55,0.55 0 0 0 0.45,-0.63 l -1.38,-8.43 a 7.45,5.85 80.7 0 0 -6.97,-6.4 l -1.13,0.18 a 7.45,5.85 80.7 0 0 -4.57,8.3 l 1.38,8.43 a 0.55,0.55 0 0 0 0.63,0.45"
       id="path134"
       style="stroke:none" />
    <path
       stroke="#3a6382"
       vector-effect="non-scaling-stroke"
       d="m 174.63,344.71 a 1.4,1.4 0 0 0 -1.4,-1.4 1.4,1.4 0 0 0 -1.4,1.4 1.4,1.4 0 0 0 1.4,1.4 1.4,1.4 0 0 0 1.4,-1.4"
       id="path136"
       style="stroke:none" />
    <path
       stroke="#3a6382"
       vector-effect="non-scaling-stroke"
       d="m 353.36,344.79 1.06,1.38 a 0.5,0.5 0 0 0 0.7,0.1 l 0.15,-0.12 a 2.05,1.24 -37.4 0 0 0.88,-2.23 l -0.16,-0.21 a 2.05,1.24 -37.4 0 0 -2.38,0.26 l -0.15,0.12 a 0.5,0.5 0 0 0 -0.1,0.7"
       id="path138"
       style="stroke:none" />
    <path
       stroke="#3a6382"
       vector-effect="non-scaling-stroke"
       d="m 176.5173,353.2728 a 2.89,2.38 129.1 0 0 3.6697,-0.7418 2.89,2.38 129.1 0 0 -0.0243,-3.7438 2.89,2.38 129.1 0 0 -3.6697,0.7418 2.89,2.38 129.1 0 0 0.0243,3.7438"
       id="path140"
       style="stroke:none" />
    <path
       stroke="#3a6382"
       vector-effect="non-scaling-stroke"
       d="m 343.87,354.58 a 0.76,0.76 0 0 0 1.29,-0.06 l 0.69,-1.25 a 0.76,0.76 0 0 0 -0.32,-1.05 l -0.71,-0.36 a 0.76,0.76 0 0 0 -0.7,0 l -0.78,0.41 a 0.76,0.76 0 0 0 -0.28,1.09 l 0.81,1.22"
       id="path142"
       style="stroke:none" />
    <path
       stroke="#3a6382"
       vector-effect="non-scaling-stroke"
       d="m 340.0199,361.3676 a 2.97,2.37 61 0 0 0.6329,-3.7466 2.97,2.37 61 0 0 -3.5127,-1.4486 2.97,2.37 61 0 0 -0.6329,3.7466 2.97,2.37 61 0 0 3.5127,1.4486"
       id="path144"
       style="stroke:none" />
    <path
       stroke="#3a6382"
       vector-effect="non-scaling-stroke"
       d="m 210.7836,373.0147 a 2.91,2.35 113.2 0 0 3.3064,-1.7489 2.91,2.35 113.2 0 0 -1.0136,-3.6005 2.91,2.35 113.2 0 0 -3.3064,1.7489 2.91,2.35 113.2 0 0 1.0136,3.6005"
       id="path146"
       style="stroke:none" />
    <path
       stroke="#3a6382"
       vector-effect="non-scaling-stroke"
       d="m 304.91,372.17 1.11,3.97 a 0.8,0.8 0 0 0 0.98,0.56 l 0.45,-0.13 a 2.64,2.59 74.4 0 0 1.79,-3.24 l -0.12,-0.42 a 2.64,2.59 74.4 0 0 -3.2,-1.85 l -0.46,0.13 a 0.8,0.8 0 0 0 -0.55,0.98"
       id="path148"
       style="stroke:none" />
    <path
       stroke="#3a6382"
       vector-effect="non-scaling-stroke"
       d="m 228.78,375.05 a 0.49,0.49 0 0 0 -0.48,-0.67 q -0.89,0.04 -1.35,0.81 -0.42,0.71 0.4,0.86 l 0.57,0.1 a 0.51,0.5 15.5 0 0 0.56,-0.31 l 0.3,-0.79"
       id="path150"
       style="stroke:none" />
    <path
       stroke="#3a6382"
       vector-effect="non-scaling-stroke"
       d="m 288.21,376.17 0.26,1.56 a 0.47,0.47 0 0 0 0.55,0.38 l 0.87,-0.15 a 1.36,1.16 -9.7 0 0 1.15,-1.37 l -0.04,-0.2 a 1.36,1.16 -9.7 0 0 -1.53,-0.91 l -0.88,0.15 a 0.47,0.47 0 0 0 -0.38,0.54"
       id="path152"
       style="stroke:none" />
    <path
       stroke="#3a6382"
       vector-effect="non-scaling-stroke"
       d="m 282.87,380.05 q 0.13,0.08 0.28,0.05 0.48,-0.07 0.37,-0.54 -0.23,-1.05 -0.87,-1.97 -0.44,-0.63 -0.59,0.12 l -0.35,1.79 q -0.1,0.47 0.39,0.48 0.2,0.01 0.42,0 a 0.74,0.65 -30.1 0 1 0.35,0.07"
       id="path154"
       style="stroke:none" />
    <path
       stroke="#3a6382"
       vector-effect="non-scaling-stroke"
       d="m 251.5172,382.949 a 2.9,2.35 95 0 0 2.5939,-2.6842 2.9,2.35 95 0 0 -2.0883,-3.0938 2.9,2.35 95 0 0 -2.5939,2.6842 2.9,2.35 95 0 0 2.0883,3.0938"
       id="path156"
       style="stroke:none" />
  </g>
  <path
     fill="#62b5e5"
     d="M 765.05172,269.95502 585.70277,166.78352 a 1.9597523,1.9597523 0 0 1 0,-3.41375 L 764.92529,58.68106 a 1.9597523,1.9597523 0 0 1 2.02297,0 l 179.34895,104.68871 a 1.9597523,1.9597523 0 0 1 0,3.41375 l -179.34895,103.1715 a 1.9597523,1.9597523 0 0 1 -1.89654,0 z"
     id="path186"
     style="fill:#19aeff;stroke:none;stroke-width:6.32179" />
  <path
     fill="#62b5e5"
     d="m 378.79085,233.98406 c 50.38461,-38.56285 109.17718,-72.76371 170.18236,-94.88994 q 5.56317,-2.02297 2.02299,2.71837 -14.1608,19.09178 -2.27586,44.50534 1.89654,4.04594 -2.27583,5.68961 -45.83293,18.01708 -87.43025,45.89614 a 9.1033658,9.3562371 34.4 0 1 -6.95396,1.39079 c -21.30441,-4.42526 -51.83861,-12.89644 -72.0683,-3.35054 q -9.79878,4.61489 -1.20115,-1.95977 z"
     id="path190"
     style="fill:#19aeff;stroke:none;stroke-width:6.32179" />
  <path
     fill="#62b5e5"
     d="m 1095.112,247.5759 a 5.3102968,5.3102968 0 0 1 -6.7011,0.31609 q -31.5457,-23.3906 -65.4936,-39.06861 -4.046,-1.89653 -6.3218,-5.75282 l -35.78135,-61.44772 q -2.5287,-4.42526 2.2126,-2.59194 93.24635,35.52842 170.81455,96.02788 a 0.58026245,0.58026245 0 0 1 -0.5689,1.01148 q -30.7238,-13.02287 -58.1604,11.50564 z"
     id="path192"
     style="fill:#19aeff;stroke:none;stroke-width:6.32179" />
  <path
     fill="#62b5e5"
     d="m 767.39079,272.10442 174.03865,99.12554 a 16.120544,16.057326 44.7 0 0 15.99411,-0.0632 L 1128.807,272.42052 a 6.6378709,6.7643066 45.5 0 1 6.638,0 l 178.7167,102.03356 q 2.5919,1.45402 0,2.97124 l -178.9696,103.74044 q -2.908,1.70688 -5.8793,0 L 956.15915,380.08045 a 14.47688,14.47688 0 0 0 -14.66649,0 l -168.60193,98.87267 a 13.591831,13.591831 0 0 1 -13.78148,0 L 590.69699,380.14366 q -8.02868,-4.67811 -16.05733,0 L 401.23318,481.86114 a 3.7298513,3.7298513 0 0 1 -3.91951,0 q -82.87856,-48.86738 -172.83751,-101.33817 -3.60342,-2.08619 -7.64935,-3.22411 -2.59194,-0.75861 -0.25287,-2.08618 L 396.30219,273.1159 q 3.09767,-1.7701 6.19535,0 l 173.09039,98.55658 a 14.224009,14.097573 44.8 0 0 14.09757,0 l 174.79725,-99.56806 q 1.45402,-0.82184 2.90804,0 z"
     id="path198"
     style="fill:#19aeff;stroke:none;stroke-width:6.32179" />
  <path
     fill="#62b5e5"
     d="m 554.28351,851.49572 -0.0632,201.66478 a 12.137821,12.074603 15.4 0 0 6.00569,10.5574 l 172.71108,100.2002 q 3.03445,1.7069 3.03445,5.2472 v 203.498 q 0,3.3507 -2.97123,1.7069 L 557.12832,1273.4747 q -2.90802,-1.6437 -2.90802,-4.9943 v -203.6246 a 9.3562371,9.2298014 15.6 0 0 -4.55169,-7.9654 L 374.99778,954.85683 a 8.2815342,8.2815342 0 0 1 -4.10916,-7.1436 V 748.95641 a 11.442425,11.315989 15 0 0 -5.75282,-9.86197 L 190.08567,639.08385 a 8.1550986,8.1550986 0 0 1 -4.10916,-7.0804 V 427.93634 q 0,-3.60342 3.1609,-1.83332 l 178.27423,101.97035 q 3.28733,1.89653 3.28733,5.62637 l -0.0632,200.27405 a 13.844702,13.844702 0 0 0 6.95395,12.01139 l 172.45822,99.69451 q 3.66663,2.1494 3.66663,-2.0862 l -0.0632,-203.56137 q 0,-3.28732 2.78158,-1.64367 l 177.57886,102.22321 q 2.65515,1.51723 2.65515,4.6149 l -0.0632,203.75107 q 0,3.9827 -3.47698,2.0229 L 557.19153,849.78884 a 1.9597523,1.9597523 0 0 0 -2.90802,1.70688 z"
     id="path202"
     style="fill:#19aeff;stroke:none;stroke-width:6.32179" />
  <path
     fill="#62b5e5"
     d="m 1161.0482,740.86454 0.1268,-209.12455 a 2.1494058,2.1494058 0 0 1 1.0746,-1.89654 l 180.6766,-103.74043 a 2.1494058,2.1494058 0 0 1 3.224,1.89654 l -0.1896,207.228 a 2.1494058,2.1494058 0 0 1 -1.0747,1.89654 l -182.6363,104.56228 a 2.1494058,2.1494058 0 0 0 -1.0746,1.89653 l -0.1268,207.79692 a 2.1494058,2.1494058 0 0 1 -1.0747,1.8334 L 978.91755,1059.3559 a 2.1494058,2.1494058 0 0 0 -1.0747,1.8333 l -0.063,209.3141 a 2.1494058,2.1494058 0 0 1 -1.0747,1.8967 l -177.64204,102.0334 a 2.1494058,2.1494058 0 0 1 -3.2241,-1.8965 l 0.25286,-205.5842 a 2.1494058,2.1494058 0 0 1 1.0747,-1.8967 l 179.41218,-104.6254 a 2.1494058,2.1494058 0 0 0 1.0747,-1.8966 l 0.1896,-209.18769 a 2.1494058,2.1494058 0 0 1 1.0747,-1.89654 L 1159.9737,742.76108 a 2.1494058,2.1494058 0 0 0 1.0747,-1.89654 z"
     id="path204"
     style="fill:#19aeff;stroke:none;stroke-width:6.32179" />
  <path
     fill="#62b5e5"
     d="M 946.23399,590.72222 767.01147,692.56613 a 2.0229702,2.0229702 0 0 1 -2.02297,0 L 585.70277,590.72222 a 2.0229702,2.0229702 0 0 1 -0.0632,-3.5402 L 764.92529,483.82089 a 2.0229702,2.0229702 0 0 1 2.02297,0 l 179.34895,103.36113 a 2.0229702,2.0229702 0 0 1 -0.0632,3.5402 z"
     id="path206"
     style="fill:#19aeff;stroke:none;stroke-width:6.32179" />
  <path
     fill="#62b5e5"
     d="M 800.20083,739.72661 974.80845,638.00915 q 2.9712,-1.7701 2.9712,1.70688 V 842.2027 a 10.43094,10.494158 74.8 0 1 -5.247,9.04014 l -173.53296,99.56809 q -2.97123,1.7069 -2.97123,-1.7701 l 0.0632,-202.1706 q 0,-4.74134 4.10916,-7.14362 z"
     id="path212"
     style="fill:#19aeff;stroke:none;stroke-width:6.32179" />
  <path
     fill="#62b5e5"
     d="m 1386.0405,642.62405 q 0.2528,-0.63218 0.2528,-0.63218 -0.9482,-0.0632 -0.063,-0.12644 0.6953,-0.0632 0,0 -0.1268,0.0632 -0.1268,0.12644 12.201,96.1543 -2.3392,184.27994 -1.2011,7.33327 -4.4884,0.6954 -14.8562,-30.09168 -31.3559,-65.11436 -5.1208,-10.81025 -4.615,-23.01128 1.2011,-26.80436 -0.8218,-51.33287 a 5.0574255,4.9942076 74.5 0 1 2.7815,-4.99421 q 14.0344,-7.01718 27.1205,-16.49986 c 7.7126,-5.6896 10.2412,-14.91939 13.6551,-23.39058 z"
     id="path214"
     style="fill:#19aeff;stroke:none;stroke-width:6.32179" />
  <path
     fill="#62b5e5"
     d="m 147.6033,645.78494 c 5.24707,20.10326 21.05153,27.62618 38.37321,35.97093 q 3.5402,1.64367 3.35055,5.56317 c -0.88505,19.40788 0.18965,37.99391 -6.70109,57.40179 q -14.28723,40.26974 -28.25837,79.59123 -4.74133,13.14931 -6.7643,-0.6954 -13.52861,-89.64287 -2.33907,-177.64207 0.75862,-6.06891 2.33907,-0.18965 z"
     id="path216"
     style="fill:#19aeff;stroke:none;stroke-width:6.32179" />
  <path
     fill="#62b5e5"
     d="m 187.80982,849.09344 177.26277,100.20029 a 11.442425,11.379207 14.8 0 1 5.81603,9.9252 v 204.13027 q 0.0632,2.5286 -2.1494,1.2643 L 187.68339,1060.9363 q -1.70688,-0.9483 -1.70688,-2.908 l -0.0632,-207.86016 q 0,-2.1494 1.89653,-1.0747 z"
     id="path226"
     style="fill:#19aeff;stroke:none;stroke-width:6.32179" />
  <path
     fill="#62b5e5"
     d="m 1165.7895,949.73623 177.2628,-100.01061 q 2.9712,-1.70688 2.9712,1.7701 v 205.14178 a 5.7528215,5.942475 74.7 0 1 -2.9712,5.0574 l -179.5386,102.9186 q -2.4655,1.3276 -2.4655,-1.454 l 0.063,-205.45787 a 9.1033658,9.1033658 0 0 1 4.678,-7.9654 z"
     id="path228"
     style="fill:#19aeff;stroke:none;stroke-width:6.32179" />
  <path
     fill="#62b5e5"
     d="m 366.40016,1204.8834 c 12.26425,1.7068 24.97104,-3.9828 33.6951,-12.6437 q 2.33905,-2.339 4.9942,-0.3793 l 105.82663,77.5682 q 2.97123,2.1496 3.41377,5.8161 c 2.59193,20.7354 14.35044,25.7297 29.64915,35.5285 q 4.6149,2.9712 -0.50574,1.0747 -98.24049,-35.8446 -178.33747,-104.183 -4.04593,-3.4771 1.26436,-2.7815 z"
     id="path230"
     style="fill:#19aeff;stroke:none;stroke-width:6.32179" />
  <path
     fill="#62b5e5"
     d="m 1020.0092,1246.6071 q 37.6146,-18.0171 71.689,-41.787 a 8.0918807,8.344752 28.9 0 1 4.5517,-1.3909 l 69.2867,1.0116 q 5.3104,0.063 1.2643,3.477 -80.3497,67.9591 -176.44085,103.1082 -0.7586,1.2644 -2.1494,0.9483 -2.0862,-0.4425 -0.1897,-1.3908 c 31.35615,-14.9827 29.45955,-30.2813 29.90215,-60.7524 a 3.5401977,3.5401977 0 0 1 2.0861,-3.224 z"
     id="path232"
     style="fill:#19aeff;stroke:none;stroke-width:6.32179" />
</svg>
