<?xml version="1.0" encoding="UTF-8"?> <svg xmlns="http://www.w3.org/2000/svg" xmlns:xlink="http://www.w3.org/1999/xlink" width="495px" height="256px" viewBox="0 0 495 256"> <!-- Generator: Sketch 48.1 (47250) - http://www.bohemiancoding.com/sketch --> <title>Group 4</title> <desc>Created with Sketch.</desc> <defs> <linearGradient x1="40.9098497%" y1="29.9458253%" x2="46.4892966%" y2="85.3405965%" id="linearGradient-1"> <stop stop-color="#ACE2FF" offset="0%"></stop> <stop stop-color="#FFFFFF" stop-opacity="0" offset="100%"></stop> </linearGradient> <linearGradient x1="101.78218%" y1="8.20257548%" x2="-1.68917576%" y2="100%" id="linearGradient-2"> <stop stop-color="#FFFFFF" stop-opacity="0" offset="0%"></stop> <stop stop-color="#C6E7FE" offset="4.76538012%"></stop> <stop stop-color="#4DACFB" offset="48.3876754%"></stop> <stop stop-color="#D2E9FE" offset="91.5238361%"></stop> <stop stop-color="#FFFFFF" stop-opacity="0" offset="100%"></stop> </linearGradient> <linearGradient x1="-3.28843391%" y1="14.6036255%" x2="210.089681%" y2="99.0707426%" id="linearGradient-3"> <stop stop-color="#4EE3FF" offset="0%"></stop> <stop stop-color="#2562FA" offset="100%"></stop> </linearGradient> <circle id="path-4" cx="293" cy="70" r="11"></circle> <circle id="path-5" cx="50" cy="156" r="11"></circle> <circle id="path-6" cx="464" cy="11" r="11"></circle> </defs> <g id="Landing-page-6-Copy" stroke="none" stroke-width="1" fill="none" fill-rule="evenodd" transform="translate(-927.000000, -1342.000000)"> <g id="Group-4" transform="translate(929.000000, 1346.000000)"> <path d="M8.52460734e-16,196.20295 C20.6848958,157.3592 46.7317708,144.411283 78.140625,157.3592 C125.253906,176.781075 156.21875,184.867012 203.800781,151.867012 C251.382813,118.867012 268.738281,56.7576373 304.796875,68.4998248 C340.855469,80.2420123 373.160156,118.605294 416.851563,50.6170123 C445.979167,5.29149143 470.832031,-2.09913357 491.410156,28.4451373 L491.410156,251.921242 L0,251.921242 L8.52460734e-16,196.20295 Z" id="Path-18-Copy-3" fill="url(#linearGradient-1)"></path> <path d="M0,196.20295 C20.6848958,157.3592 46.7317708,144.411283 78.140625,157.3592 C125.253906,176.781075 156.21875,184.867012 203.800781,151.867012 C251.382813,118.867012 268.738281,56.7576373 304.796875,68.4998248 C340.855469,80.2420123 373.160156,118.605294 416.851563,50.6170123 C445.979167,5.29149143 470.832031,-2.09913357 491.410156,28.4451373" id="Path-18-Copy-2" stroke="url(#linearGradient-2)" stroke-width="3"></path> <g id="Oval-17"> <use fill="url(#linearGradient-3)" fill-rule="evenodd" xlink:href="#path-4"></use> <circle stroke="#FFFFFF" stroke-width="4" cx="293" cy="70" r="13"></circle> </g> <g id="Oval-17-Copy"> <use fill="url(#linearGradient-3)" fill-rule="evenodd" xlink:href="#path-5"></use> <circle stroke="#FFFFFF" stroke-width="4" cx="50" cy="156" r="13"></circle> </g> <g id="Oval-17-Copy-2"> <use fill="url(#linearGradient-3)" fill-rule="evenodd" xlink:href="#path-6"></use> <circle stroke="#FFFFFF" stroke-width="4" cx="464" cy="11" r="13"></circle> </g> <g id="Group-3" opacity="0.300000012" transform="translate(47.000000, 64.000000)" fill="#B7E2FF"> <circle id="Oval-22-Copy-8" cx="115" cy="3" r="3"></circle> <circle id="Oval-22-Copy-4" cx="51" cy="3" r="3"></circle> <circle id="Oval-22-Copy-9" cx="179" cy="3" r="3"></circle> <circle id="Oval-22-Copy-2" cx="19" cy="3" r="3"></circle> <circle id="Oval-22-Copy-10" cx="147" cy="3" r="3"></circle> <circle id="Oval-22-Copy-5" cx="83" cy="3" r="3"></circle> <circle id="Oval-22-Copy-11" cx="211" cy="3" r="3"></circle> <circle id="Oval-22-Copy" cx="3" cy="3" r="3"></circle> <circle id="Oval-22-Copy-16" cx="3" cy="35" r="3"></circle> <circle id="Oval-22-Copy-15" cx="3" cy="19" r="3"></circle> <circle id="Oval-22-Copy-17" cx="3" cy="51" r="3"></circle> <circle id="Oval-22-Copy-18" cx="3" cy="67" r="3"></circle> <circle id="Oval-22-Copy-12" cx="131" cy="3" r="3"></circle> <circle id="Oval-22-Copy-6" cx="67" cy="3" r="3"></circle> <circle id="Oval-22-Copy-13" cx="195" cy="3" r="3"></circle> <circle id="Oval-22-Copy-3" cx="35" cy="3" r="3"></circle> <circle id="Oval-22-Copy-14" cx="163" cy="3" r="3"></circle> <circle id="Oval-22-Copy-7" cx="99" cy="3" r="3"></circle> </g> <g id="Group-3-Copy" opacity="0.300000012" transform="translate(289.000000, 6.000000)" fill="#B7E2FF"> <circle id="Oval-22-Copy-8" cx="115" cy="3" r="3"></circle> <circle id="Oval-22-Copy-4" cx="51" cy="3" r="3"></circle> <circle id="Oval-22-Copy-2" cx="19" cy="3" r="3"></circle> <circle id="Oval-22-Copy-10" cx="147" cy="3" r="3"></circle> <circle id="Oval-22-Copy-5" cx="83" cy="3" r="3"></circle> <circle id="Oval-22-Copy" cx="3" cy="3" r="3"></circle> <circle id="Oval-22-Copy-17" cx="3" cy="21" r="3"></circle> <circle id="Oval-22-Copy-18" cx="3" cy="37" r="3"></circle> <circle id="Oval-22-Copy-12" cx="131" cy="3" r="3"></circle> <circle id="Oval-22-Copy-6" cx="67" cy="3" r="3"></circle> <circle id="Oval-22-Copy-3" cx="35" cy="3" r="3"></circle> <circle id="Oval-22-Copy-7" cx="99" cy="3" r="3"></circle> </g> </g> </g> </svg> 