<?xml version="1.0" encoding="UTF-8" standalone="no"?>
<svg
   width="1132"
   height="232"
   viewBox="0 0 1132 232"
   fill="none"
   version="1.1"
   id="svg6"
   sodipodi:docname="nav-background.svg"
   inkscape:export-filename="Discount.png"
   inkscape:export-xdpi="96"
   inkscape:export-ydpi="96"
   inkscape:version="1.2.2 (732a01da63, 2022-12-09)"
   xmlns:inkscape="http://www.inkscape.org/namespaces/inkscape"
   xmlns:sodipodi="http://sodipodi.sourceforge.net/DTD/sodipodi-0.dtd"
   xmlns="http://www.w3.org/2000/svg"
   xmlns:svg="http://www.w3.org/2000/svg">
  <defs
     id="defs10">
    <inkscape:path-effect
       effect="powerstroke"
       id="path-effect1852"
       is_visible="true"
       lpeversion="1"
       offset_points="4,0"
       not_jump="false"
       sort_points="true"
       interpolator_type="CubicBezierJohan"
       interpolator_beta="0.2"
       start_linecap_type="zerowidth"
       linejoin_type="extrp_arc"
       miter_limit="4"
       scale_width="1"
       end_linecap_type="zerowidth" />
    <inkscape:path-effect
       effect="powerstroke"
       id="path-effect456"
       is_visible="true"
       lpeversion="1"
       offset_points="4,0"
       not_jump="false"
       sort_points="true"
       interpolator_type="CubicBezierJohan"
       interpolator_beta="0.2"
       start_linecap_type="zerowidth"
       linejoin_type="extrp_arc"
       miter_limit="4"
       scale_width="1"
       end_linecap_type="zerowidth" />
    <inkscape:path-effect
       effect="powerstroke"
       id="path-effect448"
       is_visible="true"
       lpeversion="1"
       offset_points="4,0"
       not_jump="false"
       sort_points="true"
       interpolator_type="CubicBezierJohan"
       interpolator_beta="0.2"
       start_linecap_type="zerowidth"
       linejoin_type="extrp_arc"
       miter_limit="4"
       scale_width="1"
       end_linecap_type="zerowidth" />
    <inkscape:path-effect
       effect="fill_between_many"
       method="bsplinespiro"
       linkedpaths="#path446,0,1"
       id="path-effect450" />
    <inkscape:path-effect
       effect="fill_between_many"
       method="bsplinespiro"
       linkedpaths="#path454,0,1"
       id="path-effect458" />
    <inkscape:path-effect
       effect="fill_between_many"
       method="bsplinespiro"
       linkedpaths="#path1850,0,1"
       id="path-effect1854" />
  </defs>
  <sodipodi:namedview
     id="namedview8"
     pagecolor="#ffffff"
     bordercolor="#000000"
     borderopacity="0.25"
     inkscape:showpageshadow="2"
     inkscape:pageopacity="0.0"
     inkscape:pagecheckerboard="0"
     inkscape:deskcolor="#d1d1d1"
     showgrid="false"
     inkscape:zoom="0.4609375"
     inkscape:cx="465.35593"
     inkscape:cy="-34.711864"
     inkscape:window-width="1280"
     inkscape:window-height="961"
     inkscape:window-x="-8"
     inkscape:window-y="-8"
     inkscape:window-maximized="1"
     inkscape:current-layer="svg6" />
  <path
     inkscape:original-d="M 0,0"
     inkscape:path-effect="#path-effect458"
     d="M -78.438261,-114.6085 958.20031,-83.720833 612.40732,390.20338 -118.6071,372.26322 Z"
     id="path460"
     style="fill:#999999;fill-opacity:0.383803"
     class="UnoptimicedTransforms"
     transform="translate(-84.61017,-62.915255)" />
  <path
     style="fill:#b50000;fill-rule:nonzero;stroke:none;stroke-width:12.0945;paint-order:stroke markers fill;stop-color:#000000"
     d="M -88.949152,-93.288135 C 147.52827,-96.25647 518.81922,-100.91702 948.06779,-106.30508 846.48845,46.063933 734.56626,213.94722 622.64407,381.83051 c -251.45186,4.47689 -502.90372,8.95378 -731.11865,13.01695 8.08209,-202.05215 15.072923,-376.823002 19.525428,-488.135595 z m 0,0 C -93.401657,18.024458 -100.39249,192.79531 -108.47458,394.84746 119.74035,390.78429 371.19221,386.3074 622.64407,381.83051 734.56626,213.94722 846.48845,46.063933 948.06779,-106.30508 518.81922,-100.91702 147.52827,-96.25647 -88.949152,-93.288135 Z"
     id="path454"
     inkscape:path-effect="#path-effect456"
     inkscape:original-d="M -88.949152,-93.288135 948.06779,-106.30508 622.64407,381.83051 -108.47458,394.84746 Z"
     inkscape:linked-fill="path460"
     class="UnoptimicedTransforms"
     transform="rotate(2.4258349,1863.2645,-1885.2949)" />
  <path
     inkscape:original-d="M 0,0"
     inkscape:path-effect="#path-effect1854"
     d="M -225.62712,-71.593221 807.05084,-104.13559 416.54237,397.01695 -247.32204,377.49153 Z"
     id="path1856"
     style="fill:#4d4bb8;fill-opacity:0.566102"
     class="UnoptimicedTransforms"
     transform="translate(6.5084747,-17.355932)" />
  <path
     inkscape:original-d="M 0,0"
     inkscape:path-effect="#path-effect450"
     d="M -41.220339,-23.864407 663.86441,-36.881356 397.01695,282.0339 -49.898305,290.71186 Z"
     id="path452"
     style="fill:#0084c8"
     class="UnoptimicedTransforms" />
  <path
     style="fill:#0084c8;fill-rule:nonzero;stroke:none;stroke-width:12.0945;paint-order:stroke markers fill;stop-color:#000000"
     d="M -41.220339,-23.864407 C 119.56452,-26.832743 372.0113,-31.493299 663.86441,-36.881356 580.56935,62.666401 488.79315,172.35015 397.01695,282.0339 c -153.70648,2.98459 -307.412957,5.96918 -446.915255,8.67796 3.592038,-130.21139 6.699075,-242.841486 8.677966,-314.576267 z m 0,0 C -43.19923,47.870374 -46.306267,160.50047 -49.898305,290.71186 89.603993,288.00308 243.31047,285.01849 397.01695,282.0339 488.79315,172.35015 580.56935,62.666401 663.86441,-36.881356 372.0113,-31.493299 119.56452,-26.832743 -41.220339,-23.864407 Z"
     id="path446"
     inkscape:path-effect="#path-effect448"
     inkscape:original-d="M -41.220339,-23.864407 663.86441,-36.881356 397.01695,282.0339 -49.898305,290.71186 Z"
     inkscape:linked-fill="path452"
     class="UnoptimicedTransforms" />
  <path
     style="fill:#d76cff;fill-opacity:0.383803;fill-rule:nonzero;stroke:none;stroke-width:12.0945;paint-order:stroke markers fill;stop-color:#000000"
     d="M -216.94915,-54.237288 C 18.538822,-61.658128 388.27626,-73.309517 815.72881,-86.779661 693.8336,69.652527 559.52697,242.0127 425.22034,414.37288 196.89907,407.65755 -31.42221,400.94222 -238.64407,394.84746 c 8.9801,-185.88798 16.74769,-346.677162 21.69492,-449.084748 z m 0,0 c -4.94723,102.407586 -12.71482,263.196768 -21.69492,449.084748 207.22186,6.09476 435.54314,12.81009 663.86441,19.52542 C 559.52697,242.0127 693.8336,69.652527 815.72881,-86.779661 388.27626,-73.309517 18.538822,-61.658128 -216.94915,-54.237288 Z"
     id="path1850"
     inkscape:path-effect="#path-effect1852"
     inkscape:original-d="M -216.94915,-54.237288 815.72881,-86.779661 425.22034,414.37288 -238.64407,394.84746 Z"
     inkscape:linked-fill="path1856"
     class="UnoptimicedTransforms"
     transform="translate(-2.1694913,-34.711865)" />
</svg>
