<svg xmlns="http://www.w3.org/2000/svg" xmlns:xlink="http://www.w3.org/1999/xlink" width="934.384" height="933.499" viewBox="0 0 934.384 933.499">
  <defs>
    <filter id="Polygon_2" x="0" y="0" width="934.384" height="933.499" filterUnits="userSpaceOnUse">
      <feOffset dx="75" dy="50" input="SourceAlpha"/>
      <feGaussianBlur stdDeviation="49.5" result="blur"/>
      <feFlood flood-opacity="0.161"/>
      <feComposite operator="in" in2="blur"/>
      <feComposite in="SourceGraphic"/>
    </filter>
  </defs>
  <g transform="matrix(1, 0, 0, 1, 0, 0)" filter="url(#Polygon_2)">
    <g id="Polygon_2-2" data-name="Polygon 2" transform="matrix(-0.59, 0.81, -0.81, -0.59, 710.88, 367.71)" opacity="0.92">
      <path d="M 352.4615478515625 457.5 L 101.5384521484375 457.5 C 95.87999725341797 457.5 90.30680084228516 456.7684326171875 84.97370147705078 455.3257446289063 C 79.85105133056641 453.9398803710938 74.92514801025391 451.892578125 70.33284759521484 449.2406005859375 C 61.46995162963867 444.1223449707031 53.89614868164063 436.7605895996094 48.43030166625977 427.9511413574219 C 42.96450042724609 419.1417236328125 39.7318000793457 409.0865478515625 39.0817985534668 398.8725280761719 C 38.74494934082031 393.5802307128906 39.09804916381836 388.2575378417969 40.13130187988281 383.0522766113281 C 41.20695114135742 377.6331787109375 43.02645111083984 372.3148498535156 45.53924942016602 367.2449340820313 L 171.0008544921875 114.1110382080078 C 173.7949523925781 108.4735870361328 177.3157043457031 103.3583374023438 181.4652557373047 98.90743255615234 C 185.4257049560547 94.65933990478516 189.96484375 91.00708770751953 194.9566955566406 88.05208587646484 C 204.5558929443359 82.36963653564453 215.6363067626953 79.3660888671875 227 79.3660888671875 C 238.3636932373047 79.3660888671875 249.4440460205078 82.36963653564453 259.0432434082031 88.05208587646484 C 264.0350952148438 91.00708770751953 268.5743103027344 94.65933990478516 272.5347595214844 98.90743255615234 C 276.6842956542969 103.3583374023438 280.2050476074219 108.4735870361328 282.9991455078125 114.1110382080078 L 408.4607543945313 367.2449340820313 C 410.9735412597656 372.3148498535156 412.7930603027344 377.6331787109375 413.8687133789063 383.0522766113281 C 414.9019470214844 388.2575378417969 415.2550354003906 393.5802307128906 414.918212890625 398.8725280761719 C 414.2681884765625 409.0865478515625 411.0354919433594 419.1417236328125 405.5697021484375 427.9511413574219 C 400.1038513183594 436.7605895996094 392.5300598144531 444.1223449707031 383.6671447753906 449.2406005859375 C 379.0748596191406 451.892578125 374.1489562988281 453.9398803710938 369.0263061523438 455.3257446289063 C 363.6932067871094 456.7684326171875 358.1199951171875 457.5 352.4615478515625 457.5 Z" stroke="none"/>
      <path d="M 226.9999542236328 79.8660888671875 C 215.7257995605469 79.8660888671875 204.7335052490234 82.84555053710938 195.2113952636719 88.48233032226563 C 190.2606506347656 91.41302490234375 185.7587890625 95.03524780273438 181.8309631347656 99.24838256835938 C 177.7143859863281 103.6638488769531 174.2213439941406 108.7390747070313 171.4487915039063 114.3330993652344 L 45.98724365234375 367.4669799804688 C 43.49398803710938 372.497314453125 41.68881225585938 377.7737426757813 40.6217041015625 383.149658203125 C 39.59695434570313 388.3123779296875 39.2467041015625 393.5916748046875 39.58074951171875 398.8407897949219 C 40.2255859375 408.9728393554688 43.43264770507813 418.9478759765625 48.85519409179688 427.6875305175781 C 54.27774047851563 436.4271850585938 61.79110717773438 443.7303771972656 70.5828857421875 448.8075866699219 C 75.1376953125 451.4379272460938 80.02340698242188 453.4685974121094 85.104248046875 454.8430786132813 C 90.39483642578125 456.2742919921875 95.92410278320313 457 101.5384521484375 457 L 352.4615478515625 457 C 358.0758972167969 457 363.6051635742188 456.2742919921875 368.895751953125 454.8430786132813 C 373.9765930175781 453.4685363769531 378.8623046875 451.4379272460938 383.4171142578125 448.8075866699219 C 392.2089538574219 443.7303771972656 399.7222595214844 436.4271850585938 405.1448059082031 427.6875305175781 C 410.5673522949219 418.9478759765625 413.7744140625 408.9728393554688 414.419189453125 398.8407897949219 C 414.7532348632813 393.5916748046875 414.4030456542969 388.3123779296875 413.3782348632813 383.149658203125 C 412.3111572265625 377.7737426757813 410.5059509277344 372.497314453125 408.0126953125 367.4669799804688 L 282.5511474609375 114.3330993652344 C 279.7785949707031 108.7390747070313 276.2855529785156 103.6638488769531 272.1690063476563 99.24838256835938 C 268.2411499023438 95.03524780273438 263.7393188476563 91.41302490234375 258.7885437011719 88.48233032226563 C 249.2664489746094 82.84555053710938 238.2740936279297 79.8660888671875 226.9999542236328 79.8660888671875 M 226.9999694824219 78.8660888671875 C 249.4373931884766 78.8660888671875 271.8748168945313 90.54037475585938 283.4471435546875 113.8889770507813 L 408.90869140625 367.0228881835938 C 429.6636352539063 408.8984375 399.1983642578125 458 352.4615478515625 458 L 101.5384521484375 458 C 54.8016357421875 458 24.33636474609375 408.8984375 45.09124755859375 367.0228881835938 L 170.5527954101563 113.8889770507813 C 182.1251525878906 90.54037475585938 204.5625610351563 78.8660888671875 226.9999694824219 78.8660888671875 Z" stroke="none" fill="#707070"/>
    </g>
  </g>
</svg>
