<?xml version="1.0" encoding="UTF-8" standalone="no"?>
<svg
   version="1.1"
   viewBox="0.00 0.00 331.00 275.00"
   id="svg6"
   sodipodi:docname="quote.svg"
   inkscape:export-filename="quote.png"
   inkscape:export-xdpi="96"
   inkscape:export-ydpi="96"
   inkscape:version="1.2.2 (732a01da63, 2022-12-09)"
   xmlns:inkscape="http://www.inkscape.org/namespaces/inkscape"
   xmlns:sodipodi="http://sodipodi.sourceforge.net/DTD/sodipodi-0.dtd"
   xmlns="http://www.w3.org/2000/svg"
   xmlns:svg="http://www.w3.org/2000/svg">
  <defs
     id="defs10" />
  <sodipodi:namedview
     id="namedview8"
     pagecolor="#ffffff"
     bordercolor="#000000"
     borderopacity="0.25"
     inkscape:showpageshadow="2"
     inkscape:pageopacity="0.0"
     inkscape:pagecheckerboard="0"
     inkscape:deskcolor="#d1d1d1"
     showgrid="false"
     inkscape:zoom="0.85818182"
     inkscape:cx="164.88347"
     inkscape:cy="137.5"
     inkscape:window-width="1280"
     inkscape:window-height="961"
     inkscape:window-x="-8"
     inkscape:window-y="-8"
     inkscape:window-maximized="1"
     inkscape:current-layer="svg6" />
  <path
     fill="#777777"
     d="   M 102.22 136.86   L 74.75 136.87   Q 74.08 136.87 74.07 136.20   Q 73.77 93.72 74.31 54.32   Q 74.33 52.81 75.82 53.04   Q 79.62 53.64 83.32 53.64   Q 120.54 53.62 157.64 53.63   A 1.11 1.11 0.0 0 1 158.75 54.74   L 158.69 148.57   A 1.50 1.49 -20.0 0 1 158.15 149.72   L 100.69 197.35   A 1.91 1.90 47.6 0 1 98.13 197.23   L 71.74 170.88   A 1.25 1.24 -45.2 0 1 71.74 169.11   L 102.79 138.24   Q 104.19 136.85 102.22 136.86   Z   M 124.07 120.32   A 0.69 0.68 -74.1 0 1 124.39 120.90   L 124.32 139.80   Q 124.32 140.36 123.92 140.75   L 94.56 169.97   Q 94.36 170.17 94.57 170.36   L 99.88 175.13   Q 100.08 175.32 100.30 175.14   L 139.73 141.97   A 3.30 3.27 70.1 0 0 140.89 139.46   L 140.85 71.26   A 1.09 1.09 0.0 0 0 139.76 70.17   L 92.18 70.14   Q 91.04 70.14 91.04 71.28   L 91.01 118.94   A 0.99 0.99 0.0 0 0 92.01 119.93   Q 106.60 119.76 122.75 119.98   Q 123.53 119.99 124.07 120.32   Z"
     id="path2" />
  <path
     fill="#777777"
     d="   M 203.31 137.43   A 0.51 0.51 0.0 0 0 202.81 136.81   L 174.62 136.89   Q 173.96 136.89 173.97 136.24   L 174.18 54.58   A 0.98 0.98 0.0 0 1 175.17 53.61   L 257.10 53.65   A 0.45 0.45 0.0 0 1 257.55 54.10   L 257.58 148.31   A 2.31 2.30 70.4 0 1 256.74 150.09   L 199.63 197.43   A 1.60 1.60 0.0 0 1 197.55 197.39   Q 194.19 194.41 191.16 191.15   C 184.92 184.44 178.52 177.98 171.90 171.29   Q 170.78 170.15 171.90 169.02   Q 187.14 153.61 202.85 138.24   Q 203.20 137.90 203.31 137.43   Z   M 223.96 120.28   A 0.64 0.63 12.2 0 1 224.34 120.86   L 224.25 139.46   Q 224.25 140.38 223.60 141.02   L 194.59 169.94   Q 194.48 170.05 194.59 170.16   Q 197.14 172.90 199.98 175.07   Q 200.14 175.20 200.31 175.06   L 239.67 142.04   A 3.53 3.49 70.4 0 0 240.92 139.37   L 241.11 71.51   Q 241.12 70.15 239.76 70.15   L 191.97 70.13   A 0.88 0.88 0.0 0 0 191.09 71.00   L 190.97 118.77   A 1.21 1.20 89.5 0 0 192.19 119.98   Q 207.57 119.77 222.52 119.98   Q 223.27 119.99 223.96 120.28   Z"
     id="path4" />
</svg>
